<svg width="132" height="132" viewBox="0 0 132 132" fill="none" xmlns="http://www.w3.org/2000/svg">
<circle cx="66" cy="66" r="66" fill="url(#paint0_linear_2005_2)"/>
<path fill-rule="evenodd" clip-rule="evenodd" d="M100.57 72.1303C98.6958 72.111 96.8743 72.7474 95.4204 73.9296V66.4779C95.4248 65.7176 95.2049 64.9728 94.7883 64.3367L91.076 58.6035C90.7216 58.0487 90.2323 57.5928 89.6539 57.2784C89.0754 56.964 88.4267 56.8015 87.7683 56.806H81.5708C79.3449 53.0413 75.831 50.21 71.6791 48.8357C67.5271 47.4613 63.0179 47.637 58.9854 49.3301L44.7882 50.9045C44.0469 50.9832 43.347 51.2855 42.7815 51.7712C42.216 52.257 41.8117 52.9033 41.6221 53.6243L40.2542 58.7307C40.0681 59.4135 40.083 60.1355 40.2973 60.81C40.5115 61.4844 40.9159 62.0827 41.4619 62.5329L40.4527 66.2989V70.6535C39.9877 70.9155 39.614 71.3137 39.3819 71.7944L37.7668 75.1267C37.0073 74.1792 36.042 73.417 34.9442 72.8979C33.8464 72.3788 32.6449 72.1164 31.4306 72.1306C31.1114 72.1306 30.7953 72.0678 30.5004 71.9457C30.2055 71.8235 29.9375 71.6445 29.7118 71.4188C29.4861 71.1931 29.3071 70.9251 29.1849 70.6302C29.0628 70.3353 29 70.0192 29 69.7V62.3C29 61.9808 29.0628 61.6648 29.185 61.3699C29.3071 61.075 29.4861 60.8071 29.7118 60.5814C29.9375 60.3557 30.2054 60.1767 30.5003 60.0545C30.7952 59.9324 31.1113 59.8695 31.4304 59.8696C38.7168 59.8696 42.3726 51.0423 37.2206 45.8905C36.7648 45.4346 36.5086 44.8163 36.5086 44.1715C36.5086 43.5268 36.7648 42.9085 37.2206 42.4526L42.4534 37.2199C42.9093 36.764 43.5276 36.5079 44.1723 36.5079C44.817 36.5079 45.4354 36.764 45.8913 37.2199C51.0431 42.3718 59.8703 38.716 59.8703 31.4297C59.8705 30.7853 60.1265 30.1674 60.5821 29.7118C61.0378 29.2562 61.6557 29.0002 62.3 29H69.7C70.0192 29 70.3352 29.0628 70.6301 29.185C70.925 29.3071 71.1929 29.4861 71.4186 29.7118C71.6443 29.9375 71.8233 30.2054 71.9455 30.5003C72.0676 30.7952 72.1305 31.1113 72.1304 31.4304C72.1304 38.7168 80.9577 42.3726 86.1095 37.2206C86.5654 36.7648 87.1837 36.5086 87.8285 36.5086C88.4732 36.5086 89.0915 36.7648 89.5474 37.2206L94.7801 42.4534C95.236 42.9093 95.4921 43.5276 95.4921 44.1723C95.4921 44.817 95.236 45.4354 94.7801 45.8913C89.6282 51.0431 93.284 59.8703 100.57 59.8703C101.215 59.8705 101.833 60.1265 102.288 60.5821C102.744 61.0378 103 61.6557 103 62.3V69.7C103 70.0192 102.937 70.3352 102.815 70.6301C102.693 70.925 102.514 71.1929 102.288 71.4186C102.062 71.6443 101.795 71.8233 101.5 71.9455C101.205 72.0676 100.889 72.1305 100.57 72.1304V72.1303ZM47.3494 72.4334C46.5566 72.4334 45.7816 72.6685 45.1225 73.1089C44.4633 73.5493 43.9495 74.1754 43.6462 74.9078C43.3428 75.6402 43.2634 76.4462 43.4181 77.2237C43.5727 78.0012 43.9545 78.7155 44.5151 79.276C45.0756 79.8366 45.7899 80.2184 46.5674 80.373C47.3449 80.5277 48.1509 80.4483 48.8833 80.1449C49.6157 79.8415 50.2417 79.3278 50.6822 78.6686C51.1226 78.0095 51.3577 77.2345 51.3577 76.4417C51.3577 75.3786 50.9354 74.3591 50.1837 73.6074C49.432 72.8557 48.4125 72.4334 47.3494 72.4334ZM47.3494 77.49C47.142 77.49 46.9394 77.4286 46.767 77.3134C46.5946 77.1982 46.4602 77.0344 46.3808 76.8429C46.3015 76.6513 46.2807 76.4405 46.3212 76.2372C46.3616 76.0338 46.4615 75.847 46.6081 75.7004C46.7547 75.5538 46.9415 75.454 47.1449 75.4135C47.3482 75.3731 47.559 75.3938 47.7506 75.4732C47.9421 75.5525 48.1058 75.6869 48.221 75.8593C48.3362 76.0317 48.3977 76.2344 48.3977 76.4417C48.3977 76.7197 48.2872 76.9863 48.0906 77.1829C47.894 77.3795 47.6274 77.4899 47.3494 77.4899V77.49ZM57.6955 72.4334C56.9027 72.4334 56.1278 72.6685 55.4686 73.1089C54.8094 73.5493 54.2957 74.1754 53.9923 74.9078C53.6889 75.6402 53.6095 76.4462 53.7642 77.2237C53.9189 78.0012 54.3006 78.7155 54.8612 79.276C55.4218 79.8366 56.136 80.2184 56.9135 80.373C57.6911 80.5277 58.497 80.4483 59.2294 80.1449C59.9619 79.8415 60.5879 79.3278 61.0283 78.6686C61.4688 78.0095 61.7038 77.2345 61.7038 76.4417C61.7038 75.9153 61.6002 75.3941 61.3987 74.9078C61.1973 74.4215 60.902 73.9796 60.5298 73.6074C60.1576 73.2352 59.7157 72.9399 59.2294 72.7385C58.7431 72.5371 58.2219 72.4334 57.6955 72.4334ZM57.6955 77.49C57.4882 77.49 57.2855 77.4286 57.1131 77.3134C56.9407 77.1982 56.8063 77.0344 56.727 76.8429C56.6476 76.6513 56.6269 76.4405 56.6673 76.2372C56.7078 76.0338 56.8076 75.847 56.9542 75.7004C57.1008 75.5538 57.2876 75.454 57.491 75.4135C57.6943 75.3731 57.9051 75.3938 58.0967 75.4732C58.2882 75.5525 58.452 75.6869 58.5672 75.8593C58.6824 76.0317 58.7438 76.2344 58.7438 76.4417C58.7438 76.7197 58.6333 76.9863 58.4367 77.1829C58.2401 77.3795 57.9735 77.4899 57.6955 77.4899V77.49ZM85.9183 72.4334C85.1256 72.4334 84.3506 72.6685 83.6914 73.1089C83.0323 73.5493 82.5185 74.1754 82.2151 74.9078C81.9117 75.6402 81.8324 76.4462 81.987 77.2237C82.1417 78.0012 82.5234 78.7155 83.084 79.276C83.6446 79.8366 84.3588 80.2184 85.1363 80.373C85.9139 80.5277 86.7198 80.4483 87.4523 80.1449C88.1847 79.8415 88.8107 79.3278 89.2511 78.6686C89.6916 78.0095 89.9267 77.2345 89.9267 76.4417C89.9267 75.3786 89.5044 74.3591 88.7527 73.6074C88.0009 72.8557 86.9814 72.4334 85.9183 72.4334ZM85.9183 77.49C85.711 77.49 85.5083 77.4286 85.3359 77.3134C85.1635 77.1982 85.0291 77.0344 84.9498 76.8429C84.8705 76.6513 84.8497 76.4405 84.8901 76.2372C84.9306 76.0338 85.0304 75.847 85.177 75.7004C85.3237 75.5538 85.5105 75.454 85.7138 75.4135C85.9172 75.3731 86.128 75.3938 86.3195 75.4732C86.5111 75.5525 86.6748 75.6869 86.79 75.8593C86.9052 76.0317 86.9667 76.2344 86.9667 76.4417C86.9666 76.7197 86.8562 76.9863 86.6596 77.1829C86.463 77.3795 86.1963 77.4899 85.9183 77.4899V77.49ZM52.9473 68.3076L57.4027 51.6771L48.5733 52.6561L45.7903 63.0449L52.9473 68.3076ZM43.9261 61.6742L46.2741 52.9113L45.0261 53.05C44.7165 53.0808 44.4239 53.2061 44.1879 53.4088C43.9519 53.6115 43.784 53.8819 43.7069 54.1833L42.3387 59.2897C42.2547 59.5893 42.2649 59.9074 42.3679 60.201C42.4709 60.4945 42.6617 60.7493 42.9145 60.9307L43.9261 61.6747V61.6742ZM59.4854 52.2349L55.03 68.8655L67.4072 67.4934C67.7168 67.4627 68.0095 67.3374 68.2454 67.1347C68.4814 66.932 68.6494 66.6615 68.7264 66.3601L70.0947 61.2538C70.1786 60.9543 70.1684 60.6361 70.0654 60.3425C69.9624 60.0489 69.7716 59.7942 69.5189 59.6127L59.486 52.2354L59.4854 52.2349ZM75.0033 70.3174V58.7354C75.0037 58.6229 74.963 58.5142 74.889 58.4296C74.815 58.3449 74.7127 58.2901 74.6012 58.2754C74.4897 58.2608 74.3767 58.2872 74.2833 58.3498C74.1899 58.4124 74.1225 58.5069 74.0938 58.6156L72.7611 63.589L71.7729 63.3241L71.2152 65.4054L72.2032 65.6702L71.8505 66.9868V70.3168L75.0033 70.3174ZM62.4167 72.4758C63.0583 73.2398 63.5051 74.148 63.7189 75.1225C63.9327 76.097 63.9071 77.1088 63.6443 78.0712H76.3477V72.4758H62.4167ZM44.9223 68.2246C44.7927 68.1347 44.6944 68.0067 44.6409 67.8583C44.5875 67.71 44.5815 67.5486 44.624 67.3968L45.1906 65.283L43.3264 63.9121L42.6108 66.5831V72.4758H41.7399C41.6528 72.4746 41.5672 72.4986 41.4934 72.5449C41.4196 72.5911 41.3606 72.6576 41.3236 72.7365L39.06 77.4066C39.0258 77.4772 39.0101 77.5552 39.0143 77.6335C39.0186 77.7117 39.0426 77.7876 39.0842 77.854C39.1258 77.9204 39.1836 77.9752 39.2522 78.0131C39.3208 78.0511 39.3979 78.071 39.4762 78.0709H41.4007C41.1507 77.1558 41.115 76.1953 41.2966 75.2642C41.4781 74.333 41.8719 73.4563 42.4474 72.7021C43.0229 71.9479 43.7645 71.3366 44.6147 70.9156C45.4649 70.4947 46.4007 70.2755 47.3494 70.275C47.5133 70.275 47.6755 70.2814 47.8361 70.2942L44.9223 68.2246ZM92.9761 65.5105L89.2637 59.7772C89.1053 59.5247 88.8844 59.3173 88.6225 59.1749C88.3606 59.0325 88.0664 58.96 87.7683 58.9643H79.2773C79.073 58.9647 78.8772 59.046 78.7327 59.1905C78.5882 59.335 78.5069 59.5308 78.5065 59.7351V78.0712H79.9692C79.7193 77.1564 79.6839 76.1962 79.8656 75.2654C80.0472 74.3345 80.4412 73.4582 81.0167 72.7044C81.5922 71.9506 82.3339 71.3397 83.184 70.9192C84.034 70.4988 84.9696 70.28 85.918 70.28C86.8664 70.28 87.802 70.4988 88.6521 70.9192C89.5022 71.3397 90.2438 71.9506 90.8193 72.7044C91.3949 73.4582 91.7888 74.3345 91.9705 75.2654C92.1522 76.1962 92.1167 77.1564 91.8669 78.0712C92.0494 78.0728 92.2304 78.0381 92.3995 77.9694C92.5685 77.9007 92.7223 77.7991 92.852 77.6707C92.9817 77.5423 93.0847 77.3895 93.1551 77.221C93.2254 77.0526 93.2618 76.872 93.2621 76.6895V66.4779C93.2663 66.134 93.1666 65.7968 92.9759 65.5105H92.9761ZM82.3642 65.5013V61.7999H87.0313L89.4281 65.5013H82.3642ZM92.3728 80.1949C92.3466 81.2931 92.5467 82.385 92.9608 83.4025C93.3748 84.4201 93.9939 85.3415 94.7795 86.1093C95.2354 86.5653 95.4915 87.1836 95.4915 87.8283C95.4915 88.473 95.2354 89.0914 94.7795 89.5473L89.5468 94.78C89.0909 95.2359 88.4726 95.492 87.8278 95.492C87.1831 95.492 86.5648 95.2359 86.1089 94.78C80.9571 89.628 72.1298 93.2838 72.1298 100.57C72.1297 101.215 71.8737 101.833 71.418 102.288C70.9624 102.744 70.3444 103 69.7 103H62.3C61.9808 103 61.6648 102.937 61.3699 102.815C61.075 102.693 60.8071 102.514 60.5814 102.288C60.3557 102.062 60.1767 101.795 60.0545 101.5C59.9324 101.205 59.8695 100.889 59.8696 100.57C59.8696 93.2742 51.0489 89.621 45.8905 94.7794C45.4346 95.2352 44.8163 95.4914 44.1715 95.4914C43.5268 95.4914 42.9085 95.2352 42.4526 94.7794L37.2206 89.5466C36.7648 89.0907 36.5086 88.4724 36.5086 87.8277C36.5086 87.183 36.7648 86.5646 37.2206 86.1087C38.002 85.345 38.6187 84.4294 39.0327 83.4183C39.4468 82.4072 39.6495 81.322 39.6283 80.2296H42.483C43.0595 80.9704 43.7976 81.5698 44.641 81.9821C45.4843 82.3944 46.4106 82.6087 47.3494 82.6087C48.2881 82.6087 49.2145 82.3944 50.0578 81.9821C50.9011 81.5698 51.6392 80.9704 52.2158 80.2296H52.8291C53.5075 81.1005 54.4071 81.7736 55.4341 82.1786C56.461 82.5836 57.5779 82.7058 58.6681 82.5324C61.6698 83.858 64.9751 84.344 68.2313 83.9384C71.4875 83.5329 74.5725 82.251 77.1574 80.2296H81.0516C81.6282 80.9704 82.3663 81.5698 83.2096 81.9821C84.0529 82.3944 84.9793 82.6087 85.918 82.6087C86.8568 82.6087 87.7831 82.3944 88.6264 81.9821C89.4698 81.5698 90.2079 80.9704 90.7845 80.2296H91.8801C92.0449 80.2295 92.2096 80.2179 92.3728 80.1949Z" fill="white"/>
<defs>
<linearGradient id="paint0_linear_2005_2" x1="66" y1="0" x2="66" y2="132" gradientUnits="userSpaceOnUse">
<stop stop-color="#9F001B"/>
<stop offset="1" stop-color="#1B2556"/>
</linearGradient>
</defs>
</svg>
