<svg width="132" height="132" viewBox="0 0 132 132" fill="none" xmlns="http://www.w3.org/2000/svg">
<circle cx="66" cy="66" r="66" fill="url(#paint0_linear_2005_5)"/>
<path fill-rule="evenodd" clip-rule="evenodd" d="M65.888 48.1719C67.217 48.1719 68.299 49.2664 68.299 50.6127V62.4292H70.8342V56.4031C70.8342 55.8688 71.2613 55.4346 71.7903 55.4346H75.9366C75.6339 48.2817 74.1981 41.6309 71.9513 37.0608C71.8111 36.7767 71.819 36.441 71.9704 36.1617L74.7096 31.1203C74.8467 30.8685 74.8435 30.6167 74.6985 30.3713C74.5551 30.1243 74.3384 30 74.0563 30H31.9288C31.6468 30 31.4301 30.1259 31.2866 30.3713C31.1432 30.6183 31.1384 30.8701 31.2755 31.1203L34.0163 36.1617C34.1677 36.4394 34.1741 36.7767 34.0338 37.0608C29.3075 46.6755 28.0279 65.8466 34.0673 81.284C34.1725 81.5536 34.1534 81.8554 34.0147 82.1073L31.2755 87.147C31.1384 87.3972 31.1432 87.6507 31.2866 87.8961C31.4301 88.143 31.6468 88.2673 31.9288 88.2673H59.1268V87.3972L54.0578 71.3594H40.0971C38.7681 71.3594 37.6862 70.2633 37.6862 68.9186V50.6127C37.6862 49.2664 38.7681 48.1719 40.0971 48.1719H65.888ZM91.1658 90.6855C93.5895 90.6855 95.5606 92.684 95.5606 95.1377C95.5606 97.593 93.5895 99.5899 91.1658 99.5899C88.742 99.5899 86.7709 97.593 86.7709 95.1377C86.7709 92.684 88.742 90.6855 91.1658 90.6855ZM91.1658 88.2754C87.4306 88.2754 84.3918 91.3538 84.3918 95.1377C84.3918 98.9216 87.4306 102 91.1658 102C94.9009 102 97.9398 98.9216 97.9398 95.1377C97.9398 91.3538 94.9009 88.2754 91.1658 88.2754ZM66.4043 98.2258C65.9884 100.449 64.1383 102 61.9058 102H61.039V88.2173H68.2767L66.4043 98.2258ZM102 71.361L90.8248 86.2786H60.7808L56.0656 71.361H102ZM79.3675 62.4292V62.4324C79.3499 62.4308 79.3324 62.4292 79.3149 62.4292H72.7464V57.3717H85.9359V62.4292H79.3675ZM80.271 64.3664V69.4239H93.513V64.3664H80.271ZM78.3588 64.3664V69.4239H65.1677V64.3664H78.3588ZM66.3868 50.6127V62.4292H64.2116C63.6842 62.4292 63.2555 62.8635 63.2555 63.3978V69.4239H55.4537L52.4085 59.7899C52.2811 59.3895 51.913 59.1167 51.4971 59.1167H43.2985C42.7694 59.1167 42.3424 59.551 42.3424 60.0853C42.3424 60.6212 42.7694 61.0539 43.2985 61.0539H50.7991L53.4459 69.4239H40.0971C39.8262 69.4239 39.5984 69.193 39.5984 68.9202V50.6127C39.5984 50.3399 39.8262 50.1091 40.0971 50.1091H65.888C66.1589 50.1091 66.3868 50.3399 66.3868 50.6127ZM37.3276 80.9627H39.5314C40.0589 80.9627 40.4875 81.397 40.4875 81.9313C40.4875 82.4656 40.0589 82.8999 39.5314 82.8999H37.3276C36.8002 82.8999 36.3715 82.4656 36.3715 81.9313C36.3715 81.3954 36.8002 80.9627 37.3276 80.9627ZM47.0368 80.9627H49.2391C49.7681 80.9627 50.1952 81.397 50.1952 81.9313C50.1952 82.4656 49.7681 82.8999 49.2391 82.8999H47.0368C46.5094 82.8999 46.0807 82.4656 46.0807 81.9313C46.0807 81.3954 46.5094 80.9627 47.0368 80.9627ZM39.5314 37.889H37.3276C36.8002 37.889 36.3715 37.4563 36.3715 36.9204C36.3715 36.3861 36.8002 35.9518 37.3276 35.9518H39.5314C40.0589 35.9518 40.4875 36.3861 40.4875 36.9204C40.4875 37.4547 40.0589 37.889 39.5314 37.889ZM49.2391 37.889H47.0368C46.5094 37.889 46.0807 37.4563 46.0807 36.9204C46.0807 36.3861 46.5094 35.9518 47.0368 35.9518H49.2391C49.7681 35.9518 50.1952 36.3861 50.1952 36.9204C50.1952 37.4547 49.7681 37.889 49.2391 37.889ZM68.6575 37.889H66.4553C65.9262 37.889 65.4992 37.4563 65.4992 36.9204C65.4992 36.3861 65.9262 35.9518 66.4553 35.9518H68.6575C69.185 35.9518 69.6136 36.3861 69.6136 36.9204C69.6136 37.4547 69.185 37.889 68.6575 37.889ZM58.9483 37.889H56.7461C56.2186 37.889 55.79 37.4563 55.79 36.9204C55.79 36.3861 56.2186 35.9518 56.7461 35.9518H58.9483C59.4757 35.9518 59.9044 36.3861 59.9044 36.9204C59.9044 37.4547 59.4757 37.889 58.9483 37.889Z" fill="white"/>
<defs>
<linearGradient id="paint0_linear_2005_5" x1="66" y1="0" x2="66" y2="132" gradientUnits="userSpaceOnUse">
<stop stop-color="#9F001B"/>
<stop offset="1" stop-color="#1B2556"/>
</linearGradient>
</defs>
</svg>
