<svg width="132" height="132" viewBox="0 0 132 132" fill="none" xmlns="http://www.w3.org/2000/svg">
<circle cx="66" cy="66" r="66" fill="url(#paint0_linear_2005_6)"/>
<path fill-rule="evenodd" clip-rule="evenodd" d="M32.4688 87.1896L59.8539 87.1895L55.1178 81.9471L57.0649 72.4959C56.4639 73.2093 54.3995 76.579 53.2633 74.5495L47.2946 63.9C38.8341 67.936 32.6163 75.923 31.0208 85.4775C30.8702 86.3787 31.5562 87.1896 32.4688 87.1896ZM87.3887 66.8818C90.2472 69.0241 89.5989 68.7878 93.1639 68.9864C94.5332 69.0627 95.6454 69.9969 95.9583 71.3339C96.7727 74.8146 96.4278 74.2164 99.0312 76.6628C100.031 77.6025 100.283 79.0339 99.6646 80.2594C98.0539 83.4499 98.1737 82.7697 98.5974 86.3191C98.7601 87.6826 98.0342 88.9413 96.7735 89.4818C93.4912 90.8892 94.0198 90.4453 92.0654 93.4371C91.3147 94.5862 89.9506 95.0834 88.6378 94.6863C85.2199 93.6521 85.9096 93.6521 82.4919 94.6863C81.1791 95.0834 79.815 94.5863 79.0643 93.4371C77.11 90.4452 77.6385 90.8892 74.3563 89.4818C73.0956 88.9413 72.3697 87.6824 72.5325 86.3191C72.9562 82.7696 73.0759 83.4497 71.4652 80.2594C70.8466 79.0339 71.0986 77.6025 72.0986 76.6628C74.7022 74.2163 74.3572 74.8146 75.1716 71.3339C75.4843 69.9969 76.5965 69.0627 77.9658 68.9864C81.5308 68.7879 80.8827 69.0242 83.741 66.8818C84.839 66.059 86.2907 66.059 87.3887 66.8818ZM85.5648 72.9173C81.3583 72.9173 77.9483 76.3314 77.9483 80.543C77.9483 84.7545 81.3583 88.1687 85.5648 88.1687C89.7714 88.1687 93.1814 84.7545 93.1814 80.543C93.1814 76.3314 89.7714 72.9173 85.5648 72.9173ZM89.1124 97.1544L91.2925 101.843C91.385 102.042 91.6624 102.054 91.7726 101.865L93.8676 98.255L97.9754 98.9735C98.1917 99.0114 98.3605 98.791 98.2677 98.5917L95.482 92.6011C95.2538 92.739 94.2519 94.3855 94.0308 94.7239C92.9316 96.4065 91.0454 97.3065 89.1124 97.1544ZM82.0174 97.1542C80.0844 97.3063 78.1981 96.4065 77.099 94.7239C76.8781 94.3856 75.876 92.739 75.6478 92.6012L72.8621 98.5919C72.7695 98.7911 72.9383 99.0115 73.1544 98.9736L77.2622 98.2551L79.3572 101.865C79.4674 102.055 79.7447 102.042 79.8373 101.843L82.0174 97.1542ZM59.8541 30C68.0178 30 74.6359 36.626 74.6359 44.7995C74.6359 52.9729 68.0178 59.599 59.8541 59.599C51.6904 59.599 45.0723 52.9729 45.0723 44.7995C45.0723 36.6259 51.6904 30 59.8541 30ZM59.8541 87.1896H70.1838C70.1498 86.8134 70.1543 86.4288 70.2007 86.0401C70.5683 82.9606 70.7669 84.0879 69.3694 81.32C68.2832 79.1685 68.7359 76.5983 70.4916 74.9486C72.7503 72.8261 72.1788 73.8175 72.8853 70.7977C73.3809 68.6795 75.044 67.1133 77.1294 66.7243C75.6562 65.6421 74.0783 64.6945 72.4133 63.9003L66.4446 74.5498C66.0299 75.2907 64.9988 75.3518 64.4924 74.6918L62.6429 72.4961L64.5901 81.9474L59.8541 87.1896ZM70.244 62.9728L65.2268 71.9248L61.5361 67.5435L68.2888 62.3071C68.9509 62.5065 69.6026 62.7289 70.244 62.9728ZM65.3878 61.5922L59.8539 65.8834L54.3201 61.5922C56.1118 61.2479 57.9619 61.0684 59.8539 61.0684C61.746 61.0682 63.5959 61.2484 65.3878 61.5922ZM51.4189 62.3071L58.1716 67.5435L54.4811 71.9248L49.4639 62.9728C50.1051 62.7286 50.757 62.5066 51.4189 62.3071Z" fill="white"/>
<defs>
<linearGradient id="paint0_linear_2005_6" x1="66" y1="0" x2="66" y2="132" gradientUnits="userSpaceOnUse">
<stop stop-color="#9F001B"/>
<stop offset="1" stop-color="#1B2556"/>
</linearGradient>
</defs>
</svg>
