<svg width="93" height="93" viewBox="0 0 93 93" fill="none" xmlns="http://www.w3.org/2000/svg">
<rect width="92.9925" height="92.9925" rx="26" fill="#FFF7E5"/>
<path d="M60.8329 35.092H58.8336C58.5874 34.276 58.2603 33.4873 57.8562 32.7349L59.2707 31.3204C59.6566 30.9345 59.6566 30.3088 59.2707 29.9228L55.3945 26.0466C55.2092 25.8613 54.9578 25.7571 54.6957 25.7571C54.4336 25.7571 54.1823 25.8612 53.9969 26.0466L52.5825 27.461C51.83 27.0569 51.0415 26.7299 50.2254 26.4837V24.4844C50.2254 23.9386 49.7829 23.4961 49.2371 23.4961H43.7553C43.2095 23.4961 42.7671 23.9386 42.7671 24.4844V26.4837C41.9509 26.7299 41.1624 27.0569 40.4099 27.461L38.9955 26.0466C38.8102 25.8612 38.5588 25.7571 38.2967 25.7571C38.0346 25.7571 37.7833 25.8612 37.5979 26.0466L33.7217 29.9228C33.3358 30.3088 33.3358 30.9345 33.7217 31.3204L35.1362 32.7349C34.7321 33.4873 34.405 34.276 34.1588 35.092H32.1593C31.6135 35.092 31.171 35.5345 31.171 36.0803V41.5621C31.171 42.1079 31.6135 42.5503 32.1593 42.5503H34.159C34.4454 43.4973 34.8423 44.4108 35.3435 45.275L37.0534 44.2835C36.5165 43.3577 36.1211 42.3657 35.878 41.3353C35.7728 40.889 35.3745 40.5738 34.9161 40.5738H33.1475V37.0686H34.9161C35.3745 37.0686 35.7727 36.7533 35.878 36.3071C36.146 35.1705 36.5945 34.0887 37.2111 33.0917C37.4523 32.7018 37.3936 32.1972 37.0694 31.873L35.818 30.6215L38.2965 28.143L39.548 29.3944C39.8721 29.7186 40.3768 29.7774 40.7667 29.5361C41.7635 28.9196 42.8453 28.471 43.9821 28.203C44.4283 28.0978 44.7436 27.6995 44.7436 27.2411V25.4727H48.2488V27.2412C48.2488 27.6997 48.5641 28.098 49.0103 28.2032C50.1471 28.4712 51.2289 28.9198 52.2257 29.5363C52.6157 29.7775 53.1202 29.7187 53.4445 29.3946L54.6959 28.1432L57.1744 30.6217L55.923 31.8732C55.5988 32.1974 55.5401 32.7019 55.7813 33.0919C56.3979 34.0888 56.8464 35.1706 57.1144 36.3073C57.2196 36.7534 57.6179 37.0688 58.0764 37.0688H59.8449V40.574H58.0764C57.6179 40.574 57.2197 40.8892 57.1144 41.3355C56.8714 42.3659 56.476 43.3579 55.9391 44.2837L57.6489 45.2752C58.15 44.411 58.547 43.4974 58.8335 42.5505H60.8331C61.3789 42.5505 61.8214 42.108 61.8214 41.5622V36.0805C61.8212 35.5345 61.3787 35.092 60.8329 35.092Z" fill="#F6BA40"/>
<path d="M46.4961 31.2266C42.3086 31.2266 38.9017 34.6333 38.9017 38.821C38.9017 40.2546 39.305 41.6525 40.0681 42.8635L41.7403 41.8098C41.1764 40.9147 40.8783 39.8812 40.8783 38.8209C40.8783 35.7232 43.3984 33.203 46.4961 33.203C49.5939 33.203 52.114 35.7232 52.114 38.8209C52.114 39.8811 51.8159 40.9147 51.2519 41.8098L52.9242 42.8635C53.6872 41.6525 54.0905 40.2546 54.0905 38.821C54.0905 34.6333 50.6837 31.2266 46.4961 31.2266Z" fill="#F6BA40"/>
<path d="M68.4181 61.3737V58.6102C68.4181 56.5885 66.7732 54.9436 64.7515 54.9436H64.108C62.9884 48.9329 58.84 43.8158 53.043 41.5407C52.9348 40.8528 52.6316 40.2022 52.1595 39.6733C51.4668 38.8972 50.4729 38.4521 49.4326 38.4521H43.5599C42.5196 38.4521 41.5257 38.8972 40.833 39.6733C40.3609 40.2022 40.0577 40.8529 39.9495 41.5407C34.1525 43.8158 30.004 48.9329 28.8845 54.9436H28.241C26.2192 54.9436 24.5743 56.5885 24.5743 58.6102V61.3737C23.9117 61.9917 23.4962 62.8714 23.4962 63.8468C23.4962 65.7122 25.0139 67.2298 26.8792 67.2298H30.7128C31.7542 67.2298 32.7485 67.5555 33.5881 68.1715C34.7693 69.038 36.1679 69.4961 37.6328 69.4961H55.3598C56.8247 69.4961 58.2233 69.038 59.4043 68.1715C60.2439 67.5554 61.2382 67.2298 62.2796 67.2298H66.1132C67.9786 67.2298 69.4962 65.7122 69.4962 63.8468C69.4962 62.8714 69.0808 61.9917 68.4181 61.3737ZM64.7515 56.9202C65.6834 56.9202 66.4415 57.6783 66.4415 58.6102V60.48C66.3334 60.4696 66.224 60.4639 66.1132 60.4639H64.4109V58.2196C64.4109 57.7836 64.3943 57.3503 64.363 56.9202H64.7515V56.9202ZM40.055 43.6373L41.291 54.5011C41.3528 55.0434 41.8423 55.4332 42.3847 55.3713C42.927 55.3096 43.3166 54.82 43.2549 54.2777L41.8919 42.2974C41.8371 41.8157 41.9847 41.3512 42.3075 40.9896C42.6303 40.628 43.0751 40.4288 43.5599 40.4288H49.4326C49.9174 40.4288 50.3622 40.628 50.685 40.9896C51.0078 41.3512 51.1554 41.8157 51.1006 42.2974L49.7376 54.2777C49.6759 54.82 50.0655 55.3096 50.6078 55.3713C50.6458 55.3757 50.6835 55.3777 50.7208 55.3777C51.2165 55.3777 51.6441 55.0054 51.7015 54.5011L52.9376 43.6373C58.6663 46.1679 62.4344 51.8786 62.4344 58.2196V60.4639H30.5581V58.2196C30.5581 51.8786 34.3263 46.1679 40.055 43.6373ZM26.5509 58.6102C26.5509 57.6783 27.309 56.9202 28.241 56.9202H28.6293C28.5981 57.3502 28.5815 57.7835 28.5815 58.2195V60.4638H26.8792C26.7684 60.4638 26.659 60.4695 26.5509 60.4799V58.6102ZM66.1132 65.2533H62.2796C60.8147 65.2533 59.4161 65.7113 58.235 66.5779C57.3953 67.1939 56.4011 67.5196 55.3597 67.5196H37.6328C36.5914 67.5196 35.5971 67.1939 34.7575 66.5778C33.5764 65.7113 32.1778 65.2533 30.7129 65.2533H26.8793C26.1038 65.2533 25.4729 64.6224 25.4729 63.8468C25.4729 63.0713 26.1038 62.4404 26.8793 62.4404H66.1133C66.8888 62.4404 67.5197 63.0713 67.5197 63.8468C67.5197 64.6224 66.8888 65.2533 66.1132 65.2533Z" fill="#F6BA40"/>
</svg>
