<svg width="93" height="93" viewBox="0 0 93 93" fill="none" xmlns="http://www.w3.org/2000/svg">
<rect width="92.9925" height="92.9925" rx="26" fill="#FFF7E5"/>
<path d="M38.2895 25.2534C37.836 24.1696 36.8492 23.4961 35.7143 23.4961C34.5793 23.4961 33.5925 24.1696 33.1383 25.2549L26.6048 40.9876C26.2174 41.9198 26.3188 42.9749 26.8743 43.8087C27.3962 44.5914 28.2565 45.0586 29.1736 45.0586H33.558V55.8418C32.6857 56.4981 32.1205 57.5417 32.1205 58.7148V65.9023C32.1205 67.8839 33.7327 69.4961 35.7143 69.4961C37.6958 69.4961 39.308 67.8839 39.308 65.9023V58.7148C39.308 57.5417 38.7428 56.4981 37.8705 55.8418V45.0586H42.2549C43.172 45.0586 44.0316 44.5921 44.5542 43.8094C45.1098 42.9757 45.2111 41.9205 44.8237 40.9883L38.2895 25.2534ZM37.8705 65.9023C37.8705 67.0912 36.9031 68.0586 35.7143 68.0586C34.5254 68.0586 33.558 67.0912 33.558 65.9023V58.7148C33.558 57.9327 33.9769 57.2464 34.602 56.8684C34.6258 56.8562 34.649 56.8431 34.6711 56.8286C34.9804 56.6568 35.336 56.5586 35.7143 56.5586C36.0882 56.5586 36.44 56.6545 36.7469 56.8226C36.7742 56.8412 36.8032 56.8574 36.833 56.8722C37.4545 57.2511 37.8704 57.9354 37.8704 58.7148V65.9023H37.8705ZM35.7143 55.1211C35.4682 55.1211 35.2278 55.1461 34.9955 55.1934V42.9023C34.9955 42.5063 35.3175 42.1836 35.7143 42.1836C36.111 42.1836 36.433 42.5063 36.433 42.9023V55.1934C36.2007 55.1461 35.9603 55.1211 35.7143 55.1211ZM43.3582 43.0109C43.0994 43.399 42.6976 43.6211 42.2549 43.6211H37.8705V42.9023C37.8705 41.7135 36.9031 40.7461 35.7143 40.7461C34.5254 40.7461 33.558 41.7135 33.558 42.9023V43.6211H29.1736C28.7309 43.6211 28.3298 43.399 28.0703 43.0116C27.7814 42.5782 27.7297 42.0283 27.9331 41.5396L34.4658 25.8076C34.6943 25.2606 35.1608 24.9336 35.7143 24.9336C36.2677 24.9336 36.7342 25.2606 36.962 25.8054L43.4954 41.5389C43.6996 42.0269 43.6471 42.5775 43.3582 43.0109Z" fill="#F6BA40" stroke="#F6BA40" stroke-width="0.5"/>
<path d="M34.1862 32.1022C33.8189 31.9505 33.3992 32.1244 33.2461 32.4903L31.6648 36.2982C31.5124 36.6648 31.6864 37.0853 32.0529 37.2376C32.1435 37.275 32.2369 37.293 32.3289 37.293C32.6107 37.293 32.8781 37.1262 32.9931 36.8495L34.5743 33.0416C34.7267 32.675 34.5528 32.2545 34.1862 32.1022Z" fill="#F6BA40" stroke="#F6BA40" stroke-width="0.5"/>
<path d="M35.3112 29.3891C34.946 29.2389 34.5249 29.4114 34.3725 29.7787L34.2352 30.1115C34.0835 30.4788 34.2575 30.8985 34.6248 31.0502C34.7146 31.0875 34.8073 31.1048 34.8993 31.1048C35.1818 31.1048 35.4492 30.938 35.5635 30.6606L35.7007 30.3278C35.8524 29.9605 35.6785 29.5408 35.3112 29.3891Z" fill="#F6BA40" stroke="#F6BA40" stroke-width="0.5"/>
<path d="M65.9019 50.8086H60.1519V48.6523C60.1519 47.7155 59.5509 46.9166 58.7144 46.6198V29.1799C59.7609 28.9396 60.605 28.0656 60.8189 26.926C60.9834 26.0469 60.7563 25.1557 60.1957 24.4808C59.676 23.8555 58.9249 23.4961 58.1329 23.4961H54.984C54.192 23.4961 53.4402 23.8555 52.9205 24.4808C52.3599 25.1557 52.1335 26.0469 52.2981 26.926C52.5106 28.0658 53.3554 28.9399 54.4019 29.18V46.6197C53.5653 46.9165 52.9644 47.7155 52.9644 48.6523V50.8085H47.2144C46.8169 50.8085 46.4956 51.1305 46.4956 51.5273V59.4335C46.4956 64.9823 51.0094 69.496 56.5581 69.496C62.1069 69.496 66.6206 64.9823 66.6206 59.4335V51.5273C66.6206 51.1306 66.2993 50.8086 65.9019 50.8086ZM55.8394 46.4961V29.2461H57.2769V46.4961H55.8394ZM53.7119 26.6615C53.6249 26.2043 53.7413 25.7436 54.0274 25.3986C54.2768 25.0989 54.616 24.9336 54.984 24.9336H58.1322C58.5002 24.9336 58.8401 25.0989 59.0895 25.3986C59.3756 25.7436 59.4913 26.2043 59.4058 26.6615C59.2814 27.3263 58.746 27.8086 58.1329 27.8086H54.984C54.3709 27.8086 53.8355 27.327 53.7119 26.6615ZM54.4019 48.6523C54.4019 48.2563 54.7239 47.9336 55.1206 47.9336H57.9956C58.3924 47.9336 58.7144 48.2563 58.7144 48.6523V50.8086H54.4019V48.6523ZM55.8394 52.2461H57.2769V57.2773C57.2769 57.6734 56.9549 57.9961 56.5581 57.9961C56.1614 57.9961 55.8394 57.6734 55.8394 57.2773V52.2461ZM65.1831 59.4336C65.1831 64.1896 61.3141 68.0586 56.5581 68.0586C51.8021 68.0586 47.9331 64.1896 47.9331 59.4336V52.2461H53.6831H54.4019V57.2773C54.4019 58.4662 55.3693 59.4336 56.5581 59.4336C57.7469 59.4336 58.7144 58.4669 58.7144 57.2773V52.2461H59.4331H65.1831V59.4336Z" fill="#F6BA40" stroke="#F6BA40" stroke-width="0.5"/>
<path d="M58.792 64.7314C58.4276 64.8867 58.2565 65.3093 58.4125 65.6744C58.5282 65.9476 58.7941 66.1121 59.0737 66.1121C59.1679 66.1121 59.2635 66.0942 59.3548 66.0539C59.4899 65.9964 59.6229 65.9353 59.7544 65.8699C60.1095 65.6931 60.2546 65.2619 60.0778 64.9061C59.9017 64.551 59.4719 64.4058 59.114 64.5826C59.0083 64.6358 58.9012 64.6854 58.792 64.7314Z" fill="#F6BA40" stroke="#F6BA40" stroke-width="0.5"/>
<path d="M60.8907 64.2869C61.028 64.4105 61.1998 64.4709 61.3708 64.4709C61.5678 64.4709 61.764 64.3904 61.9063 64.2329C62.4403 63.6378 62.868 62.9644 63.1799 62.2305C63.5551 61.3443 63.7456 60.4034 63.7456 59.4346C63.7456 59.0378 63.4243 58.7158 63.0268 58.7158C62.6293 58.7158 62.3081 59.0378 62.3081 59.4346C62.3081 60.2101 62.1557 60.9619 61.856 61.6692C61.6066 62.2557 61.2637 62.7954 60.8361 63.272C60.5708 63.5674 60.5953 64.0216 60.8907 64.2869Z" fill="#F6BA40" stroke="#F6BA40" stroke-width="0.5"/>
</svg>
