<svg width="93" height="93" viewBox="0 0 93 93" fill="none" xmlns="http://www.w3.org/2000/svg">
<rect width="92.9925" height="92.9925" rx="26" fill="#FFF7E5"/>
<path d="M46.4964 69.4961C46.368 69.4961 46.2396 69.4704 46.1283 69.4105C44.2966 68.4946 28.2556 60.2002 28.2556 51.6662V30.5493C28.2556 30.1128 28.5894 29.7533 29.0174 29.719C37.2947 29.0599 43.218 25.636 46.0171 23.6502C46.3081 23.4447 46.6847 23.4447 46.9758 23.6502C49.7748 25.636 55.7067 29.0599 63.9754 29.7276C64.4034 29.7618 64.7372 30.1213 64.7372 30.5579V51.6576C64.7372 60.1917 48.6963 68.486 46.8645 69.4019C46.7532 69.4704 46.6248 69.4961 46.4964 69.4961ZM29.9076 31.3111V51.6576C29.9076 57.658 40.1536 64.4887 46.4964 67.7328C52.8306 64.4887 63.0852 57.6665 63.0852 51.6576V31.3111C55.5868 30.5579 50.0059 27.7332 46.4964 25.3364C42.9869 27.7332 37.406 30.5579 29.9076 31.3111Z" fill="#F6BA40" stroke="#F6BA40" stroke-width="0.5"/>
<path d="M46.4964 45.6403C43.2095 45.6403 40.5303 42.9611 40.5303 39.6741C40.5303 36.3872 43.2095 33.708 46.4964 33.708C49.7833 33.708 52.4625 36.3872 52.4625 39.6741C52.4625 42.9611 49.7833 45.6403 46.4964 45.6403ZM46.4964 35.36C44.1254 35.36 42.1909 37.2945 42.1909 39.6656C42.1909 42.0366 44.1254 43.9711 46.4964 43.9711C48.8675 43.9711 50.802 42.0366 50.802 39.6656C50.802 37.2945 48.8675 35.36 46.4964 35.36Z" fill="#F6BA40" stroke="#F6BA40" stroke-width="0.5"/>
<path d="M56.2461 55.3901H36.747C36.2848 55.3901 35.9167 55.022 35.9167 54.5598C35.9167 48.7306 40.6588 43.98 46.4966 43.98C52.3258 43.98 57.0764 48.7221 57.0764 54.5598C57.0764 55.0135 56.7083 55.3901 56.2461 55.3901ZM37.6116 53.7295H55.373C54.9536 49.2014 51.1274 45.6406 46.488 45.6406C41.8572 45.6406 38.031 49.1929 37.6116 53.7295Z" fill="#F6BA40" stroke="#F6BA40" stroke-width="0.5"/>
<path d="M52.283 55.4154C51.8122 55.4154 51.427 55.0302 51.427 54.5595V52.6592C51.427 52.1884 51.8122 51.8032 52.283 51.8032C52.7538 51.8032 53.1389 52.1884 53.1389 52.6592V54.5595C53.1389 55.0302 52.7538 55.4154 52.283 55.4154Z" fill="#F6BA40" stroke="#F6BA40" stroke-width="0.5"/>
<path d="M40.7102 55.4154C40.2394 55.4154 39.8542 55.0302 39.8542 54.5595V52.6592C39.8542 52.1884 40.2394 51.8032 40.7102 51.8032C41.181 51.8032 41.5662 52.1884 41.5662 52.6592V54.5595C41.5662 55.0302 41.181 55.4154 40.7102 55.4154Z" fill="#F6BA40" stroke="#F6BA40" stroke-width="0.5"/>
</svg>
