<svg width="515" height="93" viewBox="0 0 515 93" fill="none" xmlns="http://www.w3.org/2000/svg">
<path d="M61.0969 0.0926514C35.5091 0.0926514 14.7422 20.8595 14.7422 46.4473C14.7422 72.035 35.5091 92.8019 61.0969 92.8019C86.6846 92.8019 107.451 72.035 107.451 46.4473C107.451 20.7668 86.6846 0.0926514 61.0969 0.0926514Z" fill="#273B91"/>
<path d="M501.836 49.8777H120.522V76.3925H501.836V49.8777Z" fill="white"/>
<path d="M172.718 68.234C173.367 67.307 173.645 65.5455 173.645 63.135C173.645 60.7246 173.367 58.9631 172.718 58.036C172.069 57.1089 170.957 56.6454 169.38 56.6454C168.546 56.6454 168.083 56.7381 167.804 56.9235C167.526 57.1089 167.434 57.6652 167.434 58.3142V67.8632C167.434 68.6049 167.526 69.1611 167.804 69.3466C168.083 69.532 168.546 69.6247 169.38 69.6247C171.049 69.7174 172.162 69.2538 172.718 68.234Z" fill="#273B91"/>
<path d="M211.842 70.0883C212.954 70.0883 213.788 69.6247 214.252 68.6049C214.716 67.5851 214.901 65.8236 214.901 63.2278C214.901 60.6319 214.623 58.8705 214.159 57.8507C213.696 56.8309 212.861 56.3673 211.749 56.3673C210.636 56.3673 209.802 56.8309 209.338 57.8507C208.875 58.8705 208.689 60.6319 208.689 63.2278C208.689 65.8236 208.968 67.6778 209.338 68.6049C209.987 69.532 210.729 70.0883 211.842 70.0883Z" fill="#273B91"/>
<path d="M193.207 61.559C193.763 61.0954 194.041 60.4464 194.041 59.4266C194.041 58.4995 193.763 57.7579 193.3 57.2016C192.836 56.7381 192.095 56.46 191.167 56.46C190.333 56.46 189.777 56.5527 189.499 56.8308C189.221 57.1089 189.128 57.5725 189.128 58.3141V62.2079H190.24C191.724 62.2079 192.651 62.0225 193.207 61.559Z" fill="#273B91"/>
<path d="M348.217 70.0883C349.329 70.0883 350.163 69.6247 350.627 68.6049C351.091 67.5851 351.276 65.8236 351.276 63.2278C351.276 60.6319 350.998 58.8705 350.534 57.8507C350.071 56.8309 349.236 56.3673 348.124 56.3673C347.011 56.3673 346.177 56.8309 345.713 57.8507C345.25 58.8705 345.064 60.6319 345.064 63.2278C345.064 65.8236 345.343 67.6778 345.713 68.6049C346.27 69.532 347.104 70.0883 348.217 70.0883Z" fill="#273B91"/>
<path d="M304.735 61.559C305.291 61.0954 305.569 60.4464 305.569 59.4266C305.569 58.4995 305.291 57.7579 304.827 57.2016C304.364 56.7381 303.622 56.46 302.695 56.46C301.861 56.46 301.304 56.5527 301.026 56.8308C300.748 57.1089 300.655 57.5725 300.655 58.3141V62.2079H301.768C303.251 62.2079 304.178 62.0225 304.735 61.559Z" fill="#273B91"/>
<path d="M430.82 70.0883C431.933 70.0883 432.767 69.6247 433.231 68.6049C433.694 67.5851 433.88 65.8236 433.88 63.2278C433.88 60.6319 433.601 58.8705 433.138 57.8507C432.674 56.8309 431.84 56.3673 430.727 56.3673C429.615 56.3673 428.781 56.8309 428.317 57.8507C427.853 58.8705 427.668 60.6319 427.668 63.2278C427.668 65.8236 427.946 67.6778 428.317 68.6049C428.873 69.532 429.708 70.0883 430.82 70.0883Z" fill="#273B91"/>
<path d="M0 76.3925H515V49.8777H0V76.3925ZM475.691 69.7175C476.526 69.6248 477.082 69.5321 477.36 69.3466C477.638 69.1612 477.731 68.6977 477.731 67.956V58.3142C477.731 57.5726 477.638 57.109 477.36 56.9236C477.082 56.7382 476.526 56.5527 475.691 56.5527V55.533H482.366L485.704 65.8237L488.856 55.533H495.531V56.5527C494.604 56.6454 494.048 56.7382 493.862 56.9236C493.677 57.109 493.491 57.5726 493.491 58.3142V67.956C493.491 68.6977 493.584 69.0685 493.862 69.3466C494.14 69.5321 494.697 69.7175 495.531 69.7175V70.7373H487.836V69.7175C488.671 69.6248 489.227 69.5321 489.505 69.3466C489.783 69.1612 489.876 68.6977 489.876 67.956V56.5527H489.69L485.333 70.7373H483.757L479.121 56.5527H478.936V67.956C478.936 68.6977 479.029 69.1612 479.307 69.3466C479.585 69.5321 480.141 69.7175 480.976 69.7175V70.7373H475.599L475.691 69.7175ZM463.176 69.7175C463.917 69.6248 464.381 69.5321 464.659 69.3466C464.844 69.1612 465.03 68.6977 465.03 68.0487V58.4069C465.03 57.758 464.937 57.2944 464.659 57.109C464.473 56.9236 463.917 56.7382 463.176 56.7382V55.7184H470.5V56.7382C469.758 56.8309 469.294 56.9236 469.016 57.109C468.831 57.2944 468.645 57.758 468.645 58.4996V68.1414C468.645 68.8831 468.738 69.2539 469.016 69.532C469.202 69.7175 469.758 69.9029 470.5 69.9029V70.9227H463.176V69.7175ZM443.892 69.7175C444.634 69.6248 445.097 69.5321 445.375 69.3466C445.561 69.1612 445.746 68.6977 445.746 68.0487V58.4069C445.746 57.758 445.653 57.2944 445.375 57.109C445.19 56.9236 444.634 56.7382 443.892 56.7382V55.7184H451.216V56.7382C450.474 56.8309 450.011 56.9236 449.733 57.109C449.547 57.2944 449.362 57.758 449.362 58.4996V68.1414C449.362 68.8831 449.547 69.3466 449.825 69.6247C450.103 69.8102 450.752 69.9029 451.772 69.9029C453.256 69.9029 454.461 69.532 455.295 68.6977C456.13 67.8633 456.593 66.6581 456.779 65.082H457.984L457.613 71.0154H443.799L443.892 69.7175ZM424.052 59.7976C424.423 58.7778 425.072 57.8507 425.814 57.109C426.463 56.46 427.204 55.9965 428.039 55.6256C428.873 55.2548 429.8 55.1621 430.727 55.1621C431.654 55.1621 432.581 55.3475 433.416 55.6256C434.25 55.9965 434.992 56.46 435.641 57.109C436.475 57.8507 437.031 58.7778 437.402 59.7976C437.773 60.8174 437.959 61.9299 437.959 63.1351C437.959 64.3403 437.773 65.4528 437.402 66.4726C437.031 67.4924 436.382 68.4195 435.641 69.1612C434.992 69.8102 434.25 70.2737 433.416 70.6446C432.581 71.0154 431.654 71.1081 430.727 71.1081C429.707 71.1081 428.873 70.9227 428.039 70.6446C427.204 70.2737 426.463 69.8102 425.814 69.1612C425.072 68.4195 424.423 67.4924 424.052 66.4726C423.681 65.4528 423.496 64.3403 423.496 63.0424C423.496 61.9299 423.681 60.8174 424.052 59.7976ZM404.583 69.532L413.205 56.6455H411.166C409.775 56.6455 408.662 57.0163 407.921 57.6653C407.179 58.3142 406.715 59.5195 406.437 61.0955H405.232L405.696 55.533H417.655V56.6455L409.033 69.532H411.629C413.113 69.532 414.225 69.1612 415.059 68.5123C415.801 67.8633 416.357 66.7508 416.543 65.1747H417.655L417.284 70.7373H404.676L404.583 69.532ZM391.789 69.7175C392.531 69.6248 392.995 69.5321 393.273 69.3466C393.458 69.1612 393.644 68.6977 393.644 68.0487V58.4069C393.644 57.758 393.551 57.2944 393.273 57.109C393.087 56.9236 392.531 56.7382 391.789 56.7382V55.7184H399.113V56.7382C398.372 56.8309 397.908 56.9236 397.63 57.109C397.445 57.2944 397.259 57.758 397.259 58.4996V68.1414C397.259 68.8831 397.352 69.2539 397.63 69.532C397.815 69.7175 398.372 69.9029 399.113 69.9029V70.9227H391.789V69.7175ZM371.022 64.0622H376.492V66.3799H371.022V64.0622ZM341.541 59.7976C341.912 58.7778 342.561 57.8507 343.302 57.109C343.951 56.46 344.693 55.9965 345.527 55.6256C346.362 55.2548 347.289 55.1621 348.216 55.1621C349.143 55.1621 350.07 55.3475 350.905 55.6256C351.739 55.9965 352.481 56.46 353.13 57.109C353.964 57.8507 354.52 58.7778 354.891 59.7976C355.262 60.8174 355.447 61.9299 355.447 63.1351C355.447 64.3403 355.262 65.4528 354.891 66.4726C354.52 67.4924 353.871 68.4195 353.13 69.1612C352.481 69.8102 351.739 70.2737 350.905 70.6446C350.07 71.0154 349.143 71.1081 348.216 71.1081C347.196 71.1081 346.362 70.9227 345.527 70.6446C344.693 70.2737 343.951 69.8102 343.302 69.1612C342.561 68.4195 341.912 67.4924 341.541 66.4726C341.17 65.4528 340.985 64.3403 340.985 63.0424C340.892 61.9299 341.077 60.8174 341.541 59.7976ZM315.582 69.7175C316.417 69.6248 316.973 69.5321 317.251 69.3466C317.529 69.1612 317.622 68.6977 317.622 67.956V58.3142C317.622 57.5726 317.529 57.109 317.251 56.9236C316.973 56.7382 316.417 56.5527 315.582 56.5527V55.533H322.257L325.595 65.8237L328.747 55.533H335.422V56.5527C334.495 56.6454 333.939 56.7382 333.753 56.9236C333.568 57.109 333.383 57.5726 333.383 58.3142V67.956C333.383 68.6977 333.475 69.0685 333.753 69.3466C334.032 69.6248 334.588 69.7175 335.422 69.7175V70.7373H327.727V69.7175C328.562 69.6248 329.118 69.5321 329.396 69.3466C329.674 69.1612 329.767 68.6977 329.767 67.956V56.5527H329.581L325.224 70.7373H323.648L319.013 56.5527H318.827V67.956C318.827 68.6977 318.92 69.1612 319.198 69.3466C319.476 69.5321 320.032 69.7175 320.867 69.7175V70.7373H315.49L315.582 69.7175ZM295.094 69.7175C295.835 69.6248 296.299 69.5321 296.577 69.3466C296.762 69.1612 296.948 68.6977 296.948 68.0487V58.4069C296.948 57.758 296.855 57.2944 296.577 57.109C296.391 56.9236 295.835 56.7382 295.094 56.7382V55.7184H302.788C305.106 55.7184 306.775 55.9965 307.887 56.6455C309 57.2944 309.556 58.2215 309.556 59.5194C309.556 60.5392 309.185 61.2809 308.351 61.9299C307.517 62.5789 306.311 62.857 304.735 63.0424C305.755 63.3205 306.682 63.5986 307.238 64.0622C307.887 64.5257 308.258 65.082 308.444 65.8237C308.629 66.3799 308.722 67.1216 308.815 67.956C308.815 68.3268 308.907 68.5122 308.907 68.6977C309 69.0685 309.093 69.3466 309.185 69.4393C309.278 69.5321 309.464 69.6247 309.649 69.6247C309.927 69.6247 310.205 69.4393 310.391 69.0685C310.576 68.6976 310.669 68.2341 310.669 67.5852H311.689C311.689 67.6779 311.689 67.6779 311.689 67.7706C311.689 67.8633 311.689 67.956 311.689 68.0487C311.689 69.0685 311.41 69.9029 310.854 70.4591C310.298 71.0154 309.556 71.2935 308.536 71.2935C307.98 71.2935 307.424 71.2008 307.053 71.0154C306.59 70.83 306.311 70.5519 306.033 70.2737C305.662 69.8102 305.384 68.7904 305.292 67.3997C305.292 67.307 305.292 67.2143 305.292 67.1216C305.199 65.6383 304.921 64.6185 304.365 64.1549C304.086 63.8768 303.808 63.7841 303.345 63.5986C302.974 63.5059 302.51 63.4132 301.861 63.4132H300.934V68.0487C300.934 68.6977 301.027 69.1612 301.305 69.3466C301.583 69.5321 302.139 69.7175 302.974 69.8102V70.83H295.372L295.094 69.7175ZM274.327 69.7175C275.068 69.6248 275.532 69.5321 275.81 69.3466C275.996 69.1612 276.181 68.6977 276.181 68.0487V58.4069C276.181 57.758 276.088 57.2944 275.81 57.109C275.625 56.9236 275.068 56.7382 274.327 56.7382V55.7184H288.604L288.882 60.8174H287.677C287.399 59.4267 286.842 58.3142 286.008 57.6653C285.174 57.0163 283.876 56.7382 282.3 56.7382C281.28 56.7382 280.631 56.8309 280.353 57.0163C280.075 57.2017 279.889 57.6653 279.889 58.4996V62.4862H280.816C281.743 62.4862 282.392 62.208 282.856 61.7445C283.32 61.2809 283.598 60.4465 283.69 59.4267H284.71V66.5654H283.69C283.598 65.5456 283.32 64.7112 282.856 64.2476C282.392 63.7841 281.743 63.5059 280.816 63.5059H279.889V68.0487C279.889 68.7904 280.075 69.2539 280.353 69.532C280.631 69.7175 281.373 69.8102 282.392 69.8102C284.154 69.8102 285.452 69.4393 286.379 68.7904C287.213 68.0487 287.77 66.9362 287.955 65.3601H289.16L288.789 70.9227H274.327V69.7175ZM255.414 55.533H268.857L269.135 61.2809H268.023C267.837 59.6121 267.466 58.4069 266.91 57.6653C266.354 56.9236 265.519 56.5527 264.407 56.5527H264.129V67.956C264.129 68.605 264.221 69.0685 264.5 69.2539C264.778 69.4393 265.334 69.6248 266.261 69.7175V70.7373H258.288V69.7175C259.215 69.6248 259.771 69.532 260.05 69.2539C260.328 69.0685 260.42 68.605 260.42 67.956V56.5527H260.142C259.03 56.5527 258.195 56.9236 257.639 57.6653C257.083 58.4069 256.712 59.6121 256.527 61.2809H255.507L255.414 55.533ZM234.647 64.0622H240.117V66.3799H234.647V64.0622ZM205.166 59.7976C205.536 58.7778 206.185 57.8507 206.927 57.109C207.576 56.46 208.318 55.9965 209.152 55.6256C209.987 55.2548 210.914 55.1621 211.841 55.1621C212.768 55.1621 213.695 55.3475 214.529 55.6256C215.364 55.9965 216.105 56.46 216.754 57.109C217.589 57.8507 218.145 58.7778 218.516 59.7976C218.887 60.8174 219.072 61.9299 219.072 63.1351C219.072 64.3403 218.887 65.4528 218.516 66.4726C218.145 67.4924 217.496 68.4195 216.754 69.1612C216.105 69.8102 215.364 70.2737 214.529 70.6446C213.695 71.0154 212.768 71.1081 211.841 71.1081C210.821 71.1081 209.987 70.9227 209.152 70.6446C208.318 70.2737 207.576 69.8102 206.927 69.1612C206.185 68.4195 205.536 67.4924 205.166 66.4726C204.795 65.4528 204.609 64.3403 204.609 63.0424C204.517 61.9299 204.702 60.8174 205.166 59.7976ZM183.564 69.7175C184.306 69.6248 184.77 69.5321 185.048 69.3466C185.233 69.1612 185.419 68.6977 185.419 68.0487V58.4069C185.419 57.758 185.326 57.2944 185.048 57.109C184.862 56.9236 184.306 56.7382 183.564 56.7382V55.7184H191.259C193.577 55.7184 195.246 55.9965 196.358 56.6455C197.471 57.2944 198.027 58.2215 198.027 59.5194C198.027 60.5392 197.656 61.2809 196.822 61.9299C195.987 62.4861 194.782 62.857 193.206 63.0424C194.226 63.3205 195.153 63.5986 195.709 64.0622C196.358 64.5257 196.729 65.082 196.914 65.8237C197.1 66.3799 197.193 67.1216 197.285 67.956C197.285 68.3268 197.378 68.5122 197.378 68.6977C197.471 69.0685 197.563 69.3466 197.656 69.4393C197.749 69.5321 197.934 69.6247 198.12 69.6247C198.398 69.6247 198.676 69.4393 198.861 69.0685C199.047 68.6976 199.139 68.2341 199.139 67.5852H200.159C200.159 67.6779 200.159 67.6779 200.159 67.7706C200.159 67.8633 200.159 67.956 200.159 68.0487C200.159 69.0685 199.881 69.9029 199.325 70.4591C198.769 71.0154 198.027 71.2935 197.007 71.2935C196.451 71.2935 195.895 71.2008 195.524 71.0154C195.06 70.83 194.782 70.5519 194.504 70.2737C194.133 69.8102 193.855 68.7904 193.762 67.3997C193.762 67.307 193.762 67.2143 193.762 67.1216C193.67 65.6383 193.392 64.6185 192.835 64.1549C192.557 63.8768 192.279 63.7841 191.815 63.5986C191.445 63.5059 190.981 63.4132 190.332 63.4132H189.405V68.0487C189.405 68.6977 189.498 69.1612 189.776 69.3466C190.054 69.5321 190.61 69.7175 191.445 69.8102V70.83H183.842V69.7175H183.564ZM161.87 69.7175C162.612 69.6248 163.076 69.532 163.354 69.2539C163.539 69.0685 163.725 68.605 163.725 67.956V58.3142C163.725 57.6653 163.632 57.2017 163.354 57.0163C163.168 56.8309 162.612 56.6454 161.87 56.5527V55.533H169.194C171.976 55.533 174.108 56.1819 175.591 57.4798C177.075 58.7778 177.816 60.6319 177.816 63.1351C177.816 65.6382 177.075 67.4924 175.591 68.7904C174.108 70.0883 171.976 70.7373 169.194 70.7373H161.87V69.7175ZM148.984 69.7175C149.725 69.6248 150.189 69.5321 150.467 69.3466C150.653 69.1612 150.838 68.6977 150.838 68.0487V58.4069C150.838 57.758 150.745 57.2944 150.467 57.109C150.282 56.9236 149.725 56.7382 148.984 56.7382V55.7184H156.308V56.7382C155.566 56.8309 155.103 56.9236 154.825 57.109C154.639 57.2944 154.454 57.758 154.454 58.4996V68.1414C154.454 68.8831 154.546 69.2539 154.825 69.532C155.01 69.7175 155.566 69.9029 156.308 69.9029V70.9227H148.984V69.7175ZM127.104 69.7175C127.846 69.6248 128.31 69.5321 128.588 69.3466C128.773 69.1612 128.959 68.6977 128.959 68.0487V58.4069C128.959 57.758 128.866 57.2944 128.588 57.109C128.402 56.9236 127.846 56.7382 127.104 56.6455V55.6256H134.428V56.6455C133.687 56.7382 133.223 56.8309 132.945 57.109C132.76 57.2944 132.667 57.758 132.667 58.4069V62.3934H137.859V58.4069C137.859 57.758 137.766 57.2944 137.581 57.109C137.395 56.9236 136.839 56.7382 136.097 56.6455V55.6256H143.421V56.6455C142.68 56.7382 142.216 56.8309 141.938 57.0163C141.752 57.2017 141.567 57.6653 141.567 58.3142V67.956C141.567 68.605 141.66 69.0685 141.938 69.2539C142.123 69.4393 142.68 69.6247 143.421 69.6247V70.6446H136.097V69.7175C136.839 69.6248 137.302 69.532 137.581 69.2539C137.859 68.9758 137.859 68.605 137.859 67.956V63.5059H132.667V67.956C132.667 68.605 132.76 69.0685 132.945 69.2539C133.13 69.4393 133.687 69.6248 134.428 69.7175V70.7373H127.104V69.7175Z" fill="#273B91"/>
<path d="M61.0969 92.7093C86.6846 92.7093 107.451 71.9424 107.451 46.3546C107.451 20.7669 86.6846 0 61.0969 0C35.5091 0 14.7422 20.7669 14.7422 46.3546C14.7422 71.9424 35.5091 92.7093 61.0969 92.7093ZM61.0969 3.52297C84.7377 3.52297 104.021 22.7138 104.021 46.4474C104.021 70.0882 84.8304 89.3718 61.0969 89.3718C37.456 89.3718 18.1724 70.1809 18.1724 46.4474C18.1724 22.7138 37.3633 3.52297 61.0969 3.52297Z" fill="#63A0D6"/>
<path d="M88.9078 54.9766C79.915 48.2089 70.9222 62.0226 62.0221 58.2215C61.2804 57.6652 60.6315 57.2944 59.8898 57.0162C59.7971 57.0162 59.7044 56.9235 59.7044 56.9235C50.8043 53.4933 41.9969 66.9361 33.0968 60.2611C32.4478 59.7975 31.8916 60.3538 31.8916 61.7444C31.8916 63.1351 32.4478 64.8038 33.0968 65.2674C42.0896 72.0352 51.0824 58.2215 59.9825 62.0226C60.7242 62.5788 61.3731 62.9496 62.1148 63.2278C62.2075 63.2278 62.3002 63.3205 62.3002 63.3205C71.2003 66.7507 80.0077 53.3079 88.9078 59.9829C89.5568 60.4465 90.113 59.8902 90.113 58.4996C90.113 57.109 89.5568 55.5329 88.9078 54.9766Z" fill="white"/>
<path d="M88.9078 63.9694C79.915 57.2017 70.9222 71.0154 62.0221 67.2143C61.2804 66.658 60.6315 66.2872 59.8898 66.0091C59.7971 66.0091 59.7044 65.9163 59.7044 65.9163C50.8043 62.4861 41.9969 75.929 33.0968 69.2539C32.4478 68.7903 31.8916 69.3466 31.8916 70.7372C31.8916 72.1279 32.4478 73.7966 33.0968 74.2602C42.0896 81.028 51.0824 67.2143 59.9825 71.0154C60.7242 71.5716 61.3731 71.9425 62.1148 72.2206C62.2075 72.2206 62.3002 72.3133 62.3002 72.3133C71.2003 75.7435 80.0077 62.3007 88.9078 68.9758C89.5568 69.4393 90.113 68.8831 90.113 67.4924C90.113 66.1945 89.5568 64.5257 88.9078 63.9694Z" fill="white"/>
<path d="M37.731 60.0757H39.5851C41.9029 59.7976 44.2206 58.6851 46.7238 57.3871C49.8759 55.9038 53.1207 54.3277 56.5509 54.3277C57.8489 54.3277 59.0541 54.5131 60.2593 54.9767C60.4447 55.0694 60.5374 55.0694 60.7228 55.1621C61.5572 55.5329 62.2989 55.9038 63.0406 56.46C63.7823 56.7382 64.6167 56.9236 65.4511 56.9236C68.0469 56.9236 70.7355 55.6256 73.7021 54.235C76.5761 52.8444 79.4501 51.4537 82.5095 51.1756V47.4672L89.5555 47.0037L76.947 36.1567L76.3907 25.217H70.0865L69.9938 30.2233L59.9812 20.3961L29.9434 47.0037H37.6383V60.0757H37.731Z" fill="white"/>
<path d="M80.7499 25.5878C81.028 25.9587 81.3988 26.3295 81.8624 26.7003L81.677 29.667L83.6239 27.442C83.902 27.442 84.0874 27.5347 84.3655 27.5347C84.6437 27.5347 84.9218 27.5347 85.1072 27.442L87.0541 29.667L86.8687 26.7003C87.2395 26.4222 87.6104 26.0514 87.9812 25.5878L90.9479 25.7732L88.7229 23.8263C88.7229 23.5482 88.8156 23.3628 88.8156 23.0847C88.8156 22.8066 88.8156 22.5284 88.7229 22.343L90.9479 20.3961L87.9812 20.5815C87.7031 20.2107 87.3322 19.8398 86.8687 19.469L87.0541 16.5023L85.1072 18.7273C84.8291 18.7273 84.6437 18.6346 84.3655 18.6346C84.0874 18.6346 83.8093 18.6346 83.6239 18.7273L81.677 16.5023L81.8624 19.469C81.4915 19.7471 81.1207 20.118 80.7499 20.5815L77.7832 20.3961L80.0082 22.343C80.0082 22.6211 79.9155 22.8066 79.9155 23.0847C79.9155 23.3628 79.9155 23.6409 80.0082 23.8263L77.7832 25.7732L80.7499 25.5878Z" fill="white"/>
<path d="M36.2498 33.0045C37.8259 33.0045 40.1436 31.1504 39.0311 28.5545C37.8259 25.6805 36.2498 22.9919 36.2498 22.9919C36.2498 22.9919 34.4883 25.5878 33.3758 28.5545C32.4487 30.9649 34.6738 33.0045 36.2498 33.0045Z" fill="white"/>
<path d="M41.5346 24.568C42.6471 24.568 44.4086 23.1774 43.5742 21.2305C42.6471 19.0982 41.5346 17.1512 41.5346 17.1512C41.5346 17.1512 40.2366 19.0982 39.4023 21.2305C38.7533 23.0847 40.422 24.568 41.5346 24.568Z" fill="white"/>
<path d="M55.1617 82.326H52.844C53.0294 81.7697 53.493 81.3062 54.1419 80.8426C54.6055 80.4718 55.2544 80.1937 55.8107 79.6374C56.1815 79.2666 56.3669 78.803 56.3669 78.1541C56.3669 76.9488 55.4398 76.2072 53.9565 76.2072C52.6586 76.2072 51.8242 76.9488 51.8242 77.8759C51.8242 78.4322 52.195 78.8957 52.7513 78.8957C53.2148 78.8957 53.5856 78.5249 53.5856 78.0613C53.5856 77.7832 53.4002 77.5978 53.2148 77.5051L52.9367 77.3197C52.844 77.3197 52.7513 77.227 52.7513 77.1342C52.7513 76.9488 53.0294 76.6707 53.5856 76.6707C54.3273 76.6707 54.6055 77.1342 54.6055 77.9686C54.6055 78.5249 54.42 79.0811 54.1419 79.5447C53.6784 80.2864 53.0294 80.8426 52.5659 81.4916C52.0096 82.2333 51.7314 82.7895 51.7314 83.7166H56.0888L56.3669 81.5843H55.9034C55.9034 82.1405 55.718 82.326 55.1617 82.326Z" fill="white"/>
<path d="M59.9817 76.1143C59.3327 76.1143 58.6838 76.3924 58.3129 77.0414C57.7567 77.783 57.4785 78.8028 57.4785 80.0081C57.4785 81.2133 57.7567 82.2331 58.3129 82.9747C58.7765 83.531 59.3327 83.9018 59.9817 83.9018C61.3723 83.9018 62.4848 82.4185 62.4848 80.0081C62.4848 78.8028 62.2067 77.783 61.6504 77.0414C61.2796 76.4851 60.6306 76.1143 59.9817 76.1143ZM60.7233 80.0081V80.4716C60.7233 82.4185 60.7234 83.3456 59.9817 83.3456C59.24 83.3456 59.24 82.5112 59.24 80.4716V80.0081V79.4518C59.24 77.5049 59.24 76.5778 59.9817 76.5778C60.7234 76.5778 60.7233 77.4122 60.7233 79.4518V80.0081Z" fill="white"/>
<path d="M65.6369 76.1145C64.9879 76.1145 64.339 76.3926 63.9681 77.0416C63.4119 77.7833 63.1338 78.8031 63.1338 80.0083C63.1338 81.2135 63.4119 82.2333 63.9681 82.975C64.4317 83.5312 64.9879 83.9021 65.6369 83.9021C67.0275 83.9021 68.1401 82.4187 68.1401 80.0083C68.1401 78.8031 67.862 77.7833 67.3057 77.0416C66.9349 76.4853 66.3786 76.1145 65.6369 76.1145ZM66.4713 80.0083V80.4718C66.4713 82.4187 66.4713 83.3458 65.7296 83.3458C64.988 83.3458 64.988 82.5115 64.988 80.4718V80.0083V79.452C64.988 77.5051 64.988 76.578 65.7296 76.578C66.4713 76.578 66.4713 77.4124 66.4713 79.452V80.0083Z" fill="white"/>
<path d="M72.8694 76.1143H71.7568L68.8828 80.9352V81.6768H71.2933V82.2331C71.2933 82.9747 71.2005 83.0675 70.2735 83.1602V83.6237H73.7964V83.1602C72.9621 83.1602 72.8694 82.9747 72.8694 82.2331V81.7695H73.7964V81.1206H72.8694V76.1143ZM71.2933 81.0279H69.3464L71.5714 77.3195C71.386 79.081 71.2933 80.2862 71.2933 81.0279Z" fill="white"/>
<path d="M140.084 40.7922C138.23 40.6067 137.024 40.3286 136.468 39.7724C135.912 39.2161 135.634 38.1036 135.634 36.3421V12.0523C135.634 10.2908 135.912 9.17832 136.468 8.62207C137.024 8.06581 138.23 7.78768 140.084 7.60226V4.9137H121.542V7.60226C123.489 7.78768 124.694 8.15852 125.25 8.62207C125.807 9.17832 126.085 10.2908 126.085 11.9596V36.3421C126.085 38.1036 125.807 39.2161 125.25 39.6797C124.694 40.2359 123.489 40.6068 121.542 40.6995V43.388H140.084V40.7922Z" fill="#273B91"/>
<path d="M175.962 29.3889H173.088C172.439 33.3754 171.141 36.1567 169.287 37.8255C167.432 39.4943 164.558 40.3286 160.757 40.3286H154.268L175.962 7.69497V4.9137H145.831L144.626 18.9128H147.685C148.334 14.9263 149.632 12.145 151.486 10.3835C153.341 8.62206 156.122 7.78769 159.738 7.78769H164.929L143.235 40.4213V43.4808H175.035L175.962 29.3889Z" fill="#273B91"/>
<path d="M186.162 39.4016C187.831 41.0703 189.778 42.2756 191.91 43.1099C194.042 43.9443 196.267 44.4079 198.77 44.4079C201.181 44.4079 203.499 44.037 205.631 43.1099C207.763 42.2756 209.617 41.0703 211.379 39.4016C213.326 37.4547 214.809 35.2297 215.829 32.6338C216.849 30.0379 217.312 27.2566 217.312 24.1045C217.312 20.9524 216.849 18.1712 215.829 15.5753C214.809 12.9794 213.326 10.7544 211.379 8.90022C209.71 7.23145 207.763 6.02623 205.724 5.19185C203.591 4.35746 201.366 3.89392 198.863 3.89392C196.453 3.89392 194.135 4.26475 192.003 5.19185C189.87 6.11894 188.016 7.23145 186.255 8.90022C184.308 10.8471 182.824 13.0721 181.805 15.5753C180.785 18.1712 180.321 20.9524 180.321 24.1045C180.321 27.2566 180.785 30.0379 181.805 32.6338C182.824 35.3224 184.308 37.5474 186.162 39.4016ZM192.744 10.569C193.949 8.06585 195.896 6.86063 198.77 6.86063C201.644 6.86063 203.591 8.15856 204.796 10.569C206.002 13.0722 206.558 17.6149 206.558 24.1972C206.558 30.7796 206.002 35.4151 204.796 37.9182C203.591 40.4214 201.644 41.6266 198.77 41.6266C195.896 41.6266 193.949 40.3287 192.744 37.9182C191.539 35.4151 190.983 30.8723 190.983 24.1972C190.983 17.6149 191.632 13.0722 192.744 10.569Z" fill="#273B91"/>
<path d="M227.601 39.587C229.27 41.1631 231.124 42.3683 233.164 43.2026C235.203 44.037 237.521 44.4079 240.117 44.4079C241.693 44.4079 243.269 44.2225 244.753 43.8516C246.236 43.4808 247.534 42.9245 248.739 42.0902C249.11 41.812 249.573 41.5339 250.222 41.1631C251.242 40.5141 251.798 40.236 252.076 40.236C252.725 40.236 253.282 40.9776 253.745 42.3683L254.302 44.4079H257.454V31.7067C257.454 29.9452 257.732 28.8327 258.195 28.3692C258.752 27.8129 259.957 27.5348 261.811 27.2567V24.5681H243.733V27.2567C245.772 27.4421 247.07 27.7202 247.626 28.2764C248.183 28.8327 248.461 29.9452 248.461 31.7067C248.461 35.1369 247.812 37.5474 246.607 39.1234C245.401 40.6995 243.455 41.4412 240.859 41.4412C237.799 41.4412 235.574 40.1432 234.184 37.5474C232.886 34.9515 232.144 30.5015 232.144 24.29C232.144 18.542 232.978 14.1847 234.554 11.4034C236.131 8.6221 238.634 7.23146 241.971 7.23146C244.567 7.23146 246.792 8.06583 248.646 9.82731C250.5 11.5888 251.984 14.0919 253.004 17.3368H255.785V3.98664H252.725C252.633 4.82102 252.355 5.37727 251.984 5.84082C251.613 6.30437 251.242 6.48977 250.779 6.48977C250.222 6.48977 249.203 6.21165 247.719 5.65539L247.441 5.56268C245.865 5.00642 244.474 4.54288 243.269 4.26475C242.064 3.98662 240.859 3.89392 239.654 3.89392C237.336 3.89392 235.111 4.35746 233.071 5.19185C231.031 6.02623 229.085 7.23145 227.508 8.90022C225.562 10.8471 224.078 13.0722 223.059 15.668C222.039 18.2639 221.575 21.0451 221.575 24.1045C221.575 27.2566 222.039 30.1307 223.059 32.7265C224.171 35.3224 225.654 37.6401 227.601 39.587Z" fill="#273B91"/>
<path d="M280.631 24.568C282.115 24.568 283.413 24.7534 284.34 25.0315C285.36 25.3097 286.194 25.7732 286.843 26.3295C288.233 27.5347 288.975 30.1305 289.253 33.9316C289.253 34.117 289.253 34.3025 289.346 34.6733C289.531 38.289 290.18 40.6994 291.2 41.9046C291.849 42.739 292.776 43.388 293.889 43.8515C295.001 44.3151 296.299 44.5005 297.783 44.5005C300.286 44.5005 302.233 43.7588 303.623 42.3682C305.014 40.9775 305.663 38.9379 305.663 36.2494C305.663 35.8785 305.663 35.6004 305.663 35.5077C305.663 35.3223 305.663 35.2296 305.663 35.0441H303.16C303.16 36.7129 302.974 37.9181 302.511 38.7525C302.047 39.5869 301.491 40.0504 300.657 40.0504C300.193 40.0504 299.822 39.865 299.544 39.5869C299.266 39.3088 299.08 38.6598 298.895 37.64C298.802 37.2692 298.802 36.7129 298.71 35.7858C298.524 33.5608 298.246 31.7993 297.875 30.4087C297.412 28.6472 296.392 27.1638 294.909 25.9586C293.425 24.7534 291.293 23.919 288.604 23.2701C292.684 22.8065 295.836 21.8794 297.783 20.3961C299.822 18.9127 300.842 16.9658 300.842 14.4627C300.842 11.2179 299.451 8.80743 296.67 7.32408C293.889 5.74802 289.624 5.00635 283.783 5.00635H264.407V7.69491C266.354 7.88033 267.559 8.25117 268.116 8.71472C268.672 9.27097 268.95 10.3835 268.95 12.0522V36.3421C268.95 38.1035 268.672 39.2161 268.116 39.6796C267.559 40.2359 266.354 40.6067 264.407 40.6994V43.388H283.598V40.6994C281.373 40.514 279.982 40.1432 279.333 39.5869C278.684 39.0306 278.406 37.9181 278.406 36.2494V24.4753C278.314 24.568 280.631 24.568 280.631 24.568ZM278.314 11.9595C278.314 10.1054 278.592 8.90011 279.333 8.34386C279.982 7.7876 281.373 7.50948 283.505 7.50948C285.916 7.50948 287.677 8.15845 288.975 9.45638C290.273 10.7543 290.829 12.6085 290.829 15.0189C290.829 17.5221 290.088 19.2836 288.604 20.3961C287.121 21.5086 284.711 22.0648 281.28 22.0648H278.406L278.314 11.9595Z" fill="#273B91"/>
<path d="M314.007 40.5139C316.417 43.1098 320.311 44.4077 325.688 44.4077C330.973 44.4077 334.959 43.1098 337.37 40.6066C339.78 38.0108 341.078 33.9316 341.078 28.369V12.1449C341.078 10.2907 341.356 9.1782 341.912 8.62195C342.469 8.1584 343.767 7.78756 345.621 7.69485V5.00629H333.661V7.69485C335.33 7.78756 336.443 8.06569 336.999 8.62195C337.555 9.1782 337.833 10.2907 337.833 12.1449V29.2034C337.833 33.1899 337.092 36.0639 335.608 37.9181C334.125 39.7723 331.9 40.6994 328.748 40.6994C325.688 40.6994 323.371 39.7723 321.98 37.9181C320.589 36.0639 319.848 33.1899 319.848 29.1107V12.0522C319.848 10.198 320.126 9.08549 320.682 8.52923C321.238 7.97297 322.351 7.69485 324.02 7.60214V4.91357H305.756V7.60214C307.703 7.78756 309.001 8.06568 309.557 8.52923C310.113 8.99278 310.391 10.198 310.391 12.0522V28.2763C310.299 33.8389 311.597 37.9181 314.007 40.5139Z" fill="#273B91"/>
<path d="M348.494 4.9137V7.60226C350.441 7.78768 351.646 8.15852 352.203 8.62207C352.759 9.17832 353.037 10.2908 353.037 11.9596V36.3421C353.037 38.1036 352.759 39.2161 352.203 39.6797C351.646 40.2359 350.441 40.6068 348.494 40.6995V43.388H367.963V40.6995C365.645 40.5141 364.162 40.1432 363.513 39.6797C362.864 39.2161 362.586 38.0109 362.586 36.3421V26.2368H368.241C374.36 26.2368 378.81 25.4024 381.591 23.641C384.373 21.8795 385.763 19.0982 385.763 15.2971C385.763 11.7742 384.373 9.27102 381.684 7.50954C378.996 5.84078 374.824 4.9137 369.261 4.9137H348.494ZM375.658 15.5753C375.658 18.3565 374.824 20.3034 373.248 21.6014C371.672 22.8993 369.168 23.5483 365.645 23.5483H362.586V12.5158C362.586 10.4762 362.957 9.0856 363.606 8.43664C364.255 7.78767 365.738 7.50954 367.87 7.50954C370.466 7.50954 372.413 8.15852 373.711 9.54916C375.009 10.7544 375.658 12.794 375.658 15.5753Z" fill="#273B91"/>
<path d="M413.297 41.4412C412.556 41.9974 411.629 42.3683 410.516 42.3683C409.033 42.3683 407.642 41.812 406.344 40.6068C405.139 39.4016 404.026 37.6401 403.192 35.3223H401.338L401.801 43.8516H403.285C403.378 43.3881 403.47 43.0172 403.656 42.7391C403.841 42.461 404.119 42.3683 404.397 42.3683C404.675 42.3683 405.139 42.461 405.695 42.7391C406.252 43.0172 406.715 43.2026 406.993 43.2026C407.828 43.4808 408.477 43.6662 408.94 43.7589C409.496 43.8516 409.96 43.9443 410.516 43.9443C412.556 43.9443 414.317 43.2954 415.615 41.9974C416.913 40.6995 417.562 39.0307 417.562 37.0838C417.562 35.3223 417.098 33.839 416.079 32.6338C415.152 31.4286 413.668 30.5942 411.629 29.9452L408.477 28.9254C407.457 28.6473 406.622 28.1837 406.066 27.6275C405.51 27.0712 405.232 26.515 405.232 25.7733C405.232 24.9389 405.603 24.3827 406.252 23.8264C406.9 23.3629 407.735 23.0847 408.847 23.0847C410.053 23.0847 411.165 23.5483 412.185 24.3827C413.205 25.217 414.132 26.6077 414.966 28.3691H416.45L416.079 21.6014H414.781C414.688 21.9722 414.595 22.2503 414.41 22.4358C414.225 22.6212 414.039 22.7139 413.761 22.7139C413.668 22.7139 413.576 22.7139 413.483 22.7139C413.39 22.7139 413.297 22.7139 413.205 22.7139C413.205 22.7139 413.019 22.6212 412.741 22.5285C412.463 22.4358 412.185 22.2504 411.907 22.1576C411.258 21.9722 410.702 21.7868 410.238 21.6941C409.775 21.6014 409.311 21.5087 408.847 21.5087C406.808 21.5087 405.232 22.0649 403.934 23.2701C402.729 24.4754 402.08 25.9587 402.08 27.9056C402.08 29.3889 402.543 30.7796 403.47 31.8921C404.397 33.0046 405.695 33.839 407.364 34.3952L410.516 35.4151C411.907 35.8786 412.927 36.3422 413.483 36.8984C414.039 37.4547 414.317 38.1036 414.317 38.938C414.317 40.0505 413.946 40.8849 413.297 41.4412Z" fill="#273B91"/>
<path d="M430.172 41.9973C429.152 41.9046 428.41 41.7192 428.132 41.4411C427.854 41.1629 427.668 40.514 427.668 39.5869V33.4681H434.993V39.5869C434.993 40.514 434.807 41.1629 434.529 41.4411C434.251 41.7192 433.509 41.9046 432.489 41.9973V43.4807H442.78V41.9973C441.76 41.9046 441.019 41.7192 440.74 41.4411C440.462 41.1629 440.277 40.514 440.277 39.5869V26.144C440.277 25.217 440.462 24.568 440.74 24.2899C441.019 24.0117 441.76 23.8263 442.78 23.7336V22.2502H432.489V23.7336C433.509 23.8263 434.251 24.0117 434.529 24.2899C434.807 24.568 434.993 25.217 434.993 26.144V31.7066H427.668V26.144C427.668 25.217 427.854 24.568 428.132 24.2899C428.41 24.0117 429.152 23.8263 430.172 23.7336V22.2502H419.881V23.7336C420.901 23.8263 421.642 24.0117 421.921 24.2899C422.199 24.568 422.384 25.217 422.384 26.144V39.5869C422.384 40.514 422.199 41.1629 421.921 41.4411C421.642 41.7192 420.901 41.9046 419.881 41.9973V43.4807H430.172V41.9973Z" fill="#273B91"/>
<path d="M447.602 43.9443C448.343 43.9443 448.9 43.6661 449.456 43.2026C449.919 42.7391 450.198 42.0901 450.198 41.3484C450.198 40.6067 449.919 40.0505 449.456 39.4942C448.992 39.0307 448.343 38.7526 447.602 38.7526C446.86 38.7526 446.304 39.0307 445.747 39.4942C445.284 39.9578 445.006 40.6067 445.006 41.3484C445.006 42.0901 445.284 42.6463 445.747 43.2026C446.304 43.6661 446.953 43.9443 447.602 43.9443Z" fill="#273B91"/>
<path d="M463.269 41.9973C461.971 41.9046 461.137 41.7192 460.859 41.4411C460.488 41.1629 460.302 40.514 460.302 39.5869V34.0243H463.454C466.885 34.0243 469.295 33.5608 470.871 32.541C472.447 31.6139 473.189 30.0378 473.189 27.9055C473.189 25.9586 472.447 24.568 470.964 23.6409C469.481 22.7138 467.163 22.2502 464.103 22.2502H452.607V23.7336C453.627 23.8263 454.369 24.0117 454.647 24.2899C454.925 24.568 455.111 25.217 455.111 26.144V39.5869C455.111 40.514 454.925 41.1629 454.647 41.4411C454.369 41.7192 453.627 41.9046 452.607 41.9973V43.4807H463.362V41.9973H463.269ZM460.21 26.3295C460.21 25.217 460.395 24.4753 460.766 24.1044C461.137 23.7336 461.971 23.5482 463.084 23.5482C464.567 23.5482 465.587 23.919 466.328 24.6607C467.07 25.4024 467.348 26.5149 467.348 28.0909C467.348 29.5743 466.885 30.6868 466.05 31.4285C465.216 32.1702 463.733 32.4483 461.878 32.4483H460.21V26.3295Z" fill="#273B91"/>
<path d="M470.59 38.7526C469.848 38.7526 469.292 39.0307 468.736 39.4942C468.272 39.9578 467.994 40.6067 467.994 41.3484C467.994 42.0901 468.272 42.6463 468.736 43.2026C469.199 43.6661 469.848 43.9443 470.59 43.9443C471.332 43.9443 471.888 43.6661 472.444 43.2026C472.908 42.7391 473.186 42.0901 473.186 41.3484C473.186 40.6067 472.908 40.0505 472.444 39.4942C471.981 39.0307 471.332 38.7526 470.59 38.7526Z" fill="#273B91"/>
<path d="M485.705 41.9973C484.685 41.9046 483.943 41.7192 483.665 41.4411C483.387 41.1629 483.202 40.514 483.202 39.5869V34.4879L484.871 33.0045L490.248 40.3286C490.526 40.6994 490.618 40.9775 490.618 41.2556C490.618 41.5338 490.526 41.7192 490.248 41.8119C489.97 41.9046 489.413 41.9973 488.486 41.9973V43.4807H499.055V41.9973C498.499 41.8119 498.035 41.5338 497.572 41.163C497.108 40.7921 496.552 40.2359 496.088 39.6796L488.764 29.7597L493.307 25.5878C493.956 25.0315 494.698 24.568 495.347 24.1971C496.088 23.919 496.737 23.7336 497.479 23.7336H497.664V22.2502H488.115V23.7336H488.301C489.042 23.7336 489.691 23.8263 490.062 24.0117C490.433 24.1972 490.618 24.4753 490.618 24.8461C490.618 25.1242 490.526 25.4024 490.34 25.7732C490.155 26.1441 489.784 26.5149 489.413 26.8857L483.202 32.7264V26.2368C483.202 25.3097 483.387 24.6607 483.665 24.3826C483.943 24.1044 484.685 23.919 485.705 23.8263V22.343H475.507V23.8263C476.527 23.919 477.268 24.1044 477.547 24.3826C477.825 24.6607 478.01 25.3097 478.01 26.2368V39.6796C478.01 40.6067 477.825 41.2557 477.547 41.5338C477.268 41.8119 476.527 41.9973 475.507 42.09V43.5734H485.705V41.9973Z" fill="#273B91"/>
<path d="M501.835 43.9443C502.577 43.9443 503.133 43.6661 503.689 43.2026C504.153 42.7391 504.431 42.0901 504.431 41.3484C504.431 40.6067 504.153 40.0505 503.689 39.4942C503.226 39.0307 502.577 38.7526 501.835 38.7526C501.093 38.7526 500.537 39.0307 499.981 39.4942C499.517 39.9578 499.239 40.6067 499.239 41.3484C499.239 42.0901 499.517 42.6463 499.981 43.2026C500.537 43.6661 501.093 43.9443 501.835 43.9443Z" fill="#273B91"/>
</svg>
