<svg width="93" height="93" viewBox="0 0 93 93" fill="none" xmlns="http://www.w3.org/2000/svg">
<rect width="92.9925" height="92.9925" rx="26" fill="#FFF7E5"/>
<path d="M46.4958 69.2245C42.4577 69.2245 38.5104 68.027 35.1529 65.7836C31.7954 63.5402 29.1785 60.3516 27.6332 56.6209C26.0879 52.8903 25.6836 48.7851 26.4714 44.8247C27.2592 40.8642 29.2037 37.2263 32.059 34.371C34.9143 31.5157 38.5522 29.5712 42.5127 28.7834C46.4731 27.9956 50.5782 28.4 54.3089 29.9452C58.0396 31.4905 61.2282 34.1074 63.4716 37.4649C65.715 40.8224 66.9124 44.7698 66.9124 48.8078C66.9001 54.2188 64.7451 59.4047 60.9189 63.2309C57.0927 67.0571 51.9068 69.2121 46.4958 69.2245ZM46.4958 31.8911C43.15 31.8911 39.8793 32.8833 37.0974 34.7421C34.3155 36.6009 32.1472 39.2429 30.8668 42.3341C29.5864 45.4252 29.2514 48.8266 29.9042 52.1081C30.5569 55.3896 32.1681 58.4038 34.5339 60.7697C36.8997 63.1355 39.914 64.7467 43.1955 65.3994C46.477 66.0521 49.8784 65.7171 52.9695 64.4368C56.0606 63.1564 58.7026 60.9881 60.5615 58.2062C62.4203 55.4243 63.4124 52.1536 63.4124 48.8078C63.4063 44.3231 61.622 40.0239 58.4509 36.8527C55.2797 33.6816 50.9805 31.8973 46.4958 31.8911Z" fill="#F6BA40"/>
<path d="M67.4962 36.5577C67.2663 36.5588 67.0385 36.514 66.8261 36.4258C66.6137 36.3377 66.4211 36.208 66.2596 36.0444L56.9262 26.7111C56.6171 26.3793 56.4488 25.9406 56.4568 25.4872C56.4648 25.0338 56.6485 24.6013 56.9691 24.2806C57.2897 23.96 57.7223 23.7763 58.1757 23.7683C58.629 23.7603 59.0678 23.9286 59.3996 24.2377L68.7329 33.5711C69.0606 33.8992 69.2447 34.344 69.2447 34.8077C69.2447 35.2715 69.0606 35.7163 68.7329 36.0444C68.5713 36.208 68.3787 36.3377 68.1663 36.4258C67.954 36.514 67.7261 36.5588 67.4962 36.5577Z" fill="#F6BA40"/>
<path d="M25.496 36.5577C25.2661 36.5588 25.0383 36.514 24.8259 36.4258C24.6135 36.3377 24.4209 36.208 24.2594 36.0444C23.9316 35.7163 23.7476 35.2715 23.7476 34.8077C23.7476 34.344 23.9316 33.8992 24.2594 33.5711L33.5927 24.2377C33.9244 23.9286 34.3632 23.7603 34.8166 23.7683C35.2699 23.7763 35.7025 23.96 36.0231 24.2806C36.3438 24.6013 36.5274 25.0338 36.5354 25.4872C36.5434 25.9406 36.3751 26.3793 36.066 26.7111L26.7327 36.0444C26.5711 36.208 26.3785 36.3377 26.1661 36.4258C25.9538 36.514 25.7259 36.5588 25.496 36.5577Z" fill="#F6BA40"/>
<path d="M51.1628 52.8913C50.8882 52.8853 50.6179 52.8217 50.3694 52.7046L45.7028 50.3713C45.416 50.2225 45.1754 49.9983 45.0068 49.7228C44.8382 49.4473 44.7481 49.1309 44.7461 48.8079V39.4746C44.7461 39.0105 44.9305 38.5654 45.2587 38.2372C45.5868 37.909 46.032 37.7246 46.4961 37.7246C46.9602 37.7246 47.4053 37.909 47.7335 38.2372C48.0617 38.5654 48.2461 39.0105 48.2461 39.4746V47.7346L51.9561 49.5779C52.1609 49.6795 52.3434 49.8207 52.4932 49.9933C52.643 50.166 52.757 50.3667 52.8286 50.5837C52.9003 50.8008 52.9281 51.0299 52.9105 51.2578C52.8929 51.4857 52.8302 51.7078 52.7261 51.9113C52.5827 52.204 52.3603 52.4509 52.0841 52.624C51.8079 52.7972 51.4888 52.8898 51.1628 52.8913Z" fill="#F6BA40"/>
</svg>
