<svg width="93" height="93" viewBox="0 0 93 93" fill="none" xmlns="http://www.w3.org/2000/svg">
<rect width="92.9925" height="92.9925" rx="26" fill="#292929"/>
<path d="M46.4961 76.0652C45.6641 76.0645 44.8461 75.8508 44.1199 75.4445L34.7053 70.2148C30.0251 67.6123 26.1254 63.8065 23.4097 59.1912C20.694 54.5758 19.2609 49.3186 19.2588 43.9636V29.4488C19.258 28.2403 19.7056 27.0746 20.515 26.1772C21.3244 25.2799 22.438 24.7148 23.6401 24.5914C27.3854 24.1946 31.0716 23.3615 34.6234 22.1089C37.8802 20.9579 41.0044 19.4617 43.9426 17.6458C44.7115 17.1756 45.5952 16.927 46.4963 16.9272C47.3975 16.9275 48.2811 17.1766 49.0496 17.6471C51.9882 19.4621 55.1124 20.9579 58.3688 22.1089C61.9207 23.3615 65.6068 24.1947 69.3521 24.5915C70.5543 24.7149 71.6678 25.28 72.4772 26.1773C73.2866 27.0746 73.7342 28.2404 73.7335 29.4488V43.9636C73.7314 49.3187 72.2983 54.5759 69.5826 59.1913C66.8669 63.8066 62.9671 67.6124 58.287 70.2148L48.8696 75.446C48.1442 75.8515 47.3271 76.0647 46.4961 76.0652ZM46.4961 21.1131C46.373 21.1125 46.2522 21.146 46.1469 21.2099C42.9536 23.1819 39.5588 24.8084 36.0202 26.059C32.1598 27.4213 28.1531 28.3269 24.0821 28.7571C23.9091 28.7721 23.7481 28.8516 23.6308 28.9796C23.5136 29.1077 23.4488 29.2752 23.4491 29.4488V43.9636C23.4508 48.5714 24.6839 53.095 27.0207 57.0662C29.3575 61.0374 32.7132 64.312 36.7404 66.5509L46.1579 71.7821C46.2607 71.84 46.3766 71.8705 46.4946 71.8707C46.6126 71.871 46.7287 71.8409 46.8317 71.7834L56.2518 66.5511C60.2791 64.3121 63.6348 61.0376 65.9716 57.0663C68.3084 53.095 69.5415 48.5714 69.5431 43.9636V29.4488C69.5434 29.2752 69.4786 29.1078 69.3614 28.9797C69.2442 28.8516 69.0832 28.7722 68.9102 28.7572C64.8391 28.3269 60.8325 27.4214 56.972 26.059C53.4335 24.8083 50.0386 23.1832 46.8453 21.2112C46.7405 21.1463 46.6194 21.1123 46.4961 21.1131Z" fill="#F6BA40"/>
<path d="M45.0992 52.7181C44.5861 52.719 44.0907 52.5305 43.708 52.1889L37.4224 46.6017C37.009 46.2322 36.759 45.7138 36.7271 45.1603C36.6952 44.6067 36.8842 44.0631 37.2525 43.6486C37.6207 43.234 38.1384 42.9825 38.6918 42.949C39.2453 42.9155 39.7895 43.1028 40.2051 43.4699L44.9656 47.7011L54.0475 38.015C54.2349 37.8108 54.4609 37.6457 54.7124 37.5294C54.964 37.413 55.2362 37.3478 55.5131 37.3374C55.7901 37.327 56.0664 37.3717 56.326 37.4688C56.5856 37.5659 56.8233 37.7136 57.0254 37.9033C57.2275 38.0929 57.39 38.3208 57.5034 38.5737C57.6169 38.8266 57.679 39.0995 57.6862 39.3766C57.6934 39.6536 57.6456 39.9294 57.5455 40.1878C57.4454 40.4463 57.295 40.6823 57.103 40.8822L46.6271 52.0565C46.4314 52.2657 46.1948 52.4324 45.932 52.5463C45.6691 52.6601 45.3856 52.7186 45.0992 52.7181Z" fill="#F6BA40"/>
</svg>
