<svg width="103" height="101" viewBox="0 0 103 101" fill="none" xmlns="http://www.w3.org/2000/svg">
<path fill-rule="evenodd" clip-rule="evenodd" d="M32.041 80.5896L28.8219 86.1409C28.0065 87.5499 26.1904 88.034 24.7788 87.2218C23.3706 86.413 22.8816 84.5951 23.6948 83.193L26.9128 77.6409C27.7295 76.2319 29.5443 75.7477 30.959 76.5609C32.3705 77.3752 32.8587 79.1806 32.041 80.5896ZM38.7156 81.0218C38.2514 80.7552 37.7431 80.6282 37.2404 80.6282C36.2168 80.6282 35.2195 81.1571 34.6727 82.1017L29.4536 91.1038C28.6371 92.5107 29.1266 94.3197 30.5377 95.1327C31.9503 95.9459 33.7651 95.4617 34.5808 94.053L39.7999 85.0508C40.6153 83.6419 40.129 81.8362 38.7156 81.0218ZM18.0417 44.2949C18.1613 44.1944 18.1449 44.022 18.0074 43.9471L12.4745 40.8814C12.0741 40.6617 11.6412 40.6961 11.2814 40.9763C3.09923 47.4041 -1.4664 58.7607 0.424848 67.9771C0.500034 68.3503 0.707572 68.6026 1.05947 68.7507L5.40058 70.5865C5.54598 70.6472 5.69531 70.5523 5.69531 70.3938C5.80198 60.0025 10.0708 50.9791 18.0417 44.2949ZM47.8491 87.2759C47.6432 86.5106 47.1548 85.8754 46.4742 85.4818C46.01 85.2163 45.4999 85.0892 44.9991 85.0892C43.9755 85.0892 42.9782 85.6181 42.4291 86.5625L38.0789 94.0689C37.3256 95.4657 37.8193 97.2218 39.2079 98.0191C39.8885 98.4107 40.6853 98.5138 41.4527 98.3086C42.2201 98.1033 42.8578 97.6171 43.253 96.9392L47.5585 89.5117C47.9516 88.8328 48.0552 88.0402 47.8491 87.2759ZM79.4286 75.2029L65.5464 67.2182C62.8355 65.6568 60.3063 64.19 57.0684 64.19C54.1744 64.2067 51.5564 65.4812 49.0233 66.7153C45.0272 68.6593 40.4983 70.8627 35.6093 66.8318C34.221 65.6842 33.4275 63.9693 33.5352 62.3491C33.6354 60.8632 34.4615 59.5646 35.8635 58.694L47.2727 51.6114C43.9425 49.9621 40.8769 50.226 37.4161 50.5261C32.8461 50.9187 27.6655 51.3686 20.9744 47.6199L19.6693 46.8878C12.6739 52.8931 8.99997 60.5884 8.74542 69.7743L19.7834 75.4436C19.9402 75.5229 20.0803 75.6291 20.1996 75.757L22.8512 78.5978L24.2842 76.1277C25.9373 73.2766 29.611 72.2956 32.4768 73.942C34.0178 74.8281 35.0139 76.2973 35.3484 77.9101C36.9175 77.3925 38.6926 77.5173 40.2334 78.4031C41.7752 79.2889 42.7723 80.7583 43.107 82.3709C44.6766 81.8535 46.452 81.9783 47.9922 82.8642C49.3764 83.6598 50.3654 84.9487 50.7816 86.492C50.8122 86.6054 50.8391 86.7189 50.863 86.8328C52.4325 86.3148 54.209 86.4394 55.7509 87.325C56.8909 87.9812 57.7647 88.9733 58.2695 90.1677L64.9608 94.0134C66.2605 94.7637 67.9484 94.3141 68.6986 93.0178C69.4334 91.7464 69.0155 90.0971 67.7582 89.3314L59.5659 84.6189C58.8403 84.2013 58.5905 83.2776 59.0085 82.5539C59.4298 81.8292 60.3583 81.5833 61.0849 81.9998C64.2516 83.8209 67.4185 85.6423 70.5855 87.4634C72.0231 88.2913 73.8694 87.7986 74.6996 86.366C75.5185 84.9545 75.0359 83.1191 73.6298 82.2867L65.588 77.6638C64.8635 77.2452 64.6135 76.3204 65.0327 75.5967C65.4529 74.8728 66.3815 74.6261 67.106 75.0439C70.2332 76.8419 73.3603 78.6399 76.4875 80.4378C77.9191 81.2607 79.7741 80.7666 80.6005 79.3403C81.5181 77.7597 80.8033 76.2024 79.4286 75.2029ZM91.7195 40.9763C91.5145 40.8189 91.2897 40.7368 91.0578 40.7368C90.879 40.7368 90.6992 40.7867 90.5257 40.8814L84.9907 43.9471C84.9145 43.9898 84.8905 44.0253 84.882 44.1138C84.8737 44.2002 84.8902 44.2386 84.9584 44.2949C92.9293 50.9789 97.1982 60.0029 97.3048 70.3942C97.3048 70.5527 97.4542 70.6476 97.5996 70.5869L101.939 68.7511C102.291 68.6032 102.498 68.3493 102.575 67.9775C104.467 58.7611 99.9007 47.4043 91.7195 40.9763ZM83.2968 46.8599L80.5806 48.3654C76.0995 50.8479 71.1041 51.2966 66.135 49.6659C61.7355 48.2227 57.1226 49.0588 52.0247 52.2233L37.4701 61.2609C36.8952 61.6192 36.6002 62.0399 36.5658 62.5521C36.5199 63.2091 36.9066 63.9734 37.5453 64.5013C40.7698 67.1608 43.3698 66.0997 47.689 63.9974C50.3957 62.6792 53.4655 61.1869 57.0483 61.165C60.9617 61.165 63.791 62.7134 67.0673 64.6003L81.0164 72.6236C81.7221 73.0179 82.6525 73.9825 83.0881 74.6734L94.2475 69.5317C93.9351 60.4386 90.2527 52.8166 83.2968 46.8599ZM60.9604 95.207L58.5957 93.8471C58.4638 94.4152 58.2467 94.9662 57.9464 95.4846L56.3395 98.2572L57.6077 98.9677C59.8293 100.244 61.2786 99.5509 61.8985 98.4814C62.4623 97.508 62.4012 96.0798 60.9604 95.207ZM54.2326 89.9439C52.8221 89.1406 51.0104 89.6066 50.1875 91.0238L46.9684 96.5782C46.1536 97.9837 46.642 99.7943 48.0525 100.606C49.4671 101.418 51.2799 100.934 52.0966 99.5271L55.3147 93.9727C56.132 92.5704 55.6376 90.7564 54.2326 89.9439ZM29.7738 21.6389C29.7738 9.68827 39.5012 0 51.5001 0C63.4989 0 73.2263 9.68827 73.2263 21.6389C73.2263 33.5896 63.4991 43.2779 51.5001 43.2779C39.501 43.2779 29.7738 33.5898 29.7738 21.6389ZM38.7663 21.74L43.8433 30.4983C44.3514 31.3749 45.1621 31.9143 46.1697 32.0465C47.1772 32.1786 48.1008 31.8664 48.8191 31.1508L63.7612 16.2688C64.9211 15.1137 64.9211 13.2233 63.7612 12.0683C62.6015 10.9132 60.7036 10.9132 59.5437 12.0683L47.1832 24.3791L43.9318 18.77C43.1128 17.3572 41.2764 16.8672 39.8581 17.6829C38.4376 18.4996 37.9461 20.3253 38.7663 21.74ZM82.8455 15.9106C83.2643 11.7091 86.6013 8.38554 90.8198 7.96842C86.6013 7.5513 83.2643 4.22774 82.8455 0.0261992C82.4267 4.22774 79.0898 7.5513 74.8713 7.96842C79.0898 8.38554 82.4267 11.7091 82.8455 15.9106ZM18.9402 34.205C19.2828 30.7673 22.0131 28.048 25.4646 27.7068C22.0131 27.3656 19.2828 24.6462 18.9402 21.2086C18.5977 24.6462 15.8674 27.3656 12.4159 27.7068C15.8674 28.048 18.5977 30.7673 18.9402 34.205Z" fill="white"/>
</svg>
