<svg width="93" height="93" viewBox="0 0 93 93" fill="none" xmlns="http://www.w3.org/2000/svg">
<rect width="92.9925" height="92.9925" rx="26" fill="#FFF7E5"/>
<path d="M67.5121 54.7688C68.4548 53.5664 68.9069 52.2774 68.8492 50.9499C68.7915 49.4877 68.1373 48.343 67.5987 47.6408C68.2239 46.0825 68.4644 43.6295 66.377 41.7249C64.8475 40.3301 62.2503 39.7048 58.6526 39.8779C56.1227 39.9934 54.0064 40.4647 53.9199 40.484H53.9102C53.4293 40.5705 52.9194 40.6764 52.4 40.7918C52.3615 40.1761 52.4673 38.6467 53.6024 35.2029C54.9491 31.105 54.8722 27.9691 53.3523 25.8721C51.7555 23.6692 49.2064 23.4961 48.456 23.4961C47.7346 23.4961 47.0708 23.7943 46.5995 24.3426C45.5317 25.5835 45.6568 27.8729 45.7915 28.9311C44.5217 32.3363 40.9625 40.686 37.9516 43.0042C37.8939 43.0427 37.8458 43.0908 37.7977 43.1389C36.9128 44.072 36.3163 45.082 35.9123 45.967C35.3448 45.6592 34.7003 45.4861 34.0077 45.4861H28.1399C25.9274 45.4861 24.1382 47.2849 24.1382 49.4877V65.1193C24.1382 67.3317 25.937 69.1209 28.1399 69.1209H34.0077C34.8638 69.1209 35.6622 68.8516 36.3163 68.3899L38.5769 68.6592C38.9232 68.7073 45.0796 69.4865 51.3996 69.3614C52.5443 69.448 53.6217 69.4961 54.6221 69.4961C56.344 69.4961 57.8446 69.3614 59.0951 69.0921C62.0386 68.4668 64.0491 67.2163 65.0688 65.379C65.8479 63.9746 65.8479 62.5797 65.7229 61.6948C67.6371 59.9633 67.9738 58.049 67.9065 56.7023C67.868 55.9231 67.6949 55.2594 67.5121 54.7688ZM28.1399 66.5237C27.3607 66.5237 26.7354 65.8888 26.7354 65.1193V49.4781C26.7354 48.6989 27.3703 48.0737 28.1399 48.0737H34.0077C34.7869 48.0737 35.4121 48.7086 35.4121 49.4781V65.1096C35.4121 65.8888 34.7772 66.5141 34.0077 66.5141H28.1399V66.5237ZM65.0495 53.6433C64.6455 54.0666 64.5685 54.7111 64.8764 55.2113C64.8764 55.2209 65.2708 55.8943 65.3189 56.8177C65.3862 58.0779 64.7802 59.1937 63.5104 60.146C63.0583 60.4923 62.8755 61.0887 63.0679 61.6274C63.0679 61.637 63.4816 62.9068 62.8082 64.1092C62.1637 65.2636 60.7304 66.0908 58.5564 66.5526C56.8153 66.9277 54.4489 66.995 51.5439 66.7642C51.5054 66.7642 51.4573 66.7642 51.4092 66.7642C45.2239 66.8989 38.9713 66.0908 38.904 66.0812H38.8944L37.9228 65.9658C37.9805 65.6964 38.0094 65.4078 38.0094 65.1193V49.4781C38.0094 49.0645 37.942 48.6605 37.8266 48.2853C37.9997 47.6408 38.4807 46.2075 39.6158 44.9858C43.9349 41.5613 48.1578 30.0084 48.3406 29.5082C48.4176 29.3062 48.4368 29.085 48.3983 28.8637C48.2348 27.7863 48.2925 26.4685 48.5234 26.0741C49.0332 26.0837 50.4088 26.228 51.236 27.3727C52.2172 28.7291 52.1787 31.1531 51.1206 34.366C49.5046 39.2623 49.3699 41.8403 50.6493 42.9754C51.2841 43.5429 52.1307 43.5718 52.7463 43.3505C53.3331 43.2159 53.891 43.1004 54.4201 43.0139C54.4585 43.0042 54.5066 42.9946 54.5451 42.985C57.4983 42.3405 62.789 41.9461 64.6263 43.6199C66.1846 45.0436 65.0784 46.929 64.9533 47.131C64.5974 47.6697 64.7032 48.3719 65.1842 48.8048C65.1938 48.8144 66.2038 49.7667 66.2519 51.0461C66.2904 51.9022 65.8864 52.7776 65.0495 53.6433Z" fill="#F6BA40"/>
</svg>
