<svg width="132" height="132" viewBox="0 0 132 132" fill="none" xmlns="http://www.w3.org/2000/svg">
<circle cx="66" cy="66" r="66" fill="url(#paint0_linear_2009_12)"/>
<path d="M47.3827 47.5108C48.3907 47.7648 49.3046 48.3031 50.0153 49.0618C51.1883 49.3225 52.3483 49.531 53.5082 49.7265C58.8116 50.6207 64.2074 50.8353 69.5651 50.3651C71.4278 50.1983 73.2809 49.9373 75.1172 49.5832C75.4425 48.9448 75.9693 48.4316 76.6161 48.1234C78.4715 47.3656 80.0654 46.0826 81.2022 44.4319C82.3389 42.7811 82.9691 40.8345 83.0153 38.8308C83.1816 37.4619 82.8282 36.0806 82.0248 34.9599C78.8491 30.0452 71.2904 30.6176 67.8708 35.2728C66.4916 37.1024 63.9656 39.6788 62.3837 40.121C62.241 40.165 62.0907 40.1784 61.9425 40.1604C61.7943 40.1425 61.6516 40.0935 61.5236 40.0167C60.8199 39.5584 60.6115 38.7406 62.0318 37.9314C65.9531 35.8117 66.0959 30.9172 63.1657 29.6033C59.2986 27.3709 54.0887 31.8169 52.974 35.0643C49.5461 34.8947 43.7985 36.0024 43.1598 41.2809C42.9668 42.6579 43.2919 44.0576 44.0721 45.2087C44.8523 46.3597 46.032 47.1801 47.3827 47.5108ZM69.917 36.8888C72.0433 33.9957 76.5495 33.0388 79.0793 35.5334C79.496 35.8626 79.8348 36.2798 80.0714 36.7552C80.3079 37.2306 80.4365 37.7524 80.4478 38.2833C79.9291 42.866 73.3223 41.1102 69.6564 39.2739C69.6173 39.2477 69.1089 38.9741 68.4312 38.6613C68.9134 38.1138 69.4087 37.5275 69.917 36.8888ZM45.7405 41.6068C46.1575 38.1791 50.1717 37.6838 52.2049 37.6577C51.5839 40.3091 52.7101 42.5384 50.7321 44.2916C50.2703 44.7037 49.6928 44.9637 49.0781 45.0363C48.4634 45.1089 47.8412 44.9905 47.2961 44.6973C46.7509 44.4041 46.3092 43.9502 46.0309 43.3973C45.7526 42.8444 45.6512 42.2193 45.7405 41.6068Z" fill="white"/>
<path d="M53.7037 55.8391C61.4293 57.1736 69.3414 56.9832 76.9939 55.2787C76.1624 54.3817 75.4605 53.3727 74.9086 52.2811C67.1547 53.6186 59.2215 53.5258 51.5011 52.0073C51.711 53.1487 51.5654 54.3269 51.084 55.3829C51.9702 55.5523 52.8435 55.7087 53.7037 55.8391Z" fill="white"/>
<path d="M89.9104 80.4848C89.2808 71.8407 84.4708 64.2787 78.767 57.5334C69.1435 59.8394 59.118 59.8974 49.4684 57.7029L45.1414 63.1638C44.7895 63.5417 37.2954 71.7657 36.8523 82.7657C37.4988 81.9004 38.2217 81.0951 39.0124 80.3593C39.1369 80.2329 39.2867 80.134 39.4519 80.0692C39.6171 80.0043 39.7942 79.975 39.9715 79.9829C40.1488 79.9909 40.3224 80.0361 40.4812 80.1155C40.6399 80.1949 40.7802 80.3068 40.8929 80.4439L40.9144 80.4698C41.1158 80.7078 41.2219 81.0119 41.2122 81.3234C41.2025 81.635 41.0777 81.932 40.8619 82.1569C38.2144 84.8667 35.5062 88.7395 35.0277 92.6577C34.3561 102.193 46.0621 103.007 53.691 101.273C48.6804 98.8312 45.2671 92.7816 44.644 88.1627C44.6214 87.9901 44.6337 87.8148 44.68 87.647C44.7264 87.4792 44.806 87.3225 44.914 87.186C45.022 87.0495 45.1563 86.9361 45.3089 86.8525C45.4615 86.7688 45.6294 86.7166 45.8025 86.6989L45.8351 86.6955C46.1648 86.6554 46.4972 86.7448 46.7623 86.9449C47.0274 87.145 47.2045 87.4402 47.2564 87.7682C48.8905 99.8836 62.5736 103.628 74.3749 101.038C78.959 99.9691 83.0235 97.3276 85.8617 93.5725C88.7 89.8175 90.1326 85.1866 89.9104 80.4848ZM69.1877 87.5228V88.5394C69.1866 88.8843 69.0488 89.2147 68.8045 89.4583C68.5602 89.7018 68.2293 89.8386 67.8843 89.8386C67.5394 89.8386 67.2085 89.7018 66.9642 89.4583C66.7199 89.2147 66.5821 88.8843 66.581 88.5394V87.5228C65.5414 87.2464 64.6132 86.6541 63.9245 85.8277C63.2358 85.0012 62.8206 83.9814 62.7362 82.909C62.7153 82.5678 62.8295 82.2321 63.0541 81.9745C63.2788 81.7169 63.5958 81.558 63.9367 81.5324C64.2775 81.5067 64.6148 81.6162 64.8755 81.8373C65.1362 82.0583 65.2994 82.3731 65.3298 82.7136C65.3647 83.2105 65.544 83.6863 65.8456 84.0827C66.1471 84.4792 66.5579 84.7789 67.0274 84.9452C67.4969 85.1115 68.0047 85.137 68.4886 85.0187C68.9724 84.9005 69.4112 84.6435 69.751 84.2793C70.0909 83.9152 70.317 83.4598 70.4017 82.9689C70.4863 82.4781 70.4258 81.9732 70.2276 81.5163C70.0293 81.0593 69.702 80.6702 69.2857 80.3967C68.8695 80.1232 68.3824 79.9772 67.8843 79.9765C66.6369 79.964 65.4361 79.5005 64.5037 78.6718C63.5713 77.8431 62.9702 76.705 62.8114 75.4676C62.6526 74.2303 62.9468 72.9773 63.6397 71.9399C64.3326 70.9026 65.3774 70.1509 66.5812 69.8237L66.5811 68.7941C66.5863 68.4519 66.7259 68.1254 66.9697 67.8852C67.2136 67.645 67.5421 67.5104 67.8844 67.5104C68.2267 67.5104 68.5552 67.645 68.7991 67.8852C69.0429 68.1254 69.1825 68.4519 69.1877 68.7941V69.8236C70.2003 70.0844 71.1089 70.6488 71.7915 71.4409C72.4741 72.233 72.898 73.215 73.0064 74.255C73.0252 74.4249 73.0102 74.5968 72.9624 74.7608C72.9146 74.9249 72.8348 75.0779 72.7277 75.2111C72.6206 75.3442 72.4882 75.4549 72.3382 75.5367C72.1882 75.6186 72.0235 75.67 71.8536 75.688C71.6836 75.7061 71.5118 75.6903 71.3479 75.6418C71.1841 75.5932 71.0315 75.5127 70.8988 75.405C70.7661 75.2973 70.6561 75.1644 70.5749 75.014C70.4937 74.8636 70.4431 74.6987 70.4258 74.5286C70.3708 74.0384 70.1751 73.5746 69.8623 73.1932C69.5495 72.8117 69.133 72.5289 68.663 72.3789C68.1931 72.2289 67.6898 72.2181 67.2138 72.3478C66.7379 72.4775 66.3096 72.7422 65.9808 73.1098C65.6519 73.4775 65.4364 73.9325 65.3604 74.4199C65.2843 74.9073 65.351 75.4063 65.5522 75.8567C65.7535 76.307 66.0807 76.6896 66.4945 76.9581C66.9084 77.2266 67.391 77.3696 67.8843 77.3699C69.1317 77.3825 70.3324 77.846 71.2648 78.6747C72.1972 79.5035 72.7982 80.6415 72.9571 81.8788C73.1159 83.1161 72.8217 84.3691 72.1289 85.4064C71.4361 86.4438 70.3914 87.1955 69.1877 87.5228Z" fill="white"/>
<path d="M97.2739 88.3438C96.6878 84.9134 94.9885 81.7714 92.4385 79.4031C92.9167 84.6757 91.5484 89.9507 88.5677 94.3261C87.9389 95.2501 87.2418 96.1257 86.4824 96.9458C86.8028 96.978 87.1249 96.9911 87.4469 96.9849C92.5484 97.1383 98.1005 94.1005 97.2739 88.3438Z" fill="white"/>
<defs>
<linearGradient id="paint0_linear_2009_12" x1="66" y1="0" x2="66" y2="132" gradientUnits="userSpaceOnUse">
<stop stop-color="#9F001B"/>
<stop offset="1" stop-color="#1B2556"/>
</linearGradient>
</defs>
</svg>
