<svg width="93" height="93" viewBox="0 0 93 93" fill="none" xmlns="http://www.w3.org/2000/svg">
<rect width="92.9925" height="92.9925" rx="26" fill="#FFF7E5"/>
<path fill-rule="evenodd" clip-rule="evenodd" d="M44.5632 41.8558C41.7313 42.0125 39.5319 44.2349 39.5319 46.8784C39.5319 49.522 41.7313 51.7444 44.5632 51.901V56.2222C43.5713 56.2128 42.6729 55.6292 42.2344 54.8163C41.8535 54.1191 40.9766 53.8618 40.2794 54.2406C39.5823 54.6201 39.3307 55.4941 39.7044 56.1905C40.6244 57.8818 42.5075 59.0878 44.5632 59.0972V60.5347C44.5632 61.3282 45.21 61.9722 46.0007 61.9722C46.7913 61.9722 47.4382 61.3282 47.4382 60.5347V59.0885C50.27 58.9319 52.4694 56.7095 52.4694 54.0659C52.4694 51.4224 50.27 49.2 47.4382 49.0433V44.7222C48.43 44.7315 49.3285 45.3151 49.7669 46.128C50.1478 46.8252 51.0247 47.0825 51.7219 46.7038C52.4191 46.3243 52.6707 45.4503 52.2969 44.7538C51.3769 43.0626 49.4938 41.8565 47.4382 41.8472V40.4097C47.4382 39.6162 46.7913 38.9722 46.0007 38.9722C45.21 38.9722 44.5632 39.6162 44.5632 40.4097V41.8558ZM47.4382 51.9276V56.2042C48.6313 56.0698 49.5944 55.1922 49.5944 54.0659C49.5944 52.9396 48.6313 52.062 47.4382 51.9276ZM44.5632 44.7401C43.37 44.8745 42.4069 45.7521 42.4069 46.8784C42.4069 48.0047 43.37 48.8823 44.5632 49.0167V44.7401Z" fill="#F6BA40"/>
<path fill-rule="evenodd" clip-rule="evenodd" d="M25.8755 58.3784C25.8755 61.1061 26.9033 64.0062 28.7721 65.9907C30.6768 68.0054 33.3217 69.1467 36.0889 69.1467C42.0617 69.1597 49.9393 69.1597 55.9121 69.1597C58.6865 69.1597 61.3314 68.0161 63.2361 65.9993C65.112 64.012 66.1255 61.1097 66.1255 58.3784C66.1255 50.0107 65.0115 44.7739 62.7906 40.7791C60.9218 37.4168 58.2623 34.9184 54.726 32.2087C55.4735 31.7329 56.2138 31.1119 56.8751 30.3932C58.0323 29.149 58.3486 27.3263 57.6658 25.7594C56.983 24.1918 55.4377 23.1784 53.7271 23.1784C49.3355 23.1597 42.6727 23.1597 38.2739 23.1597C36.5561 23.1589 35.0036 24.1774 34.3136 25.7515C33.6308 27.3263 33.9471 29.1569 35.1187 30.4126V30.4169C35.7871 31.1248 36.5274 31.7387 37.2749 32.2102C33.7387 34.9191 31.0792 37.4175 29.2104 40.7791C26.9895 44.7739 25.8755 50.0107 25.8755 58.3784ZM51.2834 33.2222C55.3084 36.1777 58.3056 38.6236 60.2749 42.1756C62.3162 45.8492 63.2505 50.6828 63.2505 58.3784C63.2505 60.3988 62.5318 62.5572 61.1446 64.0271C59.7862 65.4682 57.8958 66.2847 55.9121 66.2847C49.9393 66.2847 42.0617 66.2847 36.0889 66.2717C34.1123 66.2717 32.222 65.4567 30.8636 64.0184C29.4836 62.5508 28.7505 60.3952 28.7505 58.3784C28.7505 50.6828 29.6848 45.8492 31.726 42.1756C33.7026 38.6229 36.6926 36.1777 40.7176 33.2222H51.2834ZM51.7505 30.3472H40.2505C39.2658 30.3472 38.1733 29.4681 37.2174 28.4511C36.8293 28.0321 36.7285 27.4226 36.9514 26.8986C37.1814 26.3739 37.6989 26.0347 38.2739 26.0347C42.6655 26.0347 49.3283 26.0347 53.7199 26.0534H53.7271C54.2949 26.0534 54.8052 26.3883 55.028 26.9058C55.258 27.424 55.1501 28.0263 54.7692 28.4396C54.762 28.4418 54.762 28.4439 54.762 28.4461C53.8204 29.4703 52.728 30.3472 51.7505 30.3472Z" fill="#F6BA40"/>
</svg>
