<svg width="102" height="102" viewBox="0 0 102 102" fill="none" xmlns="http://www.w3.org/2000/svg">
<path fill-rule="evenodd" clip-rule="evenodd" d="M75.392 43.9238C76.1709 43.9238 76.8222 44.3262 77.0492 44.9561L78.3539 48.3047C81.3662 48.9597 84.2029 50.1689 86.7133 51.7803L90.0004 50.3203C90.6032 50.0685 91.3572 50.2454 91.9086 50.7988L95.1723 54.0732C95.7239 54.6267 95.9007 55.3825 95.6235 55.9873L94.1684 59.2852C95.7998 61.8044 96.9791 64.6257 97.6313 67.6729L100.996 68.957C101.599 69.2088 101.999 69.8635 101.999 70.6436V75.2783C101.999 76.0589 101.599 76.714 100.996 76.9658L97.6313 78.25C96.9793 81.2975 95.8 84.1192 94.1684 86.6367L95.6235 89.9365C95.9009 90.5409 95.7239 91.2965 95.1723 91.8506L91.9086 95.124C91.3572 95.6787 90.6032 95.8547 90.0004 95.6035L86.7133 94.1162C84.2029 95.7532 81.3662 96.9625 78.3539 97.5928L77.0492 100.968C76.822 101.596 76.1706 102 75.392 102H70.7485C69.9953 102 69.342 101.596 69.0912 100.968L67.8119 97.5928C64.7739 96.9625 61.963 95.7533 59.4526 94.1162L56.1645 95.6035C55.5371 95.8549 54.8089 95.6786 54.2563 95.124L50.9682 91.8506C50.4408 91.2963 50.265 90.5409 50.516 89.9365L51.9721 86.6367C50.3405 84.1192 49.1617 81.2975 48.5082 78.25L45.1703 76.9658C44.5419 76.714 44.1401 76.0589 44.1401 75.2783V70.6436C44.1401 69.8635 44.542 69.2088 45.1703 68.957L48.5082 67.6729C49.1615 64.6257 50.3403 61.8044 51.9721 59.2852L50.516 55.9873C50.265 55.3825 50.441 54.6265 50.9682 54.0732L54.2563 50.7988C54.8091 50.2454 55.5371 50.0687 56.1645 50.3203L59.4526 51.7803C61.963 50.1692 64.7739 48.9599 67.8119 48.3047L69.0912 44.9561C69.3422 44.3262 69.9953 43.9239 70.7485 43.9238H75.392ZM95.1977 36.5938C96.1014 36.5938 96.8791 36.9471 97.4311 37.6514C98.0085 38.3318 98.2338 39.1884 98.059 40.0693L95.9008 51.1768L93.6908 48.9854C92.4615 47.7264 90.6041 47.2734 88.9721 48.0029L86.8891 48.9102C84.8059 47.7013 82.571 46.769 80.2621 46.1387L79.434 44.0234C78.8055 42.3613 77.1493 41.3799 75.392 41.3799H70.7485C68.9911 41.38 67.3597 42.3615 66.7074 44.0234L65.9037 46.1387C63.5689 46.769 61.3356 47.7014 59.2524 48.9102L57.1928 48.0029C55.5618 47.2734 53.7041 47.7264 52.4487 48.9854L49.186 52.2598C47.9312 53.5187 47.454 55.3823 48.1821 57.0195L49.1108 59.084C47.9058 61.1745 46.976 63.4165 46.349 65.7588L44.2407 66.5645C42.5842 67.219 41.606 68.8823 41.6059 70.6436V75.2783C41.6059 77.0414 42.5841 78.7043 44.2407 79.334L46.349 80.165C46.976 82.4815 47.9058 84.7475 49.1108 86.8389L48.1821 88.9043C47.7552 89.9114 47.7552 90.9945 48.1069 91.9766H9.77581C7.86813 91.9764 6.26153 90.667 5.91057 88.7783L0.0619381 58.6318C-0.11446 57.7502 0.0858839 56.9189 0.663501 56.2139C1.24124 55.5335 2.01926 55.1554 2.92229 55.1553H25.5903L40.099 36.5938H95.1977ZM73.0824 56.5156C64.0213 56.5156 56.6908 63.8946 56.6908 72.9619C56.691 82.0283 64.0216 89.4062 73.0824 89.4062C82.1195 89.4062 89.4495 82.0283 89.4496 72.9619C89.4496 63.8946 82.1194 56.5157 73.0824 56.5156ZM78.9321 65.7051C79.8595 64.7649 81.3769 64.7648 82.3041 65.7051C83.2315 66.6457 83.2314 68.1853 82.3041 69.126L70.3559 81.2461C69.7816 81.8288 69.0432 82.083 68.2377 81.9756C67.432 81.8679 66.7836 81.4287 66.3774 80.7148L62.3178 73.582C61.6619 72.4299 62.055 70.9435 63.1908 70.2783C64.3249 69.6143 65.7927 70.0128 66.4477 71.1631L69.0483 75.7314L78.9321 65.7051ZM60.8324 0L77.1996 16.4209V22.5664H81.6928C85.257 22.5667 88.1694 25.5124 88.1694 29.0889V34.0264H74.6391V17.4795L73.5844 16.4219H60.8324V3.62695L59.7533 2.56934H19.8666V52.6123H6.31096V22.3398C6.31096 18.7381 9.24845 15.8164 12.8129 15.8164H17.3061V0H60.8324ZM68.5385 30.4492C69.2411 30.4492 69.8197 31.0283 69.8197 31.7334C69.8197 32.439 69.2411 32.9932 68.5385 32.9932H25.9662C25.2634 32.9932 24.6869 32.439 24.6869 31.7334C24.687 31.0283 25.2634 30.4492 25.9662 30.4492H68.5385ZM31.7895 21.1553C32.4927 21.1553 33.0453 21.7349 33.0453 22.4404C33.0452 23.1459 32.4926 23.7246 31.7895 23.7246H25.9662C25.2635 23.7246 24.6871 23.1458 24.6869 22.4404C24.6869 21.7349 25.2635 21.1553 25.9662 21.1553H31.7895ZM68.5385 21.1553C69.2411 21.1553 69.8197 21.7349 69.8197 22.4404C69.8196 23.1459 69.241 23.7246 68.5385 23.7246H37.5375C36.8358 23.7244 36.2584 23.1457 36.2582 22.4404C36.2582 21.735 36.8357 21.1555 37.5375 21.1553H68.5385ZM46.6752 11.8623C47.3782 11.8625 47.9543 12.4425 47.9545 13.1465C47.9545 13.8515 47.3783 14.4315 46.6752 14.4316H25.9662C25.2634 14.4316 24.6869 13.8516 24.6869 13.1465C24.6872 12.4424 25.2636 11.8623 25.9662 11.8623H46.6752Z" fill="white"/>
</svg>
