<svg width="132" height="132" viewBox="0 0 132 132" fill="none" xmlns="http://www.w3.org/2000/svg">
<circle cx="66" cy="66" r="66" fill="url(#paint0_linear_2009_10)"/>
<path d="M81.5618 70.4122H70.5917C72.9144 67.8028 74.8485 64.5077 76.3457 60.5583C77.2537 58.16 76.9178 55.4708 75.4453 53.3652C73.9728 51.2579 71.5489 50 68.9614 50C68.3481 50 67.8519 50.4923 67.8519 51.0995C67.8519 59.6343 59.0612 66.7496 55.2829 69.4125C54.3543 70.0664 53.2513 70.4122 52.0919 70.4122H50.4287V68.692C50.4287 66.8731 48.9356 65.3934 47.1 65.3934H34.1095C33.4963 65.3934 33 65.8857 33 66.493V96.322C33 96.9293 33.4963 97.4216 34.1095 97.4216H47.1C48.4821 97.4216 49.6687 96.582 50.1713 95.3911H53.2708L55.2872 97.3899C56.335 98.4282 57.7273 99 59.2096 99H81.5618C84.0095 99 86 97.027 86 94.6019C86 93.2821 85.3983 92.1101 84.4664 91.3033C85.3983 90.4965 86 89.3245 86 88.0047C86 86.6849 85.3983 85.5129 84.4664 84.7061C85.3983 83.8993 86 82.7273 86 81.4075C86 80.0877 85.3983 78.9157 84.4664 78.1089C85.3983 77.3021 86 76.1301 86 74.8103C86 72.3852 84.0095 70.4122 81.5618 70.4122ZM42.8233 80.8524H40.6042V78.1089H42.8233V80.8524ZM42.8233 76.6717H40.6042V70.0745H42.8233V76.6717ZM81.5618 79.2084C82.7851 79.2084 83.7809 80.1947 83.7809 81.4075C83.7809 82.6203 82.7851 83.6066 81.5618 83.6066H71.1361V85.8056H81.5618C82.7851 85.8056 83.7809 86.7919 83.7809 88.0047C83.7809 89.2175 82.7851 90.2037 81.5618 90.2037H71.1361V92.4028H81.5618C82.7851 92.4028 83.7809 93.389 83.7809 94.6019C83.7809 95.8147 82.7851 96.8009 81.5618 96.8009H59.2096C58.333 96.8009 57.476 96.4487 56.8562 95.8351L54.5147 93.5141C54.3066 93.308 54.0249 93.192 53.7302 93.192H50.4286V72.6112H52.0919C53.715 72.6112 55.2623 72.1248 56.5679 71.2046C60.4578 68.4644 69.2865 61.2954 70.0222 52.2946C71.4763 52.5609 72.7527 53.3748 73.6217 54.6177C74.6944 56.1532 74.9306 58.0366 74.2675 59.7852C72.566 64.2753 70.2884 67.8415 67.5035 70.4122H63.2382V72.6112H81.5618C82.7851 72.6112 83.7809 73.5975 83.7809 74.8103C83.7809 76.0231 82.7851 77.0094 81.5618 77.0094H71.1361V79.2084H81.5618Z" fill="white"/>
<path d="M81.8683 46.4639L80.7973 52.7129C80.7264 53.1258 80.8962 53.5435 81.2345 53.7897C81.5751 54.0365 82.0252 54.0682 82.3926 53.8736L88 50.9232L93.6075 53.8736C93.7675 53.958 93.9437 53.9999 94.1188 53.9999C94.3465 53.9999 94.5742 53.929 94.7655 53.7897C95.1038 53.5435 95.2736 53.1258 95.2027 52.7129L94.1317 46.4639L98.6681 42.0389C98.9678 41.7459 99.0752 41.3088 98.9463 40.9099C98.8164 40.5116 98.4726 40.2207 98.0579 40.1605L91.7899 39.2488L88.9861 33.5637C88.6166 32.8121 87.3834 32.8121 87.0139 33.5637L84.2101 39.2488L77.9421 40.1605C77.5274 40.2207 77.1837 40.5116 77.0537 40.9099C76.9248 41.3088 77.0322 41.7459 77.3319 42.0389L81.8683 46.4639Z" fill="white"/>
<path d="M68.9961 35.582L70.072 33.6635L74.4222 36.103L73.3464 38.0216L68.9961 35.582Z" fill="white"/>
<path d="M65.8535 43.2493L70.6571 41.9025L71.2511 44.0209L66.4475 45.3677L65.8535 43.2493Z" fill="white"/>
<path d="M87 58H89V63H87V58Z" fill="white"/>
<path d="M93.5879 58.4543L95.1436 56.8986L98.6705 60.4255L97.1148 61.9812L93.5879 58.4543Z" fill="white"/>
<defs>
<linearGradient id="paint0_linear_2009_10" x1="66" y1="0" x2="66" y2="132" gradientUnits="userSpaceOnUse">
<stop stop-color="#9F001B"/>
<stop offset="1" stop-color="#1B2556"/>
</linearGradient>
</defs>
</svg>
