<svg width="132" height="132" viewBox="0 0 132 132" fill="none" xmlns="http://www.w3.org/2000/svg">
<circle cx="66" cy="66" r="66" fill="url(#paint0_linear_2009_11)"/>
<path d="M53.9163 53.4528C50.6968 51.111 48.7692 47.3532 48.7598 43.4003C48.7589 43.0708 48.8876 42.7542 49.1177 42.5209C49.3476 42.2876 49.6598 42.1562 49.9853 42.1562H72.0497C72.3754 42.1562 72.6879 42.2878 72.9179 42.5215C73.1478 42.7551 73.2764 43.072 73.2752 43.4018C73.2609 47.3571 71.3334 51.1146 68.119 53.4526C64.8023 55.8613 62.7121 59.4219 62.2323 63.4791C62.1585 64.1029 61.6358 64.5726 61.0154 64.5726C61.0153 64.5726 61.0151 64.5726 61.0148 64.5726C60.3941 64.5721 59.8715 64.102 59.7984 63.4779C59.3231 59.4256 57.2341 55.8653 53.9163 53.4528ZM96 91.8202C96 99.087 90.1633 105 82.9881 105C75.8115 105 69.9716 99.087 69.9716 91.8202C69.9716 84.5534 75.8115 78.6402 82.9881 78.6402C90.1633 78.6402 96 84.5534 96 91.8202ZM89.7217 85.9567C89.179 85.5454 88.4108 85.6555 88.0046 86.2051L81.5745 94.8845L77.7907 91.5811C77.2786 91.1323 76.5045 91.1914 76.063 91.7099C75.6214 92.2284 75.6781 93.0124 76.1902 93.4595L80.9658 97.6309C81.1897 97.8265 81.4748 97.9336 81.7677 97.9336C81.8105 97.9336 81.855 97.9305 81.8979 97.9258C82.2366 97.8886 82.5433 97.7115 82.7472 97.4368L89.9652 87.694C90.3718 87.1458 90.2628 86.3681 89.7217 85.9567ZM49.2528 88.8675H67.7962C67.8147 88.7682 67.8346 88.6688 67.8559 88.5695C67.8651 88.5214 67.8758 88.4748 67.8867 88.4283C67.8959 88.3802 67.9066 88.332 67.9188 88.2854C67.9312 88.2233 67.9464 88.1613 67.9617 88.1007C67.9802 88.0201 68.0001 87.9393 68.0215 87.86C68.0322 87.8135 68.0446 87.7684 68.0584 87.7234C68.1089 87.5309 68.1642 87.34 68.2224 87.1521C68.2348 87.1132 68.247 87.0745 68.2592 87.0356C68.2961 86.9162 68.3358 86.7997 68.3757 86.6817C68.4078 86.5886 68.4401 86.4954 68.4754 86.4023C68.5168 86.289 68.5582 86.1757 68.6026 86.0639C68.9291 85.2318 69.3232 84.4339 69.7801 83.6779C69.2711 83.1486 68.7162 82.6658 68.1183 82.2311C64.802 79.8233 62.7124 76.2621 62.2326 72.2057C62.1957 71.8936 62.047 71.6204 61.8293 71.4248C61.6116 71.2293 61.3248 71.1113 61.0151 71.1113C60.3942 71.1128 59.8713 71.5817 59.7978 72.2072C59.3226 76.259 57.2344 79.8186 53.9167 82.2311C51.6459 83.8796 50.0177 86.2346 49.2528 88.8675ZM67.6121 93.5231C67.5508 92.9642 67.5202 92.3961 67.5202 91.82C67.5202 91.5592 67.5263 91.2984 67.5386 91.0407H42.1803V87.5338C42.1803 81.425 45.1331 75.63 50.0776 72.0332C52.1733 70.5133 53.3279 68.2391 53.3279 65.628V64.1454C53.3279 61.5342 52.1733 59.26 50.0791 57.7432C45.1331 54.1432 42.1803 48.3482 42.1803 42.2394V38.733H79.8543V42.2397C79.8543 48.3515 76.8999 54.145 71.951 57.7389C69.8598 59.2634 68.7068 61.5392 68.7068 64.1457V65.6283C68.7068 68.2379 69.8598 70.5121 71.951 72.0319C73.9395 73.4788 75.6489 75.3184 76.9521 77.4016C77.7187 77.071 78.5175 76.8008 79.3408 76.5991C77.8337 74.0299 75.7884 71.7679 73.3814 70.0153C71.9265 68.9598 71.1584 67.443 71.1584 65.6283V64.1457C71.1584 62.3325 71.9281 60.8142 73.3814 59.7555C78.9698 55.6975 82.3058 49.1495 82.3058 42.2397V38.4916C84.4636 37.8114 86.0348 35.7701 86.0348 33.3642C86.0348 30.4063 83.6563 28 80.7327 28H41.302C38.3785 28 36 30.4063 36 33.3642C36 35.7702 37.5711 37.8114 39.7289 38.4916V42.2396C39.7289 49.1462 43.0634 55.6942 48.6503 59.76C50.1067 60.8157 50.8764 62.3324 50.8764 64.1455V65.6281C50.8764 67.4428 50.1067 68.9596 48.6488 70.0168C43.0634 74.0795 39.7289 80.629 39.7289 87.5341V91.2832C37.5702 91.963 36.0003 94.0045 36.0003 96.4108C36.0003 99.3681 38.3782 101.774 41.3019 101.774H71.0526C70.4271 101.004 69.8706 100.174 69.3952 99.2921C68.4538 97.5423 67.833 95.5924 67.6121 93.5231Z" fill="white"/>
<defs>
<linearGradient id="paint0_linear_2009_11" x1="66" y1="0" x2="66" y2="132" gradientUnits="userSpaceOnUse">
<stop stop-color="#9F001B"/>
<stop offset="1" stop-color="#1B2556"/>
</linearGradient>
</defs>
</svg>
