<svg width="81" height="103" viewBox="0 0 81 103" fill="none" xmlns="http://www.w3.org/2000/svg">
<path d="M40.1684 19.5703C28.8062 19.5703 19.5684 28.8077 19.5684 40.17C19.5684 51.5323 28.8062 60.7705 40.1684 60.7705C51.5307 60.7705 60.7684 51.5323 60.7684 40.17C60.7684 28.8077 51.5307 19.5703 40.1684 19.5703ZM51.8042 38.6573L46.4128 42.5841C46.0105 42.874 45.8335 43.4053 45.9944 43.872L48.0542 50.2286C48.4084 51.3067 47.1692 52.1924 46.268 51.5323L40.8443 47.6055C40.4419 47.2998 39.8789 47.3155 39.4765 47.6055L34.085 51.5166C33.1836 52.1924 31.9446 51.291 32.2986 50.2286L34.3586 43.872C34.5034 43.4053 34.3425 42.874 33.9241 42.5841L28.5327 38.6573C27.6313 37.9972 28.0981 36.5489 29.2246 36.5489H35.8874C36.3863 36.5489 36.8369 36.2275 36.998 35.7442L39.0581 29.3877C39.4121 28.3252 40.9248 28.3252 41.2788 29.3877L43.355 35.7442C43.5 36.2275 43.9504 36.5489 44.4492 36.5489H51.1284C52.2549 36.5489 52.7216 37.9972 51.8042 38.6573Z" fill="white"/>
<path d="M53.0449 73.7735C55.5556 74.9648 58.1466 76.2041 60.271 74.9648C62.4115 73.7256 62.6368 70.8447 62.8621 68.044C62.9909 66.4032 63.1518 64.3593 63.7633 63.7636C64.3588 63.168 66.4027 63.0069 68.0443 62.878C70.8285 62.6533 73.7254 62.4112 74.9646 60.2714C76.1878 58.1465 74.9646 55.5557 73.7737 53.0449C73.0656 51.5322 72.1643 49.6651 72.4057 48.8125C72.5988 48.04 74.3369 46.8487 75.5923 45.9796C77.9258 44.3702 80.3399 42.7129 80.3399 40.1699C80.3399 37.6435 77.9258 35.9697 75.5923 34.3603C74.3369 33.5069 72.5988 32.3164 72.4057 31.5439C72.1643 30.6905 73.0656 28.8077 73.7737 27.2949C74.9646 24.7842 76.1878 22.1933 74.9646 20.085C73.7254 17.9287 70.8285 17.7031 68.0443 17.4776C66.4027 17.3487 64.3588 17.1884 63.7633 16.577C63.1679 15.9814 62.9909 13.9374 62.8621 12.2958C62.6368 9.51166 62.4115 6.61431 60.271 5.37506C58.1466 4.15231 55.5556 5.37506 53.0449 6.56638C51.5322 7.27441 49.6492 8.15925 48.8123 7.9345C48.0237 7.74119 46.8487 6.00294 45.9798 4.74797C44.3704 2.41406 42.6968 0 40.1699 0C37.6431 0 35.9695 2.41406 34.3601 4.74797C33.491 6.00294 32.3001 7.74119 31.5276 7.9345C30.6746 8.15925 28.8077 7.27441 27.2949 6.56638C24.7842 5.37506 22.1931 4.15231 20.0689 5.37506C17.9283 6.61431 17.7031 9.51166 17.4776 12.3116C17.3491 13.9532 17.188 15.9814 16.5926 16.5928C15.9971 17.1884 13.9532 17.3487 12.3116 17.4776C9.51127 17.7031 6.63042 17.9287 5.37526 20.085C4.15212 22.1933 5.39137 24.8007 6.58229 27.3114C7.29052 28.8077 8.17556 30.6905 7.95022 31.5439C7.74099 32.3164 6.01905 33.5069 4.76369 34.376C2.41406 35.9854 0 37.6435 0 40.1699C0 42.6964 2.41406 44.3702 4.74758 45.9796C6.01905 46.8487 7.74099 48.04 7.95022 48.8125C8.17556 49.6651 7.29052 51.5322 6.58229 53.0449C5.39137 55.5557 4.15212 58.1465 5.37526 60.2549C6.61431 62.4112 9.51127 62.6368 12.3116 62.8623C13.9532 62.9912 15.9971 63.168 16.5926 63.7636C17.188 64.3593 17.3491 66.4032 17.4776 68.044C17.7031 70.8447 17.9283 73.7256 20.0689 74.9648C22.1931 76.2041 24.7842 74.9648 27.2949 73.7735C28.8077 73.0655 30.6746 72.1806 31.5276 72.4062C32.3001 72.6152 33.491 74.3369 34.3601 75.5927C35.9695 77.9423 37.6431 80.3564 40.1699 80.3564C42.6968 80.3564 44.3704 77.9423 45.9798 75.6084C46.8328 74.3369 48.0237 72.6152 48.8123 72.4062C49.6492 72.1806 51.5322 73.0655 53.0449 73.7735ZM40.1699 63.9892C27.0374 63.9892 16.3511 53.3027 16.3511 40.1699C16.3511 27.038 27.0374 16.3515 40.1699 16.3515C53.3024 16.3515 63.9887 27.038 63.9887 40.1699C63.9887 53.3027 53.3024 63.9892 40.1699 63.9892Z" fill="white"/>
<path d="M67.9473 66.113C67.4484 66.161 66.8046 66.2097 66.2735 66.2898C66.1769 66.9499 66.1126 67.8026 66.0642 68.3016C65.8229 71.4237 65.4849 75.6726 61.8799 77.7488C60.8016 78.3767 59.5946 78.6981 58.291 78.6981C55.1693 78.6981 52.3433 76.8908 49.7612 75.8337C49.5039 76.1716 49.1497 76.6706 48.6509 77.3944C48.6509 77.4109 48.6348 77.4109 48.6348 77.4266L58.6611 101.02C59.1278 102.115 60.1578 102.871 61.3488 102.984C61.4453 102.984 61.558 103 61.6546 103C62.7328 103 63.7467 102.453 64.3583 101.535L68.4622 95.3395L75.3342 97.2059C76.5413 97.5281 77.7966 97.1414 78.6334 96.1922C79.4542 95.2586 79.6635 93.9549 79.1807 92.7966L67.9473 66.113Z" fill="white"/>
<path d="M30.5614 75.8174C27.9307 76.9474 25.1101 78.6982 22.0477 78.6982C20.744 78.6982 19.537 78.3768 18.4427 77.7489C14.87 75.6728 14.516 71.4403 14.2743 68.3339C14.2262 67.8027 14.1618 66.9336 14.0653 66.2743C13.5341 66.1933 12.8905 66.1289 12.4237 66.0967L1.17418 92.7967C0.691291 93.9551 0.900518 95.2587 1.72131 96.1923C2.54211 97.1416 3.81338 97.5117 5.02042 97.206L11.9086 95.3554L15.9965 101.535C16.5919 102.453 17.622 103 18.7001 103C18.7968 103 18.8934 102.984 18.9899 102.984C20.1808 102.871 21.2269 102.115 21.6937 101.02L31.7201 77.4267C31.704 77.4267 31.704 77.411 31.704 77.411C31.4305 77.0244 30.9637 76.3329 30.5614 75.8174Z" fill="white"/>
</svg>
