<svg width="93" height="93" viewBox="0 0 93 93" fill="none" xmlns="http://www.w3.org/2000/svg">
<rect width="92.9925" height="92.9925" rx="26" fill="#292929"/>
<path d="M72.3266 45.0856C73.7132 43.7218 74.2025 41.7202 73.6041 39.8629C73.0067 38.0047 71.4454 36.6759 69.5296 36.3949L57.7007 34.6597C57.1002 34.5713 56.5814 34.1908 56.3129 33.6418L51.0229 22.82C50.1662 21.0685 48.432 19.9805 46.4968 19.9805C44.5616 19.9805 42.8274 21.0685 41.9707 22.82C41.9707 22.8201 36.6806 33.6417 36.6806 33.6417C36.4122 34.1909 35.8933 34.5714 35.2938 34.6596L23.4642 36.3948C21.5482 36.6759 19.987 38.0047 19.3899 39.8619C18.7912 41.7202 19.2805 43.7219 20.6667 45.0853L29.2266 53.5094C29.6608 53.9366 29.8589 54.5518 29.7567 55.1546L27.7356 67.0494C27.409 68.9752 28.1783 70.8846 29.7434 72.0322C31.3088 73.1805 33.3457 73.3292 35.0595 72.4205L45.6396 66.8048C46.1763 66.5201 46.8172 66.5202 47.3533 66.8045L57.9343 72.4205C59.6481 73.3293 61.685 73.1805 63.2504 72.0322C64.8154 70.8844 65.5848 68.9752 65.2582 67.0494L63.237 55.1551C63.1348 54.5518 63.3328 53.9366 63.7673 53.5091L72.3266 45.0856ZM60.0769 55.7013L62.0983 67.5966C62.2192 68.3091 61.9455 68.9888 61.3661 69.4137C61.0444 69.6497 60.6718 69.7743 60.2882 69.7743C60.1201 69.7743 59.798 69.7528 59.4254 69.5552L48.8453 63.9397C48.1231 63.5568 47.3114 63.3548 46.497 63.3548C45.6821 63.3548 44.8699 63.5571 44.1486 63.9397L33.5675 69.5558C32.8407 69.9413 32.1133 69.77 31.628 69.414C31.0484 68.9889 30.7747 68.3092 30.8957 67.5956L32.9166 55.7019C33.1971 54.0476 32.654 52.362 31.4642 51.1915L22.9047 42.7678C22.3911 42.2626 22.2171 41.5508 22.4388 40.8632C22.6603 40.1742 23.2158 39.7019 23.9254 39.5978L35.7546 37.8626C37.4002 37.6203 38.8204 36.5782 39.5556 35.0743L44.8456 24.253C45.1628 23.6044 45.7801 23.2172 46.4969 23.2172C47.2137 23.2172 47.831 23.6044 48.1482 24.253L53.4381 35.0742C54.1735 36.5783 55.594 37.6204 57.238 37.8625C59.8604 38.2469 64.8831 38.9832 69.0682 39.5978C69.7781 39.7019 70.3336 40.1745 70.5547 40.8621C70.7768 41.5512 70.6026 42.2627 70.0894 42.7675L61.5294 51.1916C60.3396 52.362 59.7966 54.048 60.0769 55.7013Z" fill="#F6BA40"/>
</svg>
