<svg width="184" height="113" viewBox="0 0 184 113" fill="none" xmlns="http://www.w3.org/2000/svg">
<path d="M130.941 25.3062V49.194C130.941 51.7907 133.047 53.8954 135.643 53.8954H143.766" stroke="#9F001B" stroke-width="4" stroke-miterlimit="10" stroke-linecap="round" stroke-linejoin="round"/>
<path d="M177.316 72.4996L162.271 69.6334L159.971 64.0068" stroke="#9F001B" stroke-width="4" stroke-miterlimit="10" stroke-linecap="round" stroke-linejoin="round"/>
<path d="M119.711 96.5435V25.3062H145.52C149.238 25.3062 152.252 28.3201 152.252 32.038V53.8958L177.317 59.4351V86.7799" stroke="#9F001B" stroke-width="4" stroke-miterlimit="10" stroke-linecap="round" stroke-linejoin="round"/>
<path d="M162.752 87.1508H181.634V96.5435H165.27" stroke="#9F001B" stroke-width="4" stroke-miterlimit="10" stroke-linecap="round" stroke-linejoin="round"/>
<path d="M110.285 87.1507H2V96.5435H119.712V2H7.97336V86.7795" stroke="#9F001B" stroke-width="4" stroke-miterlimit="10" stroke-linecap="round" stroke-linejoin="round"/>
<path d="M45.0791 97.3607C45.0791 104.893 38.9724 111 31.4397 111C23.9071 111 17.8008 104.893 17.8008 97.3607" stroke="#9F001B" stroke-width="4" stroke-miterlimit="10" stroke-linecap="round" stroke-linejoin="round"/>
<path d="M142.571 111C150.104 111 156.21 104.893 156.21 97.3607C156.21 89.8279 150.104 83.7213 142.571 83.7213C135.038 83.7213 128.932 89.8279 128.932 97.3607C128.932 104.893 135.038 111 142.571 111Z" stroke="#9F001B" stroke-width="4" stroke-miterlimit="10" stroke-linecap="round" stroke-linejoin="round"/>
<path d="M47.8558 68.4131L73.8291 42.4398C78.4819 44.5527 84.1534 43.6969 87.9797 39.8706C91.806 36.0443 92.6621 30.3728 90.5489 25.7201L82.189 34.0799L76.0363 27.9273L84.4407 19.5228C79.7579 17.3134 73.9969 18.1439 70.1253 22.0159C66.2533 25.8879 65.4228 31.6485 67.6322 36.3313L41.7031 62.2604" stroke="#9F001B" stroke-width="4" stroke-miterlimit="10" stroke-linecap="round" stroke-linejoin="round"/>
<path d="M87.4927 50.199C86.1896 63.0308 75.3526 73.0443 62.1773 73.0443C48.1233 73.0443 36.7305 61.6511 36.7305 47.5975C36.7305 34.476 46.6616 23.6743 59.4173 22.2984" stroke="#9F001B" stroke-width="4" stroke-miterlimit="10" stroke-linecap="round" stroke-linejoin="round"/>
</svg>
