<svg width="164" height="164" viewBox="0 0 164 164" fill="none" xmlns="http://www.w3.org/2000/svg">
<rect width="163.08" height="163.08" rx="26" fill="#FFF7E5"/>
<path d="M77.9011 128.796C78.4284 129.587 79.3162 130.062 80.2667 130.062C81.2173 130.062 82.1051 129.587 82.6324 128.796C89.3609 118.704 99.2714 106.239 106.177 93.5627C111.7 83.4268 114.384 74.7821 114.384 67.1349C114.384 48.3226 99.079 33.0176 80.2667 33.0176C61.4544 33.0176 46.1494 48.3226 46.1494 67.1349C46.1494 74.7821 48.8339 83.4268 54.356 93.5627C61.2569 106.23 71.1864 118.725 77.9011 128.796ZM80.2667 38.7038C95.9436 38.7038 108.698 51.458 108.698 67.1349C108.698 73.8075 106.24 81.5623 101.184 90.8424C95.2313 101.769 86.7365 112.853 80.2667 122.172C73.7979 112.855 65.3025 101.77 59.3492 90.8424C54.2934 81.5623 51.8356 73.8075 51.8356 67.1349C51.8356 51.458 64.5898 38.7038 80.2667 38.7038Z" fill="#F6BA40"/>
<path d="M80.2667 84.194C89.6728 84.194 97.3253 76.5414 97.3253 67.1353C97.3253 57.7292 89.6728 50.0767 80.2667 50.0767C70.8605 50.0767 63.208 57.7292 63.208 67.1353C63.208 76.5414 70.8605 84.194 80.2667 84.194ZM80.2667 55.7629C86.5374 55.7629 91.6391 60.8646 91.6391 67.1353C91.6391 73.4061 86.5374 78.5077 80.2667 78.5077C73.9959 78.5077 68.8942 73.4061 68.8942 67.1353C68.8942 60.8646 73.9959 55.7629 80.2667 55.7629Z" fill="#F6BA40"/>
</svg>
