<svg width="102" height="109" viewBox="0 0 102 109" fill="none" xmlns="http://www.w3.org/2000/svg">
<path d="M49.3321 37.5861C59.6946 37.5861 68.1252 29.1556 68.1252 18.7931C68.1252 8.43057 59.6946 0 49.3321 0C38.9696 0 30.5391 8.43057 30.5391 18.7931C30.5391 29.1556 38.9696 37.5861 49.3321 37.5861ZM49.3321 3.75861C57.6222 3.75861 64.3666 10.503 64.3666 18.7931C64.3666 27.0832 57.6222 33.8275 49.3321 33.8275C41.042 33.8275 34.2977 27.0832 34.2977 18.7931C34.2977 10.503 41.042 3.75861 49.3321 3.75861Z" fill="#9F001B"/>
<path d="M99.6032 105.241H85.3353C85.4342 104.961 85.515 104.671 85.5695 104.371L85.7386 103.441L92.5645 96.6147C95.0325 94.1464 95.9271 90.5419 94.8993 87.2087L90.996 74.5229L91.7198 70.5426C92.0118 68.9416 91.5974 67.2935 90.5823 66.021C89.8614 65.117 88.8893 64.4677 87.8035 64.14L85.2794 55.9371C83.9695 51.6821 81.3838 48.0344 77.8014 45.3892C74.2192 42.7432 69.9722 41.3447 65.5197 41.3447H33.1439C28.6914 41.3447 24.4444 42.7432 20.8619 45.3888C17.2795 48.0341 14.6938 51.6816 13.3839 55.9368L10.86 64.1391C9.77545 64.4665 8.80267 65.1161 8.08125 66.0207C7.06619 67.2935 6.65157 68.9423 6.9438 70.5423L7.66733 74.5229L3.76472 87.2076C2.73651 90.5419 3.63129 94.1464 6.09929 96.6147L12.9245 103.44L13.0938 104.369C13.1483 104.67 13.2296 104.96 13.3287 105.241H1.87931C0.841459 105.241 0 106.083 0 107.121C0 108.159 0.841459 109 1.87931 109H18.6404H80.0232H99.6032C100.641 109 101.483 108.159 101.483 107.121C101.483 106.083 100.641 105.241 99.6032 105.241ZM91.3075 88.3149C91.9239 90.3145 91.3874 92.4762 89.9067 93.9566L86.92 96.9433L89.5358 82.5565L91.3075 88.3149ZM33.1439 45.1033H65.5197C72.992 45.1033 79.4893 49.9012 81.6871 57.0421L83.7964 63.8964H14.8674L16.9765 57.0423C19.1743 49.9012 25.6716 45.1033 33.1439 45.1033ZM7.35654 88.3138L9.12779 82.5572L11.7428 96.9424L8.75686 93.9564C7.27644 92.4762 6.73966 90.3145 7.35654 88.3138ZM18.6404 105.241C17.7315 105.241 16.9542 104.592 16.7918 103.696L11.4431 74.2772C11.4422 74.2721 11.4415 74.2669 11.4403 74.2617L10.6416 69.8684C10.5427 69.3278 10.677 68.7939 11.0195 68.3642C11.3639 67.9327 11.8554 67.6818 12.3978 67.6581C12.4286 67.6569 12.4593 67.655 12.4903 67.655H86.1732C86.2042 67.655 86.235 67.6569 86.2604 67.6578C86.8082 67.6818 87.2996 67.9327 87.644 68.3642C87.9865 68.7939 88.1209 69.3281 88.022 69.8684C88.022 69.8688 88.022 69.8693 88.0218 69.8698L87.2238 74.2598C87.2221 74.2671 87.2212 74.2746 87.2198 74.2819L82.1511 102.164C82.1508 102.166 82.1506 102.168 82.1501 102.169L82.1468 102.188L81.8713 103.698C81.7094 104.592 80.9321 105.241 80.0232 105.241H18.6404V105.241Z" fill="#9F001B"/>
<path d="M49.3321 78.9309C44.1508 78.9309 39.9355 82.3031 39.9355 86.4481C39.9355 90.5932 44.1508 93.9654 49.3321 93.9654C54.5133 93.9654 58.7286 90.5932 58.7286 86.4481C58.7286 82.3031 54.5133 78.9309 49.3321 78.9309ZM49.3321 90.2067C46.2759 90.2067 43.6942 88.4855 43.6942 86.4481C43.6942 84.4107 46.2759 82.6895 49.3321 82.6895C52.3883 82.6895 54.97 84.4107 54.97 86.4481C54.97 88.4855 52.3883 90.2067 49.3321 90.2067Z" fill="#9F001B"/>
</svg>
