<svg width="164" height="164" viewBox="0 0 164 164" fill="none" xmlns="http://www.w3.org/2000/svg">
<rect width="163.08" height="163.08" rx="26" fill="#FFF7E5"/>
<path d="M128.451 62.986C128.451 58.4393 124.752 54.7403 120.205 54.7403H105.546V48.8259C105.546 44.0546 101.664 40.1729 96.8932 40.1729H66.1907C61.4193 40.1729 57.5376 44.0546 57.5376 48.8259V54.7403H42.8785C38.3318 54.7403 34.6328 58.4393 34.6328 62.986V75.9954C34.6328 78.4197 35.4222 81.4429 38.2976 84.4084V114.659C38.2976 119.206 41.9966 122.905 46.5433 122.905H116.54C121.087 122.905 124.786 119.206 124.786 114.659V84.4084C127.66 81.4446 128.451 78.4222 128.451 75.9954V62.986ZM63.0348 48.8259C63.0348 47.0857 64.4505 45.67 66.1907 45.67H96.8934C98.6334 45.67 100.049 47.0857 100.049 48.8259V54.7403H63.0348V48.8259ZM40.13 62.986C40.13 61.4705 41.363 60.2375 42.8785 60.2375H120.205C121.721 60.2375 122.954 61.4705 122.954 62.986V75.9954C122.954 82.7584 109.979 88.2773 91.0702 89.7233V87.1735C91.0702 85.6556 89.8396 84.4249 88.3217 84.4249H74.762C73.2441 84.4249 72.0135 85.6556 72.0135 87.1735V89.7224C53.1218 88.2746 40.13 82.7411 40.13 75.9954V62.986ZM85.5731 89.9221V93.4952C85.5731 95.4654 83.9701 97.0684 81.9999 97.0684H81.0838C79.1136 97.0684 77.5106 95.4654 77.5106 93.4952V89.9221H85.5731ZM116.54 117.408H46.5433C45.0277 117.408 43.7947 116.175 43.7947 114.659V88.4424C51.9789 92.6362 60.5797 94.2533 72.185 95.2475C73.0039 99.4129 76.682 102.566 81.0838 102.566H81.9999C86.4021 102.566 90.0804 99.4125 90.8989 95.2468C100.485 94.5525 109.14 92.7929 115.459 90.236C116.88 89.661 118.151 89.0603 119.289 88.4419V114.659C119.289 116.175 118.056 117.408 116.54 117.408Z" fill="#F6BA40"/>
</svg>
