<svg width="109" height="109" viewBox="0 0 109 109" fill="none" xmlns="http://www.w3.org/2000/svg">
<path d="M37.8431 25.5939C37.5299 26.5576 37.8382 27.5906 38.628 28.2256L45.6607 33.8783L43.2936 42.5853C43.0279 43.5629 43.3858 44.5796 44.206 45.1762C45.0265 45.7714 46.1035 45.7976 46.9514 45.2428L54.5005 40.301L62.0499 45.243C62.4569 45.5093 62.9165 45.6418 63.3753 45.6418C63.8726 45.6418 64.3688 45.4861 64.7948 45.1762C65.6155 44.5803 65.9736 43.5629 65.7073 42.5853L63.3402 33.8785L70.3724 28.2261C71.1629 27.5912 71.4711 26.5581 71.1578 25.5939C70.8446 24.6295 69.988 23.9748 68.9757 23.9259L59.9636 23.4865L56.7609 15.0513C56.4014 14.1038 55.5139 13.4913 54.5003 13.4913C53.4868 13.4913 52.5992 14.1036 52.2399 15.0511L49.037 23.4867L40.0256 23.9259C39.0129 23.9748 38.1562 24.6295 37.8431 25.5939ZM49.849 26.8572C50.8095 26.8103 51.6506 26.1991 51.9915 25.3003L54.5001 18.6933L57.0087 25.3009C57.3502 26.1995 58.1915 26.8103 59.1512 26.8572L66.2099 27.2014L60.7012 31.6289C59.9517 32.2316 59.6306 33.2205 59.8829 34.1478L61.7369 40.9675L55.8238 37.0965C55.4217 36.8334 54.9608 36.7018 54.4999 36.7018C54.039 36.7018 53.5777 36.8336 53.1753 37.0968L47.2626 40.9675L49.1166 34.1482C49.3691 33.2202 49.0479 32.2312 48.2981 31.6289L42.7897 27.2016L49.849 26.8572ZM52.797 7.95315V1.70312C52.797 0.762573 53.5596 0 54.5001 0C55.4406 0 56.2032 0.762573 56.2032 1.70312V7.95315C56.2032 8.8937 55.4406 9.65627 54.5001 9.65627C53.5596 9.65627 52.797 8.8937 52.797 7.95315ZM63.1686 18.0437C62.5393 17.3448 62.5957 16.2678 63.2946 15.6385L70.2592 9.36717C70.9583 8.73765 72.0351 8.79407 72.6646 9.4932C73.2939 10.1921 73.2375 11.2691 72.5386 11.8984L65.5738 18.1698C65.2483 18.4629 64.8408 18.6072 64.4346 18.6072C63.969 18.6072 63.505 18.4173 63.1686 18.0437ZM36.3356 9.4932C36.9649 8.79407 38.0417 8.73765 38.741 9.36717L45.7058 15.6385C46.4047 16.2678 46.4611 17.3448 45.8318 18.0437C45.4955 18.4171 45.0314 18.6072 44.5656 18.6072C44.1596 18.6072 43.7521 18.4629 43.4264 18.1698L36.4617 11.8984C35.7625 11.2691 35.7063 10.1921 36.3356 9.4932ZM76.3494 28.2256L83.3821 33.8783L81.015 42.5853C80.7493 43.5629 81.1072 44.5796 81.9275 45.1762C82.7473 45.7714 83.8245 45.7974 84.6728 45.2428L92.222 40.301L99.7713 45.243C100.178 45.5093 100.638 45.6418 101.097 45.6418C101.594 45.6418 102.09 45.4861 102.516 45.1762C103.337 44.5807 103.695 43.5637 103.429 42.5853L101.062 33.8785L108.094 28.2261C108.884 27.5914 109.192 26.5583 108.879 25.5939C108.566 24.6295 107.709 23.9748 106.697 23.9259L97.685 23.4865L94.4826 15.0513C94.123 14.1038 93.2355 13.4913 92.222 13.4913C91.2082 13.4913 90.3207 14.1036 89.9611 15.0511L86.7587 23.4865L77.7472 23.9257C76.7343 23.9746 75.8777 24.6295 75.5645 25.5939C75.2511 26.5581 75.5594 27.5912 76.3494 28.2256ZM87.5702 26.8572C88.531 26.8103 89.3723 26.1991 89.7133 25.3001L92.2218 18.693L94.73 25.2999C95.0712 26.1991 95.9126 26.8103 96.8729 26.857L103.932 27.2012L98.4235 31.6282C97.6735 32.2307 97.3521 33.2198 97.6046 34.1476L99.4586 40.9673L93.5455 37.0963C93.1431 36.8332 92.6822 36.7016 92.2213 36.7016C91.7602 36.7016 91.2991 36.8334 90.897 37.0965L84.9843 40.9673L86.8383 34.148C87.0906 33.2205 86.7695 32.2316 86.0198 31.6287L80.5113 27.2012L87.5702 26.8572ZM0.906105 28.2256L7.93879 33.8783L5.57171 42.5853C5.30603 43.5629 5.66389 44.5796 6.48414 45.1762C7.3046 45.7714 8.38159 45.7976 9.22951 45.2428L16.7787 40.301L24.328 45.243C24.7351 45.5093 25.1947 45.6418 25.6534 45.6418C26.1507 45.6418 26.647 45.4861 27.073 45.1762C27.8932 44.5807 28.2513 43.5637 27.9854 42.5853L25.6183 33.8785L32.6506 28.2261C33.4404 27.5919 33.7488 26.5589 33.4357 25.5928C33.1219 24.6291 32.2652 23.9746 31.2538 23.9257L22.2417 23.4863L19.0393 15.0513C18.6797 14.1038 17.7922 13.4913 16.7787 13.4913C15.7649 13.4913 14.8774 14.1036 14.5178 15.0511L11.3154 23.4865L2.30391 23.9257C1.29122 23.9746 0.434563 24.6295 0.121621 25.5928C-0.192385 26.5574 0.11566 27.591 0.906105 28.2256ZM12.1269 26.8572C13.0876 26.8103 13.929 26.1991 14.27 25.3001L16.7784 18.693L19.2867 25.2999C19.6279 26.1991 20.4692 26.8103 21.4296 26.857L28.4882 27.2012L22.9802 31.6282C22.2302 32.2307 21.9088 33.2198 22.1613 34.1476L24.0153 40.9673L18.1022 37.0963C17.6998 36.8332 17.2389 36.7016 16.778 36.7016C16.3169 36.7016 15.8558 36.8334 15.4537 37.0965L9.54097 40.9673L11.395 34.148C11.6473 33.2205 11.3262 32.2316 10.5764 31.6287L5.06802 27.2012L12.1269 26.8572ZM108.731 90.4641C107.533 86.5942 105.078 83.1194 101.819 80.6792C100.259 79.5111 98.5606 78.6012 96.7686 77.957C99.2532 76.0069 100.854 72.9796 100.854 69.5834C100.854 63.7149 96.0797 58.9406 90.2115 58.9406C84.3431 58.9406 79.5687 63.7149 79.5687 69.5834C79.5687 72.9756 81.1657 75.9999 83.6454 77.9502C80.3221 79.1364 77.3779 81.2206 75.1232 84.029C74.0694 82.5548 72.8538 81.1855 71.4873 79.9496C68.7339 77.4595 65.5025 75.6307 62.0224 74.5499C65.7128 72.1034 68.1525 67.9143 68.1525 63.1645C68.1525 55.6367 62.028 49.5123 54.5003 49.5123C46.9727 49.5123 40.8482 55.6367 40.8482 63.1645C40.8482 67.9143 43.2876 72.1034 46.978 74.5499C43.4977 75.6305 40.2663 77.4595 37.5129 79.9496C36.1464 81.1855 34.9308 82.5548 33.8772 84.0288C31.6228 81.2202 28.6785 79.136 25.355 77.9495C27.8345 75.9993 29.4317 72.9749 29.4317 69.5827C29.4317 63.7142 24.6573 58.9399 18.7892 58.9399C12.9207 58.9399 8.14635 63.7142 8.14635 69.5827C8.14635 72.9788 9.74725 76.0063 12.2316 77.9564C10.4396 78.6006 8.74073 79.5105 7.18049 80.6786C3.92185 83.1185 1.46749 86.5935 0.269151 90.4632C-0.284565 92.2507 0.0222036 94.0647 1.13283 95.5715C2.24324 97.0779 3.88544 97.9074 5.75671 97.9074H29.3004V100.981C29.3004 105.403 32.8975 109 37.3192 109H71.681C76.1025 109 79.6998 105.403 79.7 100.981V97.9082H103.243C105.115 97.9082 106.757 97.0786 107.867 95.5724C108.978 94.0655 109.285 92.2513 108.731 90.4641ZM90.2115 62.3468C94.2016 62.3468 97.4479 65.5932 97.4479 69.5834C97.4479 73.5738 94.2016 76.8202 90.2115 76.8202C86.2211 76.8202 82.9749 73.5738 82.9749 69.5834C82.9749 65.5932 86.2211 62.3468 90.2115 62.3468ZM44.2543 63.1645C44.2543 57.5149 48.8507 52.9185 54.5003 52.9185C60.1499 52.9185 64.7463 57.5149 64.7463 63.1645C64.7463 68.8125 60.1529 73.4075 54.5058 73.4105C54.5039 73.4105 54.5018 73.4105 54.5001 73.4105C54.4984 73.4105 54.4965 73.4105 54.4946 73.4105C48.8476 73.4073 44.2543 68.8123 44.2543 63.1645ZM18.7892 62.346C22.7793 62.346 26.0256 65.5923 26.0256 69.5825C26.0256 73.5729 22.7793 76.8193 18.7892 76.8193C14.7988 76.8193 11.5525 73.5729 11.5525 69.5825C11.5525 65.5923 14.7988 62.346 18.7892 62.346ZM29.5216 94.5009H5.75692C4.97308 94.5009 4.33995 94.1811 3.8748 93.5501C3.40943 92.9191 3.29128 92.2196 3.52311 91.4708C5.60598 84.7446 11.7411 80.2255 18.7892 80.2255C24.1204 80.2255 28.977 82.8015 31.964 87.1622C30.7831 89.4563 29.9561 91.929 29.5216 94.5009ZM76.2939 100.981C76.2936 103.524 74.2244 105.594 71.681 105.594H37.3192C34.7758 105.594 32.7066 103.524 32.7066 100.981V96.2966C33.9396 85.1863 43.2904 76.8195 54.4946 76.8168C54.4965 76.8168 54.4984 76.817 54.5003 76.817C54.5022 76.817 54.5041 76.8168 54.5058 76.8168C65.7098 76.8197 75.0604 85.1863 76.2939 96.2966V100.981ZM105.126 93.5512C104.66 94.182 104.028 94.5018 103.243 94.5018H79.479C79.0443 91.9296 78.2173 89.4569 77.0366 87.1626C80.0238 82.8022 84.8802 80.2264 90.2113 80.2264C97.2593 80.2264 103.394 84.7456 105.477 91.4719C105.709 92.2202 105.591 92.9198 105.126 93.5512Z" fill="#9F001B"/>
</svg>
