<svg width="164" height="164" viewBox="0 0 164 164" fill="none" xmlns="http://www.w3.org/2000/svg">
<rect width="163.08" height="163.08" rx="26" fill="#FFF7E5"/>
<path d="M119.669 78.9402C122.143 76.8393 123.72 73.7125 123.72 70.2209C123.72 63.9111 118.587 58.7798 112.279 58.7798C105.971 58.7798 100.838 63.9129 100.838 70.2209C100.838 73.7072 102.411 76.8305 104.878 78.9297C102.774 79.5277 100.782 80.4694 98.9578 81.7444C96.3168 79.7978 93.2899 78.358 90.007 77.5583C93.5074 74.9786 95.7924 70.8417 95.7924 66.1698C95.7924 58.3659 89.4441 52.0176 81.6402 52.0176C73.8362 52.0176 67.4879 58.3659 67.4879 66.1698C67.4879 70.8417 69.7729 74.9786 73.2733 77.5583C69.9904 78.358 66.9635 79.7978 64.3225 81.7444C62.4969 80.4712 60.5065 79.5295 58.402 78.9297C60.8695 76.8288 62.4425 73.7072 62.4425 70.2209C62.4425 63.9111 57.3095 58.7798 51.0015 58.7798C44.6934 58.7798 39.5604 63.9129 39.5604 70.2209C39.5604 73.7125 41.137 76.8393 43.6114 78.9402C35.2077 81.3393 29.0312 89.073 29.0312 98.236V103.769C29.0312 104.737 29.8151 105.523 30.7849 105.523H54.0196V109.107C54.0196 110.075 54.8035 110.861 55.7733 110.861H107.511C108.48 110.861 109.264 110.075 109.264 109.107V105.523H132.499C133.469 105.523 134.253 104.737 134.253 103.769V98.236C134.253 89.073 128.076 81.341 119.672 78.9402H119.669ZM112.279 62.2872C116.654 62.2872 120.213 65.8472 120.213 70.2209C120.213 74.5946 116.654 78.1546 112.279 78.1546C107.903 78.1546 104.345 74.5963 104.345 70.2209C104.345 65.8454 107.903 62.2872 112.279 62.2872ZM70.9935 66.1698C70.9935 60.3003 75.7688 55.525 81.6384 55.525C87.508 55.525 92.2833 60.3003 92.2833 66.1698C92.2833 72.0394 87.508 76.8147 81.6384 76.8147C75.7688 76.8147 70.9935 72.0394 70.9935 66.1698ZM50.998 62.2872C55.3734 62.2872 58.9316 65.8472 58.9316 70.2209C58.9316 74.5946 55.3734 78.1546 50.998 78.1546C46.6225 78.1546 43.0643 74.5963 43.0643 70.2209C43.0643 65.8454 46.6225 62.2872 50.998 62.2872ZM32.5351 98.236C32.5351 89.0976 39.969 81.6637 49.1075 81.6637H52.8832C55.9872 81.6637 58.9334 82.5107 61.5236 84.1066C56.8974 88.6767 54.0213 95.0145 54.0161 102.015H32.5351V98.236ZM57.5234 107.353V103.793C57.5234 103.785 57.5287 103.778 57.5287 103.767C57.5287 103.757 57.5234 103.751 57.5234 103.741V102.028C57.5234 90.0604 67.2599 80.3239 79.2271 80.3239H84.0497C96.0169 80.3239 105.753 90.0604 105.753 102.028V103.741C105.753 103.75 105.748 103.757 105.748 103.767C105.748 103.778 105.753 103.783 105.753 103.793V107.353H57.5234ZM130.742 102.013H109.259C109.256 95.0128 106.378 88.6749 101.751 84.1048C104.342 82.509 107.286 81.6619 110.392 81.6619H114.168C123.306 81.6619 130.74 89.0958 130.74 98.2343L130.742 102.013Z" fill="#F6BA40" stroke="#F6BA40"/>
</svg>
