<svg width="21" height="22" viewBox="0 0 21 22" fill="none" xmlns="http://www.w3.org/2000/svg">
<path d="M6.57719 13.3985C7.11534 13.3985 7.55159 12.9623 7.55159 12.4241C7.55159 11.886 7.11534 11.4497 6.57719 11.4497C6.03904 11.4497 5.60278 11.886 5.60278 12.4241C5.60278 12.9623 6.03904 13.3985 6.57719 13.3985Z" fill="url(#paint0_linear_2001_481)"/>
<path d="M6.57719 17.296C7.11534 17.296 7.55159 16.8597 7.55159 16.3216C7.55159 15.7834 7.11534 15.3472 6.57719 15.3472C6.03904 15.3472 5.60278 15.7834 5.60278 16.3216C5.60278 16.8597 6.03904 17.296 6.57719 17.296Z" fill="url(#paint1_linear_2001_481)"/>
<path d="M10.4749 13.3985C11.013 13.3985 11.4493 12.9623 11.4493 12.4241C11.4493 11.886 11.013 11.4497 10.4749 11.4497C9.93674 11.4497 9.50049 11.886 9.50049 12.4241C9.50049 12.9623 9.93674 13.3985 10.4749 13.3985Z" fill="url(#paint2_linear_2001_481)"/>
<path d="M10.4749 17.296C11.013 17.296 11.4493 16.8597 11.4493 16.3216C11.4493 15.7834 11.013 15.3472 10.4749 15.3472C9.93674 15.3472 9.50049 15.7834 9.50049 16.3216C9.50049 16.8597 9.93674 17.296 10.4749 17.296Z" fill="url(#paint3_linear_2001_481)"/>
<path d="M14.3726 13.3985C14.9107 13.3985 15.347 12.9623 15.347 12.4241C15.347 11.886 14.9107 11.4497 14.3726 11.4497C13.8344 11.4497 13.3982 11.886 13.3982 12.4241C13.3982 12.9623 13.8344 13.3985 14.3726 13.3985Z" fill="url(#paint4_linear_2001_481)"/>
<path d="M14.3726 17.296C14.9107 17.296 15.347 16.8597 15.347 16.3216C15.347 15.7834 14.9107 15.3472 14.3726 15.3472C13.8344 15.3472 13.3982 15.7834 13.3982 16.3216C13.3982 16.8597 13.8344 17.296 14.3726 17.296Z" fill="url(#paint5_linear_2001_481)"/>
<path fill-rule="evenodd" clip-rule="evenodd" d="M20.9497 5.60323V18.2705C20.9497 19.24 20.5648 20.1686 19.8798 20.8546C19.1938 21.5396 18.2652 21.9245 17.2957 21.9245H3.65401C2.68448 21.9245 1.75588 21.5396 1.0699 20.8546C0.38489 20.1686 0 19.24 0 18.2705V5.60323C0 4.6337 0.38489 3.70509 1.0699 3.01911C1.75588 2.33411 2.68448 1.94922 3.65401 1.94922H17.2957C18.2652 1.94922 19.1938 2.33411 19.8798 3.01911C20.5648 3.70509 20.9497 4.6337 20.9497 5.60323ZM19.4881 5.60323C19.4881 5.02151 19.2571 4.46415 18.8459 4.05296C18.4347 3.64176 17.8774 3.41082 17.2957 3.41082H3.65401C3.07229 3.41082 2.51494 3.64176 2.10374 4.05296C1.69254 4.46415 1.46161 5.02151 1.46161 5.60323V18.2705C1.46161 18.8522 1.69254 19.4096 2.10374 19.8208C2.51494 20.232 3.07229 20.4629 3.65401 20.4629H17.2957C17.8774 20.4629 18.4347 20.232 18.8459 19.8208C19.2571 19.4096 19.4881 18.8522 19.4881 18.2705V5.60323Z" fill="url(#paint6_linear_2001_481)"/>
<path fill-rule="evenodd" clip-rule="evenodd" d="M20.2189 7.30859C20.6223 7.30859 20.9497 7.63599 20.9497 8.0394C20.9497 8.4428 20.6223 8.7702 20.2189 8.7702H0.730803C0.3274 8.7702 0 8.4428 0 8.0394C0 7.63599 0.3274 7.30859 0.730803 7.30859H20.2189Z" fill="url(#paint7_linear_2001_481)"/>
<path fill-rule="evenodd" clip-rule="evenodd" d="M13.6416 0.730803C13.6416 0.3274 13.969 0 14.3724 0C14.7758 0 15.1032 0.3274 15.1032 0.730803V4.62842C15.1032 5.03182 14.7758 5.35922 14.3724 5.35922C13.969 5.35922 13.6416 5.03182 13.6416 4.62842V0.730803Z" fill="url(#paint8_linear_2001_481)"/>
<path fill-rule="evenodd" clip-rule="evenodd" d="M5.84644 0.730803C5.84644 0.3274 6.17384 0 6.57724 0C6.98064 0 7.30804 0.3274 7.30804 0.730803V4.62842C7.30804 5.03182 6.98064 5.35922 6.57724 5.35922C6.17384 5.35922 5.84644 5.03182 5.84644 4.62842V0.730803Z" fill="url(#paint9_linear_2001_481)"/>
<defs>
<linearGradient id="paint0_linear_2001_481" x1="5.60278" y1="11.4497" x2="7.65798" y2="11.5692" gradientUnits="userSpaceOnUse">
<stop stop-color="#9F001B"/>
<stop offset="1" stop-color="#1B2556"/>
</linearGradient>
<linearGradient id="paint1_linear_2001_481" x1="5.60278" y1="15.3472" x2="7.65798" y2="15.4667" gradientUnits="userSpaceOnUse">
<stop stop-color="#9F001B"/>
<stop offset="1" stop-color="#1B2556"/>
</linearGradient>
<linearGradient id="paint2_linear_2001_481" x1="9.50049" y1="11.4497" x2="11.5557" y2="11.5692" gradientUnits="userSpaceOnUse">
<stop stop-color="#9F001B"/>
<stop offset="1" stop-color="#1B2556"/>
</linearGradient>
<linearGradient id="paint3_linear_2001_481" x1="9.50049" y1="15.3472" x2="11.5557" y2="15.4667" gradientUnits="userSpaceOnUse">
<stop stop-color="#9F001B"/>
<stop offset="1" stop-color="#1B2556"/>
</linearGradient>
<linearGradient id="paint4_linear_2001_481" x1="13.3982" y1="11.4497" x2="15.4534" y2="11.5692" gradientUnits="userSpaceOnUse">
<stop stop-color="#9F001B"/>
<stop offset="1" stop-color="#1B2556"/>
</linearGradient>
<linearGradient id="paint5_linear_2001_481" x1="13.3982" y1="15.3472" x2="15.4534" y2="15.4667" gradientUnits="userSpaceOnUse">
<stop stop-color="#9F001B"/>
<stop offset="1" stop-color="#1B2556"/>
</linearGradient>
<linearGradient id="paint6_linear_2001_481" x1="0" y1="1.94922" x2="22.0859" y2="3.29632" gradientUnits="userSpaceOnUse">
<stop stop-color="#9F001B"/>
<stop offset="1" stop-color="#1B2556"/>
</linearGradient>
<linearGradient id="paint7_linear_2001_481" x1="0" y1="7.30859" x2="13.0796" y2="18.2115" gradientUnits="userSpaceOnUse">
<stop stop-color="#9F001B"/>
<stop offset="1" stop-color="#1B2556"/>
</linearGradient>
<linearGradient id="paint8_linear_2001_481" x1="13.6416" y1="0" x2="15.1878" y2="0.0245246" gradientUnits="userSpaceOnUse">
<stop stop-color="#9F001B"/>
<stop offset="1" stop-color="#1B2556"/>
</linearGradient>
<linearGradient id="paint9_linear_2001_481" x1="5.84644" y1="0" x2="7.39265" y2="0.0245246" gradientUnits="userSpaceOnUse">
<stop stop-color="#9F001B"/>
<stop offset="1" stop-color="#1B2556"/>
</linearGradient>
</defs>
</svg>
