<svg width="130" height="113" viewBox="0 0 130 113" fill="none" xmlns="http://www.w3.org/2000/svg">
<path fill-rule="evenodd" clip-rule="evenodd" d="M108.434 26.5258C108.923 26.5258 109.391 26.7199 109.737 27.0653C110.082 27.4108 110.276 27.8793 110.276 28.3679V28.8287C111.083 29.1187 111.814 29.5852 112.417 30.1939C113.02 30.8026 113.48 31.5383 113.762 32.3473C113.854 32.5747 113.899 32.8181 113.896 33.0632C113.892 33.3083 113.839 33.5503 113.741 33.7748C113.643 33.9994 113.501 34.2021 113.323 34.371C113.145 34.5399 112.936 34.6717 112.706 34.7585C112.477 34.8454 112.233 34.8856 111.988 34.8768C111.743 34.8681 111.502 34.8105 111.28 34.7074C111.057 34.6044 110.858 34.458 110.692 34.2768C110.527 34.0956 110.4 33.8833 110.318 33.6523C109.961 32.7036 109.086 31.871 107.71 32.3807C107.253 32.551 107.007 32.8881 107.005 33.1331C107 33.4628 107.52 33.7136 107.72 33.7978C108.123 33.9247 108.537 34.0128 108.957 34.0609C110.081 34.2293 111.623 34.4609 112.917 36.0156C113.413 36.5853 113.744 37.2792 113.874 38.0228C114.005 38.7664 113.931 39.5315 113.66 40.2361C113.113 41.6353 111.87 42.6534 110.275 43.0463V43.3981C110.275 43.8867 110.081 44.3552 109.736 44.7007C109.39 45.0461 108.922 45.2402 108.433 45.2402C107.945 45.2402 107.476 45.0461 107.131 44.7007C106.785 44.3552 106.591 43.8867 106.591 43.3981V42.9479C105.667 42.6899 104.829 42.1875 104.166 41.4936C103.503 40.7996 103.039 39.9398 102.823 39.0045C102.762 38.7666 102.75 38.5191 102.787 38.2763C102.823 38.0336 102.908 37.8006 103.036 37.5911C103.164 37.3815 103.332 37.1996 103.531 37.0561C103.73 36.9126 103.956 36.8103 104.195 36.7552C104.434 36.7002 104.682 36.6935 104.924 36.7356C105.166 36.7777 105.397 36.8677 105.603 37.0003C105.81 37.1329 105.988 37.3055 106.127 37.5079C106.266 37.7102 106.363 37.9383 106.412 38.1788C106.781 39.7774 108.894 39.5495 109.136 39.5185C109.797 39.4322 110.139 39.1272 110.23 38.8919C110.255 38.8272 110.323 38.6551 110.086 38.3722C109.707 37.9182 109.36 37.8459 108.409 37.7032C107.732 37.6216 107.065 37.4682 106.42 37.2456C106.402 37.2385 106.383 37.2314 106.365 37.2238C104.432 36.4404 103.294 34.8909 103.32 33.0781C103.349 31.246 104.567 29.6165 106.431 28.9263C106.483 28.906 106.539 28.8889 106.591 28.8705V28.3671C106.591 27.8785 106.785 27.41 107.131 27.0645C107.476 26.7191 107.945 26.525 108.433 26.525L108.434 26.5258ZM118.507 35.8833C118.507 33.8762 117.911 31.9143 116.796 30.2457C115.681 28.577 114.096 27.2765 112.241 26.5085C110.387 25.7406 108.347 25.5398 106.378 25.9314C104.41 26.323 102.602 27.2896 101.182 28.7088C99.7631 30.128 98.7966 31.9361 98.405 33.9046C98.0134 35.8731 98.2142 37.9135 98.9821 39.7678C99.75 41.6221 101.051 43.2071 102.719 44.3224C104.388 45.4376 106.35 46.0331 108.357 46.0334C111.048 46.0306 113.628 44.9604 115.531 43.0575C117.434 41.1545 118.504 38.5744 118.507 35.8833ZM94.5258 35.8833C94.5259 38.6191 95.3374 41.2935 96.8575 43.5682C98.3776 45.8429 100.538 47.6158 103.066 48.6626C105.594 49.7094 108.375 49.9831 111.058 49.4491C113.741 48.9152 116.206 47.5975 118.14 45.6628C120.075 43.7281 121.392 41.2632 121.926 38.5798C122.459 35.8965 122.185 33.1152 121.138 30.5877C120.09 28.0602 118.317 25.8999 116.042 24.3802C113.767 22.8605 111.093 22.0495 108.357 22.0498C104.69 22.0545 101.174 23.5134 98.5814 26.1066C95.9885 28.6997 94.53 32.2154 94.5258 35.8825V35.8833ZM125.749 45.406C127.952 38.0751 123.415 25.88 116.371 19.9099H100.015C96.5915 23.1448 94.1466 26.6729 92.5492 30.6797C89.9048 37.3135 89.6943 43.8521 92.0019 47.7449C93.41 50.1217 95.761 51.5388 98.9915 51.958L116.794 52.0369C121.549 51.5927 124.563 49.3623 125.749 45.4055V45.406ZM118.683 14.7707V16.2249H97.9389L97.9339 14.7707H118.683ZM100.705 4.75905C103.276 5.74325 105.999 5.43246 108.67 3.84118C110.505 5.10721 113.302 6.05903 117.025 4.57616C116.771 8.87004 114.802 10.3655 113.181 11.0868H103.718C101.895 10.0245 100.902 7.94795 100.705 4.75905ZM120.899 19.173C121.354 18.8334 121.724 18.3922 121.979 17.8847C122.234 17.3771 122.367 16.8171 122.367 16.2491V14.7465C122.366 13.7823 121.984 12.8576 121.306 12.1728C120.627 11.4881 119.705 11.0985 118.741 11.0887C119.949 9.32003 120.778 6.83692 120.736 3.34618C120.73 2.84932 120.597 2.36215 120.351 1.93076C120.104 1.49937 119.752 1.13802 119.326 0.880886C118.901 0.623751 118.417 0.479336 117.921 0.461298C117.424 0.443261 116.931 0.552198 116.489 0.777806C113.354 2.37173 111.57 1.44858 110.499 0.614914C110.019 0.242064 109.434 0.0280358 108.827 0.00256932C108.22 -0.0228972 107.619 0.141463 107.11 0.472811C105.011 1.84121 103.168 2.00384 101.31 0.987276C100.865 0.743584 100.364 0.620028 99.8566 0.628779C99.3493 0.637529 98.853 0.778283 98.4166 1.03718C97.9802 1.29607 97.6188 1.66418 97.3679 2.10524C97.1171 2.54629 96.9854 3.04509 96.986 3.5525C96.9889 6.6385 97.5573 9.15556 98.6833 11.0868H97.9149C96.9445 11.088 96.0141 11.4739 95.3279 12.1601C94.6417 12.8463 94.2556 13.7766 94.2545 14.747V16.2486C94.255 16.7969 94.3787 17.3382 94.6164 17.8323C94.8542 18.3264 95.1999 18.7607 95.6281 19.1033C92.8446 22.0734 90.6395 25.5366 89.1259 29.3152C86.0233 37.1046 85.9127 44.695 88.8311 49.6222C90.8395 53.0101 94.2337 55.0869 98.6467 55.6271C98.7184 55.636 98.7906 55.6406 98.8628 55.6411L116.866 55.72H116.873C116.926 55.72 116.981 55.7177 117.036 55.7129C123.308 55.1572 127.654 51.8727 129.278 46.4649C131.841 37.9301 127.235 26.0487 120.899 19.173ZM60.4105 23.8022C60.4108 23.3787 60.5792 22.9726 60.8786 22.6732C61.1781 22.3737 61.5841 22.2054 62.0076 22.2051H80.5215C80.945 22.2056 81.3509 22.3742 81.6502 22.6737C81.9495 22.9732 82.1178 23.3792 82.1181 23.8027V27.0295C82.1168 27.45 81.9502 27.8531 81.6544 28.1519C81.3585 28.4507 80.957 28.6212 80.5365 28.6265C80.5347 28.6265 80.531 28.6265 80.5284 28.6265H80.5205H62.0079C62.0058 28.6265 62.0026 28.6265 61.9997 28.6265H61.9921C61.5715 28.6216 61.1697 28.4514 60.8737 28.1525C60.5777 27.8537 60.4112 27.4504 60.4103 27.0297L60.4105 23.8022ZM82.1181 47.2389C82.1177 47.6624 81.9492 48.0685 81.6497 48.368C81.3501 48.6675 80.944 48.8359 80.5205 48.8362H62.0079C61.5844 48.8359 61.1784 48.6677 60.8789 48.3683C60.5794 48.069 60.4108 47.6631 60.4103 47.2397V44.0121C60.4106 43.5886 60.579 43.1826 60.8785 42.8833C61.1779 42.5839 61.5839 42.4155 62.0074 42.4153H80.5213C80.9447 42.4157 81.3506 42.5841 81.6499 42.8835C81.9493 43.183 82.1175 43.589 82.1178 44.0123L82.1181 47.2389ZM61.9926 38.7311C61.572 38.726 61.1703 38.5557 60.8743 38.2569C60.5782 37.9581 60.4116 37.5549 60.4103 37.1343V33.9067C60.4106 33.4833 60.579 33.0773 60.8785 32.778C61.1779 32.4786 61.5839 32.3104 62.0074 32.3102H80.5213C80.9447 32.3107 81.3506 32.4791 81.6499 32.7786C81.9493 33.0781 82.1175 33.4841 82.1178 33.9075V37.1346C82.1165 37.5555 81.9495 37.9589 81.6531 38.2577C81.3566 38.5565 80.9545 38.7267 80.5336 38.7314L61.9926 38.7311ZM62.0079 52.5204H80.5215C81.9216 52.5191 83.264 51.9624 84.2541 50.9724C85.2441 49.9824 85.8009 48.64 85.8022 47.2399V44.0126C85.8017 42.7481 85.3453 41.5261 84.5167 40.5708C85.3443 39.6173 85.8004 38.3974 85.8012 37.1348V33.9072C85.8006 32.6427 85.3442 31.4208 84.5157 30.4655C85.3433 29.5121 85.7993 28.2922 85.8001 27.0297V23.8027C85.7984 22.4023 85.2412 21.0597 84.2508 20.0697C83.2604 19.0796 81.9177 18.5228 80.5173 18.5215H62.0079C60.6076 18.5229 59.2651 19.0798 58.2749 20.07C57.2848 21.0601 56.7279 22.4027 56.7264 23.8029V27.0297C56.7277 28.2921 57.1835 29.5118 58.0103 30.4657C57.1825 31.4215 56.7266 32.6436 56.7264 33.908V37.1351C56.7278 38.3974 57.1835 39.617 58.0103 40.5708C57.1824 41.5266 56.7266 42.7486 56.7264 44.0131V47.2397C56.7278 48.6399 57.2847 49.9824 58.2749 50.9725C59.2651 51.9626 60.6076 52.5194 62.0079 52.5206V52.5204ZM29.3163 33.9067C29.3169 33.4835 29.4854 33.0778 29.7846 32.7785C30.0839 32.4792 30.4896 32.3108 30.9129 32.3102H49.4286C49.852 32.311 50.2578 32.4796 50.5571 32.779C50.8564 33.0783 51.0249 33.4842 51.0257 33.9075V37.1346C51.0241 37.5555 50.8569 37.9589 50.5604 38.2577C50.2638 38.5565 49.8617 38.7266 49.4407 38.7314H49.4355C49.4329 38.7311 49.4304 38.7311 49.4278 38.7314H30.9002C30.4794 38.7266 30.0773 38.5565 29.7809 38.2577C29.4844 37.9589 29.3175 37.5554 29.3161 37.1346V33.907L29.3163 33.9067ZM51.0265 47.2389C51.0255 47.6623 50.8568 48.0681 50.5574 48.3675C50.2579 48.6668 49.8521 48.8354 49.4286 48.8362H30.9147C30.4912 48.8358 30.0852 48.6675 29.7855 48.3683C29.4858 48.069 29.317 47.6632 29.3161 47.2397V44.0123C29.3167 43.5891 29.4851 43.1833 29.7844 42.884C30.0836 42.5847 30.4893 42.4162 30.9126 42.4155H49.4284C49.8517 42.4163 50.2575 42.5848 50.5568 42.8841C50.8562 43.1835 51.0247 43.5893 51.0254 44.0126V47.2391L51.0265 47.2389ZM30.9142 52.5198H49.4289C50.829 52.5183 52.1713 51.9615 53.1615 50.9716C54.1516 49.9817 54.7088 48.6395 54.7106 47.2394V44.0121C54.7104 42.747 54.2531 41.5247 53.423 40.57C54.2522 39.6174 54.7093 38.3973 54.7101 37.1343V33.9067C54.7078 32.5067 54.1505 31.1646 53.1604 30.1748C52.1703 29.1849 50.8281 28.628 49.4281 28.626H30.9147C29.5145 28.6278 28.1721 29.1848 27.1819 30.1748C26.1916 31.1648 25.6343 32.507 25.6322 33.9072V37.1343C25.6336 38.3967 26.0895 39.6164 26.9164 40.5703C26.0889 41.5262 25.633 42.748 25.6322 44.0123V47.2389C25.6343 48.639 26.1914 49.9812 27.1815 50.9712C28.1716 51.9613 29.5138 52.5183 30.9139 52.5204L30.9142 52.5198ZM16.4244 82.6246C16.5503 82.8342 16.6332 83.0669 16.6683 83.3089C16.7033 83.5509 16.6898 83.7975 16.6285 84.0343C16.5673 84.271 16.4595 84.4932 16.3115 84.6879C16.1634 84.8825 15.9781 85.0458 15.7664 85.1681C15.5546 85.2904 15.3206 85.3693 15.078 85.4002C14.8354 85.4311 14.5891 85.4134 14.3534 85.3481C14.1177 85.2828 13.8974 85.1712 13.7053 85.0199C13.5132 84.8686 13.3531 84.6805 13.2345 84.4667L10.9772 80.5575C10.8481 80.3478 10.7623 80.1144 10.725 79.871C10.6877 79.6276 10.6995 79.3791 10.7599 79.1404C10.8202 78.9017 10.9278 78.6774 11.0763 78.481C11.2248 78.2845 11.4111 78.1199 11.6244 77.9967C11.8376 77.8735 12.0734 77.7943 12.3177 77.7639C12.5621 77.7334 12.8101 77.7522 13.047 77.8192C13.284 77.8862 13.5051 78.0001 13.6973 78.154C13.8895 78.3079 14.0489 78.4988 14.1661 78.7155L16.4244 82.6238V82.6246ZM111.257 72.5892C111.157 74.5205 109.575 76.2844 106.804 77.556C106.741 77.5847 106.68 77.617 106.62 77.6526L71.4735 98.8467C71.463 98.8525 71.4514 98.8591 71.4411 98.8654C68.1886 100.913 64.6649 101.23 60.6676 99.8335C60.6287 99.8193 60.5887 99.8072 60.5466 99.7962L37.7688 93.5378C37.5249 93.4705 37.3504 93.4097 37.1951 93.356C35.982 92.931 35.3452 93.1455 34.3004 93.8228L32.8749 94.7339L21.2741 74.6418C30.9479 68.7982 36.3054 65.5694 36.7791 65.2849C41.9822 62.4755 58.1208 65.3638 66.6104 70.6337C69.5288 72.4456 71.1656 74.3442 71.1022 75.8426C71.0446 77.206 69.5233 78.7299 66.8207 80.1473C63.1471 79.8349 58.0369 78.7631 50.9212 76.42C50.6914 76.3443 50.4489 76.3146 50.2077 76.3326C49.9664 76.3506 49.731 76.4159 49.515 76.5249C49.0787 76.745 48.7477 77.1294 48.5948 77.5935C48.5191 77.8233 48.4894 78.0658 48.5074 78.3071C48.5254 78.5483 48.5908 78.7837 48.6998 78.9997C48.8087 79.2158 48.9592 79.4082 49.1425 79.5661C49.3259 79.724 49.5385 79.8442 49.7684 79.9199C63.6629 84.4961 72.563 85.1256 76.9603 81.8409L100.505 69.0143C100.537 68.9977 100.565 68.9806 100.594 68.9617C103.368 67.2417 106.402 67.0301 108.715 68.3959C110.365 69.3709 111.338 70.9779 111.257 72.5895L111.257 72.5892ZM30.2845 102.976C30.8992 102.62 31.3479 102.036 31.5319 101.35C31.7159 100.664 31.6203 99.9331 31.266 99.3177L16.9163 74.4642C16.561 73.8494 15.9761 73.4008 15.2903 73.2169C14.6044 73.0331 13.8736 73.129 13.2584 73.4837L4.35937 78.6218L21.3854 108.113L30.2847 102.975L30.2845 102.976ZM110.589 65.2236C107.089 63.1547 102.646 63.3728 98.6989 65.8025L75.0763 78.672C74.9871 78.7192 74.9024 78.7745 74.8232 78.837C74.3936 79.1629 73.9172 79.4219 73.4101 79.6052C74.2303 78.5747 74.7102 77.315 74.7837 76C74.9106 73.0082 72.8127 70.1506 68.5522 67.5051C59.5613 61.9226 41.9501 58.2458 34.9765 62.0728C34.956 62.0847 34.9344 62.097 34.9131 62.1099C34.9131 62.1099 29.4897 65.3765 19.3081 71.5274C18.3298 70.4536 17.0143 69.746 15.5791 69.5218C14.1439 69.2976 12.6752 69.5702 11.4161 70.2945L0.922062 76.3523C0.712284 76.473 0.528389 76.634 0.380916 76.8259C0.233442 77.0178 0.125291 77.2369 0.0626589 77.4707C2.71589e-05 77.7044 -0.0158532 77.9483 0.0159277 78.1882C0.0477085 78.4282 0.126526 78.6595 0.247863 78.8689L19.1165 111.551C19.2372 111.76 19.3981 111.944 19.5899 112.091C19.7817 112.239 20.0007 112.347 20.2343 112.41C20.468 112.472 20.7117 112.488 20.9515 112.457C21.1913 112.425 21.4226 112.346 21.632 112.225L32.1273 106.166C33.5084 105.367 34.5389 104.078 35.0149 102.555C35.491 101.031 35.3778 99.3851 34.6978 97.9414L36.2744 96.9344C36.4165 96.9817 36.5901 97.0357 36.7949 97.0922L59.5142 103.334C61.3812 104.002 63.347 104.353 65.3299 104.371C68.189 104.368 70.9868 103.542 73.3901 101.994L108.438 80.8604C113.855 78.3368 114.837 74.7195 114.938 72.7816C115.089 69.793 113.425 66.898 110.589 65.2228L110.589 65.2236Z" fill="url(#paint0_linear_2001_767)"/>
<path fill-rule="evenodd" clip-rule="evenodd" d="M31.2663 99.3162L16.9163 74.4642C16.561 73.8494 15.9761 73.4008 15.2903 73.217C14.6044 73.0331 13.8736 73.1291 13.2584 73.4837L4.35938 78.6218L21.3854 108.113L30.2847 102.975C30.8995 102.619 31.3481 102.035 31.5322 101.349C31.7162 100.663 31.6206 99.9323 31.2663 99.317V99.3162ZM16.4244 82.6238C16.5503 82.8335 16.6332 83.0661 16.6683 83.3082C16.7033 83.5502 16.6898 83.7968 16.6285 84.0335C16.5673 84.2703 16.4595 84.4925 16.3115 84.6871C16.1634 84.8818 15.9781 85.045 15.7664 85.1673C15.5546 85.2896 15.3206 85.3685 15.078 85.3994C14.8354 85.4303 14.5891 85.4126 14.3534 85.3473C14.1177 85.282 13.8974 85.1705 13.7053 85.0191C13.5132 84.8678 13.3531 84.6798 13.2345 84.4659L10.9772 80.5568C10.8481 80.3471 10.7623 80.1136 10.725 79.8702C10.6877 79.6268 10.6995 79.3784 10.7599 79.1396C10.8202 78.9009 10.9278 78.6767 11.0763 78.4802C11.2248 78.2838 11.4111 78.1191 11.6244 77.9959C11.8376 77.8728 12.0734 77.7936 12.3177 77.7631C12.5621 77.7326 12.8101 77.7514 13.047 77.8185C13.284 77.8855 13.5051 77.9993 13.6973 78.1532C13.8895 78.3072 14.0489 78.4981 14.1661 78.7147L16.4244 82.6238Z" fill="#E8ECFF"/>
<path fill-rule="evenodd" clip-rule="evenodd" d="M118.683 14.7708H97.9336L97.9386 16.2249H118.683V14.7708Z" fill="#E8ECFF"/>
<path fill-rule="evenodd" clip-rule="evenodd" d="M118.507 35.8825C118.507 33.8755 117.911 31.9136 116.796 30.2449C115.681 28.5762 114.096 27.2757 112.241 26.5078C110.387 25.7399 108.347 25.539 106.378 25.9307C104.41 26.3223 102.602 27.2888 101.182 28.708C99.7632 30.1272 98.7967 31.9354 98.405 33.9039C98.0134 35.8723 98.2142 37.9127 98.9822 39.7671C99.7501 41.6214 101.051 43.2064 102.719 44.3216C104.388 45.4369 106.35 46.0323 108.357 46.0326C111.048 46.0299 113.628 44.9597 115.531 43.0567C117.434 41.1538 118.504 38.5737 118.507 35.8825ZM113.762 32.3473C113.854 32.5747 113.899 32.8181 113.896 33.0632C113.892 33.3084 113.84 33.5503 113.741 33.7749C113.643 33.9995 113.501 34.2021 113.323 34.3711C113.145 34.54 112.936 34.6717 112.706 34.7586C112.477 34.8454 112.233 34.8857 111.988 34.8769C111.743 34.8681 111.502 34.8105 111.28 34.7075C111.057 34.6045 110.858 34.4581 110.692 34.2769C110.527 34.0957 110.4 33.8833 110.318 33.6523C109.961 32.7036 109.086 31.871 107.71 32.3808C107.253 32.551 107.007 32.8881 107.005 33.1331C107 33.4628 107.52 33.7136 107.72 33.7978C108.123 33.9248 108.537 34.0129 108.957 34.061C110.081 34.2294 111.623 34.461 112.917 36.0157C113.413 36.5854 113.744 37.2793 113.875 38.0228C114.005 38.7664 113.931 39.5316 113.66 40.2361C113.113 41.6353 111.87 42.6535 110.275 43.0464V43.3982C110.275 43.8868 110.081 44.3553 109.736 44.7007C109.39 45.0462 108.922 45.2403 108.433 45.2403C107.945 45.2403 107.476 45.0462 107.131 44.7007C106.785 44.3553 106.591 43.8868 106.591 43.3982V42.9479C105.667 42.6899 104.829 42.1875 104.166 41.4936C103.503 40.7997 103.039 39.9398 102.823 39.0046C102.763 38.7667 102.75 38.5191 102.787 38.2764C102.823 38.0337 102.908 37.8007 103.036 37.5911C103.164 37.3816 103.332 37.1997 103.531 37.0562C103.73 36.9126 103.956 36.8103 104.195 36.7553C104.434 36.7003 104.682 36.6936 104.924 36.7357C105.166 36.7778 105.397 36.8678 105.603 37.0004C105.81 37.133 105.988 37.3056 106.127 37.5079C106.266 37.7103 106.363 37.9384 106.412 38.1788C106.781 39.7775 108.894 39.5496 109.136 39.5185C109.797 39.4322 110.139 39.1272 110.231 38.892C110.256 38.8272 110.323 38.6551 110.086 38.3722C109.707 37.9183 109.36 37.8459 108.41 37.7033C107.732 37.6217 107.065 37.4683 106.42 37.2457L106.365 37.2238C104.432 36.4404 103.294 34.891 103.32 33.0781C103.349 31.246 104.567 29.6166 106.431 28.9263C106.483 28.9061 106.539 28.889 106.591 28.8705V28.3671C106.591 27.8786 106.785 27.41 107.131 27.0646C107.476 26.7191 107.945 26.5251 108.433 26.5251C108.922 26.5251 109.39 26.7191 109.736 27.0646C110.081 27.41 110.275 27.8786 110.275 28.3671V28.8279C111.082 29.118 111.813 29.5845 112.417 30.1933C113.02 30.8022 113.48 31.5381 113.762 32.3473Z" fill="#E8ECFF"/>
<defs>
<linearGradient id="paint0_linear_2001_767" x1="0" y1="0" x2="136.942" y2="9.20522" gradientUnits="userSpaceOnUse">
<stop stop-color="#9F001B"/>
<stop offset="1" stop-color="#1B2556"/>
</linearGradient>
</defs>
</svg>
