<svg width="89" height="117" viewBox="0 0 89 117" fill="none" xmlns="http://www.w3.org/2000/svg">
<path d="M82.7165 64.4004L65.3769 37.2183C67.8336 35.9272 69.5142 33.3509 69.5142 30.388C69.5142 27.1451 67.5011 24.3651 64.6596 23.2271L69.9125 4.86218C70.1391 4.06987 69.9182 3.21723 69.3357 2.63451C65.8414 -0.859552 60.1562 -0.859552 56.6619 2.63451C55.826 3.47037 54.7148 3.9306 53.5328 3.9306C52.3508 3.9306 51.2396 3.47037 50.3985 2.62906L50.3874 2.61795C46.9056 -0.864315 41.2301 -0.874069 37.7342 2.59731L37.6691 2.66218C35.9437 4.37541 33.1412 4.37042 31.4221 2.65106L31.4055 2.63451C27.9112 -0.859552 22.226 -0.859552 18.7317 2.63451C18.1488 3.21768 17.9281 4.07101 18.1551 4.86377L23.4194 23.2228C20.5718 24.3578 18.5532 27.1408 18.5532 30.3883C18.5532 33.3511 20.2336 35.9274 22.6906 37.2185L5.3507 64.4004C-1.35751 74.9162 -1.78258 87.7243 4.21361 98.6617C10.2098 109.599 21.2364 116.129 33.7099 116.129H54.3571C66.8304 116.129 77.8569 109.599 83.8534 98.6617C89.8496 87.7243 89.4247 74.9162 82.7165 64.4004ZM28.1975 5.84231L28.2141 5.85887C31.6963 9.3409 37.3715 9.35043 40.8672 5.87951L40.9323 5.81463C42.6575 4.1014 45.46 4.10639 47.1846 5.83097L47.1957 5.84208C50.69 9.33614 56.3752 9.33614 59.8695 5.84208C61.2912 4.42032 63.4477 4.17013 65.128 5.09151L60.0988 22.6759H27.9822L22.9398 5.09128C24.6202 4.17013 26.776 4.42078 28.1975 5.84231ZM79.8755 96.4809C74.6879 105.943 65.1484 111.593 54.3573 111.593H33.7101C22.919 111.593 13.3795 105.944 8.19195 96.4809C3.00439 87.0186 3.37208 75.938 9.17547 66.8402L27.5088 38.1002H33.8265C35.0792 38.1002 36.0947 37.0847 36.0947 35.8319C36.0947 34.5791 35.0792 33.5636 33.8265 33.5636H26.2654C24.5143 33.5636 23.0898 32.1391 23.0898 30.388C23.0898 28.6369 24.5143 27.2124 26.2654 27.2124H26.2729H61.8018C63.5529 27.2124 64.9774 28.6369 64.9774 30.388C64.9774 32.1391 63.5529 33.5636 61.8018 33.5636H54.241C52.9882 33.5636 51.9727 34.5791 51.9727 35.8319C51.9727 37.0847 52.9882 38.1002 54.241 38.1002H60.5584L78.8919 66.8402C84.6953 75.9378 85.063 87.0184 79.8755 96.4809Z" fill="#F6BA40"/>
<path d="M48.0328 74.077C47.4637 73.8758 46.8828 73.6665 46.3021 73.4489V63.1686C47.84 63.6212 48.8671 64.355 48.9107 64.3867C49.9085 65.1341 51.3241 64.9359 52.0781 63.9408C52.8346 62.9423 52.6384 61.5196 51.6399 60.7629C51.5067 60.662 49.3977 59.0964 46.3021 58.5037V56.2463C46.3021 54.9935 45.2866 53.978 44.0339 53.978C42.7811 53.978 41.7656 54.9935 41.7656 56.2463V58.4874C41.3813 58.5611 40.9919 58.6543 40.5972 58.7729C37.4048 59.7322 35.0186 62.4623 34.3696 65.8978C33.7774 69.0349 34.7825 72.0605 36.9927 73.7939C38.1921 74.7346 39.6908 75.5936 41.7656 76.5059V89.661C39.9793 89.548 38.7844 89.1416 36.7924 87.8384C35.7442 87.1523 34.3381 87.4465 33.6524 88.4949C32.9665 89.5433 33.2604 90.9489 34.3088 91.6349C37.2136 93.535 39.1804 94.0733 41.7656 94.2005V96.5461C41.7656 97.7989 42.7811 98.8144 44.0339 98.8144C45.2866 98.8144 46.3021 97.7989 46.3021 96.5461V93.9648C51.1594 92.901 54.0002 88.8478 54.6376 85.0562C55.4708 80.0991 52.8783 75.7896 48.0328 74.077ZM39.7924 70.2241C38.9205 69.5402 38.5507 68.2049 38.8275 66.7394C39.082 65.3916 39.9888 63.7663 41.7656 63.165V71.4721C41.0198 71.0745 40.3468 70.659 39.7924 70.2241ZM50.1637 84.3038C49.837 86.2466 48.5257 88.3071 46.3019 89.2176V78.2756C46.3759 78.3019 46.446 78.3276 46.5208 78.3541C50.5876 79.7915 50.3374 83.2715 50.1637 84.3038Z" fill="#F6BA40"/>
<path d="M44.0338 38.1C44.6303 38.1 45.2156 37.8573 45.6375 37.4354C46.0594 37.0135 46.3021 36.4283 46.3021 35.8318C46.3021 35.2352 46.0594 34.65 45.6375 34.2281C45.2156 33.8062 44.6303 33.5635 44.0338 33.5635C43.4372 33.5635 42.852 33.8062 42.4301 34.2281C42.0082 34.65 41.7655 35.2352 41.7655 35.8318C41.7655 36.4283 42.0082 37.0135 42.4301 37.4354C42.852 37.8573 43.437 38.1 44.0338 38.1Z" fill="#F6BA40"/>
</svg>
