<svg width="22" height="22" viewBox="0 0 22 22" fill="none" xmlns="http://www.w3.org/2000/svg">
<path d="M11.7864 3.104C12.253 3.104 12.7047 3.27012 13.0598 3.57275L14.8567 5.09521C14.9121 4.85666 14.9515 4.6145 14.9739 4.37061C14.9802 4.29668 15.014 4.22746 15.0686 4.17725C15.1232 4.12715 15.1947 4.09922 15.2688 4.09912C15.343 4.09913 15.4153 4.12706 15.47 4.17725C15.5247 4.22745 15.5583 4.29665 15.5647 4.37061C15.6425 4.79444 15.6749 5.6152 16.1204 6.13428C16.3604 6.41391 16.7144 6.58257 17.2737 6.60693C17.3437 6.61209 17.4099 6.64191 17.4602 6.69092C17.5105 6.73999 17.5422 6.80555 17.5491 6.87549C17.556 6.94547 17.5371 7.01576 17.4973 7.07373C17.4575 7.1316 17.399 7.17418 17.3313 7.19287L21.6965 10.8921C21.8304 11.0049 21.9269 11.1565 21.9719 11.3257C22.0169 11.4948 22.0087 11.674 21.9485 11.8384C21.8882 12.0028 21.7787 12.1455 21.635 12.2456C21.4913 12.3456 21.3199 12.3985 21.1448 12.3979H19.8674V21.6782C19.8674 21.7566 19.8368 21.8317 19.7815 21.8872C19.7259 21.9428 19.6501 21.9741 19.5715 21.9741H4.0022C3.92359 21.9741 3.84782 21.9428 3.79224 21.8872C3.7369 21.8317 3.7054 21.7566 3.70532 21.6782V12.3979H2.42896C1.32589 12.309 1.49818 11.156 1.87622 10.8921L3.83228 9.23486V5.36475C3.83228 5.28614 3.86361 5.21037 3.91919 5.15479C3.97477 5.0992 4.05054 5.06787 4.12915 5.06787H7.21118C7.28954 5.06796 7.36468 5.09945 7.42017 5.15479C7.47575 5.21037 7.50708 5.28614 7.50708 5.36475V6.12061L10.5139 3.57275C10.8689 3.27026 11.32 3.1041 11.7864 3.104ZM4.2981 12.3979V21.3813H6.13989V17.231C6.13837 16.9358 6.19498 16.6428 6.30688 16.3696C6.41879 16.0965 6.58406 15.8484 6.79224 15.6392C7.00046 15.4299 7.24814 15.2632 7.52075 15.1499C7.79314 15.0367 8.08517 14.9781 8.38013 14.978C8.67528 14.978 8.96793 15.0366 9.24048 15.1499C9.51309 15.2632 9.76077 15.4299 9.96899 15.6392C10.1771 15.8484 10.3425 16.0965 10.4543 16.3696C10.5662 16.6428 10.6229 16.9358 10.6213 17.231V21.3813H19.2747V12.3979H4.2981ZM8.38013 15.5728C8.16301 15.5728 7.94778 15.6153 7.74731 15.6987C7.54682 15.7821 7.36526 15.9051 7.21216 16.0591C7.059 16.2132 6.93697 16.3961 6.85474 16.5972C6.7726 16.7981 6.73136 17.0138 6.73267 17.231V21.3813H10.0286V17.231C10.0299 17.0137 9.98773 16.7982 9.90552 16.5972C9.82329 16.3961 9.70223 16.2132 9.54907 16.0591C9.39599 15.9051 9.21438 15.7822 9.01392 15.6987C8.81333 15.6153 8.59737 15.5728 8.38013 15.5728ZM17.6653 13.7485C17.7437 13.7486 17.8187 13.7801 17.8743 13.8354C17.9299 13.891 17.9612 13.9668 17.9612 14.0454V18.9116C17.9611 18.9901 17.9298 19.0651 17.8743 19.1206C17.8187 19.1761 17.7438 19.2075 17.6653 19.2075H12.7991C12.7206 19.2075 12.6456 19.1761 12.5901 19.1206C12.5346 19.0651 12.5033 18.9901 12.5032 18.9116V14.0454C12.5032 13.9668 12.5345 13.891 12.5901 13.8354C12.6456 13.7801 12.7207 13.7486 12.7991 13.7485H17.6653ZM1.47485 15.4233C1.5482 15.4233 1.61957 15.4504 1.67407 15.4995C1.7284 15.5485 1.76202 15.6162 1.76978 15.689C1.78308 16.0088 1.93408 16.5054 2.10669 16.6089C2.26955 16.7248 2.46438 16.7869 2.66431 16.7866C2.98053 16.7952 3.046 17.2654 2.75317 17.3599C2.75317 17.3599 2.22699 17.5248 2.06763 17.7124C1.96275 17.8278 1.85415 18.3425 1.802 18.5894C1.78855 18.653 1.77108 18.7122 1.76392 18.7661C1.74961 18.832 1.71386 18.8917 1.66138 18.9341C1.60876 18.9766 1.5425 18.9995 1.47485 18.9995C1.4074 18.9995 1.34184 18.9764 1.28931 18.9341C1.23675 18.8917 1.20009 18.8321 1.18579 18.7661C1.17685 18.7062 1.16419 18.6466 1.14771 18.5884C1.09561 18.3416 0.986905 17.8278 0.88208 17.7124C0.740276 17.529 0.196533 17.3599 0.196533 17.3599C-0.197503 17.1257 0.0903084 16.7799 0.2854 16.7866C0.666574 16.7549 0.828651 16.6182 0.843994 16.6089C1.0177 16.5041 1.16656 16.0084 1.17993 15.689C1.18769 15.6162 1.22223 15.5485 1.27661 15.4995C1.33103 15.4506 1.4017 15.4234 1.47485 15.4233ZM13.0959 18.6147H14.9358V16.7749H13.0959V18.6147ZM15.5286 18.6147H17.3684V16.7749H15.5286V18.6147ZM1.47485 16.7661C1.39589 16.9216 1.27354 17.0513 1.12231 17.1382C1.27634 17.2438 1.39833 17.3897 1.47485 17.5601C1.55256 17.3903 1.67509 17.2448 1.82837 17.1382C1.67786 17.0503 1.55487 16.9209 1.47485 16.7661ZM13.0959 16.1821H14.9358V14.3413H13.0959V16.1821ZM15.5286 16.1821H17.3684V14.3413H15.5286V16.1821ZM12.677 4.0249C12.3254 3.76298 11.6828 3.46658 10.8967 4.0249L2.26001 11.3452C2.2189 11.3795 2.18897 11.4253 2.17505 11.4771C2.16117 11.5288 2.16349 11.5839 2.18188 11.6343C2.20037 11.6847 2.23443 11.7287 2.27856 11.7593C2.32264 11.7897 2.37539 11.8056 2.42896 11.8052H3.34009L11.0842 5.24268C11.2801 5.07574 11.529 4.98398 11.7864 4.98389C12.0439 4.98389 12.2935 5.07565 12.4895 5.24268L13.9329 6.46631C14.145 6.38142 14.5317 6.16672 14.6672 5.71143L12.677 4.0249ZM11.7864 5.57666C11.6695 5.57676 11.556 5.61897 11.467 5.69482L4.25708 11.8052H19.3167L15.7903 8.81689C15.7241 9.09621 15.5689 9.83184 15.5598 9.93213C15.5313 10.2556 15.0072 10.26 14.9788 9.93213C14.9693 9.82885 14.6792 8.16706 14.4094 7.8833C14.1225 7.51176 13.4447 7.31151 13.1702 7.17725C12.8109 6.96577 13.05 6.65251 13.1985 6.61963L12.1057 5.69482C12.0166 5.61897 11.9034 5.57666 11.7864 5.57666ZM16.7209 7.45264C16.4822 7.56793 16.0959 7.78893 15.97 8.19189L20.2336 11.8052H21.1448C21.4062 11.8068 21.5088 11.4725 21.3137 11.3452L16.7209 7.45264ZM4.42505 5.66064V8.73291L6.91431 6.62256V5.66064H4.42505ZM15.2688 5.79639C15.0252 6.6034 14.4984 6.85099 14.2161 6.99072C14.5148 7.17208 15.0334 7.40221 15.2688 8.45557C15.5522 7.29503 15.9729 7.24619 16.3225 6.99072C15.5365 6.59578 15.4286 6.19998 15.2688 5.79639ZM19.5686 4.59424C19.6425 4.59424 19.7142 4.6216 19.7688 4.67139C19.8232 4.72106 19.8566 4.78946 19.8635 4.86279C19.8934 5.18025 20.0267 5.67535 20.1985 5.77881C20.3596 5.89643 20.5547 5.95915 20.7542 5.95654C21.0827 5.97189 21.12 6.44131 20.843 6.52979C20.8316 6.53351 20.2793 6.71482 20.1604 6.88135C20.0336 7.02806 19.8644 7.87491 19.8577 7.93018C19.8428 7.99557 19.8065 8.05429 19.7542 8.09619C19.7016 8.13811 19.6358 8.16064 19.5686 8.16064C19.5015 8.16062 19.4365 8.13802 19.384 8.09619C19.3315 8.05427 19.2945 7.99571 19.2795 7.93018C19.2754 7.87407 19.1129 7.02818 18.9768 6.88135C18.8175 6.68947 18.2997 6.53147 18.2942 6.52979C18.2314 6.50509 18.1794 6.45933 18.1458 6.40088C18.1122 6.34237 18.0993 6.2742 18.1096 6.20752C18.1199 6.14088 18.1527 6.0793 18.2024 6.03369C18.252 5.98827 18.3159 5.96112 18.3831 5.95654C18.7115 5.92867 18.8783 5.8303 18.9387 5.77979C19.1118 5.67593 19.2445 5.18017 19.2737 4.86279C19.2806 4.78938 19.3149 4.72108 19.3694 4.67139C19.4239 4.62176 19.4949 4.59426 19.5686 4.59424ZM19.5686 5.93896C19.4909 6.09365 19.3685 6.2216 19.218 6.30713C19.3722 6.41048 19.4942 6.55599 19.5686 6.72607C19.6455 6.55749 19.7669 6.41261 19.9192 6.30713C19.7736 6.21541 19.6527 6.08907 19.5686 5.93896ZM2.69751 0.776855C2.76982 0.776893 2.83962 0.803184 2.8938 0.851074C2.94805 0.899127 2.98271 0.965656 2.99146 1.0376C2.99204 1.04904 3.07597 1.76049 3.19751 2.56787C3.26555 3.02601 4.09267 3.09572 4.52271 3.12256C4.59704 3.12851 4.66644 3.1625 4.71704 3.21729C4.76762 3.27207 4.79611 3.3439 4.79614 3.41846C4.79612 3.49297 4.76754 3.56485 4.71704 3.61963C4.66645 3.67435 4.59698 3.7084 4.52271 3.71436C4.13158 3.72478 3.2558 3.92036 3.19751 4.29346C3.08471 5.01529 2.99196 5.81471 2.99146 5.82275C2.98279 5.89475 2.94805 5.96116 2.8938 6.00928C2.83961 6.05725 2.76989 6.08346 2.69751 6.0835C2.62498 6.0835 2.5545 6.05741 2.50024 6.00928C2.44607 5.96116 2.41123 5.8947 2.40259 5.82275C2.40213 5.81318 2.31016 5.01419 2.19751 4.29346C2.12259 3.81384 1.20723 3.75798 0.906494 3.73975C0.829011 3.74222 0.753775 3.71391 0.696533 3.66162C0.639293 3.60931 0.604351 3.53689 0.599854 3.45947C0.595381 3.38214 0.621415 3.30611 0.672119 3.24756C0.722956 3.18896 0.795008 3.15247 0.872314 3.146C1.33413 3.10432 2.13865 2.94052 2.19751 2.56787C2.30988 1.84883 2.40129 1.05129 2.40259 1.0376C2.41133 0.965721 2.44608 0.899117 2.50024 0.851074C2.55449 0.803021 2.62504 0.776855 2.69751 0.776855ZM16.5608 0.259277C16.6724 -0.122796 17.0846 -0.0486968 17.1497 0.259277C17.1523 0.28034 17.2317 0.923433 17.3293 1.50342C17.3686 1.73531 17.7385 1.87269 18.429 1.91162C18.8047 1.90212 18.846 2.4622 18.4592 2.50537C18.0229 2.53401 17.369 2.69888 17.3293 2.93408C17.2313 3.51689 17.1511 4.16314 17.1497 4.17822C17.1175 4.50364 16.6065 4.52834 16.5608 4.17822C16.5595 4.16421 16.4793 3.51739 16.3811 2.93408C16.342 2.7019 15.9713 2.56477 15.2805 2.52588C15.2024 2.52897 15.1264 2.50046 15.0686 2.44775C15.0109 2.395 14.9759 2.32176 14.9719 2.24365C14.968 2.16557 14.995 2.08907 15.0471 2.03076C15.0992 1.97248 15.1722 1.93699 15.2502 1.93213C15.7335 1.91036 16.3414 1.73849 16.3811 1.50342C16.4789 0.922496 16.5583 0.279343 16.5608 0.259277ZM2.6936 2.93018C2.5711 3.14095 2.38737 3.30978 2.16724 3.41455C2.3988 3.52046 2.5873 3.70255 2.70142 3.93018C2.82395 3.71938 3.00764 3.55062 3.22778 3.4458C2.99622 3.33994 2.80775 3.15777 2.6936 2.93018ZM16.8489 1.89307C16.7586 2.02148 16.6404 2.12841 16.5032 2.20459C16.6498 2.28444 16.7734 2.40112 16.8606 2.54346C16.9509 2.41516 17.0692 2.30909 17.2063 2.23291C17.0596 2.15303 16.9361 2.03551 16.8489 1.89307Z" fill="#1B2556"/>
</svg>
