<svg width="88" height="84" viewBox="0 0 88 84" fill="none" xmlns="http://www.w3.org/2000/svg">
<path fill-rule="evenodd" clip-rule="evenodd" d="M48.8421 69.6636L57.0082 83.8092L61.6912 78.0813L70.1476 79.4165L60.8784 63.3939L48.8421 69.6636ZM38.2183 69.6636L30.0522 83.8092L25.3692 78.0813L16.9128 79.4165L26.182 63.3745L38.2183 69.6636Z" fill="#CCCC31"/>
<path fill-rule="evenodd" clip-rule="evenodd" d="M48.8419 69.6638L52.1316 75.353C56.5243 73.7662 60.3365 70.9603 63.1811 67.3804L60.8783 63.394L48.8419 69.6638ZM34.9479 75.353C30.5552 73.7662 26.743 70.9603 23.8984 67.3804L26.2012 63.394L38.2376 69.6831L34.9479 75.353Z" fill="#A5A636"/>
<path fill-rule="evenodd" clip-rule="evenodd" d="M43.5398 28.5044C56.3889 28.5044 66.7998 38.9153 66.7998 51.7644C66.7998 64.6134 56.3889 75.0437 43.5398 75.0437C30.6907 75.0437 20.2605 64.6328 20.2605 51.7837C20.2605 38.9346 30.6907 28.5044 43.5398 28.5044Z" fill="#E6E6E6"/>
<path fill-rule="evenodd" clip-rule="evenodd" d="M43.5399 38.083C51.1062 38.083 57.2404 44.2173 57.2404 51.7835C57.2404 59.3498 51.1062 65.4841 43.5399 65.4841C35.9736 65.4841 29.8394 59.3498 29.8394 51.7835C29.8394 44.2173 35.9736 38.083 43.5399 38.083Z" fill="#CCCC31"/>
<path d="M43.5399 36.5347C47.7584 36.5347 51.5706 38.2376 54.3184 41.0048C57.0856 43.772 58.7885 47.5841 58.7885 51.7833C58.7885 55.9825 57.0856 59.7946 54.3184 62.5618C51.5512 65.329 47.7391 67.0319 43.5399 67.0319C39.3407 67.0319 35.5286 65.329 32.7614 62.5618C29.9942 59.7946 28.2913 55.9825 28.2913 51.7833C28.2913 47.5648 29.9942 43.7526 32.7614 41.0048C35.5092 38.2376 39.3214 36.5347 43.5399 36.5347ZM52.1317 43.1914C49.9451 41.0048 46.907 39.6308 43.5399 39.6308C40.1922 39.6308 37.1347 40.9854 34.948 43.1914C32.742 45.3974 31.3874 48.4356 31.3874 51.7833C31.3874 55.131 32.742 58.1691 34.948 60.3752C37.1347 62.5812 40.1728 63.9357 43.5399 63.9357C46.8876 63.9357 49.9451 62.5812 52.1317 60.3752C54.3378 58.1691 55.6923 55.1504 55.6923 51.7833C55.6923 48.4162 54.3184 45.3781 52.1317 43.1914Z" fill="#FDB614"/>
<path fill-rule="evenodd" clip-rule="evenodd" d="M10.6044 14.0489L13.836 20.7637L21.2087 21.7699L15.8292 26.9173L17.145 34.2514L10.585 30.7295L4.02502 34.2514L5.34089 26.9173L0 21.7506L7.37275 20.7443L10.6044 14.0489ZM43.5398 0L46.7715 6.71481L54.1442 7.72107L48.7646 12.8684L50.0805 20.2025L43.5398 16.6806L36.9798 20.2025L38.2957 12.8684L32.9161 7.72107L40.2889 6.71481L43.5398 0ZM76.456 14.0489L79.6876 20.7637L87.0603 21.7699L81.6808 26.9173L82.9966 34.2514L76.4366 30.7295L69.8766 34.2514L71.1925 26.9173L65.8129 21.7699L73.1857 20.7637L76.456 14.0489Z" fill="#FDB614"/>
<path fill-rule="evenodd" clip-rule="evenodd" d="M10.6044 30.7101L4.04437 34.232L5.37959 26.8979L0 21.7505L7.37275 20.7443L10.6044 14.0488V30.7101Z" fill="#E6A624"/>
<path fill-rule="evenodd" clip-rule="evenodd" d="M61.0913 63.7425C58.3047 67.3998 54.4732 70.2057 50.0225 71.6957C47.681 72.4891 45.1847 72.9149 42.5723 72.9149C40.5792 72.9149 38.6247 72.6633 36.767 72.1795C32.2195 71.0185 28.2138 68.5028 25.1757 65.1164C23.8792 63.6651 22.7762 62.0589 21.8667 60.3173C22.6214 62.2331 23.6276 64.0327 24.8468 65.6776C27.5946 69.3736 31.4261 72.2182 35.8575 73.7663C38.257 74.5984 40.8307 75.0628 43.5205 75.0628C46.2103 75.0628 48.784 74.5984 51.1835 73.7663C55.6149 72.2182 59.4271 69.3736 62.1943 65.6776C65.0776 61.8074 66.7998 56.989 66.7998 51.7835C66.7998 47.9327 65.871 44.314 64.2068 41.1211C65.2517 43.7722 65.8323 46.6361 65.8323 49.6549C65.8323 54.9571 64.0713 59.8336 61.0913 63.7425Z" fill="#B3B4B4"/>
<path fill-rule="evenodd" clip-rule="evenodd" d="M43.5397 16.6806L36.9797 20.2025L38.2956 12.8684L32.916 7.72107L40.3081 6.71481L43.5397 0V16.6806Z" fill="#E6A624"/>
<path fill-rule="evenodd" clip-rule="evenodd" d="M76.4559 30.7101L69.8959 34.232L71.2312 26.8979L65.8516 21.7505L73.2243 20.7443L76.4559 14.0488V30.7101Z" fill="#E6A624"/>
<path d="M36.0897 52.4606C35.664 51.7253 35.9156 50.7771 36.6509 50.3514C37.3862 49.9257 38.3344 50.1772 38.7602 50.9126L40.792 54.4345L48.01 47.2165C48.6098 46.6166 49.5967 46.6166 50.1966 47.2165C50.7965 47.8164 50.7965 48.8033 50.1966 49.4032L41.5467 58.0531C41.45 58.1499 41.3532 58.2273 41.2371 58.3047C40.5018 58.7304 39.5536 58.4788 39.1278 57.7435L36.0897 52.4606Z" fill="#A5A636"/>
<path d="M35.5092 50.6223C35.0834 49.8869 35.335 48.9387 36.0703 48.513C36.8057 48.0873 37.7539 48.3388 38.1796 49.0742L40.2115 52.5961L47.4294 45.3781C48.0293 44.7783 49.0162 44.7783 49.6161 45.3781C50.2159 45.978 50.2159 46.9649 49.6161 47.5648L40.9661 56.2147C40.8694 56.3115 40.7726 56.3889 40.6565 56.4663C39.9212 56.892 38.973 56.6404 38.5473 55.9051L35.5092 50.6223Z" fill="white"/>
</svg>
