<svg width="85" height="84" viewBox="0 0 85 84" fill="none" xmlns="http://www.w3.org/2000/svg">
<path d="M76.6158 17.3468V78.0612C76.6158 79.5948 76.0066 81.0655 74.9222 82.1499C73.8378 83.2343 72.3671 83.8436 70.8335 83.8436H21.6837C20.4326 83.8436 19.2152 83.4378 18.2143 82.6871C17.8178 82.3942 17.4628 82.049 17.159 81.6607C16.3475 80.6361 15.9045 79.3682 15.9014 78.0612V17.3468C15.9014 15.8132 16.5106 14.3425 17.595 13.2581C18.6794 12.1737 20.1501 11.5645 21.6837 11.5645H70.8335C72.3671 11.5645 73.8378 12.1737 74.9222 13.2581C76.0066 14.3425 76.6158 15.8132 76.6158 17.3468Z" fill="#A97C50"/>
<path d="M70.8334 18.7927V66.497H62.1599C61.3938 66.4992 60.6598 66.8046 60.1181 67.3463C59.5764 67.888 59.271 68.622 59.2687 69.3881V78.0616H23.1292C22.7458 78.0616 22.3781 77.9093 22.107 77.6382C21.8359 77.3671 21.6836 76.9994 21.6836 76.616V18.7927C21.6836 18.4094 21.8359 18.0417 22.107 17.7706C22.3781 17.4995 22.7458 17.3472 23.1292 17.3472H69.3878C69.7712 17.3472 70.1389 17.4995 70.41 17.7706C70.6811 18.0417 70.8334 18.4094 70.8334 18.7927Z" fill="#E6E7E8"/>
<path d="M51.7952 58.5605L50.7688 63.6778L47.7042 66.7425C47.1669 67.2877 46.8657 68.0225 46.8657 68.788C46.8657 69.5535 47.1669 70.2882 47.7042 70.8335C47.9727 71.1023 48.2916 71.3155 48.6425 71.461C48.9935 71.6065 49.3697 71.6814 49.7497 71.6814C50.1296 71.6814 50.5059 71.6065 50.8568 71.461C51.2078 71.3155 51.5267 71.1023 51.7952 70.8335L54.8598 67.7688L59.9772 66.7425L60.9891 65.7161L70.8335 55.8717V39.5366L51.7952 58.5605Z" fill="#D8D7DA"/>
<path d="M76.6158 33.7539L70.8335 39.5333V55.8713L76.6158 50.089V33.7539Z" fill="#8B5E3C"/>
<path d="M35.6768 71.5131C35.3381 72.8453 34.8073 74.1211 34.1011 75.3005L36.1683 78.0615H23.1292C22.7458 78.0615 22.3781 77.9092 22.107 77.6381C21.8359 77.367 21.6836 76.9994 21.6836 76.616V49.1499H24.5748L25.2542 53.9492C26.5864 54.2879 27.8623 54.8187 29.0416 55.5249L32.9302 52.6048L37.0212 56.6958L34.1011 60.5845C34.8073 61.7638 35.3381 63.0396 35.6768 64.3719L40.4762 65.0513V70.8336L35.6768 71.5131Z" fill="#D8D7DA"/>
<path d="M82.6294 30.1257C82.0956 29.5871 81.4607 29.1592 80.7612 28.8665C80.0617 28.5738 79.3112 28.422 78.5529 28.4199C77.8917 28.4188 77.2356 28.5363 76.6158 28.7669C75.8041 29.0507 75.0676 29.5154 74.4619 30.1257L72.4092 32.164L76.6158 36.3706L80.5912 40.346L82.6294 38.2933C83.1687 37.7586 83.5967 37.1225 83.8888 36.4216C84.1809 35.7207 84.3313 34.9688 84.3313 34.2095C84.3313 33.4501 84.1809 32.6983 83.8888 31.9974C83.5967 31.2965 83.1687 30.6603 82.6294 30.1257Z" fill="#E6E7E8"/>
<path d="M76.6158 36.3707L72.4091 32.1641L70.8334 33.7397V33.7542L69.3445 35.2287L70.8334 36.7176L73.4355 39.3197L76.6158 42.5L77.5265 43.4107L80.5911 40.3461L76.6158 36.3707Z" fill="#FFA733"/>
<path d="M70.8335 66.4966L59.2688 78.0612V69.3877C59.2711 68.6217 59.5764 67.8876 60.1181 67.3459C60.6598 66.8042 61.3939 66.4989 62.16 66.4966H70.8335Z" fill="#D1D3D4"/>
<path d="M70.8335 66.4966V76.6157C70.8335 76.999 70.6812 77.3667 70.4101 77.6378C70.139 77.9089 69.7713 78.0612 69.3879 78.0612H59.2688L70.8335 66.4966Z" fill="#E6E7E8"/>
<path d="M51.9687 64.8776L48.9041 67.9423C48.4989 68.345 47.9835 68.6187 47.4229 68.7288C46.8624 68.8389 46.2818 68.7804 45.7544 68.5608C45.227 68.3412 44.7765 67.9703 44.4597 67.4948C44.143 67.0194 43.9742 66.4608 43.9746 65.8895C43.973 65.5113 44.0462 65.1364 44.1901 64.7866C44.334 64.4368 44.5458 64.1189 44.8131 63.8513L47.8777 60.7866L51.9687 64.8776Z" fill="#787680"/>
<path d="M58.0979 62.8248L57.086 63.8511L51.9687 64.8775L47.8777 60.7865L48.9041 55.6691L49.9304 54.6572L54.007 58.7482H54.0214L58.0979 62.8248Z" fill="#898890"/>
<path d="M70.8335 36.718L69.3446 35.229L49.9304 54.6576L54.007 58.7486H54.0214L70.8335 41.922L73.4356 39.32L70.8335 36.718Z" fill="#00CCB3"/>
<path d="M76.6159 42.5001L73.4356 39.3198L70.8336 41.9219L54.0215 58.7484L58.098 62.825L70.8336 50.0894L76.6159 44.3071L77.5266 43.4108L76.6159 42.5001Z" fill="#00B39D"/>
<path d="M40.881 34.2891C41.6185 35.3522 41.9781 36.6319 41.9024 37.9235C41.8267 39.2151 41.32 40.444 40.4633 41.4136C39.6067 42.3832 38.4496 43.0375 37.1771 43.2718C35.9047 43.5061 34.5904 43.3069 33.4446 42.706C32.2988 42.1051 31.3876 41.1373 30.8567 39.9574C30.3259 38.7775 30.2061 37.4537 30.5166 36.1976C30.827 34.9416 31.5497 33.826 32.5691 33.0292C33.5885 32.2325 34.8457 31.8006 36.1395 31.8027C37.0715 31.8054 37.9892 32.0327 38.8146 32.4656C39.64 32.8984 40.3489 33.524 40.881 34.2891Z" fill="#FF5023"/>
<path d="M30.3572 18.7925H62.16V23.1292H30.3572V18.7925Z" fill="#FFA733"/>
<path d="M60.194 11.5647C59.1398 10.635 57.7832 10.1211 56.3777 10.1191H52.0409V5.78233C52.0409 4.24876 51.4317 2.778 50.3473 1.6936C49.2629 0.609208 47.7921 0 46.2586 0C44.725 0 43.2543 0.609208 42.1699 1.6936C41.0855 2.778 40.4763 4.24876 40.4763 5.78233V10.1191H36.1395C34.607 10.1225 33.1382 10.7328 32.0546 11.8165C30.9709 12.9001 30.3606 14.3689 30.3572 15.9014V18.7926H62.16V15.9014C62.1604 15.0802 61.9852 14.2683 61.6462 13.5203C61.3071 12.7724 60.8119 12.1056 60.194 11.5647Z" fill="#FF9811"/>
<path d="M37.0213 79.1891L35.2577 80.9527L32.9303 83.2801L29.8368 80.9527L29.0417 80.36C28.6815 80.5773 28.31 80.7752 27.9286 80.9527C27.0737 81.3723 26.1774 81.7017 25.2543 81.9357L24.9796 83.8439H21.6837C20.4326 83.8439 19.2152 83.4381 18.2143 82.6874L18.1131 81.9357C17.7951 81.849 17.4626 81.7622 17.159 81.661C16.3475 80.6365 15.9045 79.3686 15.9014 78.0615V54.7298C16.6135 54.4033 17.3538 54.142 18.1131 53.9492L18.7925 49.1499H21.6837V76.616C21.6837 76.9994 21.836 77.367 22.1071 77.6381C22.3782 77.9092 22.7459 78.0615 23.1293 78.0615H36.1684L37.0213 79.1891Z" fill="#8B5E3C"/>
<path d="M32.7858 68.6219C32.4471 69.9542 31.9163 71.23 31.2101 72.4094L34.1302 76.298L32.3666 78.0616L30.0392 80.389L26.9456 78.0616L26.1506 77.4689C25.7904 77.6862 25.4188 77.8841 25.0375 78.0616C24.1826 78.4812 23.2863 78.8106 22.3632 79.0446L21.6837 83.8439H15.9014L15.222 79.0446C13.8897 78.7059 12.6139 78.1751 11.4346 77.4689L7.54594 80.389L3.45494 76.298L6.37502 72.4094C5.66882 71.23 5.13803 69.9542 4.79933 68.6219L0 67.9425V62.1602L4.79933 61.4808C5.13803 60.1485 5.66882 58.8727 6.37502 57.6933L3.45494 53.8047L7.54594 49.7137L11.4346 52.6338C12.6139 51.9276 13.8897 51.3968 15.222 51.0581L15.9014 46.2588H21.6837L22.3632 51.0581C23.6954 51.3968 24.9712 51.9276 26.1506 52.6338L30.0392 49.7137L34.1302 53.8047L31.2101 57.6933C31.9163 58.8727 32.4471 60.1485 32.7858 61.4808L37.5851 62.1602V67.9425L32.7858 68.6219Z" fill="#FF9811"/>
<path d="M21.6838 58.4159C20.7701 58.0249 19.7865 57.8232 18.7926 57.8232C17.7987 57.8232 16.8152 58.0249 15.9015 58.4159C14.6119 58.9808 13.5149 59.9092 12.7445 61.0876C11.9742 62.266 11.564 63.6433 11.564 65.0512C11.564 66.459 11.9742 67.8363 12.7445 69.0147C13.5149 70.1931 14.6119 71.1215 15.9015 71.6864C16.8152 72.0774 17.7987 72.2791 18.7926 72.2791C19.7865 72.2791 20.7701 72.0774 21.6838 71.6864C22.9734 71.1215 24.0704 70.1931 24.8407 69.0147C25.611 67.8363 26.0213 66.459 26.0213 65.0512C26.0213 63.6433 25.611 62.266 24.8407 61.0876C24.0704 59.9092 22.9734 58.9808 21.6838 58.4159Z" fill="#FFD422"/>
<path d="M44.813 4.33691H47.7042V7.22808H44.813V4.33691Z" fill="#CC7400"/>
<path d="M17.3469 50.5952H20.2381V53.4864H17.3469V50.5952Z" fill="#EE8700"/>
<path d="M7.54053 55.8472L9.58489 53.8028L11.6293 55.8472L9.58489 57.8915L7.54053 55.8472Z" fill="#EE8700"/>
<path d="M4.33667 63.6055H7.22783V66.4966H4.33667V63.6055Z" fill="#EE8700"/>
<path d="M7.53857 74.2446L9.58294 72.2003L11.6273 74.2446L9.58294 76.289L7.53857 74.2446Z" fill="#EE8700"/>
<path d="M17.3469 76.6157H20.2381V79.5069H17.3469V76.6157Z" fill="#EE8700"/>
<path d="M25.936 74.2466L27.9804 72.2022L30.0248 74.2466L27.9804 76.2909L25.936 74.2466Z" fill="#EE8700"/>
<path d="M30.3572 63.6055H33.2483V66.4966H30.3572V63.6055Z" fill="#EE8700"/>
<path d="M25.938 55.8491L27.9823 53.8048L30.0267 55.8491L27.9823 57.8935L25.938 55.8491Z" fill="#EE8700"/>
<path d="M35.1089 38.0088L42.3356 30.782L44.3797 32.8261L37.1529 40.0528L35.1089 38.0088Z" fill="#D80027"/>
<path d="M46.2585 33.2485H49.1497V36.1397H46.2585V33.2485Z" fill="#C6C5CA"/>
<path d="M52.041 33.2485H57.8233V36.1397H52.041V33.2485Z" fill="#C6C5CA"/>
<path d="M46.2585 39.0308H54.932V41.9219H46.2585V39.0308Z" fill="#C6C5CA"/>
</svg>
