<svg width="89" height="84" viewBox="0 0 89 84" fill="none" xmlns="http://www.w3.org/2000/svg">
<path d="M86.2687 51.7567C85.0441 49.4644 81.4169 47.1753 77.1875 49.2622L60.3329 57.5656L47.0458 56.1215L51.8748 54.2156C54.6534 53.1247 56.1756 50.9741 55.8472 48.6034C55.6651 47.2819 54.9484 46.0637 53.8806 45.2609C52.985 44.5875 51.3867 43.8624 48.8537 44.2299L27.6296 47.3029C24.0956 47.8163 19.543 48.8433 15.6763 52.2566L8.0738 58.9873C8.07035 58.9903 8.06798 58.9941 8.06489 58.9972L7.78698 58.6998C7.18093 58.0512 6.15484 58.0193 5.51149 58.6253L0.349007 63.4428C-0.0943339 63.8564 -0.118175 64.5511 0.295682 64.9943L17.7188 83.651C18.1325 84.094 18.8272 84.1178 19.2702 83.704L24.4332 78.8815C25.0818 78.2807 25.1139 77.2546 24.5129 76.606L23.7642 75.8044C23.7756 75.7937 23.7884 75.7846 23.7989 75.7728L24.2699 75.2435C25.3221 74.0751 26.6641 73.4904 28.2333 73.5049C40.9123 73.6542 48.2036 72.328 61.0432 69.7729C61.1016 69.7613 61.1581 69.74 61.2096 69.7101L85.5751 55.6373C86.8602 54.8966 87.1325 53.3733 86.2687 51.7567Z" fill="#FFCCBC"/>
<path d="M47.3259 0L53.2965 11.3296L65.9127 13.5093L56.9862 22.6859L58.8151 35.3552L47.3259 29.7037L35.8369 35.3552L37.6658 22.6859L28.7393 13.5093L41.3555 11.3296L47.3259 0Z" fill="#FFD550"/>
<path d="M76.5566 15.7051L72.7339 22.9516L64.6633 24.3499L70.3733 30.2194L69.2038 38.3271L76.5566 34.712L83.9041 38.3271L82.7344 30.2194L88.4498 24.3499L80.3739 22.9569L76.5566 15.7051Z" fill="#FFD550"/>
<path d="M18.0954 15.7051L21.9127 22.9516L29.9886 24.3499L24.2732 30.2194L25.4429 38.3271L18.0954 34.712L10.7426 38.3271L11.9123 30.2194L6.20215 24.3499L14.2727 22.9569L18.0954 15.7051Z" fill="#FFD550"/>
<path d="M24.5127 76.6066L7.78674 58.7005C7.18069 58.0518 6.1546 58.02 5.51125 58.626L0.348763 63.4434C-0.0945781 63.8571 -0.11842 64.5518 0.295438 64.995L17.7186 83.6517C18.1323 84.0947 18.8269 84.1185 19.2699 83.7046L24.433 78.8821C25.0816 78.2814 25.1134 77.2553 24.5127 76.6066Z" fill="#4A80AA"/>
<path d="M24.5126 76.6066L7.78667 58.7005C7.18062 58.0518 6.15453 58.02 5.51118 58.626L4.67163 59.4095C4.72732 59.4548 4.78156 59.5029 4.83197 59.5569L21.5579 77.4631C22.1587 78.1117 22.1266 79.1378 21.4782 79.7386L17.5183 83.4373L17.7185 83.6517C18.1322 84.0947 18.8269 84.1185 19.2699 83.7046L24.4329 78.8821C25.0815 78.2814 25.1135 77.2553 24.5126 76.6066Z" fill="#3E759B"/>
<path fill-rule="evenodd" clip-rule="evenodd" d="M17.6863 80.1134C18.3901 80.1134 18.9603 79.5432 18.9603 78.8394C18.9603 78.1407 18.3901 77.5654 17.6863 77.5654C16.9825 77.5654 16.4124 78.1407 16.4124 78.8394C16.4124 79.5432 16.9825 80.1134 17.6863 80.1134Z" fill="white"/>
<path d="M52.9351 46.5598C53.2634 48.9307 51.7411 51.0813 48.9627 52.172L37.9565 56.5157C37.1539 56.8325 36.7892 57.7644 37.1638 58.5417C37.5015 59.2427 38.3231 59.5643 39.047 59.2786L51.8748 54.216C54.6533 53.1251 56.1756 50.9745 55.8472 48.6038C55.6651 47.2823 54.9484 46.064 53.8806 45.2613C53.4522 44.9393 52.861 44.6066 52.0859 44.3862C52.5307 45.0316 52.8272 45.7772 52.9351 46.5598Z" fill="#F4B5A4"/>
<path d="M86.2687 51.7569C85.6454 50.5899 84.3985 49.4253 82.7673 48.8369C83.0008 49.1226 83.1992 49.4177 83.3568 49.7129C84.2205 51.3295 83.9483 52.8526 82.6632 53.5936L58.2976 67.6663C58.2461 67.6962 58.1897 67.7175 58.1313 67.7291C45.2917 70.2842 38.0004 71.6104 25.3213 71.4611C23.7522 71.4466 22.4101 72.0313 21.358 73.1997L21.3447 73.2147L23.7642 75.8048C23.7756 75.7941 23.7884 75.785 23.7989 75.7732L24.2699 75.2439C25.3221 74.0755 26.6641 73.4908 28.2333 73.5053C40.9123 73.6545 48.2036 72.3283 61.0432 69.7733C61.1016 69.7617 61.1581 69.7404 61.2096 69.7105L85.5751 55.6377C86.8602 54.897 87.1324 53.3737 86.2687 51.757V51.7569Z" fill="#F4B5A4"/>
<path d="M53.2965 11.3296L47.3262 0V29.7037L58.8152 35.3552L56.9863 22.6859L65.9128 13.5093L53.2965 11.3296Z" fill="#EFC44B"/>
<path d="M83.9042 38.3271L82.7345 30.2194L88.4499 24.3499L80.374 22.9569L76.5566 15.7051V34.712L83.9042 38.3271Z" fill="#EFC44B"/>
<path d="M25.443 38.3271L24.2733 30.2194L29.9887 24.3499L21.9128 22.9569L18.0955 15.7051V34.712L25.443 38.3271Z" fill="#EFC44B"/>
</svg>
