<svg width="84" height="84" viewBox="0 0 84 84" fill="none" xmlns="http://www.w3.org/2000/svg">
<path d="M83.8588 47.3451C83.5324 43.9842 80.8892 41.3411 77.5284 41.0147C68.3402 40.1221 58.4697 43.4675 51.0226 50.9145C43.5754 58.3617 40.23 68.2322 41.1226 77.4203C41.449 80.7813 44.0922 83.4243 47.4531 83.7507C56.6412 84.6433 66.5115 81.298 73.9589 73.8508C81.406 66.4036 84.7514 56.5334 83.8588 47.3451Z" fill="url(#paint0_linear_2001_566)"/>
<path d="M43.1499 81.7235C44.2715 82.8453 45.7727 83.5876 47.4532 83.7509C56.6413 84.6434 66.5116 81.2981 73.9588 73.8509C81.406 66.4037 84.7513 56.5334 83.8588 47.3453C83.6956 45.6648 82.9531 44.1636 81.8314 43.042L43.1499 81.7235Z" fill="url(#paint1_linear_2001_566)"/>
<path d="M72.0734 75.6014C72.7165 75.0447 73.3465 74.4632 73.9589 73.8508C81.4061 66.4036 84.7514 56.5333 83.8589 47.3451C83.5324 43.9842 80.8892 41.3411 77.5284 41.0147C68.3403 40.1221 58.4698 43.4675 51.0226 50.9147C50.4104 51.5269 49.8287 52.1569 49.272 52.8002V75.6016L72.0734 75.6014Z" fill="url(#paint2_linear_2001_566)"/>
<path d="M62.9395 61.9341H81.7769C83.6257 57.1826 84.3275 52.1701 83.8589 47.3454C83.5325 43.9844 80.8893 41.3414 77.5284 41.0149C72.7036 40.5463 67.6911 41.248 62.9396 43.0968V61.9341H62.9395Z" fill="url(#paint3_linear_2001_566)"/>
<path d="M83.8588 47.3451C83.5324 43.9842 80.8892 41.3411 77.5284 41.0147C68.3402 40.1221 58.4697 43.4675 51.0226 50.9145C43.5754 58.3617 40.23 68.2322 41.1226 77.4203C41.449 80.7813 44.0922 83.4243 47.4531 83.7507C56.6412 84.6433 66.5115 81.298 73.9589 73.8508C81.406 66.4036 84.7514 56.5334 83.8588 47.3451Z" fill="url(#paint4_linear_2001_566)"/>
<path d="M80.2077 38.208C80.2077 59.3097 63.1015 76.4157 42 76.4157C20.8986 76.4157 3.79224 59.3095 3.79224 38.208C3.79224 26.9978 8.6201 16.9152 16.3099 9.92606C23.0951 3.75898 32.1085 0.449707 41.9999 0.449707C49.2219 0.449707 55.976 2.00404 61.7366 5.48592C72.807 12.1776 80.2077 24.3286 80.2077 38.208Z" fill="url(#paint5_linear_2001_566)"/>
<path d="M62.7189 13.7961C65.1547 11.3603 64.6847 7.26946 61.7369 5.48718C55.9763 2.00464 49.2224 0 41.9999 0C32.1882 0 23.2415 3.69979 16.4756 9.77859C16.0459 10.1647 15.8018 10.7166 15.8018 11.2942C15.8018 13.1099 17.9971 14.0193 19.281 12.7354C21.7658 10.2506 25.7943 10.2506 28.2791 12.7354C31.586 16.0424 36.0713 17.9002 40.7479 17.9002H44.6808C48.0942 17.9002 50.8612 20.6673 50.8612 24.0807V24.4424C50.8612 26.0815 50.2101 27.6535 49.0511 28.8125C46.6375 31.2261 46.6375 35.1393 49.0511 37.5528C52.4712 40.9729 58.0162 40.9729 61.4363 37.5528L66.422 32.5671C68.5024 30.4867 68.5024 27.1136 66.422 25.033L62.7191 21.3301C60.6383 19.2497 60.6383 15.8767 62.7189 13.7961Z" fill="url(#paint6_linear_2001_566)"/>
<path d="M32.6271 51.162C29.1965 51.162 27.4784 47.0142 29.9042 44.5884C31.6109 42.8817 31.6109 40.1147 29.9042 38.408C28.1975 36.7013 25.4305 36.7013 23.724 38.408L22.3381 39.7938C20.9623 41.1696 18.7319 41.1696 17.3561 39.7938C15.4976 37.9353 14.4533 35.4145 14.4533 32.7859C14.4533 29.9642 12.1659 27.6768 9.34415 27.6768C6.85248 27.6768 4.71278 29.4721 4.30612 31.9303C3.98709 33.8592 3.81233 35.8369 3.79389 37.852C3.5992 59.1306 20.652 76.3785 41.9315 76.4159C43.393 76.4185 44.8353 76.3388 46.2541 76.1813C48.0747 75.9794 48.8632 73.7733 47.5679 72.4781C46.7182 71.6284 46.7182 70.2506 47.5679 69.4009C50.3487 66.6201 50.3487 62.1117 47.5679 59.3309L44.1882 55.9512C41.122 52.8847 36.9633 51.162 32.6271 51.162Z" fill="url(#paint7_linear_2001_566)"/>
<path d="M4.6145 46.1489C8.2438 63.4391 23.5008 76.383 41.9313 76.4154C43.3927 76.4181 44.835 76.3384 46.2538 76.1809C48.0745 75.979 48.8629 73.7729 47.5677 72.4777C46.7179 71.6279 46.7179 70.2502 47.5677 69.4003C50.3484 66.6196 50.3484 62.1111 47.5677 59.3303L44.1879 55.9506C41.1217 52.8844 36.9631 51.1617 32.6267 51.1617C29.8605 51.1617 28.2094 48.4652 28.9447 46.1489H4.6145Z" fill="url(#paint8_linear_2001_566)"/>
<path d="M73.0102 46.2131C72.0989 45.0695 70.8073 44.4013 69.3737 44.3315C69.2894 44.3273 69.2041 44.3252 69.1199 44.3252C67.7767 44.3252 66.5086 44.8429 65.5494 45.7827C65.3761 45.9525 65.2164 46.1327 65.0708 46.3218C64.9253 46.1327 64.7656 45.9525 64.5923 45.7827C63.633 44.8427 62.3651 44.3252 61.0218 44.3252C60.9378 44.3252 60.8523 44.3273 60.768 44.3315C59.3344 44.4013 58.0429 45.0695 57.1314 46.2131C56.1473 47.4479 55.7448 49.0638 56.0268 50.6469C56.3898 52.6848 57.6633 54.6432 59.8117 56.4678C61.4632 57.8704 63.214 58.8325 64.1105 59.2811C64.4072 59.4295 64.7392 59.5081 65.0708 59.5081C65.4023 59.5081 65.7342 59.4297 66.031 59.2811C66.9277 58.8325 68.6783 57.8703 70.3298 56.4678C72.4782 54.6434 73.7517 52.6848 74.1148 50.6471C74.3969 49.0638 73.9944 47.4477 73.0102 46.2131Z" fill="url(#paint9_linear_2001_566)"/>
<path d="M80.2077 38.2076C80.2077 59.3087 63.1012 76.4152 42 76.4152C40.9647 76.4152 39.9383 76.3747 38.924 76.2924C22.1558 74.9574 8.43859 62.7954 4.76318 46.8005C4.12791 44.039 3.79224 41.1623 3.79224 38.2074C3.79224 36.309 3.9301 34.4436 4.19824 32.6201H79.8015C80.0698 34.4437 80.2077 36.3092 80.2077 38.2076Z" fill="url(#paint10_linear_2001_566)"/>
<path d="M6.83936 38.6868C3.28747 39.0318 0.494062 41.8251 0.149168 45.377C-0.794103 55.0872 2.74131 65.5183 10.6115 73.3886C18.4818 81.259 28.9129 84.7944 38.6231 83.8511C42.175 83.506 44.9683 80.7128 45.3133 77.1609C46.2566 67.4507 42.7212 57.0197 34.8509 49.1494C26.9806 41.2789 16.5494 37.7435 6.83936 38.6868Z" fill="url(#paint11_linear_2001_566)"/>
<path d="M43.1707 81.7084C44.3562 80.5231 45.1407 78.9368 45.3132 77.1607C46.2564 67.4507 42.721 57.0195 34.8507 49.1492C26.9804 41.2789 16.5494 37.7435 6.8392 38.6868C5.06317 38.8594 3.47689 39.6439 2.2915 40.8294L43.1707 81.7084Z" fill="url(#paint12_linear_2001_566)"/>
<path d="M36.7009 51.1418C36.1125 50.4621 35.4979 49.7962 34.8509 49.1492C26.9806 41.2789 16.5496 37.7435 6.83936 38.6868C3.28747 39.0318 0.494062 41.8251 0.149167 45.377C-0.794103 55.0872 2.74131 65.5183 10.6116 73.3886C11.2586 74.0356 11.9245 74.6505 12.6042 75.2388H36.701L36.7009 51.1418Z" fill="url(#paint13_linear_2001_566)"/>
<path d="M22.257 60.795V40.8873C17.2356 38.9334 11.9383 38.1917 6.83936 38.687C3.28748 39.0321 0.494068 41.8253 0.149174 45.3772C-0.346097 50.4762 0.395574 55.7736 2.34932 60.795H22.257Z" fill="url(#paint14_linear_2001_566)"/>
<defs>
<linearGradient id="paint0_linear_2001_566" x1="30.3607" y1="30.2526" x2="67.8013" y2="67.6932" gradientUnits="userSpaceOnUse">
<stop stop-color="#A2E62E"/>
<stop offset="0.1231" stop-color="#97DE30"/>
<stop offset="0.3395" stop-color="#79CB36"/>
<stop offset="0.6234" stop-color="#4AAB3F"/>
<stop offset="0.9609" stop-color="#09804C"/>
<stop offset="1" stop-color="#017B4E"/>
</linearGradient>
<linearGradient id="paint1_linear_2001_566" x1="72.2648" y1="66.032" x2="54.8432" y2="60.2248" gradientUnits="userSpaceOnUse">
<stop stop-color="#017B4E" stop-opacity="0"/>
<stop offset="1" stop-color="#026841"/>
</linearGradient>
<linearGradient id="paint2_linear_2001_566" x1="64.3945" y1="60.3594" x2="44.2158" y2="80.538" gradientUnits="userSpaceOnUse">
<stop stop-color="#017B4E" stop-opacity="0"/>
<stop offset="1" stop-color="#026841"/>
</linearGradient>
<linearGradient id="paint3_linear_2001_566" x1="83.5311" y1="41.2229" x2="56.9957" y2="67.7583" gradientUnits="userSpaceOnUse">
<stop stop-color="#017B4E" stop-opacity="0"/>
<stop offset="0.4829" stop-color="#01754A" stop-opacity="0.483"/>
<stop offset="1" stop-color="#026841"/>
</linearGradient>
<linearGradient id="paint4_linear_2001_566" x1="74.9402" y1="74.8323" x2="64.8918" y2="64.7839" gradientUnits="userSpaceOnUse">
<stop stop-color="#017B4E" stop-opacity="0"/>
<stop offset="1" stop-color="#01525A"/>
</linearGradient>
<linearGradient id="paint5_linear_2001_566" x1="15.095" y1="11.3032" x2="63.0836" y2="59.2915" gradientUnits="userSpaceOnUse">
<stop stop-color="#A0D4FF"/>
<stop offset="1" stop-color="#0593FC"/>
</linearGradient>
<linearGradient id="paint6_linear_2001_566" x1="33.4844" y1="3.42111" x2="83.6046" y2="53.5411" gradientUnits="userSpaceOnUse">
<stop stop-color="#A2E62E"/>
<stop offset="0.1231" stop-color="#97DE30"/>
<stop offset="0.3395" stop-color="#79CB36"/>
<stop offset="0.6234" stop-color="#4AAB3F"/>
<stop offset="0.9609" stop-color="#09804C"/>
<stop offset="1" stop-color="#017B4E"/>
</linearGradient>
<linearGradient id="paint7_linear_2001_566" x1="9.92753" y1="39.3246" x2="41.8003" y2="71.1973" gradientUnits="userSpaceOnUse">
<stop stop-color="#A2E62E"/>
<stop offset="0.1231" stop-color="#97DE30"/>
<stop offset="0.3395" stop-color="#79CB36"/>
<stop offset="0.6234" stop-color="#4AAB3F"/>
<stop offset="0.9609" stop-color="#09804C"/>
<stop offset="1" stop-color="#017B4E"/>
</linearGradient>
<linearGradient id="paint8_linear_2001_566" x1="27.1339" y1="55.0391" x2="27.1339" y2="72.8211" gradientUnits="userSpaceOnUse">
<stop stop-color="#017B4E" stop-opacity="0"/>
<stop offset="0.4693" stop-color="#01764A" stop-opacity="0.469"/>
<stop offset="1" stop-color="#026841"/>
</linearGradient>
<linearGradient id="paint9_linear_2001_566" x1="51.5156" y1="36.4602" x2="68.6893" y2="53.6339" gradientUnits="userSpaceOnUse">
<stop stop-color="#A2E62E"/>
<stop offset="0.1231" stop-color="#97DE30"/>
<stop offset="0.3395" stop-color="#79CB36"/>
<stop offset="0.6234" stop-color="#4AAB3F"/>
<stop offset="0.9609" stop-color="#09804C"/>
<stop offset="1" stop-color="#017B4E"/>
</linearGradient>
<linearGradient id="paint10_linear_2001_566" x1="43.8899" y1="45.0055" x2="53.6291" y2="75.8712" gradientUnits="userSpaceOnUse">
<stop stop-color="#2740B0" stop-opacity="0"/>
<stop offset="0.3153" stop-color="#243BA4" stop-opacity="0.315"/>
<stop offset="0.8855" stop-color="#1B2D84" stop-opacity="0.886"/>
<stop offset="1" stop-color="#192A7D"/>
</linearGradient>
<linearGradient id="paint11_linear_2001_566" x1="10.0177" y1="48.5554" x2="51.5437" y2="90.0814" gradientUnits="userSpaceOnUse">
<stop stop-color="#A2E62E"/>
<stop offset="0.1231" stop-color="#97DE30"/>
<stop offset="0.3395" stop-color="#79CB36"/>
<stop offset="0.6234" stop-color="#4AAB3F"/>
<stop offset="0.9609" stop-color="#09804C"/>
<stop offset="1" stop-color="#017B4E"/>
</linearGradient>
<linearGradient id="paint12_linear_2001_566" x1="31.9116" y1="52.1451" x2="11.9941" y2="72.0626" gradientUnits="userSpaceOnUse">
<stop stop-color="#017B4E" stop-opacity="0"/>
<stop offset="1" stop-color="#026841"/>
</linearGradient>
<linearGradient id="paint13_linear_2001_566" x1="27.9754" y1="66.4329" x2="49.3005" y2="87.758" gradientUnits="userSpaceOnUse">
<stop stop-color="#017B4E" stop-opacity="0"/>
<stop offset="1" stop-color="#026841"/>
</linearGradient>
<linearGradient id="paint14_linear_2001_566" x1="11.4706" y1="49.9283" x2="39.5135" y2="77.9712" gradientUnits="userSpaceOnUse">
<stop stop-color="#017B4E" stop-opacity="0"/>
<stop offset="0.4829" stop-color="#01754A" stop-opacity="0.483"/>
<stop offset="1" stop-color="#026841"/>
</linearGradient>
</defs>
</svg>
