<svg width="108" height="84" viewBox="0 0 108 84" fill="none" xmlns="http://www.w3.org/2000/svg">
<path d="M104.209 20.7004C104.091 17.172 101.151 14.2314 97.6222 14.3491H89.5066V41.6362L90.3299 44.2238V59.6317H91.7412C95.9754 59.6317 100.092 60.2197 104.091 61.5135H104.208V20.8179L104.209 20.7004Z" fill="#2BA037"/>
<path d="M75.7456 62.2192L76.3336 62.4545V63.0425C76.3336 63.2778 76.3336 63.513 76.4511 63.6305H76.3336V70.5698H75.5103L70.0998 70.3346H69.7471C70.2176 68.8055 70.5704 67.0412 70.5704 65.3946C70.5704 64.2186 70.4528 63.0423 70.2176 61.8662H70.6881L75.7456 62.2192Z" fill="#F4B844"/>
<path d="M65.513 53.633C68.8064 54.4563 72.0995 54.809 75.5104 54.809C83.8613 54.809 91.0358 52.5744 91.5063 49.9868V58.4552C83.5083 58.5727 76.9217 60.4547 76.0985 62.8071L75.5104 62.5718L70.9235 62.3366H70.453C69.7472 59.0432 67.9831 55.9853 65.3955 53.7505L65.513 53.633Z" fill="#E5A739"/>
<path d="M13.5261 52.457H44.8121L45.1649 54.1036C41.8715 56.9265 39.9897 61.1606 39.9897 65.5126C39.9897 66.3358 40.1072 67.0416 40.225 67.8649H19.9949C16.4665 67.8649 13.5259 64.9245 13.5259 61.3959L13.5261 52.457Z" fill="#2BA037"/>
<path d="M84.2137 0H6.58652C2.94037 0 0.117516 2.82263 0 6.46878V47.0467V47.1642C0.117516 50.6926 3.05812 53.6332 6.58652 53.5154H44.6945L45.0473 53.986C47.8702 51.3983 51.5163 49.987 55.28 49.987C56.809 49.987 58.3381 50.2223 59.8669 50.6928L90.6827 41.6362V14.3491V6.46878C90.6827 2.94037 87.7423 0 84.2137 0Z" fill="#3BB54A"/>
<path d="M45.4001 9.87988C54.8094 9.87988 62.337 17.4074 62.337 26.8168C62.337 36.2262 54.8094 43.7537 45.4001 43.7537C35.9907 43.7537 28.4631 36.2262 28.4631 26.8168C28.4634 17.4074 35.9907 9.87988 45.4001 9.87988Z" fill="#2BA037"/>
<path d="M11.8792 16.1135C14.4776 16.1135 16.5839 14.0071 16.5839 11.4088C16.5839 8.81046 14.4776 6.7041 11.8792 6.7041C9.28092 6.7041 7.17456 8.81046 7.17456 11.4088C7.17456 14.0071 9.28092 16.1135 11.8792 16.1135Z" fill="#2BA037"/>
<path d="M107.62 71.1577V78.9205C107.62 81.6256 100.563 83.7427 91.8589 83.7427C83.1553 83.7427 76.2158 81.6256 76.2158 78.9205V71.8635C77.5096 74.2158 83.9786 75.9801 91.7412 75.9801C99.504 75.9801 107.62 73.7453 107.62 71.1577Z" fill="#E5A739"/>
<path d="M107.62 63.6304V71.1579C107.62 73.7455 100.327 75.9801 91.7412 75.9801C83.1551 75.9801 77.5096 74.2158 76.2158 71.8635V63.9831C77.1568 66.3355 83.7434 68.2173 91.7412 68.2173C99.739 68.2173 107.032 66.218 107.62 63.6304Z" fill="#F4B844"/>
<path d="M107.62 63.6303C107.032 66.2179 100.092 68.2172 91.7415 68.2172C83.3907 68.2172 77.157 66.3354 76.2161 63.9831C76.0986 63.7478 76.0986 63.6303 76.0986 63.395V62.807C76.9219 60.4546 83.5084 58.5728 91.5065 58.4551H91.7418C95.9759 58.4551 100.093 59.0431 104.092 60.3369C106.326 61.1602 107.62 62.2187 107.62 63.395V63.6303Z" fill="#FEDB41"/>
<path d="M76.2163 71.8637V78.0974H75.393C72.2174 78.0974 69.0417 77.7447 65.8661 77.0389H65.6309C67.7479 75.1571 69.277 72.8047 69.9828 70.0996H70.3355L75.393 70.3349H76.2163V71.8637Z" fill="#E5A739"/>
<path d="M91.5059 43.0475V49.9868C91.0354 52.5744 83.8608 54.809 75.51 54.809C72.0991 54.809 68.8057 54.4562 65.5126 53.6329H65.3951C63.866 52.3391 61.9842 51.2806 59.9846 50.6926V42.4595C60.4551 44.9293 67.2769 46.9289 75.6277 46.9289C83.9786 46.9289 90.0946 45.2821 91.5059 43.0475Z" fill="#F4B844"/>
<path d="M91.506 43.1654C90.0947 45.4 83.1552 47.0468 75.5101 47.0468C67.8651 47.0468 60.3375 45.0472 59.867 42.5773C59.7495 42.4598 59.7495 42.3421 59.7495 42.2245C59.7495 39.6369 66.8065 37.4023 75.5101 37.4023C82.2144 37.4023 88.3304 38.6961 90.6828 40.578C91.2708 40.9307 91.7413 41.519 91.7413 42.2245C91.7413 42.5773 91.7413 42.9301 91.506 43.1654Z" fill="#FEDB41"/>
<path d="M71.0406 62.3367C71.1582 63.3952 71.2759 64.4538 71.2759 65.5123C71.2759 67.0414 71.0407 68.5704 70.6879 70.0993C69.8646 72.8044 68.3355 75.2745 66.1009 77.2738C59.6319 83.1545 49.517 82.6843 43.636 76.2153C41.5189 73.8629 40.1076 71.0401 39.6371 67.9822C39.5196 67.1589 39.4019 66.3356 39.4019 65.6298C39.4019 61.1604 41.2837 56.8085 44.6946 53.7506C48.9288 49.9869 54.692 48.6931 60.1024 50.4572C62.2195 51.0452 64.1014 52.1038 65.7482 53.5153C68.453 55.7502 70.3349 58.8083 71.0406 62.3367Z" fill="#FEDB41"/>
<path d="M55.3977 57.6323C59.7496 57.6323 63.278 61.1607 63.278 65.5126C63.278 69.8646 59.7496 73.393 55.3977 73.393C51.0457 73.393 47.5173 69.8646 47.5173 65.5126C47.5171 61.1607 51.0457 57.6323 55.3977 57.6323Z" fill="#F4B844"/>
</svg>
