<svg width="93" height="93" viewBox="0 0 93 93" fill="none" xmlns="http://www.w3.org/2000/svg">
<rect width="92.9925" height="92.9925" rx="26" fill="#FFF7E5"/>
<path d="M73.2451 35.9164C73.2451 33.3238 71.1358 31.2145 68.5432 31.2145H60.1842V27.8419C60.1842 25.1212 57.9707 22.9077 55.2501 22.9077H37.7427C35.0219 22.9077 32.8085 25.1212 32.8085 27.8419V31.2145H24.4495C21.8568 31.2145 19.7476 33.3238 19.7476 35.9164V43.3347C19.7476 44.7171 20.1977 46.441 21.8373 48.132V65.3819C21.8373 67.9745 23.9466 70.0838 26.5392 70.0838H66.4534C69.0461 70.0838 71.1554 67.9745 71.1554 65.3819V48.132C72.7943 46.4419 73.2451 44.7185 73.2451 43.3347V35.9164ZM35.9431 27.8419C35.9431 26.8496 36.7504 26.0423 37.7427 26.0423H55.2502C56.2424 26.0423 57.0497 26.8496 57.0497 27.8419V31.2145H35.9431V27.8419ZM22.8822 35.9164C22.8822 35.0522 23.5853 34.3491 24.4495 34.3491H68.5432C69.4074 34.3491 70.1105 35.0522 70.1105 35.9164V43.3347C70.1105 47.1911 62.7119 50.3382 51.9297 51.1627V49.7087C51.9297 48.8432 51.2279 48.1414 50.3624 48.1414H42.6303C41.7647 48.1414 41.063 48.8432 41.063 49.7087V51.1622C30.2904 50.3366 22.8822 47.1813 22.8822 43.3347V35.9164ZM48.7951 51.276V53.3136C48.7951 54.437 47.881 55.3511 46.7576 55.3511H46.2351C45.1117 55.3511 44.1976 54.437 44.1976 53.3136V51.276H48.7951ZM66.4534 66.9492H26.5392C25.675 66.9492 24.9719 66.2461 24.9719 65.3819V50.4323C29.6388 52.8237 34.5432 53.7458 41.1608 54.3128C41.6277 56.688 43.7251 58.4857 46.2351 58.4857H46.7576C49.2678 58.4857 51.3652 56.6878 51.832 54.3123C57.2985 53.9164 62.2333 52.9131 65.8365 51.455C66.6468 51.1272 67.3717 50.7846 68.0207 50.432V65.3819C68.0207 66.2461 67.3176 66.9492 66.4534 66.9492Z" fill="#F6BA40"/>
</svg>
