<svg width="93" height="93" viewBox="0 0 93 93" fill="none" xmlns="http://www.w3.org/2000/svg">
<rect width="92.9925" height="92.9925" rx="26" fill="#FFF7E5"/>
<path fill-rule="evenodd" clip-rule="evenodd" d="M60.4294 23.9267C60.2316 23.3189 59.6658 22.9077 59.0271 22.9077C58.3884 22.9077 57.8227 23.3189 57.6248 23.9267L55.5059 30.4448L48.9877 32.5638C48.3799 32.7616 47.9688 33.3274 47.9688 33.9661C47.9688 34.6048 48.3799 35.1705 48.9877 35.3684L55.5059 37.4873L57.6248 44.0055C57.8227 44.6133 58.3884 45.0244 59.0271 45.0244C59.6658 45.0244 60.2316 44.6133 60.4294 44.0055L62.5483 37.4873L69.0665 35.3684C69.6743 35.1705 70.0855 34.6048 70.0855 33.9661C70.0855 33.3274 69.6743 32.7616 69.0665 32.5638L62.5483 30.4448L60.4294 23.9267ZM59.0271 29.1507L59.9768 32.0704C60.1221 32.5192 60.4739 32.8711 60.9228 33.0164L63.8425 33.9661L60.9228 34.9158C60.4739 35.0611 60.1221 35.4129 59.9768 35.8618L59.0271 38.7814L58.0774 35.8618C57.9321 35.4129 57.5803 35.0611 57.1314 34.9158L54.2118 33.9661L57.1314 33.0164C57.5803 32.8711 57.9321 32.5192 58.0774 32.0704L59.0271 29.1507Z" fill="#F6BA40"/>
<path fill-rule="evenodd" clip-rule="evenodd" d="M61.1734 54.8804C60.9755 54.2729 60.4095 53.8618 59.7707 53.8618C59.1318 53.8618 58.5658 54.2729 58.368 54.8804L56.9722 59.1741C56.9717 59.1745 52.678 60.5704 52.678 60.5704C52.0705 60.7682 51.6594 61.3342 51.6594 61.9731C51.6594 62.6119 52.0705 63.1779 52.678 63.3757L56.9717 64.7716C56.9722 64.772 58.368 69.0657 58.368 69.0657C58.5658 69.6733 59.1318 70.0843 59.7707 70.0843C60.4095 70.0843 60.9755 69.6733 61.1734 69.0657L62.5692 64.772C62.5696 64.7716 66.8633 63.3757 66.8633 63.3757C67.4709 63.1779 67.8819 62.6119 67.8819 61.9731C67.8819 61.3342 67.4709 60.7682 66.8633 60.5704L62.5696 59.1745C62.5692 59.1741 61.1734 54.8804 61.1734 54.8804ZM59.7707 60.1058L59.9967 60.8007C60.1423 61.2495 60.4943 61.6014 60.943 61.747L61.6379 61.9731L60.943 62.1991C60.4943 62.3447 60.1423 62.6967 59.9967 63.1454L59.7707 63.8403L59.5446 63.1454C59.399 62.6967 59.0471 62.3447 58.5983 62.1991L57.9034 61.9731L58.5983 61.747C59.0471 61.6014 59.399 61.2495 59.5446 60.8007L59.7707 60.1058Z" fill="#F6BA40"/>
<path fill-rule="evenodd" clip-rule="evenodd" d="M22.9067 50.1534C22.9067 51.2305 23.6001 52.1863 24.6249 52.5199L35.443 56.0367L38.9598 66.8549C39.2934 67.8797 40.2492 68.573 41.3263 68.573C42.4034 68.573 43.3582 67.8797 43.6918 66.8549L47.2086 56.0367L58.0267 52.5199C59.0505 52.1863 59.7449 51.2305 59.7449 50.1534C59.7449 49.0763 59.0516 48.1216 58.0267 47.788L47.2086 44.2711L43.6918 33.453C43.3582 32.4282 42.4034 31.7349 41.3263 31.7349C40.2492 31.7349 39.2934 32.4292 38.9598 33.453L35.443 44.2711L24.6249 47.788C23.6001 48.1216 22.9067 49.0763 22.9067 50.1534ZM41.3253 35.7076L44.6382 45.8952C44.7846 46.3438 45.136 46.6952 45.5846 46.8416L55.7721 50.1545L45.5846 53.4663C45.136 53.6127 44.7846 53.9641 44.6382 54.4127L41.3253 64.6003L38.0134 54.4127C37.867 53.9641 37.5157 53.6127 37.0671 53.4663L26.8795 50.1545L37.0671 46.8416C37.5157 46.6952 37.867 46.3438 38.0134 45.8952L41.3253 35.7076Z" fill="#F6BA40"/>
<path fill-rule="evenodd" clip-rule="evenodd" d="M28.8079 30.9955V36.8897C28.8079 37.7031 29.4682 38.3632 30.2818 38.3632C31.0954 38.3632 31.7557 37.7031 31.7557 36.8897V30.9955C31.7557 30.1821 31.0954 29.522 30.2818 29.522C29.4682 29.522 28.8079 30.1821 28.8079 30.9955Z" fill="#F6BA40"/>
<path fill-rule="evenodd" clip-rule="evenodd" d="M27.3202 35.4292H33.2144C34.0278 35.4292 34.6879 34.7689 34.6879 33.9553C34.6879 33.1417 34.0278 32.4814 33.2144 32.4814H27.3202C26.5068 32.4814 25.8467 33.1417 25.8467 33.9553C25.8467 34.7689 26.5068 35.4292 27.3202 35.4292Z" fill="#F6BA40"/>
</svg>
