<svg width="93" height="93" viewBox="0 0 93 93" fill="none" xmlns="http://www.w3.org/2000/svg">
<rect width="92.9925" height="92.9925" rx="26" fill="#FFF7E5"/>
<path d="M72.3263 45.0856C73.7129 43.7218 74.2023 41.7202 73.6038 39.8629C73.0064 38.0047 71.4452 36.6759 69.5294 36.3949L57.7005 34.6597C57.1 34.5713 56.5811 34.1908 56.3127 33.6418L51.0226 22.82C50.166 21.0685 48.4317 19.9805 46.4965 19.9805C44.5614 19.9805 42.8271 21.0685 41.9705 22.82C41.9705 22.8201 36.6804 33.6417 36.6804 33.6417C36.4119 34.1909 35.8931 34.5714 35.2936 34.6596L23.4639 36.3948C21.548 36.6759 19.9868 38.0047 19.3897 39.8619C18.7909 41.7202 19.2803 43.7219 20.6664 45.0853L29.2264 53.5094C29.6606 53.9366 29.8587 54.5518 29.7564 55.1546L27.7353 67.0494C27.4087 68.9752 28.1781 70.8846 29.7432 72.0322C31.3086 73.1805 33.3455 73.3292 35.0592 72.4205L45.6394 66.8048C46.176 66.5201 46.8169 66.5202 47.3531 66.8045L57.9341 72.4205C59.6478 73.3293 61.6847 73.1805 63.2501 72.0322C64.8151 70.8844 65.5846 68.9752 65.258 67.0494L63.2368 55.1551C63.1345 54.5518 63.3325 53.9366 63.7671 53.5091L72.3263 45.0856ZM60.0767 55.7013L62.0981 67.5966C62.219 68.3091 61.9453 68.9888 61.3658 69.4137C61.0442 69.6497 60.6715 69.7743 60.288 69.7743C60.1199 69.7743 59.7978 69.7528 59.4251 69.5552L48.8451 63.9397C48.1229 63.5568 47.3112 63.3548 46.4968 63.3548C45.6819 63.3548 44.8697 63.5571 44.1483 63.9397L33.5672 69.5558C32.8404 69.9413 32.1131 69.77 31.6278 69.414C31.0481 68.9889 30.7744 68.3092 30.8954 67.5956L32.9164 55.7019C33.1968 54.0476 32.6537 52.362 31.464 51.1915L22.9045 42.7678C22.3909 42.2626 22.2169 41.5508 22.4385 40.8632C22.6601 40.1742 23.2156 39.7019 23.9252 39.5978L35.7544 37.8626C37.3999 37.6203 38.8201 36.5782 39.5554 35.0743L44.8453 24.253C45.1625 23.6044 45.7799 23.2172 46.4967 23.2172C47.2134 23.2172 47.8308 23.6044 48.148 24.253L53.4378 35.0742C54.1733 36.5783 55.5938 37.6204 57.2377 37.8625C59.8602 38.2469 64.8829 38.9832 69.0679 39.5978C69.7778 39.7019 70.3333 40.1745 70.5545 40.8621C70.7765 41.5512 70.6023 42.2627 70.0892 42.7675L61.5291 51.1916C60.3394 52.362 59.7964 54.048 60.0767 55.7013Z" fill="#F6BA40"/>
</svg>
