<svg width="93" height="93" viewBox="0 0 93 93" fill="none" xmlns="http://www.w3.org/2000/svg">
<rect width="92.9925" height="92.9925" rx="26" fill="#FFF7E5"/>
<path d="M72.091 28.2574C71.833 26.6491 70.4137 25.4489 68.7768 25.4489C68.7687 25.4489 68.7526 25.4489 68.7445 25.4489C58.5681 25.553 48.7545 29.1535 40.9568 35.6025C40.7149 32.7701 39.9005 30.0097 38.5538 27.4813C36.7153 24.0327 33.9494 21.1523 30.5707 19.1519C29.2079 18.3438 27.5064 18.5679 26.442 19.696C21.378 25.0489 18.6524 32.042 18.7734 39.3871C18.8863 46.4602 21.628 53.1173 26.5146 58.2301C26.055 59.9744 25.7082 61.7506 25.4744 63.5589C25.3776 64.303 25.9018 64.9831 26.6598 65.0872C26.7162 65.0952 26.7807 65.0952 26.8372 65.0952C27.5145 65.0952 28.1032 64.5991 28.1919 63.911C28.4418 62.0307 28.8128 60.1904 29.3127 58.4061C29.3692 58.2861 29.4014 58.1661 29.4176 58.0381C34.3607 40.8434 50.343 28.3614 68.7929 28.1694C68.7929 28.1694 68.7929 28.1694 68.801 28.1694C69.0913 28.1694 69.3655 28.4014 69.4138 28.6814C70.4299 35.0424 70.4621 41.4915 69.5106 47.8605C69.4945 47.9085 69.4783 47.9565 69.4703 48.0045C67.5753 56.0777 62.2855 62.9748 54.9394 66.9194C48.4642 70.408 40.9246 71.3201 33.8526 69.5519C36.2395 67.9916 38.5296 66.2793 40.7149 64.4151C46.4805 59.4943 51.3268 53.6774 55.1168 47.1403C55.4958 46.4922 55.27 45.6601 54.6088 45.284C53.9556 44.908 53.117 45.132 52.738 45.7881C47.2062 55.2696 39.2957 63.1909 29.8933 68.7757C29.853 68.7917 29.8208 68.8157 29.7804 68.8397C26.7646 70.624 23.6036 72.1603 20.3136 73.4405C19.612 73.7125 19.2572 74.5046 19.5394 75.2007C19.7491 75.7368 20.2652 76.0649 20.8135 76.0649C20.9829 76.0649 21.1522 76.0329 21.3135 75.9689C24.5712 74.7047 27.7 73.2004 30.6997 71.4642C34.0381 72.5843 37.5055 73.1444 40.9649 73.1444C46.2386 73.1444 51.4881 71.8562 56.2135 69.3038C64.1643 65.0312 69.9219 57.59 72.0426 48.8766C72.091 48.7646 72.1313 48.6446 72.1475 48.5166C73.1877 41.7955 73.1635 34.9784 72.091 28.2574ZM32.5382 44.868C32.5221 43.4118 32.4576 42.0595 32.3447 40.7633C32.0947 37.9949 31.619 35.0824 30.8932 31.8419C30.732 31.1058 29.9982 30.6498 29.2563 30.8098C28.5144 30.9698 28.0548 31.6979 28.2161 32.434C28.9176 35.5545 29.3772 38.355 29.6111 41.0034C29.8369 43.5398 29.8611 46.3322 29.6756 49.7648C28.8047 51.509 28.0467 53.3093 27.4177 55.1656C19.1605 45.3881 19.4427 31.0418 28.4257 21.5523C28.6031 21.3603 28.9095 21.3363 29.1595 21.4803C35.038 24.9529 38.4974 31.2418 38.2796 37.9949C36.1186 40.0992 34.1994 42.4036 32.5382 44.868Z" fill="#F6BA40"/>
</svg>
