<svg width="93" height="93" viewBox="0 0 93 93" fill="none" xmlns="http://www.w3.org/2000/svg">
<rect width="92.9925" height="92.9925" rx="26" fill="#FFF7E5"/>
<path d="M46.4964 76.0652C45.6643 76.0645 44.8463 75.8508 44.1202 75.4445L34.7055 70.2148C30.0254 67.6123 26.1256 63.8065 23.4099 59.1912C20.6942 54.5758 19.2611 49.3186 19.259 43.9636V29.4488C19.2582 28.2403 19.7059 27.0746 20.5153 26.1772C21.3247 25.2799 22.4382 24.7148 23.6404 24.5914C27.3857 24.1946 31.0718 23.3615 34.6237 22.1089C37.8804 20.9579 41.0046 19.4617 43.9429 17.6458C44.7117 17.1756 45.5954 16.927 46.4966 16.9272C47.3977 16.9275 48.2813 17.1766 49.0499 17.6471C51.9885 19.4621 55.1126 20.9579 58.3691 22.1089C61.9209 23.3615 65.6071 24.1947 69.3524 24.5915C70.5545 24.7149 71.6681 25.28 72.4775 26.1773C73.2868 27.0746 73.7345 28.2404 73.7337 29.4488V43.9636C73.7316 49.3187 72.2985 54.5759 69.5828 59.1913C66.8671 63.8066 62.9674 67.6124 58.2872 70.2148L48.8698 75.446C48.1445 75.8515 47.3274 76.0647 46.4964 76.0652ZM46.4964 21.1131C46.3733 21.1125 46.2524 21.146 46.1472 21.2099C42.9539 23.1819 39.559 24.8084 36.0205 26.059C32.16 27.4213 28.1534 28.3269 24.0823 28.7571C23.9093 28.7721 23.7483 28.8516 23.6311 28.9796C23.5139 29.1077 23.449 29.2752 23.4494 29.4488V43.9636C23.451 48.5714 24.6841 53.095 27.0209 57.0662C29.3578 61.0374 32.7135 64.312 36.7407 66.5509L46.1581 71.7821C46.2609 71.84 46.3769 71.8705 46.4948 71.8707C46.6128 71.871 46.7289 71.8409 46.8319 71.7834L56.2521 66.5511C60.2793 64.3121 63.635 61.0376 65.9718 57.0663C68.3087 53.095 69.5417 48.5714 69.5434 43.9636V29.4488C69.5437 29.2752 69.4788 29.1078 69.3616 28.9797C69.2444 28.8516 69.0834 28.7722 68.9104 28.7572C64.8394 28.3269 60.8327 27.4214 56.9723 26.059C53.4337 24.8083 50.0389 23.1832 46.8456 21.2112C46.7407 21.1463 46.6197 21.1123 46.4964 21.1131Z" fill="#F6BA40"/>
<path d="M45.0994 52.7181C44.5863 52.719 44.091 52.5305 43.7082 52.1889L37.4227 46.6017C37.0092 46.2322 36.7592 45.7138 36.7273 45.1603C36.6955 44.6067 36.8844 44.0631 37.2527 43.6486C37.621 43.234 38.1386 42.9825 38.6921 42.949C39.2456 42.9155 39.7898 43.1028 40.2054 43.4699L44.9659 47.7011L54.0478 38.015C54.2351 37.8108 54.4611 37.6457 54.7127 37.5294C54.9643 37.413 55.2364 37.3478 55.5134 37.3374C55.7904 37.327 56.0666 37.3717 56.3262 37.4688C56.5858 37.5659 56.8236 37.7136 57.0257 37.9033C57.2278 38.0929 57.3903 38.3208 57.5037 38.5737C57.6171 38.8266 57.6792 39.0995 57.6864 39.3766C57.6937 39.6536 57.6458 39.9294 57.5457 40.1878C57.4456 40.4463 57.2952 40.6823 57.1033 40.8822L46.6274 52.0565C46.4317 52.2657 46.1951 52.4324 45.9322 52.5463C45.6693 52.6601 45.3859 52.7186 45.0994 52.7181Z" fill="#F6BA40"/>
</svg>
