<svg width="209" height="63" viewBox="0 0 209 63" fill="none" xmlns="http://www.w3.org/2000/svg">
<path d="M196.733 0H12.0605C5.39966 0 0 5.39966 0 12.0605V50.7358C0 57.3966 5.39966 62.7963 12.0605 62.7963H196.733C203.393 62.7963 208.793 57.3966 208.793 50.7358V12.0605C208.793 5.39966 203.393 0 196.733 0Z" fill="black"/>
<path d="M48.1411 33.7529C47.1362 28.6475 51.5762 25.9202 51.9002 25.7293C51.2802 24.8971 50.5103 24.1881 49.6301 23.6385C46.9761 21.9836 43.7435 21.8293 41.8206 22.6741L41.7627 22.6992C40.8342 23.1038 39.8323 23.3126 38.8194 23.3126C37.8066 23.3126 36.8047 23.1038 35.8762 22.6992L35.8183 22.6741C33.8895 21.8274 30.6627 21.9817 28.0088 23.6385C25.3548 25.2953 22.7761 29.0236 24.0838 36.1754C25.3915 43.3272 30.1632 47.6785 30.1632 47.6785C30.9003 48.2545 31.7798 48.6198 32.7082 48.7353C33.6365 48.8508 34.5787 48.7122 35.4345 48.3343C37.3092 47.5165 38.1637 47.3699 38.5398 47.3834C38.7326 47.3834 38.912 47.3834 39.0991 47.3834C39.4752 47.3737 40.3296 47.5165 42.2044 48.3343C43.0601 48.7122 44.0024 48.8508 44.9307 48.7353C45.859 48.6198 46.7386 48.2545 47.4757 47.6785C47.4757 47.6785 50.8182 44.633 52.6833 39.4427C51.0786 38.7156 48.7969 37.1012 48.1411 33.7529Z" fill="white"/>
<path d="M37.9749 22.4113C37.9749 22.4113 37.134 15.2749 45.1691 14.002L45.1364 14.9663C45.0721 16.8731 44.3052 18.6889 42.9833 20.0646C41.6614 21.4403 39.8776 22.2788 37.9749 22.419V22.4113Z" fill="white"/>
<path d="M70.0577 16.2008C70.0715 16.9888 69.9595 17.7741 69.726 18.5269C69.5302 19.1548 69.1961 19.7309 68.7481 20.2126C68.3028 20.6741 67.756 21.0254 67.1511 21.2387C66.4215 21.4917 65.6531 21.6145 64.881 21.6013H62.8191C62.7104 21.597 62.6058 21.5585 62.5202 21.4913C62.4641 21.4422 62.4208 21.3803 62.3939 21.3107C62.367 21.2412 62.3574 21.1662 62.3659 21.0921V11.6412C62.3572 11.5668 62.3668 11.4915 62.3936 11.4216C62.4205 11.3518 62.4639 11.2894 62.5202 11.24C62.6063 11.1741 62.7107 11.1364 62.8191 11.132H65.0198C65.7868 11.1118 66.5508 11.2348 67.2726 11.4946C67.8584 11.7174 68.386 12.0702 68.8156 12.5265C69.2374 12.9878 69.5563 13.5335 69.7511 14.1274C69.965 14.7973 70.0686 15.4976 70.0577 16.2008ZM68.9989 16.249C69.0039 15.6763 68.9259 15.1059 68.7674 14.5556C68.6297 14.0597 68.387 13.5992 68.0557 13.2054C67.7244 12.8193 67.3077 12.5155 66.8387 12.3182C66.241 12.0867 65.6026 11.9784 64.962 12H63.3534V20.7025H64.9716C65.5846 20.7172 66.1957 20.6278 66.7789 20.4382C67.2524 20.2774 67.6767 19.9978 68.0113 19.6262C68.3594 19.2256 68.6126 18.7516 68.752 18.2395C68.9272 17.5928 69.0103 16.9247 68.9989 16.2548V16.249Z" fill="white"/>
<path d="M78.7194 17.6973C78.7248 18.2417 78.6488 18.7839 78.4937 19.3058C78.3546 19.7726 78.1246 20.2072 77.8167 20.5846C77.5136 20.9483 77.1308 21.2373 76.6981 21.4294C76.2049 21.6407 75.6722 21.744 75.1358 21.7322C74.6233 21.7427 74.1138 21.6509 73.6371 21.4622C73.2225 21.2936 72.8537 21.0293 72.5609 20.6907C72.2605 20.333 72.0396 19.9155 71.9128 19.4659C71.7635 18.9371 71.6914 18.3895 71.6987 17.84C71.6938 17.2951 71.7692 16.7524 71.9225 16.2295C72.0564 15.7635 72.2849 15.3302 72.5937 14.9565C72.8965 14.5944 73.2795 14.3077 73.7124 14.1194C74.209 13.9109 74.7439 13.809 75.2824 13.8205C75.7948 13.8081 76.3046 13.8966 76.7829 14.0809C77.1964 14.2486 77.5635 14.5132 77.8534 14.8524C78.1509 15.2124 78.3709 15.63 78.4995 16.079C78.6516 16.6048 78.7257 17.15 78.7194 17.6973ZM77.701 17.786C77.7026 17.3861 77.6618 16.9872 77.5795 16.5959C77.5072 16.2408 77.3699 15.9021 77.1745 15.5969C76.9836 15.3072 76.7221 15.0708 76.4145 14.9102C76.0433 14.7296 75.6332 14.6435 75.2206 14.6595C74.8302 14.65 74.4428 14.7306 74.0885 14.8948C73.7822 15.0454 73.5174 15.2685 73.317 15.5448C73.1057 15.8409 72.9531 16.1748 72.8676 16.5284C72.7654 16.9261 72.7136 17.3349 72.7133 17.7455C72.7115 18.1485 72.7523 18.5506 72.8348 18.9452C72.9038 19.301 73.0407 19.6402 73.2379 19.9443C73.4291 20.2322 73.6907 20.4666 73.9978 20.6251C74.3618 20.7869 74.7552 20.8717 75.1535 20.8744C75.5517 20.877 75.9462 20.7974 76.3123 20.6405C76.6187 20.491 76.8837 20.2685 77.0838 19.9925C77.2958 19.6989 77.4485 19.3667 77.5332 19.0146C77.6404 18.6137 77.6968 18.2009 77.701 17.786Z" fill="white"/>
<path d="M90.5122 14.0974C90.511 14.1286 90.5065 14.1597 90.4987 14.19C90.4987 14.2247 90.4814 14.2633 90.4717 14.3076L88.2074 21.4324C88.1971 21.4723 88.1757 21.5084 88.1457 21.5366C88.1117 21.5667 88.0715 21.5891 88.028 21.6022C87.9652 21.6205 87.9005 21.6315 87.8351 21.6349C87.7561 21.6349 87.6635 21.6349 87.5555 21.6349C87.4475 21.6349 87.3452 21.6349 87.2642 21.6234C87.1991 21.6163 87.1346 21.6041 87.0714 21.5867C87.0274 21.5733 86.9867 21.551 86.9518 21.5212C86.9226 21.4954 86.9012 21.462 86.8901 21.4247L85.1908 15.65L85.1754 15.5845L85.16 15.65L83.5745 21.4247C83.5646 21.4657 83.5416 21.5022 83.509 21.5289C83.4699 21.5602 83.4245 21.5825 83.3759 21.5944C83.3083 21.612 83.2392 21.623 83.1695 21.6272C83.0885 21.6272 82.9978 21.6272 82.8956 21.6272C82.7934 21.6272 82.7027 21.6272 82.6198 21.6157C82.5546 21.6088 82.4901 21.5966 82.4269 21.579C82.3832 21.5665 82.3429 21.5441 82.3093 21.5134C82.2825 21.4864 82.2626 21.4533 82.2514 21.417L80.0063 14.3076C79.9898 14.2712 79.9775 14.233 79.9697 14.1938C79.9627 14.1621 79.9588 14.1298 79.9581 14.0974C79.957 14.0631 79.9649 14.0292 79.9813 13.999C80 13.9698 80.0288 13.9485 80.0623 13.9392C80.1092 13.924 80.1578 13.9143 80.2069 13.9103C80.2667 13.9103 80.34 13.9103 80.4268 13.9103C80.5182 13.9093 80.6097 13.9132 80.7007 13.9219C80.7548 13.9271 80.808 13.9394 80.8588 13.9585C80.8899 13.9731 80.9166 13.9958 80.936 14.0241C80.9532 14.0546 80.9668 14.0869 80.9765 14.1205L82.9053 20.5105L82.9207 20.5664L82.938 20.5105L84.6932 14.1205C84.7017 14.0858 84.7167 14.0531 84.7376 14.0241C84.7588 13.9959 84.7866 13.9734 84.8186 13.9585C84.8651 13.9403 84.9137 13.928 84.9632 13.9219C85.0427 13.9133 85.1225 13.9094 85.2024 13.9103C85.2778 13.9094 85.3532 13.9133 85.4281 13.9219C85.4781 13.9288 85.5272 13.9411 85.5746 13.9585C85.6072 13.9725 85.6352 13.9952 85.6557 14.0241C85.6728 14.0546 85.6864 14.0869 85.6962 14.1205L87.5883 20.5105L87.6037 20.5664V20.5105L89.5324 14.1205C89.5425 14.0864 89.5575 14.054 89.5768 14.0241C89.599 13.9953 89.6282 13.9727 89.6617 13.9585C89.7128 13.9403 89.7659 13.928 89.8198 13.9219C89.9076 13.9132 89.9958 13.9094 90.0841 13.9103C90.1689 13.9103 90.2403 13.9103 90.2943 13.9103C90.3389 13.914 90.3826 13.9251 90.4235 13.9431C90.451 13.955 90.4735 13.9762 90.4872 14.0029C90.5024 14.0321 90.511 14.0644 90.5122 14.0974Z" fill="white"/>
<path d="M98.3083 21.4314C98.3089 21.4628 98.3002 21.4937 98.2832 21.5201C98.265 21.5495 98.238 21.5724 98.2061 21.5857C98.1595 21.6046 98.111 21.6182 98.0614 21.6262C97.9848 21.6372 97.9074 21.6424 97.83 21.6417C97.7506 21.6425 97.6713 21.6374 97.5927 21.6262C97.5425 21.6181 97.4934 21.6045 97.4462 21.5857C97.4151 21.5711 97.3884 21.5485 97.369 21.5201C97.3535 21.4932 97.3455 21.4625 97.3459 21.4314V17.0879C97.3546 16.7172 97.319 16.3468 97.2398 15.9846C97.1799 15.7246 97.0734 15.4776 96.9254 15.2556C96.7879 15.0569 96.6029 14.8958 96.3873 14.7869C96.147 14.671 95.8825 14.6141 95.6158 14.621C95.2144 14.6349 94.8273 14.7738 94.5087 15.0183C94.0666 15.3485 93.672 15.7379 93.336 16.1756V21.4237C93.3366 21.4551 93.3279 21.486 93.3109 21.5124C93.293 21.5413 93.2668 21.5642 93.2357 21.578C93.1884 21.5966 93.1392 21.6101 93.0891 21.6185C93.0099 21.6297 92.9299 21.6349 92.8499 21.6339C92.7731 21.6346 92.6964 21.6295 92.6204 21.6185C92.5691 21.6098 92.5187 21.5962 92.47 21.578C92.4377 21.5653 92.4105 21.5423 92.3928 21.5124C92.3803 21.4845 92.3738 21.4543 92.3735 21.4237V14.1118C92.3738 14.0812 92.3803 14.051 92.3928 14.0231C92.4108 13.9925 92.4377 13.9683 92.47 13.9537C92.5156 13.9341 92.5636 13.9205 92.6127 13.9132C92.6863 13.9045 92.7604 13.9006 92.8345 13.9016C92.9099 13.9006 92.9853 13.9045 93.0602 13.9132C93.1083 13.9193 93.1552 13.9329 93.199 13.9537C93.2275 13.9701 93.2509 13.9941 93.2665 14.0231C93.2806 14.0505 93.2879 14.081 93.2878 14.1118V15.1476C93.6363 14.737 94.0549 14.3916 94.5241 14.1272C94.8944 13.9262 95.3082 13.8183 95.7296 13.8129C96.1472 13.7998 96.5623 13.8829 96.9427 14.0559C97.2574 14.2059 97.5308 14.4303 97.7393 14.7097C97.9475 14.9991 98.0963 15.3269 98.1771 15.6741C98.2731 16.1097 98.3177 16.5551 98.3102 17.0011L98.3083 21.4314Z" fill="white"/>
<path d="M101.941 21.4328C101.941 21.4658 101.931 21.4981 101.913 21.5256C101.895 21.553 101.869 21.5745 101.838 21.5871C101.792 21.606 101.743 21.6195 101.694 21.6276C101.614 21.6387 101.534 21.6438 101.454 21.6431C101.377 21.6437 101.3 21.6386 101.223 21.6276C101.172 21.6192 101.123 21.6056 101.075 21.5871C101.042 21.575 101.015 21.5518 100.997 21.5215C100.984 21.4939 100.977 21.4635 100.978 21.4328V10.5296C100.977 10.4989 100.984 10.4685 100.997 10.4409C101.015 10.4105 101.042 10.3868 101.075 10.3734C101.121 10.3513 101.172 10.3376 101.223 10.3329C101.3 10.3236 101.377 10.3191 101.454 10.3194C101.534 10.319 101.614 10.3235 101.694 10.3329C101.744 10.3373 101.793 10.351 101.838 10.3734C101.87 10.3885 101.896 10.4118 101.915 10.4409C101.931 10.4678 101.94 10.4983 101.941 10.5296V21.4328Z" fill="white"/>
<path d="M111.111 17.6972C111.116 18.2417 111.04 18.7839 110.884 19.3058C110.745 19.7724 110.516 20.207 110.209 20.5845C109.905 20.9485 109.522 21.2375 109.088 21.4293C108.596 21.6407 108.064 21.7439 107.528 21.7321C107.015 21.7429 106.505 21.6511 106.027 21.4621C105.613 21.2925 105.245 21.0283 104.951 20.6906C104.652 20.3323 104.432 19.915 104.305 19.4659C104.156 18.937 104.084 18.3894 104.091 17.8399C104.085 17.2951 104.16 16.7524 104.313 16.2294C104.448 15.7641 104.676 15.3311 104.984 14.9564C105.287 14.5942 105.671 14.3076 106.104 14.1194C106.6 13.9109 107.135 13.809 107.673 13.8204C108.183 13.8085 108.691 13.8969 109.167 14.0808C109.582 14.248 109.949 14.5126 110.24 14.8523C110.538 15.2112 110.758 15.6284 110.886 16.077C111.041 16.6029 111.117 17.1489 111.111 17.6972ZM110.091 17.7859C110.093 17.3861 110.052 16.9872 109.97 16.5959C109.898 16.2409 109.761 15.9021 109.567 15.5968C109.375 15.3075 109.114 15.0713 108.807 14.9101C108.439 14.7314 108.033 14.6453 107.624 14.6594C107.234 14.65 106.846 14.7305 106.492 14.8947C106.177 15.0405 105.903 15.2626 105.696 15.5408C105.486 15.8375 105.334 16.1713 105.248 16.5245C105.153 16.9242 105.108 17.3345 105.117 17.7454C105.115 18.1485 105.156 18.5506 105.238 18.9451C105.309 19.3008 105.446 19.6398 105.643 19.9442C105.835 20.2322 106.096 20.4665 106.403 20.625C106.767 20.7868 107.161 20.8716 107.559 20.8743C107.957 20.8769 108.352 20.7973 108.718 20.6405C109.027 20.4916 109.296 20.269 109.499 19.9924C109.707 19.6976 109.856 19.3656 109.939 19.0145C110.041 18.613 110.092 18.2002 110.091 17.7859Z" fill="white"/>
<path d="M118.398 21.4314C118.4 21.455 118.396 21.4787 118.386 21.5004C118.377 21.5222 118.362 21.5415 118.344 21.5567C118.304 21.5881 118.257 21.6099 118.207 21.6204C118.132 21.6361 118.055 21.6432 117.978 21.6416C117.899 21.6425 117.82 21.6354 117.743 21.6204C117.688 21.6113 117.637 21.5895 117.592 21.5567C117.575 21.541 117.561 21.5216 117.552 21.4999C117.543 21.4782 117.539 21.4548 117.54 21.4314V20.6136C117.232 20.9545 116.863 21.2345 116.452 21.4391C116.07 21.6306 115.648 21.7303 115.22 21.7303C114.87 21.7353 114.522 21.6846 114.188 21.5799C113.904 21.4928 113.641 21.3469 113.416 21.1517C113.206 20.9659 113.04 20.7352 112.93 20.4766C112.813 20.195 112.756 19.8924 112.761 19.5875C112.748 19.2285 112.83 18.8725 113 18.5557C113.169 18.2389 113.419 17.9727 113.725 17.7841C114.065 17.5707 114.44 17.4186 114.832 17.3347C115.305 17.23 115.788 17.1795 116.273 17.1843H117.43V16.5535C117.434 16.2746 117.401 15.9963 117.332 15.7261C117.277 15.5027 117.169 15.2957 117.017 15.1224C116.863 14.9548 116.667 14.8299 116.45 14.7598C116.176 14.6725 115.889 14.6314 115.602 14.6383C115.306 14.6344 115.012 14.6734 114.728 14.754C114.495 14.8228 114.267 14.9112 114.049 15.0183C113.856 15.1147 113.694 15.2015 113.567 15.2806C113.487 15.3407 113.395 15.381 113.297 15.3982C113.266 15.3986 113.236 15.3927 113.208 15.3809C113.179 15.3689 113.155 15.3479 113.139 15.3211C113.117 15.2864 113.104 15.2476 113.098 15.2073C113.09 15.1524 113.086 15.0969 113.087 15.0414C113.085 14.9508 113.092 14.8603 113.11 14.7714C113.135 14.6972 113.179 14.6307 113.237 14.5785C113.347 14.4789 113.47 14.3951 113.603 14.3297C113.795 14.2323 113.993 14.1486 114.196 14.079C114.432 13.9967 114.675 13.9322 114.921 13.8861C115.175 13.8371 115.433 13.8125 115.692 13.8128C116.123 13.8017 116.552 13.863 116.961 13.9941C117.279 14.0976 117.566 14.277 117.798 14.5168C118.019 14.7531 118.176 15.041 118.256 15.3539C118.353 15.7219 118.4 16.1015 118.394 16.4822L118.398 21.4314ZM117.434 17.977H116.111C115.768 17.9728 115.425 18.0084 115.091 18.083C114.831 18.1389 114.584 18.2429 114.363 18.3897C114.18 18.5123 114.032 18.6796 113.931 18.8758C113.834 19.0769 113.785 19.2983 113.789 19.5219C113.78 19.7086 113.812 19.8948 113.881 20.0684C113.95 20.242 114.055 20.3989 114.19 20.5287C114.501 20.7996 114.906 20.938 115.318 20.9145C115.695 20.916 116.066 20.8139 116.389 20.6194C116.783 20.3696 117.139 20.0635 117.446 19.7109L117.434 17.977Z" fill="white"/>
<path d="M126.969 21.4325C126.97 21.4657 126.964 21.4987 126.95 21.5289C126.933 21.5582 126.908 21.5812 126.877 21.5945C126.834 21.6119 126.789 21.6242 126.744 21.6312C126.68 21.6392 126.615 21.6431 126.551 21.6427C126.479 21.6436 126.408 21.6397 126.337 21.6312C126.29 21.6244 126.244 21.6121 126.2 21.5945C126.168 21.5797 126.14 21.5571 126.119 21.5289C126.099 21.5007 126.089 21.4669 126.09 21.4325V20.3813C125.741 20.7706 125.334 21.1043 124.884 21.3708C124.475 21.6095 124.008 21.734 123.534 21.7315C123.065 21.7453 122.601 21.6398 122.184 21.4248C121.818 21.224 121.506 20.9382 121.274 20.5916C121.028 20.215 120.854 19.7966 120.761 19.3572C120.65 18.8647 120.596 18.3613 120.599 17.8566C120.592 17.2908 120.66 16.7266 120.801 16.1786C120.917 15.72 121.12 15.2879 121.399 14.9056C121.655 14.5617 121.991 14.2845 122.377 14.0975C122.799 13.9014 123.261 13.8044 123.727 13.8139C124.15 13.8094 124.567 13.9109 124.94 14.109C125.347 14.3371 125.712 14.6311 126.022 14.9789V10.5698C126.022 10.5389 126.029 10.5085 126.043 10.481C126.06 10.4509 126.088 10.4281 126.121 10.4174C126.168 10.3971 126.218 10.3835 126.269 10.3769C126.346 10.3641 126.423 10.3583 126.501 10.3595C126.581 10.3583 126.661 10.3641 126.74 10.3769C126.79 10.3831 126.838 10.3968 126.884 10.4174C126.916 10.4304 126.943 10.4526 126.962 10.481C126.977 10.5081 126.985 10.5387 126.985 10.5698L126.969 21.4325ZM126.005 16.1516C125.669 15.7243 125.276 15.3459 124.836 15.0271C124.493 14.7796 124.082 14.6447 123.66 14.6414C123.322 14.6318 122.99 14.7246 122.707 14.9075C122.439 15.0889 122.217 15.3299 122.059 15.6115C121.89 15.9163 121.77 16.2456 121.704 16.5875C121.629 16.955 121.591 17.3291 121.592 17.7042C121.591 18.0997 121.624 18.4945 121.688 18.8846C121.745 19.2412 121.857 19.5868 122.02 19.9088C122.166 20.1956 122.38 20.4425 122.643 20.6282C122.929 20.8152 123.266 20.9095 123.607 20.8982C123.799 20.8987 123.99 20.8714 124.174 20.8172C124.374 20.7552 124.565 20.6656 124.74 20.5511C124.955 20.411 125.157 20.2501 125.341 20.0708C125.579 19.8406 125.802 19.5958 126.009 19.3379L126.005 16.1516Z" fill="white"/>
<path d="M139.894 17.6973C139.899 18.2417 139.823 18.7839 139.668 19.3059C139.529 19.7722 139.3 20.2066 138.993 20.5846C138.689 20.9482 138.306 21.2372 137.872 21.4294C137.38 21.6406 136.848 21.7439 136.312 21.7322C135.799 21.743 135.289 21.6512 134.812 21.4622C134.397 21.2932 134.028 21.0289 133.735 20.6907C133.435 20.3329 133.215 19.9154 133.089 19.466C132.938 18.9374 132.865 18.3896 132.873 17.84C132.868 17.2951 132.944 16.7525 133.097 16.2295C133.232 15.7642 133.461 15.3312 133.768 14.9565C134.071 14.5939 134.455 14.3072 134.889 14.1195C135.385 13.911 135.919 13.8091 136.457 13.8205C136.969 13.8079 137.479 13.8964 137.957 14.0809C138.371 14.2486 138.738 14.5132 139.028 14.8524C139.326 15.2112 139.547 15.6283 139.676 16.0771C139.827 16.6036 139.901 17.1495 139.894 17.6973ZM138.875 17.786C138.877 17.3836 138.837 16.9821 138.754 16.5883C138.682 16.2331 138.544 15.8944 138.349 15.5892C138.158 15.2995 137.896 15.0632 137.589 14.9025C137.219 14.7255 136.811 14.6421 136.401 14.6595C136.01 14.6499 135.623 14.7304 135.269 14.8948C134.959 15.0438 134.69 15.2671 134.487 15.5448C134.277 15.8414 134.124 16.1751 134.038 16.5285C133.939 16.9265 133.891 17.3354 133.893 17.7455C133.892 18.1486 133.932 18.5507 134.015 18.9452C134.085 19.3007 134.222 19.6398 134.418 19.9443C134.61 20.2319 134.871 20.4661 135.178 20.6251C135.542 20.7869 135.935 20.8717 136.334 20.8744C136.732 20.8771 137.126 20.7974 137.492 20.6406C137.802 20.4917 138.07 20.2691 138.274 19.9925C138.484 19.6983 138.636 19.3663 138.721 19.0146C138.823 18.6131 138.873 18.2002 138.87 17.786H138.875Z" fill="white"/>
<path d="M147.989 21.4314C147.989 21.4625 147.981 21.4931 147.966 21.5201C147.946 21.5484 147.92 21.5711 147.889 21.5857C147.842 21.6045 147.794 21.6181 147.744 21.6262C147.667 21.6371 147.59 21.6423 147.513 21.6416C147.433 21.6424 147.353 21.6372 147.273 21.6262C147.224 21.6181 147.175 21.6045 147.129 21.5857C147.098 21.573 147.072 21.5516 147.054 21.5241C147.036 21.4966 147.026 21.4644 147.027 21.4314V17.0878C147.035 16.7173 147 16.347 146.922 15.9846C146.863 15.7242 146.755 15.477 146.606 15.2555C146.47 15.0565 146.285 14.8953 146.07 14.7868C145.829 14.6714 145.565 14.6146 145.298 14.621C144.894 14.6325 144.504 14.7716 144.184 15.0183C143.741 15.3485 143.347 15.7379 143.011 16.1755V21.4237C143.011 21.4566 143.001 21.4889 142.983 21.5164C142.965 21.5439 142.939 21.5653 142.909 21.578C142.862 21.5968 142.814 21.6104 142.764 21.6185C142.685 21.6296 142.605 21.6348 142.525 21.6339C142.448 21.6346 142.371 21.6294 142.295 21.6185C142.244 21.61 142.194 21.5965 142.145 21.578C142.112 21.5658 142.085 21.5426 142.068 21.5124C142.054 21.4848 142.048 21.4544 142.048 21.4237V14.1118C142.048 14.0811 142.054 14.0507 142.068 14.0231C142.085 13.9921 142.112 13.9677 142.145 13.9536C142.19 13.9342 142.237 13.9206 142.286 13.9131C142.36 13.9044 142.435 13.9006 142.509 13.9015C142.585 13.9007 142.66 13.9046 142.735 13.9131C142.783 13.9189 142.829 13.9326 142.872 13.9536C142.901 13.9695 142.926 13.9936 142.941 14.0231C142.955 14.0507 142.961 14.0811 142.961 14.1118V15.1475C143.31 14.7369 143.729 14.3914 144.199 14.1272C144.569 13.9261 144.983 13.8182 145.404 13.8128C145.822 13.8 146.237 13.8831 146.618 14.0558C146.932 14.2064 147.205 14.4307 147.414 14.7097C147.623 14.9988 147.771 15.3267 147.85 15.6741C147.946 16.1097 147.991 16.555 147.983 17.001L147.989 21.4314Z" fill="white"/>
<path d="M157.93 20.9951C157.932 21.0879 157.923 21.1806 157.901 21.2709C157.886 21.3329 157.856 21.3901 157.812 21.4368C157.76 21.4849 157.7 21.5234 157.635 21.5506C157.547 21.5879 157.456 21.6176 157.363 21.6393C157.256 21.6634 157.149 21.6821 157.041 21.6952C156.931 21.7088 156.82 21.7159 156.709 21.7164C156.395 21.7239 156.083 21.6742 155.787 21.5699C155.544 21.4811 155.329 21.3294 155.164 21.1301C154.991 20.9105 154.871 20.6546 154.811 20.3817C154.734 20.0309 154.698 19.6724 154.703 19.3132V14.7614H153.611C153.575 14.7616 153.539 14.7522 153.508 14.7343C153.477 14.7164 153.45 14.6904 153.432 14.6591C153.384 14.5659 153.362 14.4612 153.368 14.3563C153.368 14.2955 153.373 14.2348 153.384 14.175C153.393 14.1291 153.409 14.0848 153.432 14.0439C153.451 14.0128 153.478 13.9869 153.509 13.9686C153.54 13.951 153.576 13.9423 153.611 13.9436H154.703V12.1518C154.702 12.1211 154.709 12.0907 154.722 12.063C154.74 12.0325 154.767 12.0082 154.799 11.9936C154.848 11.9736 154.898 11.96 154.95 11.9531C155.026 11.9446 155.103 11.9408 155.179 11.9415C155.259 11.9406 155.339 11.9445 155.419 11.9531C155.469 11.9593 155.517 11.973 155.563 11.9936C155.595 12.0093 155.622 12.0333 155.64 12.063C155.657 12.0895 155.666 12.1204 155.666 12.1518V13.9474H157.687C157.722 13.9465 157.757 13.9552 157.787 13.9725C157.819 13.9897 157.846 14.0158 157.864 14.0477C157.888 14.0883 157.904 14.1327 157.912 14.1789C157.925 14.2385 157.931 14.2993 157.93 14.3602C157.937 14.4658 157.913 14.5711 157.86 14.663C157.843 14.6934 157.817 14.7188 157.787 14.7367C157.757 14.7546 157.722 14.7644 157.687 14.7652H155.666V19.184C155.641 19.6206 155.723 20.0565 155.903 20.455C156.063 20.7444 156.352 20.8909 156.773 20.8909C156.891 20.8921 157.01 20.8785 157.126 20.8504C157.22 20.8269 157.313 20.7972 157.403 20.7617C157.484 20.7289 157.554 20.7 157.61 20.673C157.656 20.6486 157.708 20.6348 157.76 20.6325C157.785 20.6328 157.81 20.638 157.833 20.6479C157.857 20.6619 157.876 20.6837 157.885 20.7096C157.9 20.7457 157.911 20.7832 157.918 20.8215C157.927 20.879 157.931 20.937 157.93 20.9951Z" fill="white"/>
<path d="M165.782 21.4328C165.782 21.4639 165.774 21.4946 165.759 21.5215C165.739 21.5499 165.713 21.5725 165.682 21.5871C165.635 21.606 165.587 21.6195 165.537 21.6276C165.46 21.6386 165.383 21.6437 165.306 21.6431C165.226 21.6439 165.146 21.6387 165.066 21.6276C165.017 21.6195 164.968 21.606 164.922 21.5871C164.891 21.5745 164.865 21.553 164.847 21.5256C164.829 21.4981 164.819 21.4658 164.819 21.4328V17.0893C164.828 16.7187 164.793 16.3485 164.715 15.986C164.656 15.7256 164.548 15.4784 164.399 15.257C164.263 15.0579 164.078 14.8967 163.863 14.7883C163.622 14.6729 163.358 14.616 163.091 14.6224C162.687 14.634 162.297 14.773 161.976 15.0197C161.534 15.3499 161.14 15.7393 160.804 16.177V21.4251C160.804 21.4581 160.794 21.4904 160.776 21.5178C160.758 21.5453 160.732 21.5668 160.702 21.5794C160.655 21.5982 160.607 21.6118 160.557 21.6199C160.478 21.631 160.398 21.6362 160.318 21.6353C160.241 21.636 160.164 21.6309 160.088 21.6199C160.037 21.6115 159.986 21.5979 159.938 21.5794C159.905 21.5673 159.878 21.5441 159.861 21.5138C159.847 21.4862 159.841 21.4558 159.841 21.4251V10.5296C159.841 10.4989 159.847 10.4685 159.861 10.4409C159.878 10.4105 159.905 10.3868 159.938 10.3734C159.985 10.3513 160.036 10.3376 160.088 10.3329C160.164 10.3236 160.241 10.3191 160.318 10.3194C160.398 10.319 160.478 10.3235 160.557 10.3329C160.607 10.3373 160.656 10.351 160.702 10.3734C160.733 10.3885 160.76 10.4118 160.779 10.4409C160.795 10.4678 160.803 10.4984 160.804 10.5296V15.1007C161.141 14.7066 161.546 14.376 162 14.1248C162.368 13.926 162.779 13.8195 163.197 13.8143C163.615 13.8014 164.03 13.8845 164.411 14.0573C164.725 14.2078 164.998 14.4322 165.207 14.7111C165.415 15.0002 165.564 15.3281 165.643 15.6755C165.739 16.1111 165.784 16.5565 165.776 17.0025L165.782 21.4328Z" fill="white"/>
<path d="M174.42 17.3967C174.429 17.4711 174.42 17.5464 174.393 17.6163C174.366 17.6861 174.322 17.7485 174.266 17.7979C174.181 17.8651 174.076 17.9035 173.967 17.9078H168.978C168.973 18.3212 169.018 18.7336 169.111 19.1364C169.188 19.4787 169.338 19.8003 169.55 20.0796C169.763 20.3449 170.039 20.5519 170.353 20.6814C170.739 20.8322 171.152 20.9037 171.566 20.8916C171.872 20.8953 172.178 20.8655 172.478 20.8029C172.716 20.7546 172.95 20.6901 173.178 20.61C173.371 20.5367 173.537 20.4711 173.664 20.4171C173.748 20.3714 173.84 20.3414 173.934 20.3284C173.966 20.3277 173.997 20.3365 174.023 20.3535C174.053 20.3717 174.075 20.3987 174.089 20.4306C174.106 20.4734 174.118 20.5181 174.125 20.5637C174.133 20.6277 174.137 20.6921 174.137 20.7566C174.14 20.7925 174.14 20.8286 174.137 20.8646C174.137 20.8993 174.123 20.9321 174.116 20.9629C174.108 20.993 174.096 21.0216 174.079 21.0478C174.062 21.0775 174.04 21.1048 174.015 21.1288C173.938 21.1854 173.854 21.2327 173.765 21.2696C173.587 21.3477 173.403 21.4121 173.215 21.4625C172.956 21.5371 172.692 21.5977 172.426 21.6438C172.108 21.6994 171.785 21.7265 171.462 21.7248C170.949 21.7342 170.439 21.6479 169.957 21.4702C169.536 21.3115 169.159 21.0535 168.858 20.718C168.547 20.3608 168.316 19.9403 168.183 19.4855C168.02 18.9315 167.942 18.356 167.951 17.7786C167.942 17.2168 168.022 16.657 168.187 16.1199C168.328 15.6614 168.56 15.2362 168.87 14.87C169.161 14.53 169.526 14.2603 169.936 14.0812C170.378 13.8965 170.852 13.8046 171.331 13.8111C171.814 13.7962 172.295 13.8884 172.739 14.0812C173.112 14.2515 173.442 14.5048 173.703 14.8218C173.958 15.1408 174.146 15.5082 174.255 15.9019C174.372 16.3232 174.43 16.7588 174.428 17.1961L174.42 17.3967ZM173.425 17.1151C173.441 16.3436 173.263 15.7367 172.891 15.2943C172.519 14.852 171.98 14.6341 171.273 14.6405C170.956 14.632 170.641 14.6953 170.352 14.8255C170.064 14.9558 169.808 15.1497 169.604 15.3927C169.404 15.6235 169.25 15.8907 169.151 16.1796C169.048 16.4816 168.989 16.7965 168.974 17.1151H173.425Z" fill="white"/>
<path d="M91.9707 37.2251C91.794 36.407 91.467 35.6287 91.0064 34.9299C90.5631 34.2643 89.963 33.7178 89.2589 33.3387C88.4626 32.9332 87.5772 32.7342 86.684 32.76C86.2428 32.7582 85.8031 32.81 85.3744 32.9143C84.9521 33.021 84.5455 33.1824 84.1651 33.3946C83.759 33.6214 83.3754 33.8862 83.0194 34.1854C82.869 34.3108 82.7147 34.4458 82.5546 34.5904V32.76H80.188V52.0977H82.705V46.0106C82.8188 46.1109 82.9307 46.2034 83.0387 46.2922C83.3564 46.5497 83.6966 46.7782 84.0551 46.9749C84.3943 47.158 84.7553 47.2973 85.1294 47.3896C85.5087 47.4788 85.8971 47.5234 86.2867 47.5227C87.1698 47.537 88.0445 47.3497 88.8442 46.9749C89.5875 46.6166 90.2358 46.0879 90.7363 45.4319C91.2643 44.7143 91.6505 43.9026 91.8743 43.0403C92.1362 42.0329 92.2627 40.9951 92.2504 39.9543C92.2585 39.037 92.1647 38.1217 91.9707 37.2251ZM89.4634 42.0855C89.3484 42.6579 89.1454 43.209 88.8616 43.7192C88.6122 44.1646 88.2629 44.5462 87.8413 44.834C87.4093 45.1163 86.9008 45.2584 86.3851 45.241C85.7332 45.2333 85.1007 45.0177 84.5798 44.6257C83.8839 44.1065 83.256 43.5019 82.7108 42.8262V37.5163C83.031 37.1162 83.3777 36.738 83.7485 36.3842C84.0593 36.0869 84.397 35.8189 84.7572 35.5837C85.0341 35.4015 85.3354 35.2593 85.6521 35.1613C85.9412 35.0783 86.2405 35.0361 86.5413 35.036C87.0585 35.0117 87.5707 35.1463 88.0091 35.4217C88.4114 35.7071 88.7379 36.0865 88.96 36.5269C89.2235 37.0514 89.4044 37.6135 89.4961 38.1933C89.6081 38.8593 89.6636 39.5336 89.662 40.2089C89.6598 40.8418 89.5912 41.4727 89.4576 42.0913L89.4634 42.0855Z" fill="white"/>
<path d="M107.121 37.225C106.943 36.4074 106.616 35.6295 106.157 34.9298C105.713 34.265 105.113 33.7188 104.409 33.3386C103.613 32.9335 102.728 32.7346 101.834 32.76C101.393 32.758 100.953 32.8098 100.525 32.9143C100.102 33.0209 99.6946 33.1823 99.3135 33.3945C98.9081 33.6223 98.5245 33.887 98.1678 34.1853C98.0174 34.3139 97.8631 34.4489 97.7049 34.5904V32.76H95.3364V52.0976H97.8554V46.0105C97.9672 46.1108 98.0791 46.2034 98.1871 46.2921C98.5055 46.5496 98.8463 46.7781 99.2055 46.9749C99.5438 47.1583 99.9042 47.2976 100.278 47.3895C100.657 47.4787 101.046 47.5234 101.435 47.5226C102.319 47.5369 103.194 47.3496 103.995 46.9749C104.737 46.6159 105.384 46.0874 105.885 45.4319C106.414 44.7151 106.8 43.9031 107.023 43.0402C107.288 42.0333 107.418 40.9955 107.408 39.9542C107.414 39.0366 107.318 38.1213 107.121 37.225ZM104.614 42.0855C104.499 42.6579 104.296 43.2089 104.012 43.7191C103.764 44.1649 103.415 44.5466 102.994 44.834C102.562 45.1162 102.053 45.2583 101.537 45.2409C100.881 45.2382 100.243 45.0245 99.7166 44.6314C99.0203 44.1127 98.3923 43.5081 97.8477 42.8319V37.5163C98.1673 37.1162 98.5133 36.738 98.8834 36.3841C99.1943 36.0868 99.532 35.8188 99.8921 35.5837C100.17 35.4011 100.472 35.2588 100.789 35.1613C101.078 35.078 101.377 35.0358 101.678 35.0359C102.195 35.0116 102.706 35.1462 103.144 35.4216C103.547 35.7064 103.873 36.086 104.095 36.5268C104.359 37.051 104.54 37.6133 104.631 38.1933C104.743 38.8592 104.799 39.5335 104.797 40.2088C104.799 40.8412 104.735 41.4722 104.606 42.0913L104.614 42.0855Z" fill="white"/>
<path d="M150.18 34.7343C149.628 34.0858 148.927 33.5802 148.137 33.2607C147.247 32.911 146.295 32.7405 145.339 32.7592C144.334 32.7393 143.335 32.9305 142.409 33.3205C141.589 33.6795 140.863 34.2227 140.287 34.9079C139.711 35.6099 139.282 36.4215 139.028 37.2937C138.748 38.2527 138.61 39.2476 138.619 40.2466C138.603 41.2533 138.733 42.257 139.005 43.2266C139.243 44.0758 139.659 44.8647 140.226 45.5411C140.782 46.1886 141.483 46.6956 142.272 47.0204C143.162 47.3749 144.114 47.548 145.072 47.5296C146.075 47.5459 147.07 47.3486 147.991 46.951C148.812 46.5882 149.538 46.0403 150.112 45.3501C150.688 44.6442 151.119 43.8314 151.38 42.9585C151.664 42.0003 151.805 41.0051 151.796 40.0055C151.812 39.0004 151.681 37.9984 151.407 37.0314C151.16 36.1895 150.742 35.4076 150.18 34.7343ZM149.183 40.1618C149.188 40.8565 149.107 41.5492 148.94 42.2236C148.803 42.7919 148.557 43.3283 148.216 43.8033C147.897 44.2357 147.477 44.5839 146.994 44.8178C146.405 45.066 145.773 45.192 145.135 45.188C144.496 45.184 143.866 45.0502 143.281 44.7946C142.801 44.5487 142.393 44.1842 142.095 43.7357C141.777 43.2428 141.555 42.6945 141.441 42.1195C141.302 41.452 141.234 40.772 141.236 40.0904C141.232 39.4002 141.314 38.7121 141.479 38.0421C141.619 37.4714 141.865 36.9321 142.204 36.4528C142.522 36.0177 142.942 35.6678 143.427 35.4344C143.994 35.1731 144.614 35.0457 145.238 35.0622C145.895 35.0386 146.547 35.1764 147.138 35.4633C147.619 35.7137 148.027 36.0828 148.324 36.5357C148.64 37.0302 148.862 37.5789 148.978 38.1539C149.117 38.8141 149.186 39.4871 149.183 40.1618Z" fill="white"/>
<path d="M71.5025 28.6152H68.509L62.2695 47.4939H64.8232L66.2119 42.0837H73.7167L75.1555 47.4939H77.742L71.5025 28.6152ZM67.0123 39.802L69.919 31.5084L72.895 39.802H67.0123Z" fill="white"/>
<path d="M127.131 39.8384C126.87 39.2759 126.507 38.7666 126.061 38.3359C125.619 37.9112 125.124 37.545 124.589 37.2461C124.065 36.9549 123.525 36.6675 122.983 36.4225C122.441 36.1776 121.92 35.9191 121.407 35.6703C120.942 35.4469 120.501 35.1775 120.09 34.866C119.738 34.6026 119.439 34.2755 119.208 33.9017C118.992 33.5201 118.884 33.0864 118.898 32.648C118.896 32.3182 118.956 31.9911 119.075 31.6836C119.189 31.391 119.367 31.1275 119.596 30.9121C119.855 30.6754 120.16 30.4949 120.493 30.3817C120.919 30.2373 121.368 30.1682 121.818 30.1772C122.292 30.1715 122.765 30.2365 123.22 30.3701C123.593 30.4812 123.955 30.6265 124.302 30.8041C124.613 30.968 124.881 31.1185 125.073 31.2477L126.115 29.074C125.918 28.9 125.697 28.7552 125.459 28.6439C125.133 28.4758 124.794 28.3339 124.445 28.2196C124.057 28.0906 123.66 27.9881 123.259 27.9129C122.844 27.8337 122.423 27.793 122.001 27.7914C121.232 27.7838 120.467 27.8964 119.733 28.125C119.069 28.33 118.452 28.6635 117.918 29.1068C117.408 29.5388 117.002 30.0791 116.728 30.6884C116.439 31.345 116.294 32.056 116.303 32.7733C116.288 33.4833 116.427 34.1881 116.71 34.839C116.97 35.4025 117.331 35.9142 117.773 36.3492C118.21 36.7741 118.699 37.1416 119.229 37.4428C119.748 37.7418 120.288 38.0215 120.832 38.278C121.376 38.5345 121.891 38.7795 122.398 39.0302C122.859 39.2518 123.296 39.5187 123.704 39.8268C124.053 40.091 124.349 40.4181 124.578 40.7912C124.794 41.1727 124.902 41.6064 124.888 42.0448C124.896 42.4928 124.809 42.9372 124.632 43.3487C124.471 43.7132 124.229 44.0359 123.924 44.2918C123.595 44.5621 123.216 44.7658 122.809 44.8917C122.334 45.04 121.839 45.1129 121.341 45.1077C120.75 45.1184 120.16 45.0404 119.592 44.8763C119.139 44.7414 118.699 44.5692 118.275 44.3613C117.966 44.2094 117.668 44.0381 117.382 43.8482L116.863 46.4559C117.213 46.6458 117.577 46.8089 117.953 46.9439C118.426 47.1166 118.912 47.2533 119.407 47.3528C119.982 47.471 120.569 47.5292 121.156 47.5264C122.01 47.5334 122.86 47.4065 123.675 47.1503C124.419 46.9169 125.11 46.5394 125.708 46.0393C126.285 45.5512 126.747 44.9403 127.058 44.2513C127.385 43.5071 127.548 42.7014 127.536 41.8886C127.553 41.1838 127.415 40.4839 127.131 39.8384Z" fill="white"/>
<path d="M135.817 45.0193C135.673 45.0747 135.526 45.1217 135.377 45.1601C135.208 45.2006 135.034 45.2201 134.86 45.2179C134.089 45.2179 133.821 44.9016 133.691 44.6625C133.444 44.215 133.321 43.5284 133.321 42.6257V35.2482H136.384V32.9819H133.321V30.2393L130.802 31.3483V32.9819H129.437V35.2424H130.802V42.8475C130.793 43.5116 130.862 44.1744 131.007 44.8225C131.125 45.3637 131.365 45.8708 131.709 46.3058C132.045 46.7115 132.482 47.0215 132.976 47.2046C133.544 47.4052 134.144 47.5013 134.746 47.4881C134.958 47.4874 135.169 47.4745 135.379 47.4495C135.586 47.4253 135.791 47.3892 135.994 47.3415C136.183 47.2983 136.367 47.2376 136.544 47.1602L136.158 44.8669C136.066 44.9171 135.952 44.9653 135.817 45.0193Z" fill="white"/>
<path d="M160.493 32.7598H160.387C160.073 32.7589 159.761 32.7965 159.457 32.8716C159.114 32.9606 158.788 33.1066 158.493 33.3037C158.14 33.5445 157.816 33.8254 157.528 34.1408C157.428 34.2488 157.324 34.3664 157.216 34.4976V32.7617H154.78V47.4954H157.287V37.9963C157.617 37.4736 157.922 37.032 158.194 36.6597C158.43 36.3341 158.699 36.0324 158.994 35.759C159.192 35.5731 159.417 35.4189 159.661 35.3019C159.843 35.2188 160.04 35.1747 160.24 35.1726C160.298 35.1726 160.36 35.1726 160.433 35.1726L160.875 35.2054V32.7714L160.493 32.7598Z" fill="white"/>
<path d="M173.098 44.3227C173.04 44.3458 172.98 44.3709 172.905 44.4018C172.693 44.5001 172.417 44.6139 172.083 44.7374C171.698 44.8751 171.305 44.9866 170.905 45.071C170.405 45.1735 169.895 45.2226 169.385 45.2176C168.713 45.2365 168.043 45.1217 167.416 44.8801C166.927 44.6794 166.499 44.3574 166.17 43.9446C165.832 43.4992 165.594 42.987 165.469 42.4421C165.343 41.8991 165.27 41.3447 165.253 40.7873H173.618C173.898 40.7818 174.168 40.6879 174.39 40.5192C174.685 40.3089 174.834 39.9598 174.834 39.4776V39.1363C174.837 38.3288 174.729 37.5247 174.513 36.7465C174.307 36.0003 173.951 35.3035 173.468 34.6982C172.972 34.0937 172.346 33.6097 171.636 33.2825C170.801 32.9151 169.895 32.7366 168.984 32.7598C168.085 32.7489 167.194 32.9222 166.364 33.269C165.582 33.605 164.886 34.1149 164.33 34.7599C163.749 35.4468 163.312 36.2429 163.045 37.1014C162.74 38.0927 162.592 39.1254 162.605 40.1624C162.589 41.2199 162.732 42.2739 163.03 43.2889C163.285 44.1422 163.72 44.9312 164.305 45.6034C164.879 46.2414 165.597 46.7333 166.399 47.0384C167.295 47.3689 168.243 47.5304 169.198 47.5148C169.793 47.5179 170.386 47.4675 170.972 47.3643C171.455 47.2804 171.933 47.1703 172.403 47.0345C172.668 46.9554 172.899 46.8783 173.1 46.7992L173.098 44.3227ZM165.541 37.4698C165.694 37.0111 165.933 36.5852 166.243 36.2142C166.563 35.8317 166.965 35.5268 167.42 35.3226C167.874 35.1185 168.37 35.0204 168.868 35.0357C170.004 35.0357 170.837 35.3656 171.416 36.0445C171.937 36.654 172.218 37.5026 172.255 38.5673H165.294C165.338 38.1939 165.421 37.826 165.541 37.4698Z" fill="white"/>
</svg>
