<svg width="57" height="57" viewBox="0 0 57 57" fill="none" xmlns="http://www.w3.org/2000/svg">
<path d="M57 28.5C57 12.7582 44.2418 0 28.5 0C12.7582 0 0 12.7582 0 28.5C0 44.2418 12.7582 57 28.5 57C28.667 57 28.834 57 29.001 56.9889V34.8123H22.8779V27.6762H29.001V22.4215C29.001 16.3318 32.7193 13.0143 38.1521 13.0143C40.7572 13.0143 42.9949 13.2035 43.6406 13.2926V19.6605H39.9C36.9498 19.6605 36.3709 21.0633 36.3709 23.1229V27.665H43.4402L42.5162 34.8012H36.3709V55.8979C48.283 52.4801 57 41.5143 57 28.5Z" fill="white"/>
</svg>
