<svg width="421" height="82" viewBox="0 0 421 82" fill="none" xmlns="http://www.w3.org/2000/svg">
<path d="M135.854 58.6568C136.402 57.8311 136.68 56.3533 136.68 54.2411C136.68 52.1288 136.402 50.6685 135.854 49.8427C135.306 49.0169 134.35 48.6084 133.003 48.6084C132.325 48.6084 131.882 48.704 131.656 48.8866C131.43 49.0691 131.325 49.4863 131.325 50.1209V58.3613C131.325 59.0132 131.438 59.4392 131.656 59.6217C131.882 59.8042 132.325 59.8999 133.003 59.8999C134.359 59.8999 135.306 59.4826 135.854 58.6568Z" fill="white"/>
<path d="M169.493 60.1866C170.467 60.1866 171.154 59.7607 171.545 58.9088C171.945 58.057 172.136 56.501 172.136 54.2497C172.136 52.0158 171.936 50.4685 171.536 49.6167C171.136 48.7648 170.458 48.3389 169.485 48.3389C168.511 48.3389 167.825 48.7648 167.433 49.6167C167.034 50.4685 166.842 52.0158 166.842 54.2497C166.842 56.5097 167.042 58.057 167.433 58.9088C167.833 59.752 168.52 60.1866 169.493 60.1866Z" fill="white"/>
<path d="M153.473 52.9113C153.978 52.5376 154.23 51.9291 154.23 51.0773C154.23 50.2515 154.012 49.6169 153.586 49.191C153.16 48.7564 152.535 48.5391 151.726 48.5391C151.005 48.5391 150.535 48.6347 150.309 48.8346C150.083 49.0345 149.979 49.4518 149.979 50.0863V53.4677H150.97C152.135 53.4677 152.969 53.2851 153.473 52.9113Z" fill="white"/>
<path d="M286.737 60.1866C287.71 60.1866 288.397 59.7607 288.788 58.9088C289.188 58.057 289.379 56.501 289.379 54.2497C289.379 52.0158 289.179 50.4685 288.779 49.6167C288.38 48.7648 287.701 48.3389 286.728 48.3389C285.754 48.3389 285.068 48.7648 284.677 49.6167C284.277 50.4685 284.085 52.0158 284.085 54.2497C284.085 56.5097 284.285 58.057 284.677 58.9088C285.076 59.752 285.763 60.1866 286.737 60.1866Z" fill="white"/>
<path d="M249.368 52.9113C249.873 52.5376 250.125 51.9291 250.125 51.0773C250.125 50.2515 249.907 49.6169 249.481 49.191C249.055 48.7564 248.43 48.5391 247.621 48.5391C246.9 48.5391 246.43 48.6347 246.204 48.8346C245.978 49.0345 245.874 49.4518 245.874 50.0863V53.4677H246.865C248.03 53.4677 248.864 53.2851 249.368 52.9113Z" fill="white"/>
<path d="M357.719 60.1866C358.693 60.1866 359.379 59.7607 359.77 58.9088C360.17 58.057 360.362 56.501 360.362 54.2497C360.362 52.0158 360.162 50.4685 359.762 49.6167C359.362 48.7648 358.684 48.3389 357.71 48.3389C356.737 48.3389 356.05 48.7648 355.659 49.6167C355.259 50.4685 355.068 52.0158 355.068 54.2497C355.068 56.5097 355.268 58.057 355.659 58.9088C356.059 59.752 356.746 60.1866 357.719 60.1866Z" fill="white"/>
<path d="M90.9141 65.6623H418.775V42.8447H90.9141V65.6623ZM396.357 59.8993C397.113 59.8558 397.591 59.7428 397.791 59.5689C397.991 59.3951 398.095 59.0039 398.095 58.3955V50.129C398.095 49.5205 397.991 49.1293 397.791 48.9555C397.591 48.7816 397.113 48.6686 396.357 48.6252V47.7125H402.077L404.962 56.5353L407.657 47.7125H413.429V48.6252C412.664 48.6686 412.186 48.7817 411.977 48.9642C411.769 49.1467 411.673 49.5379 411.673 50.1377V58.4042C411.673 59.0039 411.777 59.3951 411.986 59.5776C412.195 59.7602 412.673 59.8732 413.429 59.9166V60.8293H406.797V59.9166C407.553 59.8732 408.031 59.7602 408.231 59.5863C408.431 59.4125 408.535 59.0213 408.535 58.4128V48.5904H408.396L404.667 60.812H403.346L399.356 48.5904H399.191V58.3868C399.191 58.9952 399.295 59.3864 399.495 59.5602C399.704 59.7341 400.182 59.8471 400.938 59.8906V60.8033H396.348V59.8993H396.357ZM385.535 59.8993C386.187 59.8384 386.604 59.7167 386.795 59.5429C386.987 59.3603 387.082 58.9779 387.082 58.3955V50.129C387.082 49.5466 386.987 49.1554 386.795 48.9816C386.604 48.799 386.187 48.6773 385.535 48.6252V47.7125H391.863V48.6252C391.228 48.6773 390.811 48.7903 390.62 48.9729C390.429 49.1554 390.333 49.5379 390.333 50.1377V58.4042C390.333 59.0039 390.429 59.3864 390.62 59.5689C390.811 59.7515 391.228 59.8645 391.863 59.9166V60.8293H385.535V59.8993ZM368.941 59.8993C369.593 59.8384 370.01 59.7167 370.202 59.5429C370.393 59.3603 370.488 58.9779 370.488 58.3955V50.129C370.488 49.5466 370.393 49.1554 370.202 48.9816C370.01 48.799 369.593 48.6773 368.941 48.6252V47.7125H375.269V48.6252C374.635 48.6773 374.217 48.7903 374.026 48.9729C373.835 49.1554 373.739 49.5379 373.739 50.1377V58.4042C373.739 59.0474 373.87 59.4646 374.13 59.6472C374.391 59.8297 374.956 59.9166 375.817 59.9166C377.095 59.9166 378.094 59.5602 378.816 58.8562C379.537 58.1521 379.954 57.109 380.085 55.7356H381.093L380.806 60.8293H368.95V59.8993H368.941ZM351.93 51.3459C352.269 50.4767 352.782 49.7117 353.443 49.0598C354.025 48.4948 354.668 48.0776 355.39 47.7907C356.111 47.5039 356.885 47.3648 357.711 47.3648C358.545 47.3648 359.319 47.5039 360.031 47.7907C360.753 48.0776 361.396 48.4948 361.97 49.0598C362.648 49.7117 363.152 50.468 363.491 51.3459C363.83 52.2152 364.004 53.18 364.004 54.2405C364.004 55.2923 363.83 56.2571 363.491 57.1351C363.152 58.013 362.648 58.7779 361.987 59.4212C361.405 59.9862 360.762 60.4034 360.04 60.6903C359.319 60.9771 358.545 61.1162 357.711 61.1162C356.867 61.1162 356.085 60.9771 355.372 60.6903C354.651 60.4034 354.008 59.9862 353.425 59.4212C352.765 58.7866 352.269 58.0217 351.93 57.1438C351.591 56.2658 351.417 55.2923 351.417 54.2318C351.417 53.1887 351.591 52.2238 351.93 51.3459ZM335.215 59.7689L342.594 48.6513H340.812C339.587 48.6513 338.657 48.9468 338.013 49.5379C337.37 50.129 336.944 51.1025 336.727 52.4498H335.675L336.066 47.6951H346.341V48.6513L338.944 59.7689H341.16C342.455 59.7689 343.429 59.482 344.072 58.9083C344.715 58.3346 345.15 57.3784 345.376 56.0224H346.349L346.045 60.812H335.223V59.7689H335.215ZM324.184 59.8993C324.836 59.8384 325.253 59.7167 325.444 59.5429C325.635 59.3603 325.731 58.9779 325.731 58.3955V50.129C325.731 49.5466 325.635 49.1554 325.444 48.9816C325.253 48.799 324.836 48.6773 324.184 48.6252V47.7125H330.512V48.6252C329.877 48.6773 329.46 48.7903 329.269 48.9729C329.078 49.1554 328.982 49.5379 328.982 50.1377V58.4042C328.982 59.0039 329.078 59.3864 329.269 59.5689C329.46 59.7515 329.877 59.8645 330.512 59.9166V60.8293H324.184V59.8993ZM306.347 55.0228H311.023V57.0394H306.347V55.0228ZM280.948 51.3459C281.287 50.4767 281.8 49.7117 282.46 49.0598C283.043 48.4948 283.686 48.0776 284.407 47.7907C285.129 47.5039 285.902 47.3648 286.728 47.3648C287.563 47.3648 288.336 47.5039 289.049 47.7907C289.771 48.0776 290.414 48.4948 290.987 49.0598C291.665 49.7117 292.17 50.468 292.509 51.3459C292.848 52.2152 293.022 53.18 293.022 54.2405C293.022 55.2923 292.848 56.2571 292.509 57.1351C292.17 58.013 291.666 58.7779 291.005 59.4212C290.422 59.9862 289.779 60.4034 289.058 60.6903C288.336 60.9771 287.563 61.1162 286.728 61.1162C285.885 61.1162 285.103 60.9771 284.39 60.6903C283.668 60.4034 283.025 59.9862 282.443 59.4212C281.782 58.7866 281.287 58.0217 280.948 57.1438C280.609 56.2658 280.435 55.2923 280.435 54.2318C280.435 53.1887 280.6 52.2238 280.948 51.3459ZM258.643 59.8993C259.399 59.8558 259.877 59.7428 260.077 59.5689C260.277 59.3951 260.381 59.0039 260.381 58.3955V50.129C260.381 49.5205 260.277 49.1293 260.077 48.9555C259.877 48.7816 259.399 48.6686 258.643 48.6252V47.7125H264.363L267.248 56.5353L269.943 47.7125H275.715V48.6252C274.95 48.6686 274.472 48.7817 274.263 48.9642C274.055 49.1467 273.959 49.5379 273.959 50.1377V58.4042C273.959 59.0039 274.063 59.3951 274.272 59.5776C274.481 59.7602 274.959 59.8732 275.715 59.9166V60.8293H269.083V59.9166C269.839 59.8732 270.317 59.7602 270.517 59.5863C270.717 59.4125 270.821 59.0213 270.821 58.4128V48.5904H270.682L266.953 60.812H265.632L261.642 48.5904H261.477V58.3868C261.477 58.9952 261.581 59.3864 261.781 59.5602C261.99 59.7341 262.468 59.8471 263.224 59.8906V60.8033H258.634V59.8993H258.643ZM241.076 59.8993C241.728 59.8384 242.145 59.7167 242.336 59.5429C242.527 59.3603 242.623 58.9779 242.623 58.3955V50.129C242.623 49.5466 242.527 49.1554 242.336 48.9816C242.145 48.799 241.728 48.6773 241.076 48.6252V47.7125H247.673C249.646 47.7125 251.107 47.9733 252.054 48.4948C253.002 49.0163 253.471 49.8334 253.471 50.9374C253.471 51.7892 253.123 52.4672 252.428 52.9714C251.733 53.4756 250.689 53.8059 249.29 53.9623C250.203 54.171 250.924 54.4665 251.446 54.8663C251.967 55.2662 252.306 55.7704 252.463 56.3701C252.593 56.8395 252.689 57.448 252.75 58.1955C252.776 58.4911 252.802 58.6997 252.819 58.8214C252.871 59.143 252.941 59.3603 253.028 59.4646C253.115 59.5776 253.236 59.6298 253.41 59.6298C253.68 59.6298 253.888 59.482 254.027 59.1865C254.175 58.8909 254.245 58.465 254.245 57.9087L255.088 57.9174C255.096 57.9608 255.097 58.0217 255.105 58.0738C255.105 58.1347 255.114 58.2216 255.114 58.3346C255.114 59.2386 254.879 59.934 254.418 60.4208C253.949 60.9076 253.288 61.151 252.437 61.151C251.932 61.151 251.498 61.0727 251.124 60.925C250.75 60.7772 250.455 60.5599 250.22 60.273C249.89 59.8471 249.681 59.0213 249.603 57.8044C249.594 57.7088 249.594 57.6218 249.585 57.5697C249.507 56.2658 249.238 55.3966 248.777 54.9793C248.551 54.7794 248.273 54.6316 247.934 54.536C247.595 54.4404 247.178 54.3883 246.665 54.3883H245.874V58.4042C245.874 58.9865 245.978 59.369 246.178 59.5516C246.387 59.7341 246.865 59.8558 247.621 59.9166V60.8293H241.076V59.8993ZM223.221 59.8993C223.873 59.8384 224.291 59.7167 224.482 59.5429C224.673 59.3603 224.769 58.9779 224.769 58.3955V50.129C224.769 49.5466 224.673 49.1554 224.482 48.9816C224.291 48.799 223.873 48.6773 223.221 48.6252V47.7125H235.512L235.782 52.1282H234.774C234.548 50.8939 234.07 49.9986 233.339 49.451C232.609 48.9033 231.54 48.6252 230.132 48.6252C229.254 48.6252 228.68 48.7121 228.419 48.8946C228.159 49.0772 228.02 49.4857 228.02 50.1377V53.5625H228.811C229.576 53.5625 230.149 53.3539 230.532 52.9366C230.914 52.5194 231.149 51.8588 231.227 50.9461H232.122V57.1177H231.227C231.149 56.205 230.914 55.5443 230.532 55.1271C230.149 54.7099 229.576 54.5013 228.811 54.5013H228.02V58.3955C228.02 59.0474 228.15 59.4646 228.419 59.6472C228.689 59.821 229.28 59.9079 230.201 59.9079C231.723 59.9079 232.853 59.6037 233.591 59.0039C234.33 58.4042 234.782 57.4132 234.956 56.0311H235.964L235.678 60.8206H223.221V59.8993ZM206.914 47.6951H218.458L218.658 52.6585H217.719C217.58 51.2503 217.267 50.2246 216.763 49.5814C216.259 48.9381 215.529 48.6078 214.572 48.6078H214.32V58.3868C214.32 58.9605 214.425 59.3429 214.642 59.5255C214.859 59.708 215.355 59.8384 216.137 59.8993V60.812H209.244V59.8993C210.026 59.8384 210.53 59.708 210.739 59.5255C210.956 59.3429 211.061 58.9605 211.061 58.3868V48.6078H210.809C209.852 48.6078 209.122 48.9294 208.618 49.5814C208.114 50.2333 207.792 51.259 207.653 52.6585H206.741L206.914 47.6951ZM189.104 55.0228H193.78V57.0394H189.104V55.0228ZM163.704 51.3459C164.043 50.4767 164.556 49.7117 165.217 49.0598C165.799 48.4948 166.442 48.0776 167.164 47.7907C167.885 47.5039 168.659 47.3648 169.485 47.3648C170.319 47.3648 171.093 47.5039 171.806 47.7907C172.527 48.0776 173.17 48.4948 173.744 49.0598C174.422 49.7117 174.926 50.468 175.265 51.3459C175.604 52.2152 175.778 53.18 175.778 54.2405C175.778 55.2923 175.604 56.2571 175.265 57.1351C174.926 58.013 174.422 58.7779 173.762 59.4212C173.179 59.9862 172.536 60.4034 171.814 60.6903C171.093 60.9771 170.319 61.1162 169.485 61.1162C168.642 61.1162 167.859 60.9771 167.147 60.6903C166.425 60.4034 165.782 59.9862 165.199 59.4212C164.539 58.7866 164.043 58.0217 163.704 57.1438C163.365 56.2658 163.192 55.2923 163.192 54.2318C163.192 53.1887 163.365 52.2238 163.704 51.3459ZM145.181 59.8993C145.833 59.8384 146.25 59.7167 146.441 59.5429C146.632 59.3603 146.728 58.9779 146.728 58.3955V50.129C146.728 49.5466 146.632 49.1554 146.441 48.9816C146.25 48.799 145.833 48.6773 145.181 48.6252V47.7125H151.778C153.752 47.7125 155.212 47.9733 156.159 48.4948C157.107 49.0163 157.576 49.8334 157.576 50.9374C157.576 51.7892 157.229 52.4672 156.533 52.9714C155.838 53.4756 154.795 53.8059 153.395 53.9623C154.308 54.171 155.029 54.4665 155.551 54.8663C156.072 55.2662 156.411 55.7704 156.568 56.3701C156.698 56.8395 156.794 57.448 156.855 58.1955C156.881 58.4911 156.907 58.6997 156.924 58.8214C156.976 59.143 157.046 59.3603 157.133 59.4646C157.22 59.5776 157.342 59.6298 157.515 59.6298C157.785 59.6298 157.993 59.482 158.133 59.1865C158.28 58.8909 158.35 58.465 158.35 57.9087L159.193 57.9174C159.202 57.9608 159.202 58.0217 159.21 58.0738C159.21 58.1347 159.219 58.2216 159.219 58.3346C159.219 59.2386 158.984 59.934 158.524 60.4208C158.054 60.9076 157.394 61.151 156.542 61.151C156.038 61.151 155.603 61.0727 155.229 60.925C154.856 60.7772 154.56 60.5599 154.325 60.273C153.995 59.8471 153.786 59.0213 153.708 57.8044C153.699 57.7088 153.699 57.6218 153.691 57.5697C153.612 56.2658 153.343 55.3966 152.882 54.9793C152.656 54.7794 152.378 54.6316 152.039 54.536C151.7 54.4404 151.283 54.3883 150.77 54.3883H149.979V58.4042C149.979 58.9865 150.083 59.369 150.283 59.5516C150.492 59.7341 150.97 59.8558 151.726 59.9166V60.8293H145.181V59.8993ZM126.527 59.8993C127.179 59.8384 127.596 59.708 127.787 59.5342C127.979 59.3516 128.074 58.9692 128.074 58.3955V50.129C128.074 49.5466 127.979 49.1641 127.787 48.9903C127.596 48.8077 127.179 48.686 126.527 48.6252V47.7125H132.82C135.219 47.7125 137.062 48.2775 138.331 49.3988C139.6 50.5201 140.235 52.1456 140.235 54.2666C140.235 56.3962 139.6 58.0217 138.331 59.1517C137.062 60.2817 135.219 60.8467 132.82 60.8467H126.527V59.8993ZM115.427 59.8993C116.079 59.8384 116.496 59.7167 116.687 59.5429C116.878 59.3603 116.974 58.9779 116.974 58.3955V50.129C116.974 49.5466 116.878 49.1554 116.687 48.9816C116.496 48.799 116.079 48.6773 115.427 48.6252V47.7125H121.755V48.6252C121.12 48.6773 120.703 48.7903 120.512 48.9729C120.321 49.1554 120.225 49.5379 120.225 50.1377V58.4042C120.225 59.0039 120.321 59.3864 120.512 59.5689C120.703 59.7515 121.12 59.8645 121.755 59.9166V60.8293H115.427V59.8993ZM96.5728 59.8993C97.2248 59.8384 97.642 59.7167 97.8332 59.5429C98.0245 59.3603 98.1201 58.9779 98.1201 58.3955V50.129C98.1201 49.5466 98.0245 49.1641 97.8332 48.9903C97.642 48.8077 97.2248 48.686 96.5728 48.6252V47.7125H102.901V48.6252C102.258 48.686 101.84 48.8077 101.649 48.9903C101.458 49.1728 101.371 49.5553 101.371 50.1377V53.5799H105.856V50.1377C105.856 49.5553 105.761 49.1728 105.578 48.9903C105.396 48.8164 104.978 48.6947 104.326 48.6252V47.7125H110.663V48.6252C110.011 48.686 109.594 48.8077 109.403 48.9816C109.212 49.1641 109.116 49.5466 109.116 50.129V58.3955C109.116 58.9779 109.212 59.369 109.403 59.5429C109.594 59.7254 110.011 59.8471 110.663 59.8993V60.812H104.326V59.8993C104.978 59.8384 105.396 59.7167 105.578 59.5342C105.761 59.3516 105.856 58.9692 105.856 58.3868V54.5969H101.371V58.3868C101.371 58.9692 101.467 59.3516 101.649 59.5342C101.84 59.7167 102.249 59.8384 102.901 59.8993V60.812H96.5728V59.8993Z" fill="white"/>
<path d="M39.8374 79.6747C61.8379 79.6747 79.6747 61.8379 79.6747 39.8374C79.6747 17.8368 61.8379 0 39.8374 0C17.8368 0 0 17.8368 0 39.8374C0 61.8379 17.8368 79.6747 39.8374 79.6747ZM39.8374 2.95542C60.2037 2.95542 76.7193 19.471 76.7193 39.8374C76.7193 60.2037 60.2037 76.7193 39.8374 76.7193C19.471 76.7193 2.95542 60.2037 2.95542 39.8374C2.95542 19.471 19.471 2.95542 39.8374 2.95542Z" fill="white"/>
<path d="M63.7937 47.2525C56.0835 41.4286 48.3647 53.3459 40.6545 50.0167C40.6458 50.008 40.6371 49.9993 40.6284 49.9906C40.0199 49.5299 39.4202 49.1996 38.8117 48.9388C38.7508 48.9041 38.6813 48.878 38.6205 48.8606C30.9885 45.8965 23.3653 57.4835 15.7333 51.7291C15.1683 51.3032 14.7163 51.8247 14.7163 53.0243C14.7163 54.2151 15.1683 55.6407 15.7333 56.0666C23.4522 61.8818 31.1624 49.9732 38.8725 53.3024C38.8812 53.3111 38.8899 53.3198 38.8986 53.3285C39.5071 53.7892 40.1069 54.1195 40.7153 54.3716C40.7849 54.4064 40.8457 54.4324 40.9066 54.4498C48.5385 57.4052 56.1618 45.8269 63.7937 51.5813C64.3587 51.9986 64.8107 51.4857 64.8107 50.2862C64.8107 49.0953 64.3587 47.6784 63.7937 47.2525Z" fill="white"/>
<path d="M63.7937 54.98C56.0835 49.1561 48.3647 61.0734 40.6545 57.7442C40.6458 57.7355 40.6371 57.7268 40.6284 57.7182C40.0199 57.2575 39.4202 56.9271 38.8117 56.6664C38.7508 56.6316 38.6813 56.6055 38.6205 56.5881C30.9885 53.6327 23.3653 65.211 15.7333 59.4566C15.1683 59.0394 14.7163 59.5523 14.7163 60.7518C14.7163 61.9427 15.1683 63.3682 15.7333 63.7942C23.4522 69.6181 31.1624 57.7008 38.8725 61.03C38.8812 61.0387 38.8899 61.0474 38.8986 61.056C39.5071 61.5167 40.1069 61.8471 40.7153 62.1078C40.7849 62.1426 40.8457 62.1687 40.9066 62.1861C48.5385 65.1415 56.1618 53.5632 63.7937 59.3176C64.3587 59.7435 64.8107 59.2219 64.8107 58.0224C64.8107 56.8315 64.3587 55.406 63.7937 54.98Z" fill="white"/>
<path d="M19.723 51.6416L21.3051 51.6763C23.2609 51.433 25.3123 50.442 27.4767 49.3989C30.1887 48.0951 32.9964 46.7391 35.9605 46.7391C37.0644 46.7391 38.1249 46.9303 39.1332 47.3041C39.2636 47.3475 39.4027 47.3997 39.5244 47.4605C40.2198 47.7648 40.863 48.1298 41.4889 48.5819C42.1582 48.8426 42.8449 48.973 43.5837 48.973C45.8003 48.973 48.1559 47.843 50.642 46.6434C53.0759 45.47 55.588 44.2704 58.2218 44.0357V40.7587L64.2891 40.3762L53.4062 31.0405L52.9281 21.6093H47.5388L47.4432 25.9381L38.8724 17.4717L13.082 40.3762H19.723V51.6416Z" fill="white"/>
<path d="M56.7183 21.9488C56.9703 22.3052 57.2833 22.6181 57.6484 22.8789L57.518 25.4257L59.2304 23.5308C59.4477 23.5656 59.665 23.5916 59.8823 23.5916C60.1083 23.5916 60.3256 23.5743 60.5342 23.5308L62.2466 25.4257L62.1163 22.8789C62.4726 22.6268 62.7856 22.3139 63.0463 21.9488L65.5932 22.0792L63.6983 20.3668C63.733 20.1494 63.7591 19.9321 63.7591 19.7148C63.7591 19.4888 63.7417 19.2715 63.6983 19.0629L65.5932 17.3505L63.0463 17.4809C62.7943 17.1245 62.4813 16.8116 62.1163 16.5508L62.2466 14.0039L60.5342 15.8989C60.3169 15.8641 60.0996 15.8467 59.8823 15.8467C59.6563 15.8467 59.439 15.8641 59.2304 15.8989L57.518 14.0039L57.6484 16.5508C57.292 16.8029 56.979 17.1158 56.7183 17.4809L54.1714 17.3505L56.0663 19.0629C56.0316 19.2715 56.0055 19.4975 56.0055 19.7148C56.0055 19.9408 56.0229 20.1581 56.0663 20.3668L54.1714 22.0792L56.7183 21.9488Z" fill="white"/>
<path d="M18.4713 28.3028C19.8012 28.3028 21.7831 26.686 20.853 24.4607C19.8186 21.9834 18.4713 19.6973 18.4713 19.6973C18.4713 19.6973 16.9935 21.9138 16.0374 24.4607C15.2464 26.5643 17.1413 28.3028 18.4713 28.3028Z" fill="white"/>
<path d="M23.0347 21.1145C24.0257 21.1145 25.4947 19.915 24.808 18.2634C24.0431 16.4206 23.0434 14.7256 23.0434 14.7256C23.0434 14.7256 21.9482 16.3685 21.2354 18.2634C20.6443 19.8193 22.0525 21.1145 23.0347 21.1145Z" fill="white"/>
<path d="M34.7089 70.7128H32.7184C32.8661 70.2521 33.2399 69.8349 33.8397 69.4263C34.2743 69.1308 34.8306 68.87 35.2913 68.3833C35.6129 68.0442 35.7781 67.627 35.7781 67.1315C35.7781 66.1232 34.9784 65.4365 33.7267 65.4365C32.6054 65.4365 31.8839 66.0537 31.8839 66.8447C31.8839 67.3575 32.2055 67.6966 32.6662 67.6966C33.0834 67.6966 33.379 67.3923 33.379 67.0098C33.379 66.7752 33.2573 66.5839 33.0921 66.5057L32.8227 66.384C32.7358 66.3492 32.701 66.2971 32.701 66.2536C32.701 66.1145 32.9704 65.8711 33.379 65.8711C33.9788 65.8711 34.2917 66.2536 34.2917 67.0098C34.2917 67.4879 34.1526 67.9573 33.9092 68.3398C33.5181 68.957 32.9878 69.4437 32.5532 69.9827C32.0838 70.5824 31.8317 71.1301 31.8057 71.9037H35.5869L35.8389 70.0609H35.4391C35.3609 70.6172 35.2479 70.7128 34.7089 70.7128Z" fill="white"/>
<path d="M38.855 65.4277C38.3074 65.4277 37.7685 65.7059 37.4034 66.2014C36.9253 66.8533 36.6646 67.7138 36.6646 68.7395C36.6646 69.7566 36.9166 70.6171 37.3947 71.2604C37.7598 71.7645 38.29 72.034 38.855 72.034C40.072 72.034 41.0455 70.7649 41.0455 68.7135C41.0455 67.6965 40.7848 66.8272 40.3154 66.1753C39.9677 65.7059 39.4374 65.4277 38.855 65.4277ZM39.5157 68.7395V69.1742C39.5157 70.8779 39.4896 71.6167 38.8637 71.6167C38.2379 71.6167 38.2118 70.8779 38.2118 69.1742V68.7395V68.2962C38.2118 66.5925 38.2379 65.8624 38.8637 65.8624C39.4896 65.8624 39.5157 66.6012 39.5157 68.2962V68.7395Z" fill="white"/>
<path d="M43.7926 65.4277C43.245 65.4277 42.7061 65.7059 42.3497 66.2014C41.8716 66.8533 41.6108 67.7138 41.6108 68.7395C41.6108 69.7566 41.8629 70.6171 42.341 71.2604C42.7061 71.7645 43.2363 72.034 43.8013 72.034C45.0183 72.034 45.9918 70.7649 45.9918 68.7135C45.9918 67.6965 45.731 66.8272 45.2617 66.1753C44.9053 65.7059 44.3663 65.4277 43.7926 65.4277ZM44.4446 68.7395V69.1742C44.4446 70.8779 44.4185 71.6167 43.7926 71.6167C43.1668 71.6167 43.1407 70.8779 43.1407 69.1742V68.7395V68.2962C43.1407 66.5925 43.1668 65.8624 43.7926 65.8624C44.4185 65.8624 44.4446 66.6012 44.4446 68.2962V68.7395Z" fill="white"/>
<path d="M50.0076 65.4277H49.0428L46.5654 69.5566V70.2173H48.6168V70.678C48.6168 71.2951 48.5212 71.4168 47.7389 71.4603V71.8862H50.7639V71.4603C50.0598 71.4255 49.9989 71.2777 49.9989 70.678V70.2173H50.7639V69.6436H49.9989V65.4277H50.0076ZM48.6255 69.6523H46.9218L48.8341 66.4882C48.7211 67.9485 48.6516 68.9916 48.6255 69.6523Z" fill="white"/>
<path d="M107.751 35.0218C106.143 34.8914 105.091 34.5958 104.613 34.1438C104.135 33.6918 103.892 32.7096 103.892 31.2058V10.3353C103.892 8.83149 104.135 7.84925 104.613 7.39725C105.091 6.94524 106.143 6.65839 107.751 6.51931V4.21582H91.7832V6.51931C93.4261 6.66708 94.4866 6.97132 94.9646 7.43202C95.4427 7.89271 95.6861 8.85757 95.6861 10.3353V31.2058C95.6861 32.6835 95.4427 33.657 94.9646 34.1091C94.4866 34.5698 93.4261 34.874 91.7832 35.0218V37.3252H107.751V35.0218Z" fill="white"/>
<path d="M138.609 25.2428H136.149C135.584 28.6589 134.489 31.0928 132.863 32.527C131.238 33.97 128.787 34.6914 125.518 34.6914H119.929L138.609 6.63231V4.21582H112.68L111.68 16.2201H114.34C114.888 12.8213 115.974 10.3701 117.591 8.87496C119.208 7.37986 121.563 6.63231 124.658 6.63231H129.16L110.524 34.6914V37.3339H137.827L138.609 25.2428Z" fill="white"/>
<path d="M147.415 33.8315C148.875 35.2483 150.518 36.3175 152.326 37.039C154.134 37.7605 156.107 38.1168 158.237 38.1168C160.349 38.1168 162.314 37.7605 164.13 37.039C165.938 36.3175 167.581 35.257 169.041 33.8315C170.71 32.1886 171.98 30.2676 172.849 28.051C173.718 25.8431 174.144 23.4006 174.144 20.7407C174.144 18.0808 173.709 15.6469 172.849 13.4391C171.98 11.2312 170.702 9.31016 168.998 7.67599C167.546 6.25912 165.921 5.18996 164.104 4.46848C162.296 3.75571 160.34 3.39062 158.237 3.39062C156.133 3.39062 154.177 3.74701 152.369 4.46848C150.561 5.18996 148.919 6.25043 147.458 7.67599C145.772 9.31885 144.494 11.2399 143.634 13.4391C142.764 15.6469 142.338 18.0721 142.338 20.7407C142.338 23.418 142.773 25.8605 143.634 28.0858C144.503 30.3024 145.763 32.2147 147.415 33.8315ZM153.065 9.0407C154.064 6.88498 155.794 5.81581 158.246 5.81581C160.688 5.81581 162.409 6.89367 163.417 9.0407C164.426 11.1877 164.93 15.0906 164.93 20.7407C164.93 26.4342 164.435 30.3545 163.435 32.5102C162.435 34.666 160.705 35.7351 158.254 35.7351C155.803 35.7351 154.073 34.6573 153.074 32.5102C152.074 30.3632 151.578 26.4342 151.578 20.7407C151.57 15.0906 152.065 11.1877 153.065 9.0407Z" fill="white"/>
<path d="M183.045 33.9619C184.462 35.3527 186.061 36.3871 187.843 37.0824C189.625 37.7691 191.616 38.1168 193.823 38.1168C195.214 38.1168 196.544 37.9517 197.813 37.604C199.082 37.265 200.238 36.7695 201.273 36.1176C201.594 35.909 202.02 35.6395 202.533 35.2918C203.376 34.7442 203.907 34.4747 204.133 34.4747C204.663 34.4747 205.132 35.0919 205.532 36.3175V36.3436L206.045 38.0734H208.731V27.2426C208.731 25.7649 208.957 24.8001 209.4 24.3567C209.844 23.9134 210.878 23.6005 212.503 23.4267V21.1145H196.953V23.418C198.683 23.5397 199.786 23.8265 200.265 24.2872C200.743 24.7479 200.986 25.7301 200.986 27.2339C200.986 30.1633 200.464 32.2929 199.421 33.6316C198.378 34.9702 196.718 35.6395 194.441 35.6395C191.781 35.6395 189.877 34.5182 188.73 32.2755C187.582 30.0329 187.009 26.2256 187.009 20.845C187.009 15.8729 187.704 12.196 189.095 9.79694C190.486 7.39783 192.624 6.20697 195.501 6.20697C197.7 6.20697 199.621 6.94582 201.247 8.43223C202.872 9.91863 204.124 12.0657 204.993 14.8733H207.392V3.43409H204.75C204.646 4.12948 204.446 4.66841 204.15 5.04218C203.854 5.41596 203.498 5.60719 203.081 5.60719C202.611 5.60719 201.725 5.3725 200.438 4.89441L200.169 4.80749C198.839 4.30333 197.639 3.93825 196.588 3.72094C195.527 3.49493 194.493 3.39062 193.467 3.39062C191.468 3.39062 189.582 3.75571 187.791 4.47718C186 5.19865 184.401 6.26781 182.975 7.67599C181.306 9.31885 180.037 11.2399 179.185 13.4564C178.325 15.6643 177.899 18.0982 177.899 20.7407C177.899 23.4353 178.334 25.8953 179.211 28.1293C180.098 30.3632 181.367 32.3016 183.045 33.9619Z" fill="white"/>
<path d="M228.602 21.0704C229.889 21.0704 230.958 21.1921 231.81 21.4355C232.661 21.6789 233.366 22.0527 233.931 22.5568C235.087 23.6173 235.765 25.7991 235.973 29.1022C235.991 29.25 235.999 29.4499 236.017 29.702C236.208 32.7791 236.73 34.8566 237.573 35.9345C238.146 36.6559 238.903 37.2122 239.85 37.586C240.789 37.9598 241.893 38.151 243.171 38.151C245.326 38.151 246.995 37.5339 248.169 36.3082C249.342 35.0826 249.933 33.3267 249.933 31.0493C249.933 30.7538 249.933 30.5278 249.925 30.3887C249.916 30.2409 249.907 30.1105 249.89 29.9888L247.76 29.9628C247.76 31.3709 247.578 32.4401 247.221 33.179C246.856 33.9178 246.335 34.2916 245.657 34.2916C245.231 34.2916 244.909 34.1525 244.692 33.8831C244.474 33.6136 244.301 33.066 244.17 32.2489C244.127 31.9359 244.066 31.4144 243.996 30.6755C243.831 28.7806 243.588 27.242 243.266 26.0599C242.866 24.5387 242.006 23.2696 240.693 22.27C239.381 21.2617 237.564 20.5054 235.261 19.9839C238.798 19.584 241.441 18.7495 243.188 17.4891C244.944 16.2287 245.813 14.5163 245.813 12.3519C245.813 9.57035 244.622 7.51894 242.232 6.19769C239.841 4.87644 236.156 4.21582 231.175 4.21582H214.512V6.51931C216.155 6.66708 217.215 6.97132 217.693 7.43202C218.171 7.89271 218.415 8.85757 218.415 10.3353V31.2058C218.415 32.6835 218.171 33.657 217.693 34.1091C217.215 34.5698 216.155 34.874 214.512 35.0218V37.3252H231.036V35.0218C229.132 34.8566 227.915 34.5524 227.403 34.1004C226.881 33.6484 226.629 32.6835 226.629 31.2058V21.0704H228.602ZM226.612 10.2484C226.612 8.64895 226.89 7.60586 227.455 7.1017C228.02 6.59754 229.211 6.34546 231.027 6.34546C233.079 6.34546 234.652 6.89309 235.73 7.98833C236.808 9.08358 237.347 10.6743 237.347 12.7605C237.347 14.9075 236.712 16.4461 235.443 17.3848C234.174 18.3236 232.062 18.793 229.124 18.793H226.62V10.2484H226.612Z" fill="white"/>
<path d="M257.295 34.7958C259.399 37.0036 262.746 38.1076 267.309 38.1076C271.89 38.1076 275.245 37.0036 277.358 34.8044C279.47 32.5966 280.53 29.0935 280.53 24.2866V10.3353C280.53 8.77065 280.774 7.77102 281.252 7.34509C281.73 6.91916 282.808 6.64101 284.477 6.51931V4.21582H274.228V6.51931C275.663 6.60624 276.61 6.8757 277.071 7.31901C277.531 7.76233 277.757 8.77065 277.757 10.3353V24.9733C277.757 28.3721 277.123 30.8842 275.862 32.4923C274.602 34.1004 272.638 34.9088 269.995 34.9088C267.335 34.9088 265.397 34.1177 264.18 32.5444C262.963 30.9711 262.363 28.4416 262.363 24.9733V10.3353C262.363 8.77065 262.589 7.76233 263.05 7.31901C263.511 6.8757 264.458 6.60624 265.91 6.51931V4.21582H250.185V6.51931C251.871 6.64101 252.949 6.91047 253.427 7.34509C253.897 7.77102 254.14 8.77065 254.14 10.3353V24.2866C254.14 29.0761 255.192 32.5792 257.295 34.7958Z" fill="white"/>
<path d="M286.963 4.21582V6.51931C288.606 6.66708 289.666 6.97132 290.144 7.43202C290.622 7.89271 290.866 8.85757 290.866 10.3353V31.2058C290.866 32.6835 290.622 33.657 290.144 34.1091C289.666 34.5698 288.606 34.874 286.963 35.0218V37.3252H303.713V35.0218C301.714 34.874 300.445 34.5698 299.897 34.1091C299.35 33.6484 299.08 32.6835 299.08 31.2058V22.5134H303.939C309.215 22.5134 313.049 21.7658 315.439 20.262C317.83 18.7582 319.021 16.3765 319.021 13.1082C319.021 10.118 317.856 7.89271 315.517 6.42369C313.179 4.95468 309.624 4.21582 304.843 4.21582H286.963ZM310.302 13.3516C310.302 15.7159 309.615 17.4457 308.251 18.5322C306.886 19.6188 304.704 20.1664 301.714 20.1664H299.071V10.6656C299.071 8.89234 299.367 7.72756 299.967 7.17124C300.567 6.61493 301.783 6.33677 303.618 6.33677C305.869 6.33677 307.538 6.91047 308.642 8.06656C309.754 9.23135 310.302 10.9872 310.302 13.3516Z" fill="white"/>
<path d="M342.638 35.604C342.021 36.1169 341.23 36.3777 340.265 36.3777C338.961 36.3777 337.779 35.8648 336.701 34.8304C335.632 33.796 334.719 32.2922 333.971 30.3191H332.416L332.798 37.6902H334.102C334.145 37.3078 334.25 36.9948 334.406 36.7688C334.571 36.5428 334.771 36.4211 335.006 36.4211C335.249 36.4211 335.632 36.5341 336.145 36.7514C336.657 36.9688 337.04 37.1165 337.275 37.1861C337.953 37.4121 338.518 37.5685 338.978 37.6555C339.43 37.7424 339.874 37.7858 340.308 37.7858C342.09 37.7858 343.551 37.2382 344.681 36.1343C345.811 35.0303 346.376 33.6135 346.376 31.875C346.376 30.3538 345.958 29.0847 345.124 28.0764C344.289 27.0681 343.02 26.2945 341.317 25.7555L338.605 24.895C337.727 24.6255 337.049 24.2517 336.553 23.7824C336.066 23.313 335.814 22.7914 335.814 22.2264C335.814 21.5484 336.101 20.9921 336.666 20.5575C337.231 20.1315 337.97 19.9142 338.891 19.9142C339.952 19.9142 340.908 20.288 341.777 21.0355C342.647 21.7831 343.438 22.9218 344.15 24.4517H345.402L345.098 18.593L343.968 18.6017C343.898 18.9233 343.777 19.1667 343.62 19.3405C343.464 19.5144 343.281 19.6013 343.064 19.6013C342.986 19.6013 342.899 19.5926 342.794 19.5665C342.69 19.5405 342.62 19.5318 342.586 19.5318C342.568 19.5318 342.438 19.4709 342.194 19.3579C341.951 19.2449 341.699 19.1406 341.447 19.0537C340.908 18.8624 340.43 18.7321 340.013 18.6451C339.595 18.5669 339.204 18.5234 338.831 18.5234C337.101 18.5234 335.701 19.0363 334.632 20.062C333.563 21.0877 333.024 22.4089 333.024 24.0431C333.024 25.3557 333.424 26.4944 334.215 27.4679C335.006 28.4415 336.127 29.1716 337.579 29.641L340.265 30.5537C341.499 30.9536 342.36 31.3882 342.838 31.8402C343.316 32.3009 343.559 32.892 343.559 33.6222C343.559 34.4306 343.255 35.0825 342.638 35.604Z" fill="white"/>
<path d="M357.215 36.0564C356.311 35.9695 355.729 35.7956 355.468 35.5435C355.207 35.2915 355.077 34.7612 355.077 33.9441V28.6504H361.344V33.9441C361.344 34.7612 361.214 35.3001 360.962 35.5435C360.701 35.7956 360.118 35.9608 359.214 36.0564V37.3342H368.072V36.0564C367.159 35.9782 366.577 35.8043 366.307 35.5522C366.038 35.3001 365.908 34.7612 365.908 33.9441V22.3832C365.908 21.5661 366.038 21.0272 366.307 20.7751C366.577 20.523 367.159 20.3579 368.072 20.2709V18.9932H359.214V20.2709C360.127 20.3579 360.71 20.5317 360.962 20.7838C361.222 21.0359 361.344 21.5661 361.344 22.3832V27.1988H355.077V22.3832C355.077 21.5661 355.207 21.0272 355.468 20.7838C355.729 20.5317 356.311 20.3666 357.215 20.2709V18.9932H348.375V20.2709C349.288 20.3579 349.87 20.5317 350.14 20.7838C350.409 21.0359 350.539 21.5661 350.539 22.3832V33.9441C350.539 34.7612 350.409 35.3001 350.14 35.5522C349.87 35.8043 349.288 35.9782 348.375 36.0564V37.3342H357.215V36.0564Z" fill="white"/>
<path d="M372.192 37.7339C372.818 37.7339 373.34 37.5166 373.774 37.0907C374.2 36.6647 374.417 36.1345 374.417 35.526C374.417 34.9002 374.2 34.3786 373.774 33.944C373.34 33.5181 372.818 33.3008 372.192 33.3008C371.584 33.3008 371.062 33.5181 370.628 33.9527C370.193 34.3873 369.976 34.9089 369.976 35.526C369.976 36.1258 370.193 36.6387 370.636 37.082C371.08 37.5166 371.592 37.7339 372.192 37.7339Z" fill="white"/>
<path d="M385.604 36.0564C384.5 35.9782 383.796 35.8043 383.492 35.5522C383.188 35.3001 383.04 34.7612 383.04 33.9441V29.1285H385.726C388.647 29.1285 390.776 28.7113 392.098 27.8855C393.419 27.051 394.079 25.7385 394.079 23.9218C394.079 22.2702 393.436 21.0359 392.141 20.2188C390.846 19.4017 388.881 18.9932 386.23 18.9932H376.33V20.2709C377.242 20.3492 377.825 20.523 378.094 20.7751C378.364 21.0272 378.494 21.5661 378.494 22.3832V33.9441C378.494 34.7612 378.364 35.3001 378.094 35.5522C377.825 35.8043 377.242 35.9782 376.33 36.0564V37.3342H385.604V36.0564ZM383.04 22.5657C383.04 21.5835 383.205 20.9403 383.536 20.6273C383.866 20.3231 384.544 20.1666 385.552 20.1666C386.795 20.1666 387.725 20.4883 388.334 21.1228C388.942 21.7574 389.246 22.7396 389.246 24.0435C389.246 25.356 388.864 26.3122 388.108 26.912C387.352 27.5117 386.143 27.816 384.492 27.816H383.031V22.5657H383.04Z" fill="white"/>
<path d="M391.985 33.3008C391.376 33.3008 390.855 33.5181 390.42 33.9527C389.985 34.3873 389.768 34.9089 389.768 35.526C389.768 36.1258 389.985 36.6387 390.429 37.082C390.863 37.5166 391.385 37.7426 391.985 37.7426C392.61 37.7426 393.132 37.5253 393.567 37.0994C393.993 36.6734 394.21 36.1432 394.21 35.5347C394.21 34.9089 393.993 34.3873 393.567 33.9527C393.132 33.5181 392.602 33.3008 391.985 33.3008Z" fill="white"/>
<path d="M404.919 36.0564C404.006 35.9782 403.424 35.8043 403.154 35.5522C402.885 35.3001 402.754 34.7612 402.754 33.9441V29.5371L404.189 28.2332L408.822 34.57L408.83 34.5961C409.039 34.8916 409.135 35.1524 409.135 35.3958C409.135 35.6218 409.03 35.7869 408.83 35.8738C408.622 35.9608 408.118 36.0303 407.309 36.0564V37.3342H416.358V36.0564C415.915 35.926 415.48 35.6913 415.045 35.3523C414.611 35.0133 414.194 34.5787 413.794 34.0484L407.483 25.4864L411.369 21.8964C411.934 21.3836 412.533 20.9837 413.159 20.6969C413.785 20.4187 414.394 20.2709 414.993 20.2709H415.141V18.9932H406.935V20.2709H407.083C407.753 20.2709 408.265 20.3492 408.604 20.5056C408.952 20.6621 409.117 20.8881 409.117 21.1837C409.117 21.4183 409.022 21.6878 408.839 21.992C408.657 22.2963 408.396 22.6005 408.057 22.9134L402.754 27.9464V22.3832C402.754 21.5661 402.885 21.0272 403.154 20.7751C403.424 20.523 404.006 20.3579 404.919 20.2709V18.9932H396.122V20.2709C397.035 20.3492 397.617 20.523 397.887 20.7751C398.156 21.0272 398.286 21.5661 398.286 22.3832V33.9441C398.286 34.7612 398.156 35.3001 397.887 35.5522C397.617 35.8043 397.035 35.9782 396.122 36.0564V37.3342H404.919V36.0564Z" fill="white"/>
<path d="M418.775 37.7339C419.401 37.7339 419.922 37.5166 420.357 37.0907C420.783 36.6647 421 36.1345 421 35.526C421 34.9002 420.783 34.3786 420.357 33.944C419.931 33.5181 419.401 33.3008 418.775 33.3008C418.166 33.3008 417.645 33.5181 417.219 33.9527C416.784 34.3873 416.567 34.9089 416.567 35.526C416.567 36.1258 416.784 36.6387 417.228 37.082C417.653 37.5166 418.175 37.7339 418.775 37.7339Z" fill="white"/>
<path d="M223.004 71.2871L222.031 75.9723L220.753 71.2871H218.658L217.432 75.9636L216.459 71.2871H214.225H214.216H211.991L211.017 75.9723L209.739 71.2871H207.645L206.419 75.9636L205.445 71.2871H203.211H203.203H200.977L200.004 75.9723L198.726 71.2871H196.631L195.406 75.9636L194.432 71.2871H192.189L194.432 78.7104H196.51L197.692 74.2425L198.917 78.7104H200.977L203.203 71.2958L205.445 78.7104H207.523L208.705 74.2425L209.931 78.7104H211.991L214.216 71.2958L216.459 78.7104H218.536L219.718 74.2425L220.944 78.7104H223.004L225.238 71.2871H223.004Z" fill="white"/>
<path d="M227.402 75.8594H224.925V78.7105H227.402V75.8594Z" fill="white"/>
<path d="M231.21 71.2871H228.889V78.7104H231.21V71.2871Z" fill="white"/>
<path d="M238.033 72.9474V71.2871H232.427V73.2342H235.095L232.201 76.8676V78.7104H238.225V76.7633H234.982L238.033 72.9474Z" fill="white"/>
<path d="M242.24 71.1221C241.18 71.1221 240.337 71.4872 239.72 72.226C239.094 72.9562 238.79 73.8949 238.79 75.025C238.79 76.2419 239.155 77.2241 239.894 77.9717C240.493 78.5802 241.284 78.8757 242.249 78.8757C243.336 78.8757 244.196 78.5106 244.813 77.7805C245.431 77.0503 245.743 76.1202 245.743 74.9728C245.743 73.9558 245.491 73.1039 244.996 72.4085C244.361 71.548 243.449 71.1221 242.24 71.1221ZM243.075 76.4853C242.858 76.7982 242.588 76.9547 242.249 76.9547C241.919 76.9547 241.641 76.7982 241.423 76.4766C241.206 76.1637 241.093 75.6682 241.093 75.0076C241.093 74.3557 241.206 73.8689 241.423 73.5473C241.641 73.2256 241.919 73.0692 242.258 73.0692C242.579 73.0692 242.849 73.2256 243.058 73.5386C243.275 73.8515 243.379 74.3296 243.379 74.9728C243.397 75.6769 243.292 76.1724 243.075 76.4853Z" fill="white"/>
<path d="M253.228 71.2871H251.054V72.3824C250.785 71.9304 250.507 71.6087 250.194 71.4088C249.89 71.2089 249.498 71.1133 249.029 71.1133C248.29 71.1133 247.699 71.4175 247.238 72.0173C246.786 72.6258 246.552 73.5037 246.552 74.6598C246.552 75.6681 246.726 76.4852 247.082 77.1024C247.577 77.9716 248.229 78.4062 249.038 78.4062C249.455 78.4062 249.838 78.2932 250.194 78.0585C250.42 77.9107 250.646 77.6674 250.881 77.3371V78.4584C250.881 79.006 250.802 79.3885 250.637 79.6058C250.472 79.8231 250.22 79.9361 249.89 79.9361C249.629 79.9361 249.42 79.8665 249.246 79.7188C249.125 79.6232 249.038 79.4406 248.986 79.1885L246.734 78.8756C246.726 79.0321 246.726 79.1625 246.726 79.2494C246.726 79.9969 246.952 80.5967 247.404 81.0487C247.856 81.492 248.69 81.718 249.907 81.718C250.437 81.718 250.907 81.6572 251.324 81.5442C251.732 81.4312 252.08 81.2399 252.341 80.9792C252.61 80.7184 252.828 80.3794 252.984 79.9535C253.149 79.5275 253.228 79.0842 253.228 78.6235L253.219 78.2932V71.2871H253.228ZM250.611 76.068C250.42 76.3374 250.177 76.4678 249.881 76.4678C249.577 76.4678 249.333 76.3374 249.142 76.0767C248.96 75.8159 248.864 75.4247 248.864 74.8858C248.864 74.2773 248.951 73.8427 249.125 73.5732C249.299 73.3125 249.542 73.1821 249.837 73.1821C250.133 73.1821 250.385 73.3212 250.594 73.608C250.802 73.8949 250.898 74.3121 250.898 74.851C250.907 75.3899 250.811 75.7985 250.611 76.068Z" fill="white"/>
<path d="M257.678 71.4176C257.452 71.6175 257.244 71.9739 257.035 72.5042V71.2872H254.862V78.7106H257.191V76.2245C257.191 75.0337 257.313 74.2253 257.548 73.7906C257.713 73.4864 257.948 73.3299 258.252 73.3299C258.408 73.3299 258.626 73.3995 258.904 73.5386L259.625 71.5132C259.217 71.2525 258.843 71.1221 258.504 71.1221C258.174 71.1221 257.904 71.2177 257.678 71.4176Z" fill="white"/>
<path d="M264.458 74.8588C264.458 75.5368 264.371 76.0062 264.197 76.267C264.024 76.5278 263.798 76.6581 263.519 76.6581C263.267 76.6581 263.067 76.5625 262.928 76.3626C262.789 76.1627 262.72 75.8324 262.72 75.3717V71.2949H260.39V76.0149C260.39 76.9885 260.573 77.7099 260.938 78.1793C261.303 78.6487 261.798 78.8834 262.442 78.8834C262.92 78.8834 263.319 78.7791 263.65 78.5705C263.98 78.3619 264.302 78.0055 264.623 77.5187V78.7182H266.788V71.2949H264.467V74.8588H264.458Z" fill="white"/>
<path d="M272.316 71.1221C271.907 71.1221 271.534 71.2351 271.195 71.4524C270.943 71.6175 270.664 71.9305 270.369 72.3912V71.2959H268.196V81.5356H270.534V77.9891C270.769 78.2846 271.03 78.5019 271.325 78.6497C271.621 78.7975 271.942 78.8757 272.299 78.8757C273.037 78.8757 273.646 78.5541 274.124 77.9022C274.602 77.2502 274.846 76.3115 274.846 75.0771C274.846 73.9558 274.628 73.017 274.185 72.2608C273.75 71.5045 273.124 71.1221 272.316 71.1221ZM272.264 76.3462C272.081 76.6157 271.855 76.7548 271.586 76.7548C271.282 76.7548 271.021 76.6157 270.821 76.3288C270.621 76.042 270.517 75.6074 270.517 75.025C270.517 74.3904 270.612 73.9297 270.812 73.6429C271.012 73.356 271.256 73.2169 271.551 73.2169C271.821 73.2169 272.055 73.356 272.246 73.6429C272.438 73.921 272.533 74.3643 272.533 74.9641C272.542 75.6074 272.446 76.0681 272.264 76.3462Z" fill="white"/>
<path d="M278.253 75.8594H275.776V78.7105H278.253V75.8594Z" fill="white"/>
<path d="M286.05 77.1285V73.8515C286.05 73.5038 285.989 73.1387 285.876 72.7476C285.763 72.3651 285.607 72.0695 285.407 71.8609C285.129 71.5567 284.772 71.3568 284.355 71.2612C283.938 71.1655 283.373 71.1221 282.677 71.1221C282.243 71.1221 281.843 71.1655 281.469 71.2438C281.095 71.322 280.808 71.435 280.591 71.5828C280.296 71.7827 280.07 72.0174 279.913 72.2956C279.757 72.565 279.635 72.9388 279.548 73.4169L281.765 73.7037C281.852 73.3821 281.973 73.1648 282.121 73.0431C282.312 72.8953 282.599 72.8171 282.973 72.8171C283.268 72.8171 283.477 72.8866 283.59 73.0257C283.712 73.1648 283.764 73.4082 283.764 73.7559C283.477 73.895 283.199 74.008 282.947 74.0949C282.686 74.1818 282.121 74.3296 281.252 74.5469C280.53 74.7207 280.026 74.9902 279.757 75.3553C279.487 75.7204 279.348 76.1811 279.348 76.7461C279.348 77.3458 279.539 77.85 279.913 78.2586C280.287 78.6671 280.835 78.8757 281.556 78.8757C282.095 78.8757 282.573 78.7714 282.99 78.5715C283.286 78.415 283.59 78.1629 283.894 77.8065C283.92 78.0238 283.946 78.1803 283.973 78.2759C283.999 78.3802 284.059 78.5193 284.146 78.7106H286.319C286.198 78.4063 286.12 78.1542 286.085 77.9543C286.067 77.7544 286.05 77.4762 286.05 77.1285ZM283.781 75.6421C283.781 75.9985 283.738 76.2854 283.642 76.5027C283.547 76.72 283.39 76.9112 283.173 77.0677C282.947 77.2241 282.712 77.3024 282.451 77.3024C282.208 77.3024 282.017 77.2328 281.886 77.0938C281.756 76.9547 281.695 76.7721 281.695 76.5461C281.695 76.3549 281.756 76.1724 281.886 76.0246C282.008 75.8768 282.312 75.7204 282.782 75.5726C283.129 75.4683 283.46 75.3379 283.781 75.1988V75.6421Z" fill="white"/>
<path d="M289.84 68.4619H287.519V78.7016H289.84V68.4619Z" fill="white"/>
</svg>
