<svg width="209" height="63" viewBox="0 0 209 63" fill="none" xmlns="http://www.w3.org/2000/svg">
<path d="M196.733 0H12.0605C5.39966 0 0 5.39966 0 12.0605V50.7358C0 57.3966 5.39966 62.7963 12.0605 62.7963H196.733C203.393 62.7963 208.793 57.3966 208.793 50.7358V12.0605C208.793 5.39966 203.393 0 196.733 0Z" fill="black"/>
<path d="M47.2078 25.6259L41.5893 31.2096L25.0889 14.4102C25.5191 14.1481 26.0124 14.0077 26.5161 14.004C27.0198 14.0002 27.5151 14.1333 27.9492 14.389L47.2078 25.6259Z" fill="#00F076"/>
<path d="M47.3467 37.0898L27.9493 48.4116C27.4231 48.7209 26.8101 48.8493 26.204 48.7772C25.5979 48.7051 25.0322 48.4365 24.5933 48.0123L41.5875 31.2148L47.3467 37.0898Z" fill="#F73448"/>
<path d="M52.9521 33.8203L47.3915 37.0664L47.3472 37.0915L41.5898 31.2107L47.2083 25.627L47.2527 25.654L52.9521 28.9791C53.3751 29.2259 53.7261 29.5793 53.97 30.004C54.2139 30.4287 54.3423 30.9099 54.3423 31.3997C54.3423 31.8895 54.2139 32.3707 53.97 32.7954C53.7261 33.2201 53.3751 33.5735 52.9521 33.8203Z" fill="#FFCA00"/>
<path d="M24.5932 48.0071L24.5566 47.9724C24.2932 47.7133 24.0846 47.4039 23.9432 47.0626C23.8017 46.7214 23.7302 46.3552 23.733 45.9857V16.8115C23.7306 16.3364 23.8501 15.8687 24.08 15.453C24.31 15.0373 24.6428 14.6875 25.0465 14.4372L25.0889 14.4102L41.5894 31.2096L24.5932 48.0071Z" fill="#00D2FF"/>
<path d="M86.0935 35.3723H78.0255V37.6116H83.6826C83.3458 38.8455 82.6148 39.9355 81.601 40.7154C80.5872 41.4953 79.3462 41.9222 78.0671 41.9312C76.7881 41.9402 75.5412 41.5307 74.5165 40.7651C73.4919 39.9995 72.7456 38.9199 72.3916 37.6908C72.0376 36.4616 72.0953 35.1505 72.5557 33.9572C73.0162 32.7638 73.8542 31.7538 74.9421 31.0811C76.0299 30.4083 77.308 30.1098 78.5813 30.2309C79.8546 30.352 81.0534 30.8862 81.9949 31.752L83.5765 30.1724C82.2195 28.8948 80.4635 28.1242 78.6045 27.9906C76.7456 27.8569 74.8974 28.3684 73.3716 29.4387C71.8458 30.509 70.7357 32.0727 70.2286 33.8661C69.7214 35.6595 69.8481 37.573 70.5874 39.2838C71.3267 40.9947 72.6334 42.3983 74.287 43.258C75.9406 44.1177 77.8401 44.3809 79.6652 44.0032C81.4903 43.6255 83.1293 42.63 84.306 41.1846C85.4826 39.7392 86.1248 37.9323 86.1244 36.0686C86.1244 35.8313 86.1128 35.5999 86.0935 35.3723Z" fill="white"/>
<path d="M92.468 33.6974C91.4367 33.6912 90.4269 33.9915 89.5664 34.56C88.706 35.1285 88.0337 35.9396 87.6348 36.8906C87.2359 37.8417 87.1284 38.8897 87.3258 39.9019C87.5233 40.9141 88.0168 41.8449 88.7438 42.5763C89.4709 43.3077 90.3987 43.8067 91.4098 44.0102C92.4208 44.2136 93.4694 44.1123 94.4228 43.7191C95.3762 43.3259 96.1913 42.6584 96.7649 41.8014C97.3385 40.9443 97.6447 39.9363 97.6448 38.905C97.6483 37.5281 97.1051 36.2061 96.1343 35.2296C95.1636 34.2531 93.8449 33.702 92.468 33.6974ZM92.468 42.0508C90.9018 42.0508 89.6327 40.6814 89.6327 38.9918C89.6327 37.3022 90.9018 35.9308 92.468 35.9308C94.0341 35.9308 95.3013 37.3022 95.3013 38.9918C95.3013 40.6814 94.0322 42.0469 92.468 42.0469V42.0508Z" fill="white"/>
<path d="M103.989 33.6973C102.957 33.6916 101.948 33.9922 101.087 34.5609C100.227 35.1296 99.5553 35.9409 99.1567 36.892C98.7581 37.843 98.6509 38.891 98.8485 39.9031C99.0462 40.9152 99.5399 41.8458 100.267 42.577C100.994 43.3082 101.922 43.807 102.933 44.0103C103.944 44.2136 104.992 44.1122 105.946 43.7189C106.899 43.3256 107.714 42.6582 108.288 41.8012C108.861 40.9442 109.167 39.9362 109.167 38.905C109.171 37.5277 108.627 36.2055 107.656 35.2289C106.685 34.2523 105.366 33.7014 103.989 33.6973ZM103.989 42.0508C102.424 42.0508 101.155 40.6814 101.155 38.9918C101.155 37.3022 102.424 35.9308 103.989 35.9308C105.553 35.9308 106.824 37.3022 106.824 38.9918C106.824 40.6814 105.555 42.0469 103.989 42.0469V42.0508Z" fill="white"/>
<path d="M123.32 27.9658H121.084V44.3274H123.32V27.9658Z" fill="white"/>
<path d="M132.505 40.2476C132.277 40.7128 131.935 41.1124 131.51 41.4088C131.085 41.7052 130.592 41.8887 130.077 41.9419C129.562 41.9952 129.041 41.9165 128.565 41.7132C128.088 41.5099 127.672 41.1888 127.353 40.78L134.951 37.8039L134.833 37.4182C134.789 37.2716 134.741 37.1289 134.687 36.9919C134.335 36.0993 133.747 35.3193 132.986 34.7359C132.224 34.1524 131.318 33.7875 130.365 33.6804C129.412 33.5734 128.447 33.7282 127.576 34.1282C126.704 34.5282 125.957 35.1582 125.417 35.9507C124.876 36.7431 124.562 37.6679 124.507 38.6256C124.453 39.5833 124.661 40.5377 125.108 41.3862C125.556 42.2347 126.226 42.9452 127.047 43.4412C127.868 43.9373 128.809 44.2002 129.768 44.2016C130.768 44.2 131.748 43.9151 132.592 43.3799C133.437 42.8446 134.113 42.0809 134.542 41.1773L134.735 40.7607L132.698 39.86L132.505 40.2476ZM131.809 36.6467L126.73 38.6352C126.783 38.0717 126.991 37.5339 127.332 37.0819C127.672 36.6299 128.132 36.2815 128.659 36.0758C129.012 35.9363 129.389 35.865 129.768 35.8655C130.521 35.8656 131.248 36.1438 131.809 36.6467Z" fill="white"/>
<path d="M117.684 33.6973V34.6154C116.924 34.0235 115.988 33.7006 115.025 33.6973C112.432 33.6973 110.332 36.0291 110.332 38.9049C110.332 41.7807 112.432 44.1125 115.025 44.1125C115.987 44.1128 116.923 43.7933 117.684 43.2041V44.3285C117.684 44.9727 117.222 46.7607 115.113 46.7607C114.523 46.7671 113.946 46.5889 113.461 46.251C112.977 45.9132 112.611 45.4326 112.413 44.8763L110.386 45.8195C110.386 45.8195 111.158 48.7955 115.316 48.7955C117.573 48.7955 118.736 47.484 119.33 46.2882C119.725 45.4707 119.928 44.5732 119.922 43.6651V33.6973H117.684ZM115.025 42.0468C113.607 42.0468 112.456 40.6774 112.456 38.9878C112.456 37.2982 113.613 35.9269 115.025 35.9269C116.437 35.9269 117.594 37.2982 117.594 38.9878C117.594 40.6774 116.442 42.0468 115.025 42.0468Z" fill="white"/>
<path d="M144.93 27.9658H142.694V44.3274H144.93V27.9658Z" fill="white"/>
<path d="M148.059 27.9668V30.2022C149.625 30.2022 150.894 31.5716 150.894 33.2631C150.894 34.9547 149.625 36.3221 148.059 36.3221V38.3821C149.44 38.3821 150.764 37.8334 151.741 36.8568C152.718 35.8802 153.266 34.5556 153.266 33.1744C153.266 31.7933 152.718 30.4687 151.741 29.4921C150.764 28.5155 149.44 27.9668 148.059 27.9668Z" fill="white"/>
<path d="M148.059 27.9658H144.305V30.2012H148.059V27.9658Z" fill="white"/>
<path d="M148.059 36.3203H144.305V38.3899H148.059V36.3203Z" fill="white"/>
<path d="M156.635 27.9658H154.4V44.3274H156.635V27.9658Z" fill="white"/>
<path d="M163.944 42.8998L164.217 42.6047V44.1689H166.1V37.4183C166.111 36.8665 166.035 36.3164 165.874 35.7885C165.746 35.3696 165.506 34.9936 165.18 34.7007C164.824 34.3975 164.403 34.181 163.949 34.068C163.343 33.9163 162.719 33.8456 162.094 33.8578C161.698 33.8569 161.302 33.8898 160.912 33.9562C160.552 34.0153 160.197 34.0997 159.849 34.2088C159.593 34.2889 159.343 34.3855 159.1 34.4981L159.218 36.2668C159.357 36.1974 159.511 36.1241 159.683 36.0489C159.99 35.914 160.307 35.8019 160.63 35.7133C161.032 35.6057 161.446 35.5537 161.862 35.559C162.165 35.553 162.467 35.5907 162.759 35.6708C162.995 35.7384 163.208 35.8668 163.378 36.0431C163.539 36.2195 163.653 36.4329 163.71 36.6641C163.778 36.9313 163.81 37.2063 163.807 37.4819V38.211H162.728C161.998 38.2049 161.269 38.2695 160.551 38.4039C160.007 38.4993 159.485 38.6907 159.008 38.969C158.627 39.1972 158.313 39.5236 158.101 39.9141C157.892 40.3328 157.788 40.7962 157.799 41.2642C157.79 41.6986 157.871 42.1301 158.038 42.5314C158.19 42.8784 158.419 43.1859 158.709 43.4302C159.013 43.6816 159.365 43.8692 159.743 43.9818C160.174 44.112 160.623 44.177 161.074 44.1747C161.621 44.1818 162.163 44.0679 162.661 43.841C163.145 43.6135 163.581 43.2938 163.944 42.8998ZM162.773 42.2961C162.439 42.501 162.054 42.6079 161.662 42.6047C161.244 42.6255 160.834 42.4877 160.514 42.2189C160.372 42.0866 160.261 41.9252 160.187 41.7458C160.113 41.5664 160.079 41.3732 160.086 41.1793C160.082 40.9414 160.133 40.7058 160.235 40.4908C160.343 40.2775 160.506 40.097 160.707 39.9681C160.95 39.816 161.22 39.7119 161.502 39.6614C161.875 39.5897 162.254 39.5561 162.634 39.5611H163.807V41.3876L163.766 41.432C163.479 41.7686 163.143 42.0599 162.769 42.2961H162.773Z" fill="white"/>
<path d="M174.972 33.873L173.338 37.6495L172.333 39.9718L171.653 38.3998L169.695 33.873H167.261L170.435 41.2139L171.143 42.8514L169.299 47.3569H171.735L173.338 43.2815L174.555 40.4655L177.406 33.873H174.972Z" fill="white"/>
<path d="M83.4917 21.8727C83.4922 21.9211 83.4884 21.9696 83.4801 22.0173C83.4723 22.0546 83.4587 22.0904 83.4396 22.1234C83.4234 22.1503 83.4009 22.1728 83.374 22.189C83.3491 22.2042 83.3204 22.2122 83.2911 22.2121H79.4973C79.4131 22.2087 79.3322 22.179 79.2658 22.1273C79.2225 22.0889 79.1892 22.0406 79.1687 21.9865C79.1482 21.9324 79.1411 21.8742 79.1482 21.8167V14.5048C79.1413 14.4474 79.1484 14.3892 79.1689 14.3351C79.1894 14.2811 79.2226 14.2328 79.2658 14.1943C79.3324 14.1431 79.4133 14.1141 79.4973 14.1114H83.2352C83.2636 14.1106 83.2917 14.118 83.3162 14.1326C83.3429 14.1484 83.3649 14.171 83.3798 14.1982C83.3978 14.2326 83.4102 14.2698 83.4165 14.3081C83.4264 14.3583 83.4309 14.4094 83.43 14.4605C83.4308 14.5091 83.4263 14.5576 83.4165 14.6051C83.4099 14.6416 83.3976 14.6768 83.3798 14.7093C83.3637 14.7345 83.3419 14.7557 83.3162 14.771C83.2917 14.7856 83.2636 14.793 83.2352 14.7922H79.9119V17.641H82.7781C82.8092 17.6401 82.84 17.6481 82.8668 17.6641C82.8923 17.679 82.9136 17.7003 82.9285 17.7259C82.9472 17.7588 82.9602 17.7947 82.9671 17.8319C82.9754 17.8829 82.9792 17.9346 82.9787 17.9862C82.9792 18.0334 82.9753 18.0806 82.9671 18.127C82.96 18.1612 82.9469 18.1938 82.9285 18.2235C82.9134 18.2474 82.8921 18.2668 82.8668 18.2794C82.8392 18.2928 82.8088 18.2994 82.7781 18.2987H79.9119V21.5294H83.2911C83.3201 21.5296 83.3485 21.5368 83.374 21.5506C83.4 21.5671 83.4223 21.5888 83.4396 21.6142C83.4593 21.6469 83.4731 21.6828 83.4801 21.7203C83.4883 21.7707 83.4922 21.8216 83.4917 21.8727Z" fill="white"/>
<path d="M90.3213 14.4664C90.3218 14.5149 90.3179 14.5633 90.3098 14.6111C90.3032 14.6475 90.2908 14.6827 90.2731 14.7152C90.257 14.7405 90.2352 14.7616 90.2095 14.7769C90.185 14.7915 90.1569 14.7989 90.1285 14.7982H87.7117V22.0927C87.7122 22.1172 87.7055 22.1414 87.6925 22.1621C87.6777 22.1845 87.656 22.2014 87.6307 22.2103C87.5922 22.2258 87.5521 22.2368 87.5111 22.2431C87.3908 22.2586 87.2689 22.2586 87.1485 22.2431C87.1076 22.2368 87.0674 22.2258 87.029 22.2103C87.0037 22.2014 86.982 22.1845 86.9672 22.1621C86.9542 22.1414 86.9474 22.1172 86.948 22.0927V14.7924H84.5312C84.5015 14.7939 84.4719 14.7865 84.4464 14.7711C84.4223 14.755 84.4019 14.734 84.3866 14.7094C84.3688 14.6769 84.3565 14.6417 84.3499 14.6053C84.3411 14.5576 84.3365 14.5091 84.3364 14.4606C84.3365 14.4095 84.341 14.3585 84.3499 14.3082C84.3562 14.2699 84.3686 14.2328 84.3866 14.1983C84.4008 14.1718 84.4213 14.1493 84.4464 14.1327C84.4719 14.1174 84.5015 14.11 84.5312 14.1115H90.1246C90.1531 14.1108 90.1812 14.1181 90.2056 14.1327C90.2323 14.1485 90.2543 14.1712 90.2693 14.1983C90.2872 14.2328 90.2996 14.2699 90.3059 14.3082C90.3158 14.3604 90.3209 14.4133 90.3213 14.4664Z" fill="white"/>
<path d="M95.2799 22.086C95.2804 22.1105 95.2737 22.1347 95.2606 22.1554C95.2458 22.1778 95.2242 22.1947 95.1989 22.2036C95.1617 22.2189 95.1229 22.2299 95.0832 22.2364C94.9615 22.2519 94.8384 22.2519 94.7167 22.2364C94.6757 22.2301 94.6356 22.2191 94.5971 22.2036C94.5719 22.1947 94.5502 22.1778 94.5354 22.1554C94.5223 22.1347 94.5156 22.1105 94.5161 22.086V14.234C94.5164 14.2099 94.5237 14.1864 94.5374 14.1665C94.5551 14.1434 94.5792 14.1259 94.6068 14.1164C94.6453 14.1013 94.6854 14.0909 94.7264 14.0855C94.782 14.0783 94.8382 14.0764 94.8942 14.0797C94.9588 14.0779 95.0234 14.0824 95.087 14.0932C95.1268 14.0983 95.1657 14.1087 95.2028 14.1241C95.2285 14.1332 95.2504 14.1509 95.2645 14.1743C95.2775 14.1943 95.2842 14.2178 95.2838 14.2418L95.2799 22.086Z" fill="white"/>
<path d="M102.549 14.4664C102.55 14.515 102.546 14.5635 102.536 14.6111C102.529 14.6475 102.517 14.6827 102.499 14.7152C102.483 14.7405 102.461 14.7616 102.436 14.7769C102.411 14.7915 102.383 14.7989 102.355 14.7982H99.9379V22.0927C99.9384 22.1172 99.9317 22.1414 99.9186 22.1621C99.9038 22.1845 99.8821 22.2014 99.8569 22.2103C99.8184 22.2258 99.7783 22.2368 99.7373 22.2431C99.6169 22.2586 99.4951 22.2586 99.3747 22.2431C99.3337 22.2368 99.2936 22.2258 99.2551 22.2103C99.2298 22.2014 99.2082 22.1845 99.1934 22.1621C99.1803 22.1414 99.1736 22.1172 99.1741 22.0927V14.7924H96.7574C96.7276 14.7939 96.6981 14.7865 96.6725 14.7711C96.6489 14.7551 96.6291 14.734 96.6146 14.7094C96.5954 14.6774 96.5824 14.6421 96.5761 14.6053C96.5679 14.5575 96.564 14.5091 96.5645 14.4606C96.564 14.4096 96.5679 14.3586 96.5761 14.3082C96.5821 14.2696 96.5952 14.2323 96.6146 14.1983C96.6282 14.172 96.6481 14.1494 96.6725 14.1327C96.6981 14.1174 96.7276 14.11 96.7574 14.1115H102.351C102.379 14.1108 102.407 14.1181 102.432 14.1327C102.458 14.1485 102.48 14.1712 102.495 14.1983C102.513 14.2328 102.526 14.2699 102.532 14.3082C102.544 14.3602 102.549 14.4132 102.549 14.4664Z" fill="white"/>
<path d="M113.254 18.0667C113.262 18.6592 113.187 19.2499 113.033 19.8219C112.904 20.3127 112.677 20.7721 112.365 21.172C112.067 21.5439 111.682 21.8372 111.245 22.0264C110.241 22.4223 109.125 22.4278 108.118 22.0419C107.697 21.8617 107.328 21.5777 107.046 21.2164C106.753 20.8332 106.544 20.393 106.432 19.9241C106.296 19.3603 106.231 18.7817 106.239 18.2017C106.233 17.6159 106.306 17.0318 106.457 16.4659C106.586 15.9834 106.813 15.5329 107.125 15.1427C107.426 14.7755 107.81 14.4847 108.245 14.2941C108.746 14.0837 109.284 13.9811 109.827 13.9932C110.35 13.9811 110.87 14.077 111.355 14.2748C111.77 14.4534 112.137 14.7308 112.421 15.0829C112.716 15.4609 112.929 15.8956 113.048 16.3598C113.192 16.9172 113.261 17.4911 113.254 18.0667ZM112.446 18.1304C112.449 17.6768 112.404 17.2242 112.311 16.7802C112.234 16.3902 112.084 16.0185 111.868 15.6847C111.66 15.3738 111.377 15.1214 111.044 14.9518C110.648 14.7624 110.212 14.6711 109.773 14.6856C109.334 14.672 108.898 14.7681 108.506 14.9653C108.169 15.1424 107.881 15.3994 107.667 15.7136C107.442 16.0451 107.285 16.4173 107.204 16.8092C107.108 17.2429 107.061 17.6861 107.063 18.1304C107.06 18.5912 107.103 19.0512 107.19 19.5036C107.264 19.8963 107.412 20.2714 107.626 20.6088C107.831 20.921 108.113 21.1744 108.446 21.3437C108.846 21.5338 109.286 21.6251 109.729 21.6098C110.174 21.6245 110.615 21.527 111.013 21.3263C111.351 21.1407 111.639 20.876 111.852 20.5548C112.072 20.2167 112.227 19.8406 112.309 19.4458C112.401 19.0134 112.447 18.5725 112.446 18.1304Z" fill="white"/>
<path d="M120.943 21.8417C120.945 21.9078 120.933 21.9736 120.908 22.0346C120.888 22.0807 120.858 22.1221 120.821 22.1561C120.786 22.186 120.745 22.2084 120.701 22.2217C120.662 22.2332 120.621 22.2396 120.58 22.241H120.424C120.346 22.2417 120.269 22.2306 120.194 22.2082C120.124 22.1849 120.058 22.1483 120.001 22.1002C119.929 22.0383 119.864 21.9677 119.808 21.89C119.73 21.7815 119.658 21.6688 119.592 21.5524L116.738 16.4933C116.595 16.2464 116.452 15.9931 116.308 15.7334C116.165 15.4711 116.028 15.2184 115.899 14.9619C115.899 15.2666 115.899 15.5791 115.899 15.8993V22.0809C115.898 22.1053 115.892 22.1292 115.88 22.1503C115.864 22.1727 115.842 22.1896 115.816 22.1986C115.779 22.2138 115.74 22.2248 115.7 22.2313C115.636 22.2405 115.572 22.2443 115.507 22.2429C115.443 22.2441 115.378 22.2402 115.314 22.2313C115.274 22.2248 115.235 22.2138 115.197 22.1986C115.171 22.1891 115.149 22.1723 115.133 22.1503C115.122 22.129 115.116 22.1051 115.116 22.0809V14.5048C115.109 14.4474 115.116 14.3891 115.137 14.3351C115.157 14.281 115.19 14.2327 115.233 14.1942C115.3 14.143 115.381 14.114 115.465 14.1113H115.779C115.864 14.1093 115.948 14.1177 116.03 14.1364C116.095 14.152 116.157 14.1802 116.211 14.2193C116.272 14.2674 116.326 14.3247 116.37 14.389C116.421 14.4623 116.479 14.5549 116.543 14.6668L118.726 18.5436C118.865 18.7847 118.996 19.018 119.112 19.2418C119.228 19.4655 119.355 19.6835 119.473 19.8976L119.82 20.534C119.936 20.7423 120.05 20.9526 120.161 21.1667C120.161 20.8156 120.161 20.4511 120.161 20.0711V14.2598C120.161 14.2359 120.168 14.2124 120.181 14.1923C120.196 14.1687 120.217 14.15 120.242 14.1383C120.279 14.1221 120.318 14.1116 120.358 14.1074C120.422 14.1035 120.487 14.1035 120.551 14.1074C120.609 14.1041 120.668 14.1041 120.727 14.1074C120.768 14.1116 120.808 14.122 120.846 14.1383C120.872 14.1512 120.894 14.1697 120.912 14.1923C120.925 14.2122 120.933 14.2357 120.933 14.2598L120.943 21.8417Z" fill="white"/>
<path d="M69.9287 18.1547C69.9287 19.2059 70.3463 20.214 71.0896 20.9574C71.8329 21.7007 72.8411 22.1183 73.8923 22.1183C74.9435 22.1183 75.9517 21.7007 76.695 20.9574C77.4383 20.214 77.8559 19.2059 77.8559 18.1547C77.8559 18.1007 77.8559 18.0447 77.8559 17.9869H74.0794V18.7584H77.0362L76.9725 18.9956C76.7914 19.6606 76.4001 20.2491 75.857 20.6734C75.314 21.0977 74.6482 21.3349 73.9592 21.3497C73.2702 21.3645 72.5949 21.156 72.0341 20.7554C71.4733 20.3548 71.0572 19.7835 70.8477 19.127C70.6383 18.4704 70.6469 17.7637 70.8722 17.1124C71.0974 16.4611 71.5273 15.9001 72.0976 15.5132C72.668 15.1263 73.3481 14.9342 74.0366 14.9657C74.725 14.9972 75.3848 15.2505 75.9175 15.6878L76.4653 15.14C75.8892 14.6485 75.1844 14.3322 74.4343 14.2286C73.6841 14.1251 72.92 14.2386 72.2323 14.5558C71.5447 14.8729 70.9623 15.3804 70.554 16.0182C70.1458 16.656 69.9288 17.3974 69.9287 18.1547Z" fill="white"/>
</svg>
