<svg width="57" height="57" viewBox="0 0 57 57" fill="none" xmlns="http://www.w3.org/2000/svg">
<path d="M28.3555 34.3097C31.6442 34.3097 34.3102 31.6437 34.3102 28.355C34.3102 25.0664 31.6442 22.4004 28.3555 22.4004C25.0669 22.4004 22.4009 25.0664 22.4009 28.355C22.4009 31.6437 25.0669 34.3097 28.3555 34.3097Z" fill="white"/>
<path d="M28.3555 0C12.6952 0 0 12.6952 0 28.3555C0 44.0157 12.6952 56.7109 28.3555 56.7109C44.0157 56.7109 56.7109 44.0157 56.7109 28.3555C56.7109 12.6952 44.0157 0 28.3555 0ZM45.8744 35.5623C45.7383 38.2581 44.9807 40.9165 43.0162 42.8602C41.0325 44.8224 38.3615 45.5535 35.6398 45.6883H21.0713C18.3492 45.5535 15.6785 44.8228 13.6949 42.8602C11.7302 40.9165 10.9728 38.2581 10.8367 35.5623V21.1486C10.9728 18.4528 11.7303 15.7944 13.6949 13.8506C15.6785 11.8884 18.3495 11.1573 21.0713 11.0227H35.6396C38.3618 11.1573 41.0324 11.8881 43.016 13.8506C44.9807 15.7944 45.7382 18.4528 45.8743 21.1486L45.8744 35.5623Z" fill="white"/>
<path d="M35.4559 14.3064C31.9073 14.2091 24.8049 14.2091 21.2563 14.3064C19.4097 14.3571 17.3163 14.8168 16.0006 16.2221C14.6334 17.6828 14.1168 19.4477 14.0644 21.422C13.9723 24.8873 14.0644 35.2881 14.0644 35.2881C14.1244 37.2622 14.6334 39.0272 16.0006 40.488C17.3163 41.8938 19.4097 42.353 21.2563 42.4037C24.8049 42.501 31.9073 42.501 35.4559 42.4037C37.3025 42.353 39.3959 41.8933 40.7116 40.488C42.0788 39.0272 42.5954 37.2624 42.6478 35.2881V21.422C42.5954 19.4477 42.0788 17.6828 40.7116 16.2221C39.3954 14.8163 37.302 14.3571 35.4559 14.3064ZM28.3556 37.5847C26.5302 37.5847 24.7457 37.0434 23.2279 36.0293C21.7101 35.0151 20.5271 33.5736 19.8285 31.8871C19.1299 30.2006 18.9472 28.3448 19.3033 26.5544C19.6594 24.764 20.5385 23.1195 21.8293 21.8287C23.1201 20.5379 24.7646 19.6588 26.555 19.3027C28.3454 18.9466 30.2012 19.1293 31.8877 19.8279C33.5742 20.5265 35.0157 21.7095 36.0299 23.2273C37.044 24.7451 37.5853 26.5296 37.5853 28.355C37.5853 30.8029 36.6129 33.1505 34.882 34.8814C33.1511 36.6123 30.8035 37.5847 28.3556 37.5847ZM37.6246 21.0305C37.2595 21.0304 36.9027 20.9221 36.5992 20.7192C36.2957 20.5163 36.0591 20.228 35.9195 19.8906C35.7798 19.5533 35.7433 19.1822 35.8146 18.8241C35.8859 18.4661 36.0617 18.1372 36.3199 17.8791C36.5781 17.621 36.907 17.4452 37.2651 17.374C37.6231 17.3029 37.9943 17.3394 38.3316 17.4792C38.6688 17.6189 38.9571 17.8555 39.1599 18.159C39.3627 18.4626 39.471 18.8195 39.471 19.1845C39.471 19.427 39.4232 19.6671 39.3304 19.8911C39.2376 20.1151 39.1016 20.3186 38.9302 20.49C38.7587 20.6614 38.5552 20.7974 38.3311 20.8901C38.1071 20.9828 37.867 21.0305 37.6246 21.0305Z" fill="white"/>
</svg>
