<svg width="57" height="57" viewBox="0 0 57 57" fill="none" xmlns="http://www.w3.org/2000/svg">
<path d="M28.5 0C12.7623 0 0 12.7623 0 28.5C0 44.2377 12.7623 57 28.5 57C44.2377 57 57 44.2377 57 28.5C57 12.7623 44.2377 0 28.5 0ZM20.2182 43.084H13.2772V22.2017H20.2182V43.084ZM16.7479 19.3502H16.7027C14.3735 19.3502 12.8671 17.7468 12.8671 15.7429C12.8671 13.6938 14.4196 12.1348 16.794 12.1348C19.1684 12.1348 20.6296 13.6938 20.6749 15.7429C20.6749 17.7468 19.1684 19.3502 16.7479 19.3502ZM45.2462 43.084H38.306V31.9125C38.306 29.1049 37.301 27.1902 34.7896 27.1902C32.8722 27.1902 31.7303 28.4817 31.2284 29.7285C31.0449 30.1747 31.0001 30.7983 31.0001 31.4224V43.084H24.0595C24.0595 43.084 24.1504 24.1608 24.0595 22.2017H31.0001V25.1584C31.9225 23.7355 33.5728 21.7116 37.2553 21.7116C41.822 21.7116 45.2462 24.6961 45.2462 31.1101V43.084Z" fill="white"/>
</svg>
