<svg width="173" height="56" viewBox="0 0 173 56" fill="none" xmlns="http://www.w3.org/2000/svg">
<path d="M81.216 12.16V28H78.84V18.712L79.008 14.512H78.96L74.328 28H72.168L67.512 14.512H67.488L67.656 18.712V28H65.28V12.16H69.096L72.288 21.616L73.272 25.096H73.32L74.304 21.64L77.472 12.16H81.216ZM93.8038 16.12L89.7178 23.464V28H87.7738V23.464L83.6878 16.12H85.8298L87.8098 19.882L88.7458 21.772L89.6998 19.882L91.6798 16.12H93.8038ZM98.874 12.16V28H96.282V12.16H98.874ZM103.616 27.064L103.292 26.38H111.338V28H101.996V26.452L109.502 17.056L109.844 17.74H102.14V16.12H111.104V17.668L103.616 27.064ZM118.425 15.94C119.553 15.94 120.525 16.186 121.341 16.678C122.157 17.17 122.787 17.872 123.231 18.784C123.675 19.696 123.897 20.788 123.897 22.06C123.897 23.32 123.675 24.412 123.231 25.336C122.787 26.248 122.157 26.95 121.341 27.442C120.525 27.934 119.553 28.18 118.425 28.18C117.297 28.18 116.325 27.934 115.509 27.442C114.693 26.95 114.063 26.248 113.619 25.336C113.175 24.412 112.953 23.32 112.953 22.06C112.953 20.788 113.175 19.696 113.619 18.784C114.063 17.872 114.693 17.17 115.509 16.678C116.325 16.186 117.297 15.94 118.425 15.94ZM118.425 17.596C117.705 17.596 117.087 17.776 116.571 18.136C116.055 18.484 115.659 18.988 115.383 19.648C115.107 20.308 114.969 21.112 114.969 22.06C114.969 22.996 115.107 23.8 115.383 24.472C115.659 25.132 116.055 25.642 116.571 26.002C117.087 26.35 117.705 26.524 118.425 26.524C119.145 26.524 119.757 26.35 120.261 26.002C120.777 25.642 121.173 25.132 121.449 24.472C121.737 23.8 121.881 22.996 121.881 22.06C121.881 21.112 121.737 20.308 121.449 19.648C121.173 18.988 120.777 18.484 120.261 18.136C119.757 17.776 119.145 17.596 118.425 17.596ZM131.323 28.18C130.255 28.18 129.319 27.94 128.515 27.46C127.723 26.968 127.105 26.266 126.661 25.354C126.229 24.442 126.013 23.344 126.013 22.06C126.013 20.8 126.241 19.714 126.697 18.802C127.165 17.89 127.813 17.188 128.641 16.696C129.481 16.192 130.459 15.94 131.575 15.94C132.775 15.94 133.753 16.174 134.509 16.642C135.265 17.11 135.859 17.836 136.291 18.82L134.491 19.63C134.275 18.946 133.915 18.436 133.411 18.1C132.919 17.764 132.307 17.596 131.575 17.596C130.867 17.596 130.249 17.776 129.721 18.136C129.193 18.484 128.779 18.994 128.479 19.666C128.179 20.326 128.029 21.124 128.029 22.06C128.029 23.008 128.167 23.818 128.443 24.49C128.719 25.162 129.121 25.672 129.649 26.02C130.177 26.368 130.831 26.542 131.611 26.542C132.055 26.542 132.457 26.482 132.817 26.362C133.189 26.242 133.507 26.062 133.771 25.822C134.047 25.582 134.257 25.294 134.401 24.958C134.557 24.61 134.635 24.22 134.635 23.788V23.41H131.341V21.88H136.363V28H134.941L134.797 25.516L135.157 25.696C134.881 26.476 134.419 27.088 133.771 27.532C133.135 27.964 132.319 28.18 131.323 28.18ZM144.105 16.12C145.353 16.12 146.337 16.438 147.057 17.074C147.789 17.698 148.155 18.55 148.155 19.63C148.155 20.374 147.987 20.998 147.651 21.502C147.327 22.006 146.859 22.396 146.247 22.672C145.635 22.948 144.921 23.116 144.105 23.176L143.925 23.248H141.261V28H139.335V16.12H144.105ZM143.925 21.664C144.645 21.664 145.191 21.508 145.563 21.196C145.947 20.872 146.139 20.374 146.139 19.702C146.139 19.018 145.947 18.52 145.563 18.208C145.179 17.896 144.633 17.74 143.925 17.74H141.261V21.664H143.925ZM145.095 22.06L148.821 28H146.589L143.439 22.78L145.095 22.06ZM160.346 16.12V23.428C160.346 25.012 159.938 26.2 159.122 26.992C158.318 27.784 157.148 28.18 155.612 28.18C154.088 28.18 152.918 27.784 152.102 26.992C151.286 26.2 150.878 25.012 150.878 23.428V16.12H152.84V23.266C152.84 24.286 153.05 25.084 153.47 25.66C153.89 26.236 154.604 26.524 155.612 26.524C156.608 26.524 157.322 26.236 157.754 25.66C158.186 25.084 158.402 24.286 158.402 23.266V16.12H160.346ZM168.004 16.12C169.252 16.12 170.242 16.45 170.974 17.11C171.718 17.77 172.09 18.682 172.09 19.846C172.09 20.998 171.718 21.904 170.974 22.564C170.242 23.224 169.252 23.554 168.004 23.554H165.484V28H163.54V16.12H168.004ZM167.716 21.934C168.508 21.934 169.096 21.76 169.48 21.412C169.876 21.052 170.074 20.53 170.074 19.846C170.074 19.15 169.876 18.628 169.48 18.28C169.096 17.92 168.508 17.74 167.716 17.74H165.484V21.934H167.716Z" fill="white"/>
<path d="M65.8498 45.726H70.7218V47H64.3378V37.76H65.8498V45.726ZM74.9982 39.86C75.6608 39.86 76.2442 40.0047 76.7482 40.294C77.2615 40.5833 77.6628 41.0033 77.9522 41.554C78.2508 42.0953 78.4002 42.744 78.4002 43.5C78.4002 44.256 78.2508 44.9093 77.9522 45.46C77.6628 46.0013 77.2615 46.4167 76.7482 46.706C76.2442 46.9953 75.6608 47.14 74.9982 47.14C74.3355 47.14 73.7475 46.9953 73.2342 46.706C72.7208 46.4167 72.3195 46.0013 72.0302 45.46C71.7408 44.9093 71.5962 44.256 71.5962 43.5C71.5962 42.744 71.7408 42.0953 72.0302 41.554C72.3195 41.0033 72.7208 40.5833 73.2342 40.294C73.7475 40.0047 74.3355 39.86 74.9982 39.86ZM74.9982 41.036C74.6062 41.036 74.2702 41.134 73.9902 41.33C73.7102 41.5167 73.4908 41.792 73.3322 42.156C73.1828 42.52 73.1082 42.968 73.1082 43.5C73.1082 44.032 73.1828 44.48 73.3322 44.844C73.4908 45.208 73.7102 45.488 73.9902 45.684C74.2702 45.8707 74.6062 45.964 74.9982 45.964C75.3902 45.964 75.7262 45.8707 76.0062 45.684C76.2862 45.488 76.5008 45.208 76.6502 44.844C76.8088 44.4707 76.8882 44.0227 76.8882 43.5C76.8882 42.968 76.8088 42.52 76.6502 42.156C76.5008 41.792 76.2862 41.5167 76.0062 41.33C75.7262 41.134 75.3902 41.036 74.9982 41.036ZM86.2399 38.502L86.4499 39.65C86.4219 39.6407 86.3893 39.636 86.3519 39.636C86.3239 39.636 86.2959 39.636 86.2679 39.636C85.8386 39.636 85.5119 39.734 85.2879 39.93C85.0639 40.126 84.9519 40.4107 84.9519 40.784L84.2659 40.462C84.2659 40.0887 84.3406 39.7527 84.4899 39.454C84.6486 39.1553 84.8633 38.922 85.1339 38.754C85.4046 38.5767 85.7313 38.488 86.1139 38.488C86.1326 38.488 86.1513 38.488 86.1699 38.488C86.1979 38.488 86.2213 38.4927 86.2399 38.502ZM84.0419 45.894C84.7419 45.894 85.2879 46.0527 85.6799 46.37C86.0719 46.6873 86.2679 47.1213 86.2679 47.672C86.2679 48.1667 86.1186 48.5867 85.8199 48.932C85.5213 49.2867 85.1106 49.5527 84.5879 49.73C84.0746 49.9167 83.4819 50.01 82.8099 50.01C81.6806 50.01 80.8453 49.8327 80.3039 49.478C79.7719 49.1327 79.5059 48.694 79.5059 48.162C79.5059 47.7793 79.6413 47.448 79.9119 47.168C80.1919 46.8973 80.6399 46.7433 81.2559 46.706L81.1859 46.916C80.7846 46.832 80.4626 46.678 80.2199 46.454C79.9866 46.2207 79.8699 45.908 79.8699 45.516C79.8699 45.1333 80.0193 44.802 80.3179 44.522C80.6166 44.2327 81.0413 44.0647 81.5919 44.018L82.3759 44.382H82.1799C81.7786 44.41 81.4846 44.5033 81.2979 44.662C81.1206 44.8113 81.0319 44.9887 81.0319 45.194C81.0319 45.4273 81.1159 45.6047 81.2839 45.726C81.4519 45.838 81.6899 45.894 81.9979 45.894H84.0419ZM82.8239 48.918C83.3093 48.918 83.7153 48.8713 84.0419 48.778C84.3686 48.6847 84.6113 48.554 84.7699 48.386C84.9379 48.2273 85.0219 48.0547 85.0219 47.868C85.0219 47.6347 84.9286 47.4527 84.7419 47.322C84.5646 47.1913 84.2753 47.126 83.8739 47.126H81.6759C81.4146 47.126 81.1906 47.196 81.0039 47.336C80.8266 47.476 80.7379 47.6673 80.7379 47.91C80.7379 48.2087 80.9199 48.4513 81.2839 48.638C81.6573 48.8247 82.1706 48.918 82.8239 48.918ZM82.7819 39.86C83.3886 39.86 83.9113 39.958 84.3499 40.154C84.7979 40.35 85.1433 40.6253 85.3859 40.98C85.6286 41.3253 85.7499 41.736 85.7499 42.212C85.7499 42.688 85.6239 43.1033 85.3719 43.458C85.1293 43.8127 84.7839 44.088 84.3359 44.284C83.8973 44.4707 83.3793 44.564 82.7819 44.564C81.8206 44.564 81.0833 44.354 80.5699 43.934C80.0659 43.5047 79.8139 42.9307 79.8139 42.212C79.8139 41.736 79.9353 41.3253 80.1779 40.98C80.4206 40.6253 80.7659 40.35 81.2139 40.154C81.6619 39.958 82.1846 39.86 82.7819 39.86ZM82.7819 40.868C82.3619 40.868 82.0119 40.9893 81.7319 41.232C81.4519 41.4747 81.3119 41.8013 81.3119 42.212C81.3119 42.6227 81.4519 42.9493 81.7319 43.192C82.0213 43.4347 82.3713 43.556 82.7819 43.556C83.2019 43.556 83.5519 43.4347 83.8319 43.192C84.1119 42.9493 84.2519 42.6227 84.2519 42.212C84.2519 41.8013 84.1119 41.4747 83.8319 41.232C83.5613 40.9893 83.2113 40.868 82.7819 40.868ZM89.3108 37.76V47H87.7988V37.76H89.3108ZM91.7043 47V40H93.0343L93.1323 41.904L92.9363 41.722C93.1136 41.0873 93.4263 40.6207 93.8743 40.322C94.3223 40.014 94.845 39.86 95.4423 39.86C95.9183 39.86 96.343 39.958 96.7163 40.154C97.0896 40.3407 97.3883 40.6253 97.6123 41.008C97.8363 41.3907 97.9483 41.8713 97.9483 42.45V47H96.4363V42.898C96.4363 42.2353 96.2963 41.7687 96.0163 41.498C95.7456 41.2273 95.405 41.092 94.9943 41.092C94.705 41.092 94.4203 41.1667 94.1403 41.316C93.8696 41.456 93.6456 41.6847 93.4683 42.002C93.3003 42.3193 93.2163 42.7347 93.2163 43.248V47H91.7043Z" fill="url(#paint0_linear_2011_5)"/>
<path d="M27.5 0.0546875C12.32 0.0546875 0 12.3747 0 27.5547C0 42.7347 12.32 55.0547 27.5 55.0547C42.68 55.0547 55 42.7347 55 27.5547C55 12.3197 42.68 0.0546875 27.5 0.0546875Z" fill="#273B91"/>
<path d="M27.5 55C42.68 55 55 42.68 55 27.5C55 12.32 42.68 0 27.5 0C12.32 0 0 12.32 0 27.5C0 42.68 12.32 55 27.5 55ZM27.5 2.09001C41.525 2.09001 52.965 13.475 52.965 27.555C52.965 41.58 41.58 53.02 27.5 53.02C13.475 53.02 2.03501 41.635 2.03501 27.555C2.03501 13.475 13.42 2.09001 27.5 2.09001Z" fill="#63A0D6"/>
<path d="M43.9998 32.6145C38.6648 28.5995 33.3298 36.7945 28.0498 34.5395C27.6098 34.2095 27.2248 33.9895 26.7848 33.8245C26.7298 33.8245 26.6748 33.7695 26.6748 33.7695C21.3948 31.7345 16.1698 39.7095 10.8898 35.7495C10.5048 35.4745 10.1748 35.8045 10.1748 36.6295C10.1748 37.4545 10.5048 38.4445 10.8898 38.7195C16.2248 42.7345 21.5598 34.5395 26.8398 36.7945C27.2798 37.1245 27.6648 37.3445 28.1048 37.5095C28.1598 37.5095 28.2148 37.5645 28.2148 37.5645C33.4948 39.5995 38.7198 31.6245 43.9998 35.5845C44.3848 35.8595 44.7148 35.5295 44.7148 34.7045C44.7148 33.8795 44.3848 32.9445 43.9998 32.6145Z" fill="white"/>
<path d="M43.9998 37.9494C38.6648 33.9344 33.3298 42.1294 28.0498 39.8744C27.6098 39.5444 27.2248 39.3244 26.7848 39.1594C26.7298 39.1594 26.6748 39.1044 26.6748 39.1044C21.3948 37.0694 16.1698 45.0444 10.8898 41.0844C10.5048 40.8094 10.1748 41.1394 10.1748 41.9644C10.1748 42.7894 10.5048 43.7794 10.8898 44.0544C16.2248 48.0694 21.5598 39.8744 26.8398 42.1294C27.2798 42.4594 27.6648 42.6795 28.1048 42.8444C28.1598 42.8444 28.2148 42.8994 28.2148 42.8994C33.4948 44.9344 38.7198 36.9594 43.9998 40.9194C44.3848 41.1944 44.7148 40.8644 44.7148 40.0394C44.7148 39.2694 44.3848 38.2794 43.9998 37.9494Z" fill="white"/>
<path d="M13.6395 35.6396H14.7395C16.1145 35.4746 17.4896 34.8146 18.9746 34.0446C20.8446 33.1646 22.7695 32.2296 24.8045 32.2296C25.5745 32.2296 26.2895 32.3396 27.0045 32.6146C27.1145 32.6696 27.1695 32.6696 27.2795 32.7246C27.7745 32.9446 28.2145 33.1646 28.6545 33.4946C29.0945 33.6596 29.5896 33.7696 30.0846 33.7696C31.6246 33.7696 33.2195 32.9996 34.9795 32.1746C36.6845 31.3496 38.3895 30.5246 40.2045 30.3596V28.1596L44.3846 27.8846L36.9045 21.4496L36.5746 14.9596H32.8346L32.7795 17.9296L26.8395 12.0996L9.01953 27.8846H13.5846V35.6396H13.6395Z" fill="white"/>
<path d="M39.1594 15.1791C39.3244 15.3991 39.5444 15.6191 39.8194 15.8391L39.7094 17.5991L40.8644 16.2791C41.0294 16.2791 41.1394 16.3341 41.3044 16.3341C41.4694 16.3341 41.6344 16.3341 41.7444 16.2791L42.8994 17.5991L42.7894 15.8391C43.0094 15.6741 43.2294 15.4541 43.4494 15.1791L45.2094 15.2891L43.8894 14.1341C43.8894 13.9691 43.9444 13.8591 43.9444 13.6941C43.9444 13.5291 43.9444 13.3641 43.8894 13.2541L45.2094 12.0991L43.4494 12.2091C43.2844 11.9891 43.0644 11.7691 42.7894 11.5491L42.8994 9.78906L41.7444 11.1091C41.5794 11.1091 41.4694 11.0541 41.3044 11.0541C41.1394 11.0541 40.9744 11.0541 40.8644 11.1091L39.7094 9.78906L39.8194 11.5491C39.5994 11.7141 39.3794 11.9341 39.1594 12.2091L37.3994 12.0991L38.7194 13.2541C38.7194 13.4191 38.6644 13.5291 38.6644 13.6941C38.6644 13.8591 38.6644 14.0241 38.7194 14.1341L37.3994 15.2891L39.1594 15.1791Z" fill="white"/>
<path d="M12.7605 19.5796C13.6955 19.5796 15.0705 18.4796 14.4105 16.9396C13.6955 15.2346 12.7605 13.6396 12.7605 13.6396C12.7605 13.6396 11.7154 15.1796 11.0554 16.9396C10.5054 18.3696 11.8255 19.5796 12.7605 19.5796Z" fill="white"/>
<path d="M15.8957 14.5758C16.5557 14.5758 17.6007 13.7508 17.1057 12.5958C16.5557 11.3308 15.8957 10.1758 15.8957 10.1758C15.8957 10.1758 15.1257 11.3308 14.6307 12.5958C14.2457 13.6958 15.2357 14.5758 15.8957 14.5758Z" fill="white"/>
<path d="M23.9798 48.84H22.6048C22.7148 48.51 22.9898 48.235 23.3748 47.96C23.6498 47.74 24.0348 47.575 24.3648 47.245C24.5848 47.025 24.6948 46.75 24.6948 46.365C24.6948 45.65 24.1448 45.21 23.2648 45.21C22.4948 45.21 21.9998 45.65 21.9998 46.2C21.9998 46.53 22.2198 46.805 22.5498 46.805C22.8248 46.805 23.0448 46.585 23.0448 46.31C23.0448 46.145 22.9348 46.035 22.8248 45.98L22.6599 45.87C22.6049 45.87 22.5498 45.815 22.5498 45.76C22.5498 45.65 22.7148 45.485 23.0448 45.485C23.4848 45.485 23.6498 45.76 23.6498 46.255C23.6498 46.585 23.5398 46.915 23.3748 47.19C23.0998 47.63 22.7148 47.96 22.4398 48.345C22.1098 48.785 21.9448 49.115 21.9448 49.665H24.5298L24.6948 48.4H24.4198C24.4198 48.73 24.3098 48.84 23.9798 48.84Z" fill="white"/>
<path d="M26.8395 45.1553C26.4545 45.1553 26.0695 45.3203 25.8495 45.7053C25.5195 46.1453 25.3545 46.7503 25.3545 47.4653C25.3545 48.1803 25.5195 48.7853 25.8495 49.2253C26.1245 49.5553 26.4545 49.7753 26.8395 49.7753C27.6645 49.7753 28.3245 48.8953 28.3245 47.4653C28.3245 46.7503 28.1595 46.1453 27.8295 45.7053C27.6095 45.3753 27.2245 45.1553 26.8395 45.1553ZM27.2795 47.4653V47.7403C27.2795 48.8953 27.2795 49.4453 26.8395 49.4453C26.3995 49.4453 26.3995 48.9503 26.3995 47.7403V47.4653V47.1353C26.3995 45.9803 26.3995 45.4303 26.8395 45.4303C27.2795 45.4303 27.2795 45.9253 27.2795 47.1353V47.4653Z" fill="white"/>
<path d="M30.1944 45.1553C29.8094 45.1553 29.4245 45.3203 29.2045 45.7053C28.8745 46.1453 28.7095 46.7503 28.7095 47.4653C28.7095 48.1803 28.8745 48.7853 29.2045 49.2253C29.4795 49.5553 29.8094 49.7753 30.1944 49.7753C31.0194 49.7753 31.6795 48.8953 31.6795 47.4653C31.6795 46.7503 31.5145 46.1453 31.1845 45.7053C30.9645 45.3753 30.6344 45.1553 30.1944 45.1553ZM30.6895 47.4653V47.7403C30.6895 48.8953 30.6895 49.4453 30.2495 49.4453C29.8095 49.4453 29.8095 48.9503 29.8095 47.7403V47.4653V47.1353C29.8095 45.9803 29.8095 45.4303 30.2495 45.4303C30.6895 45.4303 30.6895 45.9253 30.6895 47.1353V47.4653Z" fill="white"/>
<path d="M34.4847 45.1553H33.8246L32.1196 48.0153V48.4553H33.5496V48.7853C33.5496 49.2253 33.4946 49.2803 32.9446 49.3353V49.6103H35.0347V49.3353C34.5397 49.3353 34.4847 49.2253 34.4847 48.7853V48.5103H35.0347V48.1253H34.4847V45.1553ZM33.5496 48.0703H32.3946L33.7146 45.8703C33.6046 46.9153 33.5496 47.6303 33.5496 48.0703Z" fill="white"/>
<defs>
<linearGradient id="paint0_linear_2011_5" x1="81" y1="34" x2="81" y2="51" gradientUnits="userSpaceOnUse">
<stop stop-color="#EEEEEE"/>
<stop offset="1" stop-color="white"/>
</linearGradient>
</defs>
</svg>
