<svg width="57" height="57" viewBox="0 0 57 57" fill="none" xmlns="http://www.w3.org/2000/svg">
<path d="M36.3748 20.6253L36.3186 20.569C34.4546 18.7149 31.9913 17.585 29.37 17.3818C26.7488 17.1785 24.1408 17.9151 22.0132 19.4597C19.8856 21.0043 18.3775 23.2559 17.7589 25.8112C17.1403 28.3666 17.4517 31.0586 18.6374 33.4053L19.1249 34.3653L18.2136 38.7828V38.839L22.5898 37.8003L23.5873 38.2953C25.6634 39.3257 28.0105 39.6788 30.2979 39.3048C32.5853 38.9307 34.6977 37.8484 36.3373 36.2103C38.396 34.1416 39.5549 31.3439 39.5619 28.4255C39.5689 25.507 38.4236 22.7038 36.3748 20.6253ZM35.9323 33.0003C35.3961 33.844 34.5448 34.8753 33.4836 35.134C31.6086 35.5878 28.7548 35.134 25.1811 31.8303L25.1361 31.789C22.0273 28.8865 21.2023 26.4678 21.3861 24.5515C21.4948 23.464 22.4023 22.4815 23.1673 21.8365C23.2887 21.7332 23.4326 21.6598 23.5875 21.6224C23.7424 21.5849 23.9039 21.5844 24.0591 21.6209C24.2142 21.6574 24.3586 21.7299 24.4805 21.8325C24.6025 21.9351 24.6986 22.0649 24.7611 22.2115L25.9123 24.8365C25.9875 25.004 26.0157 25.1888 25.9939 25.3712C25.9721 25.5535 25.9011 25.7264 25.7886 25.8715L25.2036 26.6215C25.082 26.7772 25.0096 26.9656 24.9955 27.1626C24.9815 27.3597 25.0265 27.5564 25.1248 27.7278C25.6808 28.5454 26.3457 29.2835 27.1011 29.9215C27.9121 30.7064 28.8346 31.3672 29.8386 31.8828C30.0215 31.957 30.2223 31.9749 30.4155 31.9341C30.6086 31.8934 30.7851 31.7958 30.9223 31.654L31.5936 30.9753C31.7189 30.8316 31.8819 30.726 32.0642 30.6703C32.2465 30.6147 32.4407 30.6112 32.6248 30.6603L35.3623 31.4478C35.5145 31.4923 35.6543 31.5716 35.7706 31.6793C35.8869 31.7871 35.9766 31.9204 36.0326 32.0688C36.0886 32.2171 36.1093 32.3764 36.0932 32.5342C36.0772 32.6919 36.0246 32.8438 35.9398 32.9778L35.9323 33.0003Z" fill="white"/>
<path d="M28.5 0C22.8632 0 17.3531 1.6715 12.6663 4.80311C7.97946 7.93473 4.32654 12.3858 2.16945 17.5935C0.0123485 22.8012 -0.552046 28.5316 0.547632 34.0601C1.64731 39.5885 4.36167 44.6667 8.34747 48.6525C12.3333 52.6383 17.4115 55.3527 22.9399 56.4524C28.4684 57.552 34.1988 56.9876 39.4065 54.8305C44.6142 52.6735 49.0653 49.0205 52.1969 44.3337C55.3285 39.6469 57 34.1368 57 28.5C57 20.9413 53.9973 13.6922 48.6525 8.34745C43.3078 3.00267 36.0587 0 28.5 0ZM42.6263 28.8337C42.5493 31.2007 41.8791 33.5104 40.6772 35.5509C39.4753 37.5914 37.7802 39.2974 35.7474 40.5124C33.7147 41.7274 31.4093 42.4124 29.0429 42.5045C26.6765 42.5967 24.3249 42.0931 22.2038 41.04L15.0788 42.735C14.971 42.7597 14.8584 42.7515 14.7554 42.7113C14.6524 42.6712 14.5639 42.6011 14.5013 42.51C14.4585 42.4491 14.4287 42.38 14.4139 42.3071C14.399 42.2342 14.3994 42.159 14.415 42.0862L15.915 34.8037C14.9345 32.8825 14.4066 30.7625 14.3717 28.6058C14.3368 26.4491 14.7959 24.3131 15.7138 22.3612C16.6316 20.4093 17.9839 18.6933 19.6671 17.3445C21.3504 15.9958 23.3199 15.0501 25.4249 14.5798C27.53 14.1095 29.7147 14.1271 31.8119 14.6313C33.9091 15.1355 35.8631 16.1128 37.5244 17.4885C39.1857 18.8642 40.5101 20.6018 41.3964 22.5683C42.2826 24.5348 42.7072 26.6779 42.6375 28.8337H42.6263Z" fill="white"/>
</svg>
