<svg width="55" height="57" viewBox="0 0 55 57" fill="none" xmlns="http://www.w3.org/2000/svg">
<path d="M24 34L33 28.5L24 23V34Z" fill="white"/>
<path d="M27.5 0C12.3145 0 0 12.7623 0 28.5C0 44.2377 12.3145 57 27.5 57C42.6855 57 55 44.2377 55 28.5C55 12.7623 42.6855 0 27.5 0ZM44.6833 28.5291C44.6833 28.5291 44.6833 34.3091 43.9758 37.0962C43.5793 38.6217 42.4186 39.8246 40.9466 40.2351C38.2573 40.9688 27.5 40.9688 27.5 40.9688C27.5 40.9688 16.7708 40.9688 14.0534 40.206C12.5814 39.7955 11.4207 38.5922 11.0242 37.0666C10.3163 34.3091 10.3163 28.5 10.3163 28.5C10.3163 28.5 10.3163 22.7205 11.0242 19.9334C11.4203 18.4078 12.6095 17.1754 14.0534 16.7649C16.7427 16.0312 27.5 16.0312 27.5 16.0312C27.5 16.0312 38.2573 16.0312 40.9466 16.794C42.4186 17.2045 43.5793 18.4078 43.9758 19.9334C44.7118 22.7205 44.6833 28.5291 44.6833 28.5291Z" fill="white"/>
</svg>
