<svg width="37" height="49" viewBox="0 0 37 49" fill="none" xmlns="http://www.w3.org/2000/svg">
<path d="M29.9476 19.9131H6.9842C6.56148 19.9131 6.21875 20.2558 6.21875 20.6785C6.21875 21.1013 6.56148 21.444 6.9842 21.444H29.9476C30.3703 21.444 30.713 21.1013 30.713 20.6785C30.713 20.2558 30.3704 19.9131 29.9476 19.9131Z" fill="white"/>
<path d="M29.9476 13.7893H6.9842C6.56148 13.7893 6.21875 14.132 6.21875 14.5548C6.21875 14.9775 6.56148 15.3202 6.9842 15.3202H29.9476C30.3703 15.3202 30.713 14.9775 30.713 14.5548C30.713 14.132 30.3704 13.7893 29.9476 13.7893Z" fill="white"/>
<path d="M29.9476 26.0366H6.9842C6.56148 26.0366 6.21875 26.3793 6.21875 26.8021C6.21875 27.2248 6.56148 27.5675 6.9842 27.5675H29.9476C30.3703 27.5675 30.713 27.2248 30.713 26.8021C30.713 26.3793 30.3704 26.0366 29.9476 26.0366Z" fill="white"/>
<path d="M29.9476 32.1602H6.9842C6.56148 32.1602 6.21875 32.5029 6.21875 32.9256C6.21875 33.3483 6.56148 33.691 6.9842 33.691H29.9476C30.3703 33.691 30.713 33.3483 30.713 32.9256C30.713 32.5029 30.3704 32.1602 29.9476 32.1602Z" fill="white"/>
<path d="M23.824 38.2837H6.9842C6.56148 38.2837 6.21875 38.6264 6.21875 39.0491C6.21875 39.4719 6.56148 39.8146 6.9842 39.8146H23.824C24.2467 39.8146 24.5895 39.4719 24.5895 39.0491C24.5895 38.6264 24.2468 38.2837 23.824 38.2837Z" fill="white"/>
<path d="M36.6013 9.52186C36.539 9.43355 27.3252 0.218912 27.2347 0.154328C26.9345 -0.0599015 28.306 0.0113807 3.82723 0.0113807C1.7169 0.0113807 0 1.72828 0 3.83861V45.1727C0 47.2831 1.7169 49 3.82723 49H32.9142C35.0245 49 36.7414 47.2831 36.7414 45.1727C36.7414 7.51448 36.8178 9.82948 36.6013 9.52186ZM34.1281 9.19674H27.5561V2.62471L34.1281 9.19674ZM32.9142 47.4691H3.82723C2.56099 47.4691 1.53089 46.439 1.53089 45.1727V3.83861C1.53089 2.57237 2.56099 1.54227 3.82723 1.54227H26.0252V9.96219C26.0252 10.3849 26.3679 10.7276 26.7906 10.7276H35.2105V45.1727C35.2105 46.439 34.1804 47.4691 32.9142 47.4691Z" fill="white"/>
</svg>
