<svg width="40" height="44" viewBox="0 0 40 44" fill="none" xmlns="http://www.w3.org/2000/svg">
<path d="M38.1816 25.8184C38.6637 25.8184 39.1259 26.0097 39.4668 26.3506C39.8077 26.6915 39.9999 27.1537 40 27.6357V35.2959C39.9976 37.6035 39.08 39.8165 37.4482 41.4482C35.8165 43.0799 33.6035 43.9976 31.2959 44H8.70312C6.39578 43.9975 4.18335 43.0797 2.55176 41.4482C0.920042 39.8165 0.0024065 37.6035 0 35.2959V27.6357C0.000100725 27.1538 0.19147 26.6915 0.532227 26.3506C0.8732 26.0096 1.33615 25.8184 1.81836 25.8184C2.30045 25.8184 2.7626 26.0097 3.10352 26.3506C3.4444 26.6915 3.63662 27.1537 3.63672 27.6357V35.2959C3.63816 36.6394 4.17209 37.928 5.12207 38.8779C6.07193 39.8277 7.3599 40.3617 8.70312 40.3633H31.2959C32.6394 40.3618 33.928 39.8279 34.8779 38.8779C35.8279 37.928 36.3618 36.6394 36.3633 35.2959V27.6357C36.3634 27.1538 36.5548 26.6914 36.8955 26.3506C37.2365 26.0096 37.6994 25.8184 38.1816 25.8184ZM20 0C20.4822 0 20.9452 0.19223 21.2861 0.533203C21.6269 0.874139 21.8184 1.33633 21.8184 1.81836V24.7021L29.624 16.8965C29.9668 16.5654 30.4258 16.3817 30.9023 16.3857C31.3791 16.3899 31.8357 16.5818 32.1729 16.9189C32.5098 17.256 32.7009 17.7119 32.7051 18.1885C32.7092 18.6652 32.5255 19.1249 32.1943 19.4678L21.2861 30.376C20.9452 30.7168 20.4821 30.9092 20 30.9092C19.518 30.9091 19.0557 30.7168 18.7148 30.376L7.80566 19.4678C7.47448 19.1249 7.29177 18.6652 7.2959 18.1885C7.30004 17.7118 7.49107 17.256 7.82812 16.9189C8.16521 16.5819 8.62097 16.3899 9.09766 16.3857C9.57437 16.3816 10.034 16.5653 10.377 16.8965L18.1816 24.7021V1.81836C18.1816 1.33621 18.3739 0.874163 18.7148 0.533203C19.0558 0.192285 19.5179 6.16369e-05 20 0Z" fill="white"/>
</svg>
