<svg width="40" height="42" viewBox="0 0 40 42" fill="none" xmlns="http://www.w3.org/2000/svg">
<path d="M38.1816 23.8184C38.6637 23.8184 39.1259 24.0097 39.4668 24.3506C39.8077 24.6915 39.9999 25.1537 40 25.6357V33.2959C39.9976 35.6035 39.08 37.8165 37.4482 39.4482C35.8165 41.0799 33.6035 41.9976 31.2959 42H8.70312C6.39578 41.9975 4.18335 41.0797 2.55176 39.4482C0.920042 37.8165 0.0024065 35.6035 0 33.2959V25.6357C0.000100725 25.1538 0.19147 24.6915 0.532227 24.3506C0.8732 24.0096 1.33615 23.8184 1.81836 23.8184C2.30045 23.8184 2.7626 24.0097 3.10352 24.3506C3.4444 24.6915 3.63662 25.1537 3.63672 25.6357V33.2959C3.63816 34.6394 4.17209 35.928 5.12207 36.8779C6.07193 37.8277 7.3599 38.3617 8.70312 38.3633H31.2959C32.6394 38.3618 33.928 37.8279 34.8779 36.8779C35.8279 35.928 36.3618 34.6394 36.3633 33.2959V25.6357C36.3634 25.1538 36.5548 24.6914 36.8955 24.3506C37.2365 24.0096 37.6994 23.8184 38.1816 23.8184ZM20 0C20.4821 6.16369e-05 20.9442 0.192285 21.2852 0.533203C21.6261 0.874163 21.8184 1.33621 21.8184 1.81836V24.7021L29.623 16.8965C29.966 16.5653 30.4256 16.3816 30.9023 16.3857C31.379 16.3899 31.8348 16.5819 32.1719 16.9189C32.5089 17.256 32.7 17.7118 32.7041 18.1885C32.7082 18.6652 32.5255 19.1249 32.1943 19.4678L21.2852 30.376C20.9443 30.7168 20.482 30.9091 20 30.9092C19.5179 30.9092 19.0548 30.7168 18.7139 30.376L7.80566 19.4678C7.47448 19.1249 7.29079 18.6652 7.29492 18.1885C7.29906 17.7119 7.49025 17.256 7.82715 16.9189C8.16425 16.5818 8.62094 16.3899 9.09766 16.3857C9.5742 16.3817 10.0332 16.5654 10.376 16.8965L18.1816 24.7021V1.81836C18.1816 1.33633 18.3731 0.874139 18.7139 0.533203C19.0548 0.19223 19.5178 0 20 0Z" fill="#1B2556"/>
</svg>
