<svg width="43" height="43" viewBox="0 0 43 43" fill="none" xmlns="http://www.w3.org/2000/svg">
<path fill-rule="evenodd" clip-rule="evenodd" d="M16.3089 0.25C7.44687 0.25 0.25 7.44687 0.25 16.3089C0.25 25.171 7.44687 32.3679 16.3089 32.3679C25.171 32.3679 32.3679 25.171 32.3679 16.3089C32.3679 7.44687 25.171 0.25 16.3089 0.25ZM16.3089 2.7206C23.8097 2.7206 29.8972 8.80817 29.8972 16.3089C29.8972 23.8097 23.8097 29.8972 16.3089 29.8972C8.80817 29.8972 2.7206 23.8097 2.7206 16.3089C2.7206 8.80817 8.80817 2.7206 16.3089 2.7206Z" fill="white" stroke="white" stroke-width="0.5"/>
<path fill-rule="evenodd" clip-rule="evenodd" d="M41.8909 40.1398L27.6627 25.9141C27.181 25.4323 26.3978 25.4323 25.916 25.9141C25.4342 26.3958 25.4342 27.179 25.916 27.6608L40.1418 41.889C40.626 42.3708 41.4067 42.3708 41.8909 41.889C42.3727 41.4047 42.3727 40.624 41.8909 40.1398Z" fill="white" stroke="white" stroke-width="0.5"/>
</svg>
