<svg width="21" height="22" viewBox="0 0 21 22" fill="none" xmlns="http://www.w3.org/2000/svg">
<path fill-rule="evenodd" clip-rule="evenodd" d="M10.0608 0C15.6081 0 20.1216 4.71868 20.1216 10.5181C20.1216 16.3176 15.6081 21.0362 10.0608 21.0362C4.51352 21.0362 0 16.3176 0 10.5181C0 4.71868 4.51352 0 10.0608 0ZM16.3393 15.7773C14.8629 17.6998 12.5969 18.9326 10.0608 18.9326C7.52462 18.9326 5.25853 17.6996 3.78216 15.777C5.25854 13.8545 7.52457 12.6217 10.0607 12.6217C12.5968 12.6217 14.8629 13.8547 16.3393 15.7773ZM10.0608 10.5181C11.7278 10.5181 13.079 9.10536 13.079 7.36267C13.079 5.61998 11.7278 4.20724 10.0608 4.20724C8.39387 4.20724 7.04255 5.61998 7.04255 7.36267C7.04255 9.10536 8.39387 10.5181 10.0608 10.5181Z" fill="#1B2556"/>
</svg>
