<svg width="27" height="27" viewBox="0 0 27 27" fill="none" xmlns="http://www.w3.org/2000/svg">
<path d="M23.0502 3.94985C17.7828 -1.31662 9.21637 -1.31662 3.9489 3.94985C-1.3163 9.21633 -1.3163 17.7851 3.9489 23.0516C6.58263 25.6843 10.0414 27 13.5001 27C16.9589 27 20.4165 25.6842 23.0502 23.0516C28.3166 17.7852 28.3166 9.21633 23.0502 3.94985ZM19.0703 17.4801C19.5104 17.9202 19.5104 18.6315 19.0703 19.0716C18.8509 19.2911 18.5627 19.4014 18.2746 19.4014C17.9865 19.4014 17.6983 19.2911 17.4788 19.0716L13.5001 15.0916L9.52248 19.0705C9.30189 19.2899 9.01372 19.4003 8.72671 19.4003C8.43859 19.4003 8.15042 19.2899 7.93095 19.0705C7.49088 18.6304 7.49088 17.9179 7.93095 17.4789L11.9086 13.5001L7.92984 9.52133C7.48977 9.08126 7.48977 8.36879 7.92984 7.92982C8.36879 7.48975 9.08125 7.48975 9.52132 7.92982L13.5 11.9086L17.4788 7.92982C17.9188 7.48975 18.6302 7.48975 19.0702 7.92982C19.5103 8.36879 19.5103 9.08126 19.0702 9.52133L15.0915 13.5001L19.0703 17.4801Z" fill="#BEBEBE"/>
</svg>
