<svg width="12" height="12" viewBox="0 0 12 12" fill="none" xmlns="http://www.w3.org/2000/svg">
<path d="M11.4708 9.88034C11.9109 10.3204 11.9109 11.0318 11.4708 11.4718C11.2513 11.6913 10.9632 11.8017 10.675 11.8017C10.3869 11.8017 10.0987 11.6913 9.87927 11.4718L5.90055 7.49188L1.92293 11.4707C1.70235 11.6902 1.41418 11.8005 1.12717 11.8005C0.839048 11.8005 0.550879 11.6902 0.331401 11.4707C-0.108663 11.0306 -0.108663 10.3181 0.331401 9.87918L4.30902 5.90037L0.330292 1.92157C-0.109772 1.48149 -0.109772 0.76902 0.330292 0.330055C0.769248 -0.110018 1.48171 -0.110018 1.92177 0.330055L5.90049 4.30886L9.87922 0.330055C10.3193 -0.110018 11.0306 -0.110018 11.4707 0.330055C11.9108 0.76902 11.9108 1.48149 11.4707 1.92157L7.49197 5.90037L11.4708 9.88034Z" fill="#BEBEBE"/>
</svg>
