<svg width="20" height="27" viewBox="0 0 20 27" fill="none" xmlns="http://www.w3.org/2000/svg">
<path fill-rule="evenodd" clip-rule="evenodd" d="M14.6533 2.78456V3.37989C14.6533 3.89437 14.2356 4.31211 13.7207 4.31211H6.18014C5.66527 4.31211 5.24753 3.89437 5.24753 3.37989V2.78456H1.15832C0.518802 2.78456 0 3.30359 0 3.94288V25.7798C0 26.4191 0.518802 26.9382 1.15832 26.9382H18.7426C19.3821 26.9382 19.9009 26.4191 19.9009 25.7798V3.94288C19.9009 3.30359 19.3821 2.78456 18.7426 2.78456H14.6533ZM1.97751 25.1695H17.9234C18.2861 25.1649 18.2974 24.6149 17.9234 24.608H1.97751C1.61474 24.6127 1.60351 25.1627 1.97751 25.1695ZM1.97751 23.4851H17.9234C18.2861 23.4804 18.2974 22.9305 17.9234 22.9236H1.97751C1.61474 22.9283 1.60351 23.4782 1.97751 23.4851ZM1.97751 21.8007H17.9234C18.2861 21.796 18.2974 21.246 17.9234 21.2392H1.97751C1.61474 21.2439 1.60351 21.7938 1.97751 21.8007ZM1.97751 19.8355H17.9234C18.2861 19.8309 18.2974 19.2809 17.9234 19.274H1.97751C1.61474 19.2787 1.60351 19.8287 1.97751 19.8355ZM1.97751 18.1511H17.9234C18.2861 18.1464 18.2974 17.5965 17.9234 17.5896H1.97751C1.61474 17.5943 1.60351 18.1442 1.97751 18.1511ZM3.32505 16.4667H17.9234C18.2868 16.4618 18.2968 15.912 17.9234 15.9052H3.32505C2.9616 15.91 2.95161 16.4599 3.32505 16.4667ZM1.97751 14.7822H9.69778C9.85274 14.7822 9.97851 14.6565 9.97851 14.5015C9.97851 14.3465 9.85274 14.2208 9.69778 14.2208H1.97751C1.61109 14.2264 1.60643 14.7757 1.97751 14.7822ZM18.5601 11.3543C18.5601 10.5188 17.8818 9.84049 17.0463 9.84049H12.8325C11.9964 9.84049 11.3182 10.5188 11.3182 11.3543V14.2734C11.3182 14.4285 11.444 14.5542 11.5989 14.5542H18.2793C18.4349 14.5542 18.5601 14.4285 18.5601 14.2734V11.3543ZM12.8241 13.9927H11.8797V11.3543C11.8797 10.8287 12.3064 10.402 12.8325 10.402H17.0463C17.5719 10.402 17.9986 10.8287 17.9986 11.3543V13.9927H17.0542V12.9778C17.0542 12.8229 16.9284 12.697 16.7735 12.697C16.6185 12.697 16.4927 12.8229 16.4927 12.9778V13.9927H13.3855V12.9778C13.3855 12.8229 13.2598 12.697 13.1048 12.697C12.9498 12.697 12.8241 12.8229 12.8241 12.9778V13.9927ZM1.97751 13.0978H9.69778C9.85274 13.0978 9.97851 12.9721 9.97851 12.8171C9.97851 12.6621 9.85274 12.5364 9.69778 12.5364H1.97751C1.61109 12.542 1.60643 13.0913 1.97751 13.0978ZM1.97751 11.4134H9.69778C9.85274 11.4134 9.97851 11.2876 9.97851 11.1327C9.97851 10.9777 9.85274 10.8519 9.69778 10.8519H1.97751C1.61109 10.8575 1.60643 11.4068 1.97751 11.4134ZM1.97751 9.72977H9.69778C9.85274 9.72977 9.97851 9.60394 9.97851 9.44903C9.97851 9.29406 9.85274 9.16829 9.69778 9.16829H1.97751C1.61109 9.17391 1.60643 9.72314 1.97751 9.72977ZM14.9391 4.87066C11.7721 4.95213 11.7728 9.59339 14.9392 9.67435C18.1068 9.59271 18.1062 4.95185 14.9391 4.87066ZM14.9391 5.43213C17.3664 5.49474 17.3658 9.05066 14.9391 9.11288C12.5126 9.0505 12.5131 5.49418 14.9391 5.43213ZM1.97751 8.10071H9.69778C9.85274 8.10071 9.97851 7.97494 9.97851 7.81997C9.97851 7.665 9.85274 7.53923 9.69778 7.53923H1.97751C1.61109 7.54485 1.60643 8.09414 1.97751 8.10071ZM3.32505 6.41629H9.69778C10.0647 6.4105 10.0684 5.86138 9.69778 5.85481H3.32505C2.95812 5.86059 2.95442 6.40972 3.32505 6.41629ZM14.3165 2.18923C14.3165 1.86065 14.0498 1.59384 13.7207 1.59384H6.18014C5.85168 1.59384 5.58442 1.86065 5.58442 2.18923V3.37989C5.58442 3.70846 5.85168 3.97522 6.18014 3.97522H13.7207C14.0498 3.97522 14.3165 3.70846 14.3165 3.37989V2.18923ZM8.12509 1.25696C8.72732 -0.419435 11.1741 -0.418537 11.7758 1.25696H8.12509Z" fill="white"/>
</svg>
