<svg width="20" height="24" viewBox="0 0 20 24" fill="none" xmlns="http://www.w3.org/2000/svg">
<path d="M3.68535 11.9774C3.68535 12.4863 3.27297 12.8987 2.76401 12.8987H0.921337C0.41238 12.8987 0 12.4863 0 11.9774C0 11.4684 0.41238 11.056 0.921337 11.056H2.76401C3.27302 11.056 3.68535 11.4684 3.68535 11.9774ZM3.68535 6.08082C3.68535 5.57187 3.27297 5.15949 2.76401 5.15949H0.921337C0.41238 5.15949 0 5.57187 0 6.08082C0 6.58978 0.41238 7.00216 0.921337 7.00216H2.76401C3.27302 7.00216 3.68535 6.58978 3.68535 6.08082ZM3.68535 17.874C3.68535 17.3649 3.27297 16.9527 2.76401 16.9527H0.921337C0.41238 16.9527 0 17.3649 0 17.874C0 18.3829 0.41238 18.7953 0.921337 18.7953H2.76401C3.27302 18.7953 3.68535 18.3829 3.68535 17.874ZM19.9009 2.94828V21.0065C19.9009 22.6347 18.5808 23.9548 16.9527 23.9548H4.05399C2.42583 23.9548 1.10571 22.6347 1.10571 21.0065V19.5323H2.76412C3.67846 19.5323 4.42253 18.7882 4.42253 17.8739C4.42253 16.9596 3.67846 16.2154 2.76412 16.2154H1.1056V13.6357H2.76401C3.67836 13.6357 4.42242 12.8916 4.42242 11.9773C4.42242 11.0629 3.67836 10.3189 2.76401 10.3189H1.1056V7.73912H2.76401C3.67836 7.73912 4.42242 6.99506 4.42242 6.08072C4.42242 5.16637 3.67836 4.42231 2.76401 4.42231H1.1056V2.94828C1.1056 1.32011 2.42572 0 4.05388 0H16.9526C18.5808 0 19.9009 1.32006 19.9009 2.94828ZM8.21318 8.73942C8.21318 10.3094 9.48608 11.5823 11.056 11.5823C12.6261 11.5823 13.8989 10.3094 13.8989 8.73942C13.8989 7.16947 12.6261 5.8965 11.056 5.8965C9.48614 5.89656 8.21318 7.16947 8.21318 8.73942ZM15.4785 15.6889C15.4785 13.9446 14.064 12.5301 12.3197 12.5301H9.79273C8.04809 12.5301 6.63363 13.9447 6.63363 15.6889V16.9526H15.4785V15.6889Z" fill="#1B2556"/>
</svg>
