<svg width="55" height="55" viewBox="0 0 55 55" fill="none" xmlns="http://www.w3.org/2000/svg">
<path d="M27.2177 0.0544395C12.1935 0.0544395 0 12.248 0 27.2721C0 42.2963 12.1935 54.4898 27.2177 54.4898C42.2419 54.4898 54.4354 42.2963 54.4354 27.2721C54.4354 12.1935 42.2419 0.0544395 27.2177 0.0544395Z" fill="#273B91"/>
<path d="M27.2177 54.4354C42.2419 54.4354 54.4354 42.2419 54.4354 27.2177C54.4354 12.1935 42.2419 0 27.2177 0C12.1935 0 0 12.1935 0 27.2177C0 42.2419 12.1935 54.4354 27.2177 54.4354ZM27.2177 2.06855C41.0987 2.06855 52.4213 13.3367 52.4213 27.2721C52.4213 41.1532 41.1532 52.4757 27.2177 52.4757C13.3367 52.4757 2.01412 41.2076 2.01412 27.2721C2.01412 13.3367 13.2822 2.06855 27.2177 2.06855Z" fill="#63A0D6"/>
<path d="M43.5481 32.2802C38.2678 28.3064 32.9876 36.4173 27.7618 34.1854C27.3263 33.8588 26.9453 33.6411 26.5098 33.4778C26.4554 33.4778 26.4009 33.4234 26.4009 33.4234C21.1751 31.4092 16.0038 39.3024 10.778 35.383C10.3969 35.1108 10.0703 35.4375 10.0703 36.254C10.0703 37.0705 10.3969 38.0504 10.778 38.3225C16.0582 42.2963 21.3384 34.1855 26.5642 36.4173C26.9997 36.7439 27.3808 36.9616 27.8162 37.125C27.8707 37.125 27.9251 37.1794 27.9251 37.1794C33.1509 39.1935 38.3223 31.3004 43.5481 35.2197C43.9291 35.4919 44.2557 35.1653 44.2557 34.3487C44.2557 33.5322 43.9291 32.6068 43.5481 32.2802Z" fill="white"/>
<path d="M43.5481 37.5604C38.2678 33.5866 32.9876 41.6975 27.7618 39.4656C27.3263 39.139 26.9453 38.9213 26.5098 38.758C26.4554 38.758 26.4009 38.7035 26.4009 38.7035C21.1751 36.6894 16.0038 44.5826 10.778 40.6632C10.3969 40.391 10.0703 40.7177 10.0703 41.5342C10.0703 42.3507 10.3969 43.3305 10.778 43.6027C16.0582 47.5765 21.3384 39.4656 26.5642 41.6975C26.9997 42.0241 27.3808 42.2418 27.8162 42.4052C27.8707 42.4052 27.9251 42.4596 27.9251 42.4596C33.1509 44.4737 38.3223 36.5806 43.5481 40.4999C43.9291 40.7721 44.2557 40.4455 44.2557 39.6289C44.2557 38.8668 43.9291 37.887 43.5481 37.5604Z" fill="white"/>
<path d="M13.4993 35.2741H14.5881C15.9489 35.1108 17.3098 34.4576 18.7796 33.6955C20.6304 32.8246 22.5356 31.8991 24.5497 31.8991C25.3118 31.8991 26.0195 32.008 26.7271 32.2802C26.836 32.3346 26.8904 32.3346 26.9993 32.3891C27.4892 32.6068 27.9247 32.8246 28.3602 33.1512C28.7957 33.3145 29.2856 33.4233 29.7755 33.4233C31.2997 33.4233 32.8783 32.6612 34.6203 31.8447C36.3078 31.0282 37.9953 30.2116 39.7916 30.0483V27.8709L43.9287 27.5987L36.5255 21.2298L36.1989 14.8064H32.4973L32.4428 17.7459L26.5638 11.9758L8.92676 27.5987H13.4449V35.2741H13.4993Z" fill="white"/>
<path d="M38.7576 15.0242C38.9209 15.2419 39.1386 15.4597 39.4108 15.6774L39.3019 17.4193L40.445 16.1129C40.6084 16.1129 40.7172 16.1673 40.8805 16.1673C41.0438 16.1673 41.2071 16.1673 41.316 16.1129L42.4592 17.4193L42.3503 15.6774C42.568 15.5141 42.7858 15.2964 43.0035 15.0242L44.7455 15.1331L43.439 13.9899C43.439 13.8266 43.4934 13.7178 43.4934 13.5544C43.4934 13.3911 43.4934 13.2278 43.439 13.119L44.7455 11.9758L43.0035 12.0847C42.8402 11.8669 42.6225 11.6492 42.3503 11.4315L42.4592 9.68953L41.316 10.996C41.1527 10.996 41.0438 10.9415 40.8805 10.9415C40.7172 10.9415 40.5539 10.9415 40.445 10.996L39.3019 9.68953L39.4108 11.4315C39.193 11.5948 38.9753 11.8125 38.7576 12.0847L37.0156 11.9758L38.3221 13.119C38.3221 13.2823 38.2676 13.3911 38.2676 13.5544C38.2676 13.7178 38.2676 13.8811 38.3221 13.9899L37.0156 15.1331L38.7576 15.0242Z" fill="white"/>
<path d="M12.6293 19.379C13.5547 19.379 14.9156 18.2903 14.2624 16.7661C13.5547 15.0786 12.6293 13.5 12.6293 13.5C12.6293 13.5 11.595 15.0242 10.9418 16.7661C10.3975 18.1814 11.7039 19.379 12.6293 19.379Z" fill="white"/>
<path d="M15.7324 14.4254C16.3856 14.4254 17.4199 13.6089 16.93 12.4657C16.3856 11.2137 15.7324 10.0705 15.7324 10.0705C15.7324 10.0705 14.9703 11.2137 14.4804 12.4657C14.0994 13.5544 15.0792 14.4254 15.7324 14.4254Z" fill="white"/>
<path d="M23.7334 48.3386H22.3725C22.4813 48.012 22.7535 47.7398 23.1346 47.4676C23.4068 47.2499 23.7878 47.0866 24.1144 46.76C24.3321 46.5422 24.441 46.2701 24.441 45.889C24.441 45.1813 23.8967 44.7459 23.0257 44.7459C22.2636 44.7459 21.7737 45.1813 21.7737 45.7257C21.7737 46.0523 21.9914 46.3245 22.318 46.3245C22.5902 46.3245 22.8079 46.1067 22.8079 45.8346C22.8079 45.6713 22.6991 45.5624 22.5902 45.508L22.4269 45.3991C22.3725 45.3991 22.318 45.3447 22.318 45.2902C22.318 45.1813 22.4813 45.018 22.8079 45.018C23.2434 45.018 23.4068 45.2902 23.4068 45.7801C23.4068 46.1067 23.2979 46.4334 23.1346 46.7055C22.8624 47.141 22.4813 47.4676 22.2092 47.8487C21.8826 48.2842 21.7192 48.6108 21.7192 49.1551H24.2777L24.441 47.9031H24.1688C24.1688 48.2297 24.06 48.3386 23.7334 48.3386Z" fill="white"/>
<path d="M26.564 44.6915C26.183 44.6915 25.8019 44.8548 25.5842 45.2358C25.2576 45.6713 25.0942 46.2701 25.0942 46.9778C25.0942 47.6854 25.2576 48.2842 25.5842 48.7197C25.8563 49.0463 26.183 49.264 26.564 49.264C27.3805 49.264 28.0338 48.3931 28.0338 46.9778C28.0338 46.2701 27.8704 45.6713 27.5438 45.2358C27.3261 44.9092 26.945 44.6915 26.564 44.6915ZM26.9995 46.9778V47.2499C26.9995 48.3931 26.9995 48.9374 26.564 48.9374C26.1285 48.9374 26.1285 48.4475 26.1285 47.2499V46.9778V46.6511C26.1285 45.508 26.1285 44.9636 26.564 44.9636C26.9995 44.9636 26.9995 45.4536 26.9995 46.6511V46.9778Z" fill="white"/>
<path d="M29.8843 44.6915C29.5032 44.6915 29.1222 44.8548 28.9044 45.2358C28.5778 45.6713 28.4146 46.2701 28.4146 46.9778C28.4146 47.6854 28.5778 48.2842 28.9044 48.7197C29.1766 49.0463 29.5032 49.264 29.8843 49.264C30.7008 49.264 31.354 48.3931 31.354 46.9778C31.354 46.2701 31.1908 45.6713 30.8641 45.2358C30.6464 44.9092 30.3198 44.6915 29.8843 44.6915ZM30.3742 46.9778V47.2499C30.3742 48.3931 30.3742 48.9374 29.9387 48.9374C29.5033 48.9374 29.5033 48.4475 29.5033 47.2499V46.9778V46.6511C29.5033 45.508 29.5033 44.9636 29.9387 44.9636C30.3742 44.9636 30.3742 45.4536 30.3742 46.6511V46.9778Z" fill="white"/>
<path d="M34.1303 44.6915H33.4771L31.7896 47.5221V47.9576H33.2049V48.2842C33.2049 48.7197 33.1504 48.7741 32.6061 48.8286V49.1007H34.6747V48.8286C34.1847 48.8286 34.1303 48.7197 34.1303 48.2842V48.012H34.6747V47.631H34.1303V44.6915ZM33.2049 47.5765H32.0617L33.3682 45.3991C33.2593 46.4334 33.2049 47.1411 33.2049 47.5765Z" fill="white"/>
</svg>
