<svg width="19" height="14" viewBox="0 0 19 14" fill="none" xmlns="http://www.w3.org/2000/svg">
<path d="M17.4166 0H1.58332C0.708879 0 0 0.708879 0 1.58332V11.7166C0 12.591 0.708879 13.2999 1.58332 13.2999H17.4166C18.291 13.2999 18.9999 12.591 18.9999 11.7166V1.58332C18.9999 0.708879 18.291 0 17.4166 0Z" fill="#E0E0E0"/>
<path d="M9.5 3.79997H18.9999V5.69996H9.5V3.79997Z" fill="#B73831"/>
<path d="M11.4002 4.74997H19.0001V3.79997H10.4502C10.4502 4.05193 10.5503 4.29356 10.7284 4.47172C10.9066 4.64988 11.1482 4.74997 11.4002 4.74997Z" fill="#D4483F"/>
<path d="M11.4002 2.84999H19.0001V1.89999H10.4502C10.4502 2.15195 10.5503 2.39358 10.7284 2.57174C10.9066 2.7499 11.1482 2.84999 11.4002 2.84999Z" fill="#F5F5F5"/>
<path d="M11.4002 6.64996H19.0001V5.69997H10.4502C10.4502 5.95192 10.5503 6.19356 10.7284 6.37171C10.9066 6.54987 11.1482 6.64996 11.4002 6.64996Z" fill="#F5F5F5"/>
<path d="M0 7.59996H18.9999V9.49995H0V7.59996Z" fill="#B73831"/>
<path d="M0 11.7166C0 12.1365 0.166814 12.5392 0.463745 12.8362C0.760676 13.1331 1.1634 13.2999 1.58332 13.2999H17.4166C17.8365 13.2999 18.2392 13.1331 18.5361 12.8362C18.8331 12.5392 18.9999 12.1365 18.9999 11.7166V11.3999H0V11.7166Z" fill="#B73831"/>
<path d="M17.4166 0H9.5V1.89999H18.9999V1.58332C18.9999 1.1634 18.8331 0.760676 18.5362 0.463745C18.2393 0.166814 17.8365 0 17.4166 0Z" fill="#B73831"/>
<path d="M9.49995 7.59996V0H1.58332C1.1634 0 0.760676 0.166814 0.463745 0.463745C0.166814 0.760676 0 1.1634 0 1.58332V7.59996H9.49995Z" fill="#2B66BA"/>
<path d="M0.950195 0.133672V5.3833C0.950195 5.71924 1.08365 6.04142 1.32119 6.27897C1.55874 6.51651 1.88092 6.64996 2.21685 6.64996H9.50015V0H1.58353C1.36544 0.000218709 1.14977 0.0457376 0.950195 0.133672Z" fill="#3477CC"/>
<path d="M1.89845 1.26666L2.19235 1.89212L2.84963 1.99238L2.37404 2.47921L2.4863 3.16665L1.89845 2.84211L1.31056 3.16665L1.42286 2.47921L0.947266 1.99238L1.6045 1.89212L1.89845 1.26666Z" fill="#E0E0E0"/>
<path d="M2.19311 1.89207L1.90039 1.26915V2.84274L2.48705 3.16665L2.37479 2.47921L2.85039 1.99237L2.19311 1.89207Z" fill="white"/>
<path d="M4.74903 1.26666L5.04294 1.89212L5.70022 1.99238L5.22462 2.47921L5.33688 3.16665L4.74903 2.84211L4.16115 3.16665L4.27344 2.47921L3.79785 1.99238L4.45509 1.89212L4.74903 1.26666Z" fill="#E0E0E0"/>
<path d="M5.04272 1.89207L4.75 1.26915V2.84274L5.33666 3.16665L5.2244 2.47921L5.69999 1.99237L5.04272 1.89207Z" fill="white"/>
<path d="M7.59864 1.26666L7.89255 1.89212L8.54983 1.99238L8.07423 2.47921L8.18649 3.16665L7.59864 2.84211L7.01076 3.16665L7.12305 2.47921L6.64746 1.99238L7.3047 1.89212L7.59864 1.26666Z" fill="#E0E0E0"/>
<path d="M7.89233 1.89207L7.59961 1.26915V2.84274L8.18627 3.16665L8.07401 2.47921L8.5496 1.99237L7.89233 1.89207Z" fill="white"/>
<path d="M1.89845 4.4333L2.19235 5.05876L2.84963 5.15902L2.37404 5.64585L2.4863 6.33329L1.89845 6.00875L1.31056 6.33329L1.42286 5.64585L0.947266 5.15902L1.6045 5.05876L1.89845 4.4333Z" fill="#E0E0E0"/>
<path d="M2.19311 5.05873L1.90039 4.43581V6.00939L2.48705 6.3333L2.37479 5.64586L2.85039 5.15903L2.19311 5.05873Z" fill="white"/>
<path d="M4.74903 4.4333L5.04294 5.05876L5.70022 5.15902L5.22462 5.64585L5.33688 6.33329L4.74903 6.00875L4.16115 6.33329L4.27344 5.64585L3.79785 5.15902L4.45509 5.05876L4.74903 4.4333Z" fill="#E0E0E0"/>
<path d="M5.04272 5.05873L4.75 4.43581V6.00939L5.33666 6.3333L5.2244 5.64586L5.69999 5.15903L5.04272 5.05873Z" fill="white"/>
<path d="M7.59864 4.4333L7.89255 5.05876L8.54983 5.15902L8.07423 5.64585L8.18649 6.33329L7.59864 6.00875L7.01076 6.33329L7.12305 5.64585L6.64746 5.15902L7.3047 5.05876L7.59864 4.4333Z" fill="#E0E0E0"/>
<path d="M7.89233 5.05873L7.59961 4.43581V6.00939L8.18627 6.3333L8.07401 5.64586L8.5496 5.15903L7.89233 5.05873Z" fill="white"/>
<path d="M11.4002 0.949995H18.8665C18.7434 0.667795 18.5408 0.427611 18.2833 0.258873C18.0258 0.0901339 17.7247 0.000168597 17.4168 0H10.4502C10.4502 0.124758 10.4748 0.248295 10.5225 0.363556C10.5703 0.478818 10.6402 0.583546 10.7285 0.671762C10.8167 0.759977 10.9214 0.829953 11.0367 0.877692C11.1519 0.925431 11.2755 0.95 11.4002 0.949995Z" fill="#D4483F"/>
<path d="M1.96218 8.54497H19.0001V7.59996H0.950195C0.950195 8.12463 1.37548 8.54995 1.96218 8.54497Z" fill="#D4483F"/>
<path d="M0.950195 11.3999C0.950195 11.9246 1.37552 12.3499 1.96226 12.3449H18.8691C18.9554 12.1467 19 11.9328 19.0001 11.7166V11.3999H0.950195Z" fill="#D4483F"/>
<path d="M1.96218 10.445H19.0001V9.49995H0.950195C0.950195 10.0246 1.37548 10.4499 1.96218 10.445Z" fill="#F5F5F5"/>
</svg>
