<svg width="20" height="20" viewBox="0 0 20 20" fill="none" xmlns="http://www.w3.org/2000/svg">
<path d="M4.1441 0H15.8559C18.1517 0 20 1.84827 20 4.1441V15.8559C20 18.1517 18.1517 20 15.8559 20H4.1441C1.84827 20 0 18.1517 0 15.8559V4.1441C0 1.84827 1.84827 0 4.1441 0Z" fill="#1B2556"/>
<path d="M15.4786 12.6751C15.3718 12.5435 15.1923 12.4949 15.0344 12.5515C14.5917 12.7102 14.1116 12.7916 13.6059 12.7916C11.1868 12.7916 9.21914 10.8231 9.21914 8.40482C9.21914 6.94922 9.93777 5.59411 11.1413 4.77897C11.2777 4.68645 11.3431 4.51975 11.3064 4.35944C11.2698 4.19912 11.1381 4.07789 10.9746 4.05396C10.788 4.02684 10.6022 4.01807 10.4155 4.01807C7.11669 4.01807 4.43359 6.70116 4.43359 10C4.43359 13.2988 7.11669 15.9819 10.4155 15.9819C12.5092 15.9819 14.4139 14.918 15.509 13.1361C15.5975 12.9918 15.5847 12.8075 15.4786 12.6751Z" fill="white"/>
</svg>
