<svg width="323" height="59" viewBox="0 0 323 59" fill="none" xmlns="http://www.w3.org/2000/svg">
<path d="M38.3185 0.0581512C22.2703 0.0581512 9.24561 13.0828 9.24561 29.1311C9.24561 45.1793 22.2703 58.204 38.3185 58.204C54.3668 58.204 67.3914 45.1793 67.3914 29.1311C67.3914 13.0247 54.3668 0.0581512 38.3185 0.0581512Z" fill="#273B91"/>
<path d="M314.744 31.2825H75.5898V47.9122H314.744V31.2825Z" fill="white"/>
<path d="M108.326 42.7953C108.733 42.2139 108.907 41.1091 108.907 39.5973C108.907 38.0855 108.733 36.9807 108.326 36.3993C107.918 35.8178 107.221 35.5271 106.232 35.5271C105.709 35.5271 105.418 35.5853 105.244 35.7015C105.069 35.8178 105.011 36.1667 105.011 36.5737V42.5627C105.011 43.0279 105.069 43.3768 105.244 43.4931C105.418 43.6094 105.709 43.6675 106.232 43.6675C107.279 43.7257 107.977 43.4349 108.326 42.7953Z" fill="#273B91"/>
<path d="M132.863 43.9582C133.561 43.9582 134.084 43.6675 134.375 43.0279C134.666 42.3883 134.782 41.2835 134.782 39.6554C134.782 38.0274 134.608 36.9226 134.317 36.283C134.026 35.6434 133.503 35.3527 132.805 35.3527C132.107 35.3527 131.584 35.6434 131.293 36.283C131.002 36.9226 130.886 38.0274 130.886 39.6554C130.886 41.2835 131.061 42.4464 131.293 43.0279C131.7 43.6094 132.165 43.9582 132.863 43.9582Z" fill="#273B91"/>
<path d="M121.177 38.6088C121.525 38.3181 121.7 37.911 121.7 37.2714C121.7 36.69 121.525 36.2248 121.235 35.8759C120.944 35.5852 120.479 35.4108 119.897 35.4108C119.374 35.4108 119.025 35.4689 118.851 35.6433C118.676 35.8178 118.618 36.1085 118.618 36.5737V39.0158H119.316C120.246 39.0158 120.828 38.8995 121.177 38.6088Z" fill="#273B91"/>
<path d="M218.396 43.9582C219.094 43.9582 219.617 43.6675 219.908 43.0279C220.198 42.3883 220.315 41.2835 220.315 39.6554C220.315 38.0274 220.14 36.9226 219.85 36.283C219.559 35.6434 219.036 35.3527 218.338 35.3527C217.64 35.3527 217.117 35.6434 216.826 36.283C216.535 36.9226 216.419 38.0274 216.419 39.6554C216.419 41.2835 216.593 42.4464 216.826 43.0279C217.175 43.6094 217.698 43.9582 218.396 43.9582Z" fill="#273B91"/>
<path d="M191.125 38.6088C191.474 38.3181 191.648 37.911 191.648 37.2714C191.648 36.69 191.474 36.2248 191.183 35.8759C190.892 35.5852 190.427 35.4108 189.846 35.4108C189.322 35.4108 188.973 35.4689 188.799 35.6433C188.625 35.8178 188.566 36.1085 188.566 36.5737V39.0158H189.264C190.195 39.0158 190.776 38.8995 191.125 38.6088Z" fill="#273B91"/>
<path d="M270.204 43.9582C270.902 43.9582 271.425 43.6675 271.716 43.0279C272.007 42.3883 272.123 41.2835 272.123 39.6554C272.123 38.0274 271.948 36.9226 271.658 36.283C271.367 35.6434 270.844 35.3527 270.146 35.3527C269.448 35.3527 268.925 35.6434 268.634 36.283C268.343 36.9226 268.227 38.0274 268.227 39.6554C268.227 41.2835 268.402 42.4464 268.634 43.0279C268.983 43.6094 269.506 43.9582 270.204 43.9582Z" fill="#273B91"/>
<path d="M0 47.9122H323V31.2825H0V47.9122ZM298.346 43.7257C298.869 43.6675 299.218 43.6094 299.393 43.4931C299.567 43.3768 299.625 43.0861 299.625 42.6209V36.5737C299.625 36.1086 299.567 35.8178 299.393 35.7015C299.218 35.5852 298.869 35.4689 298.346 35.4689V34.8294H302.533L304.626 41.2835L306.603 34.8294H310.789V35.4689C310.208 35.5271 309.859 35.5852 309.743 35.7015C309.626 35.8178 309.51 36.1086 309.51 36.5737V42.6209C309.51 43.0861 309.568 43.3186 309.743 43.4931C309.917 43.6094 310.266 43.7257 310.789 43.7257V44.3653H305.963V43.7257C306.487 43.6675 306.835 43.6094 307.01 43.4931C307.184 43.3768 307.242 43.0861 307.242 42.6209V35.4689H307.126L304.393 44.3653H303.405L300.498 35.4689H300.381V42.6209C300.381 43.0861 300.439 43.3768 300.614 43.4931C300.788 43.6094 301.137 43.7257 301.66 43.7257V44.3653H298.288L298.346 43.7257ZM290.496 43.7257C290.962 43.6675 291.252 43.6094 291.427 43.4931C291.543 43.3768 291.659 43.0861 291.659 42.679V36.6319C291.659 36.2248 291.601 35.9341 291.427 35.8178C291.311 35.7015 290.962 35.5852 290.496 35.5852V34.9456H295.09V35.5852C294.625 35.6434 294.334 35.7015 294.16 35.8178C294.043 35.9341 293.927 36.2248 293.927 36.69V42.7372C293.927 43.2023 293.985 43.4349 294.16 43.6094C294.276 43.7256 294.625 43.842 295.09 43.842V44.4815H290.496V43.7257ZM278.402 43.7257C278.867 43.6675 279.158 43.6094 279.332 43.4931C279.449 43.3768 279.565 43.0861 279.565 42.679V36.6319C279.565 36.2248 279.507 35.9341 279.332 35.8178C279.216 35.7015 278.867 35.5852 278.402 35.5852V34.9456H282.996V35.5852C282.53 35.6434 282.24 35.7015 282.065 35.8178C281.949 35.9341 281.833 36.2248 281.833 36.69V42.7372C281.833 43.2023 281.949 43.4931 282.123 43.6675C282.298 43.7838 282.705 43.842 283.345 43.842C284.275 43.842 285.031 43.6094 285.554 43.086C286.077 42.5627 286.368 41.8068 286.484 40.8184H287.24L287.008 44.5397H278.344L278.402 43.7257ZM265.959 37.504C266.191 36.8644 266.599 36.283 267.064 35.8178C267.471 35.4108 267.936 35.1201 268.459 34.8875C268.983 34.6549 269.564 34.5968 270.145 34.5968C270.727 34.5968 271.308 34.713 271.832 34.8875C272.355 35.1201 272.82 35.4108 273.227 35.8178C273.75 36.283 274.099 36.8644 274.332 37.504C274.565 38.1437 274.681 38.8414 274.681 39.5973C274.681 40.3532 274.565 41.0509 274.332 41.6906C274.099 42.3302 273.692 42.9116 273.227 43.3768C272.82 43.7838 272.355 44.0745 271.832 44.3071C271.308 44.5397 270.727 44.5978 270.145 44.5978C269.506 44.5978 268.983 44.4816 268.459 44.3071C267.936 44.0745 267.471 43.7838 267.064 43.3768C266.599 42.9116 266.191 42.3302 265.959 41.6906C265.726 41.0509 265.61 40.3532 265.61 39.5391C265.61 38.8414 265.726 38.1437 265.959 37.504ZM253.748 43.6094L259.156 35.5271H257.877C257.005 35.5271 256.307 35.7597 255.842 36.1667C255.376 36.5737 255.086 37.3296 254.911 38.3181H254.155L254.446 34.8294H261.947V35.5271L256.539 43.6094H258.167C259.098 43.6094 259.795 43.3768 260.319 42.9698C260.784 42.5627 261.133 41.865 261.249 40.8765H261.947L261.714 44.3653H253.806L253.748 43.6094ZM245.724 43.7257C246.189 43.6675 246.48 43.6094 246.655 43.4931C246.771 43.3768 246.887 43.0861 246.887 42.679V36.6319C246.887 36.2248 246.829 35.9341 246.655 35.8178C246.538 35.7015 246.189 35.5852 245.724 35.5852V34.9456H250.318V35.5852C249.853 35.6434 249.562 35.7015 249.387 35.8178C249.271 35.9341 249.155 36.2248 249.155 36.69V42.7372C249.155 43.2023 249.213 43.4349 249.387 43.6094C249.504 43.7256 249.853 43.842 250.318 43.842V44.4815H245.724V43.7257ZM232.7 40.1788H236.13V41.6324H232.7V40.1788ZM214.209 37.504C214.442 36.8644 214.849 36.283 215.314 35.8178C215.721 35.4108 216.186 35.1201 216.709 34.8875C217.233 34.6549 217.814 34.5968 218.396 34.5968C218.977 34.5968 219.559 34.713 220.082 34.8875C220.605 35.1201 221.07 35.4108 221.477 35.8178C222.001 36.283 222.35 36.8644 222.582 37.504C222.815 38.1437 222.931 38.8414 222.931 39.5973C222.931 40.3532 222.815 41.0509 222.582 41.6906C222.35 42.3302 221.943 42.9116 221.477 43.3768C221.07 43.7838 220.605 44.0745 220.082 44.3071C219.559 44.5397 218.977 44.5978 218.396 44.5978C217.756 44.5978 217.233 44.4816 216.709 44.3071C216.186 44.0745 215.721 43.7838 215.314 43.3768C214.849 42.9116 214.442 42.3302 214.209 41.6906C213.977 41.0509 213.86 40.3532 213.86 39.5391C213.802 38.8414 213.918 38.1437 214.209 37.504ZM197.928 43.7257C198.452 43.6675 198.801 43.6094 198.975 43.4931C199.149 43.3768 199.208 43.0861 199.208 42.6209V36.5737C199.208 36.1086 199.149 35.8178 198.975 35.7015C198.801 35.5852 198.452 35.4689 197.928 35.4689V34.8294H202.115L204.208 41.2835L206.185 34.8294H210.372V35.4689C209.79 35.5271 209.441 35.5852 209.325 35.7015C209.209 35.8178 209.092 36.1086 209.092 36.5737V42.6209C209.092 43.0861 209.151 43.3186 209.325 43.4931C209.499 43.6675 209.848 43.7257 210.372 43.7257V44.3653H205.545V43.7257C206.069 43.6675 206.418 43.6094 206.592 43.4931C206.766 43.3768 206.825 43.0861 206.825 42.6209V35.4689H206.708L203.975 44.3653H202.987L200.08 35.4689H199.963V42.6209C199.963 43.0861 200.022 43.3768 200.196 43.4931C200.37 43.6094 200.719 43.7257 201.243 43.7257V44.3653H197.87L197.928 43.7257ZM185.078 43.7257C185.543 43.6675 185.834 43.6094 186.008 43.4931C186.125 43.3768 186.241 43.0861 186.241 42.679V36.6319C186.241 36.2248 186.183 35.9341 186.008 35.8178C185.892 35.7015 185.543 35.5852 185.078 35.5852V34.9456H189.904C191.358 34.9456 192.405 35.1201 193.102 35.5271C193.8 35.9341 194.149 36.5156 194.149 37.3296C194.149 37.9692 193.916 38.4344 193.393 38.8414C192.87 39.2484 192.114 39.4229 191.125 39.5391C191.765 39.7136 192.346 39.888 192.695 40.1788C193.102 40.4695 193.335 40.8184 193.451 41.2835C193.567 41.6324 193.626 42.0976 193.684 42.6209C193.684 42.8535 193.742 42.9698 193.742 43.086C193.8 43.3186 193.858 43.4931 193.916 43.5512C193.974 43.6094 194.091 43.6675 194.207 43.6675C194.381 43.6675 194.556 43.5512 194.672 43.3186C194.788 43.086 194.847 42.7953 194.847 42.3883H195.486C195.486 42.4465 195.486 42.4464 195.486 42.5046C195.486 42.5627 195.486 42.6209 195.486 42.679C195.486 43.3186 195.312 43.8419 194.963 44.1908C194.614 44.5397 194.149 44.7141 193.509 44.7141C193.16 44.7141 192.812 44.656 192.579 44.5397C192.288 44.4234 192.114 44.249 191.939 44.0745C191.707 43.7838 191.532 43.1442 191.474 42.272C191.474 42.2139 191.474 42.1557 191.474 42.0976C191.416 41.1672 191.242 40.5276 190.893 40.2369C190.718 40.0625 190.544 40.0043 190.253 39.888C190.021 39.8299 189.73 39.7717 189.323 39.7717H188.741V42.679C188.741 43.0861 188.799 43.3768 188.974 43.4931C189.148 43.6094 189.497 43.7257 190.02 43.7838V44.4234H185.253L185.078 43.7257ZM172.053 43.7257C172.519 43.6675 172.809 43.6094 172.984 43.4931C173.1 43.3768 173.216 43.0861 173.216 42.679V36.6319C173.216 36.2248 173.158 35.9341 172.984 35.8178C172.868 35.7015 172.519 35.5852 172.053 35.5852V34.9456H181.008L181.182 38.1437H180.426C180.252 37.2715 179.903 36.5737 179.38 36.1667C178.857 35.7597 178.042 35.5852 177.054 35.5852C176.414 35.5852 176.007 35.6434 175.833 35.7597C175.658 35.876 175.542 36.1667 175.542 36.69V39.1903H176.124C176.705 39.1903 177.112 39.0158 177.403 38.7251C177.694 38.4344 177.868 37.9111 177.926 37.2715H178.566V41.7487H177.926C177.868 41.1091 177.694 40.5858 177.403 40.2951C177.112 40.0043 176.705 39.8299 176.124 39.8299H175.542V42.679C175.542 43.1442 175.658 43.4349 175.833 43.6094C176.007 43.7256 176.473 43.7838 177.112 43.7838C178.217 43.7838 179.031 43.5512 179.612 43.1442C180.136 42.679 180.485 41.9813 180.601 40.9928H181.357L181.124 44.4815H172.053V43.7257ZM160.192 34.8294H168.623L168.797 38.4344H168.1C167.983 37.3878 167.751 36.6319 167.402 36.1667C167.053 35.7015 166.53 35.4689 165.832 35.4689H165.657V42.6209C165.657 43.0279 165.716 43.3186 165.89 43.4349C166.064 43.5512 166.413 43.6675 166.995 43.7257V44.3653H161.994V43.7257C162.576 43.6675 162.925 43.6094 163.099 43.4349C163.273 43.3186 163.332 43.0279 163.332 42.6209V35.4689H163.157C162.459 35.4689 161.936 35.7015 161.587 36.1667C161.238 36.6319 161.006 37.3878 160.889 38.4344H160.25L160.192 34.8294ZM147.167 40.1788H150.598V41.6324H147.167V40.1788ZM128.677 37.504C128.909 36.8644 129.316 36.283 129.781 35.8178C130.188 35.4108 130.654 35.1201 131.177 34.8875C131.7 34.6549 132.282 34.5968 132.863 34.5968C133.445 34.5968 134.026 34.713 134.549 34.8875C135.073 35.1201 135.538 35.4108 135.945 35.8178C136.468 36.283 136.817 36.8644 137.05 37.504C137.282 38.1437 137.399 38.8414 137.399 39.5973C137.399 40.3532 137.282 41.0509 137.05 41.6906C136.817 42.3302 136.41 42.9116 135.945 43.3768C135.538 43.7838 135.073 44.0745 134.549 44.3071C134.026 44.5397 133.445 44.5978 132.863 44.5978C132.224 44.5978 131.7 44.4816 131.177 44.3071C130.654 44.0745 130.188 43.7838 129.781 43.3768C129.316 42.9116 128.909 42.3302 128.677 41.6906C128.444 41.0509 128.328 40.3532 128.328 39.5391C128.27 38.8414 128.386 38.1437 128.677 37.504ZM115.129 43.7257C115.594 43.6675 115.885 43.6094 116.059 43.4931C116.175 43.3768 116.292 43.0861 116.292 42.679V36.6319C116.292 36.2248 116.233 35.9341 116.059 35.8178C115.943 35.7015 115.594 35.5852 115.129 35.5852V34.9456H119.955C121.408 34.9456 122.455 35.1201 123.153 35.5271C123.851 35.9341 124.199 36.5156 124.199 37.3296C124.199 37.9692 123.967 38.4344 123.444 38.8414C122.92 39.1903 122.164 39.4229 121.176 39.5391C121.815 39.7136 122.397 39.888 122.746 40.1788C123.153 40.4695 123.385 40.8184 123.502 41.2835C123.618 41.6324 123.676 42.0976 123.734 42.6209C123.734 42.8535 123.792 42.9698 123.792 43.086C123.851 43.3186 123.909 43.4931 123.967 43.5512C124.025 43.6094 124.141 43.6675 124.258 43.6675C124.432 43.6675 124.607 43.5512 124.723 43.3186C124.839 43.086 124.897 42.7953 124.897 42.3883H125.537C125.537 42.4465 125.537 42.4464 125.537 42.5046C125.537 42.5627 125.537 42.6209 125.537 42.679C125.537 43.3186 125.362 43.8419 125.014 44.1908C124.665 44.5397 124.199 44.7141 123.56 44.7141C123.211 44.7141 122.862 44.656 122.629 44.5397C122.339 44.4234 122.164 44.249 121.99 44.0745C121.757 43.7838 121.583 43.1442 121.525 42.272C121.525 42.2139 121.525 42.1557 121.525 42.0976C121.467 41.1672 121.292 40.5276 120.943 40.2369C120.769 40.0625 120.594 40.0043 120.304 39.888C120.071 39.8299 119.78 39.7717 119.373 39.7717H118.792V42.679C118.792 43.0861 118.85 43.3768 119.024 43.4931C119.199 43.6094 119.548 43.7257 120.071 43.7838V44.4234H115.303V43.7257H115.129ZM101.523 43.7257C101.988 43.6675 102.278 43.6094 102.453 43.4349C102.569 43.3186 102.686 43.0279 102.686 42.6209V36.5737C102.686 36.1667 102.627 35.876 102.453 35.7597C102.337 35.6434 101.988 35.5271 101.523 35.4689V34.8294H106.116C107.861 34.8294 109.198 35.2364 110.128 36.0504C111.058 36.8644 111.524 38.0274 111.524 39.5973C111.524 41.1672 111.058 42.3302 110.128 43.1442C109.198 43.9582 107.861 44.3653 106.116 44.3653H101.523V43.7257ZM93.4403 43.7257C93.9055 43.6675 94.1962 43.6094 94.3706 43.4931C94.4869 43.3768 94.6032 43.0861 94.6032 42.679V36.6319C94.6032 36.2248 94.5451 35.9341 94.3706 35.8178C94.2543 35.7015 93.9055 35.5852 93.4403 35.5852V34.9456H98.0339V35.5852C97.5687 35.6434 97.278 35.7015 97.1035 35.8178C96.9872 35.9341 96.8709 36.2248 96.8709 36.69V42.7372C96.8709 43.2023 96.9291 43.4349 97.1035 43.6094C97.2198 43.7256 97.5687 43.842 98.0339 43.842V44.4815H93.4403V43.7257ZM79.7179 43.7257C80.1831 43.6675 80.4738 43.6094 80.6482 43.4931C80.7645 43.3768 80.8808 43.0861 80.8808 42.679V36.6319C80.8808 36.2248 80.8227 35.9341 80.6482 35.8178C80.532 35.7015 80.1831 35.5852 79.7179 35.5271V34.8875H84.3115V35.5271C83.8463 35.5852 83.5555 35.6434 83.3811 35.8178C83.2648 35.9341 83.2067 36.2248 83.2067 36.6319V39.1321H86.4628V36.6319C86.4628 36.2248 86.4046 35.9341 86.2884 35.8178C86.1721 35.7015 85.8232 35.5852 85.358 35.5271V34.8875H89.9516V35.5271C89.4864 35.5852 89.1957 35.6434 89.0213 35.7597C88.905 35.876 88.7887 36.1667 88.7887 36.5737V42.6209C88.7887 43.0279 88.8468 43.3186 89.0213 43.4349C89.1376 43.5512 89.4864 43.6675 89.9516 43.6675V44.3071H85.358V43.7257C85.8232 43.6675 86.1139 43.6094 86.2884 43.4349C86.4628 43.2605 86.4628 43.0279 86.4628 42.6209V39.8299H83.2067V42.6209C83.2067 43.0279 83.2648 43.3186 83.3811 43.4349C83.4974 43.5512 83.8463 43.6675 84.3115 43.7257V44.3653H79.7179V43.7257Z" fill="#273B91"/>
<path d="M38.3185 58.1458C54.3668 58.1458 67.3914 45.1212 67.3914 29.0729C67.3914 13.0247 54.3668 0 38.3185 0C22.2703 0 9.24561 13.0247 9.24561 29.0729C9.24561 45.1212 22.2703 58.1458 38.3185 58.1458ZM38.3185 2.20955C53.1457 2.20955 65.2401 14.2457 65.2401 29.1311C65.2401 43.9582 53.2039 56.0526 38.3185 56.0526C23.4913 56.0526 11.397 44.0164 11.397 29.1311C11.397 14.2457 23.4332 2.20955 38.3185 2.20955Z" fill="#63A0D6"/>
<path d="M55.7621 34.4805C50.122 30.2359 44.4818 38.8996 38.8998 36.5156C38.4347 36.1667 38.0277 35.9341 37.5625 35.7597C37.5043 35.7597 37.4462 35.7016 37.4462 35.7016C31.8642 33.5502 26.3403 41.9813 20.7583 37.7948C20.3513 37.5041 20.0024 37.8529 20.0024 38.7251C20.0024 39.5973 20.3513 40.644 20.7583 40.9347C26.3985 45.1793 32.0386 36.5156 37.6206 38.8996C38.0858 39.2485 38.4928 39.481 38.958 39.6555C39.0161 39.6555 39.0743 39.7136 39.0743 39.7136C44.6563 41.865 50.1801 33.4339 55.7621 37.6204C56.1691 37.9111 56.518 37.5622 56.518 36.69C56.518 35.8178 56.1691 34.8294 55.7621 34.4805Z" fill="white"/>
<path d="M55.7621 40.1206C50.122 35.8759 44.4818 44.5397 38.8998 42.1557C38.4347 41.8068 38.0277 41.5742 37.5625 41.3998C37.5043 41.3998 37.4462 41.3417 37.4462 41.3417C31.8642 39.1903 26.3403 47.6214 20.7583 43.4349C20.3513 43.1442 20.0024 43.4931 20.0024 44.3652C20.0024 45.2374 20.3513 46.2841 20.7583 46.5748C26.3985 50.8194 32.0386 42.1557 37.6206 44.5397C38.0858 44.8886 38.4928 45.1211 38.958 45.2956C39.0161 45.2956 39.0743 45.3537 39.0743 45.3537C44.6563 47.5051 50.1801 39.074 55.7621 43.2605C56.1691 43.5512 56.518 43.2023 56.518 42.3301C56.518 41.5161 56.1691 40.4695 55.7621 40.1206Z" fill="white"/>
<path d="M23.665 37.6785H24.8279C26.2816 37.5041 27.7352 36.8063 29.3052 35.9923C31.2821 35.0619 33.3172 34.0735 35.4686 34.0735C36.2827 34.0735 37.0386 34.1898 37.7945 34.4805C37.9107 34.5386 37.9689 34.5386 38.0852 34.5968C38.6085 34.8293 39.0737 35.0619 39.5388 35.4108C40.004 35.5853 40.5273 35.7015 41.0506 35.7015C42.6787 35.7015 44.3649 34.8875 46.2256 34.0153C48.0281 33.1431 49.8306 32.2709 51.7494 32.0965V29.7707L56.1685 29.4799L48.2607 22.6769L47.9118 15.8157H43.9579L43.8998 18.9555L37.62 12.7921L18.7808 29.4799H23.6069V37.6785H23.665Z" fill="white"/>
<path d="M50.6444 16.0483C50.8188 16.2809 51.0514 16.5134 51.3421 16.746L51.2258 18.6067L52.4469 17.2112C52.6213 17.2112 52.7376 17.2693 52.912 17.2693C53.0865 17.2693 53.2609 17.2693 53.3772 17.2112L54.5983 18.6067L54.482 16.746C54.7146 16.5716 54.9471 16.339 55.1797 16.0483L57.0404 16.1646L55.6449 14.9435C55.6449 14.7691 55.703 14.6528 55.703 14.4783C55.703 14.3039 55.703 14.1295 55.6449 14.0132L57.0404 12.7921L55.1797 12.9084C55.0053 12.6758 54.7727 12.4432 54.482 12.2106L54.5983 10.35L53.3772 11.7455C53.2028 11.7455 53.0865 11.6873 52.912 11.6873C52.7376 11.6873 52.5632 11.6873 52.4469 11.7455L51.2258 10.35L51.3421 12.2106C51.1095 12.3851 50.8769 12.6177 50.6444 12.9084L48.7837 12.7921L50.1792 14.0132C50.1792 14.1876 50.121 14.3039 50.121 14.4783C50.121 14.6528 50.121 14.8272 50.1792 14.9435L48.7837 16.1646L50.6444 16.0483Z" fill="white"/>
<path d="M22.7355 20.6999C23.724 20.6999 25.1776 19.537 24.4799 17.9089C23.724 16.1064 22.7355 14.4202 22.7355 14.4202C22.7355 14.4202 21.6307 16.0483 20.933 17.9089C20.3515 19.4207 21.747 20.6999 22.7355 20.6999Z" fill="white"/>
<path d="M26.0496 15.4086C26.7474 15.4086 27.8522 14.5365 27.3289 13.3154C26.7474 11.978 26.0496 10.757 26.0496 10.757C26.0496 10.757 25.2356 11.978 24.7123 13.3154C24.3053 14.4783 25.3519 15.4086 26.0496 15.4086Z" fill="white"/>
<path d="M34.5967 51.6335H33.1431C33.2594 51.2846 33.5501 50.9939 33.9571 50.7031C34.2479 50.4705 34.6549 50.2961 35.0037 49.9472C35.2363 49.7147 35.3526 49.4239 35.3526 49.0169C35.3526 48.261 34.7712 47.7958 33.8408 47.7958C33.0268 47.7958 32.5035 48.261 32.5035 48.8425C32.5035 49.1913 32.7361 49.4821 33.0849 49.4821C33.3757 49.4821 33.6082 49.2495 33.6082 48.9588C33.6082 48.7843 33.492 48.668 33.3757 48.6099L33.2012 48.4936C33.1431 48.4936 33.0849 48.4354 33.0849 48.3773C33.0849 48.261 33.2594 48.0866 33.6082 48.0866C34.0734 48.0866 34.2479 48.3773 34.2479 48.9006C34.2479 49.2495 34.1316 49.5984 33.9571 49.8891C33.6664 50.3543 33.2594 50.7031 32.9686 51.1102C32.6198 51.5753 32.4453 51.9242 32.4453 52.5057H35.1782L35.3526 51.1683H35.0619C35.0619 51.5172 34.9456 51.6335 34.5967 51.6335Z" fill="white"/>
<path d="M37.6197 47.7377C37.2127 47.7377 36.8057 47.9122 36.5731 48.3192C36.2243 48.7844 36.0498 49.424 36.0498 50.1799C36.0498 50.9358 36.2243 51.5754 36.5731 52.0405C36.8639 52.3894 37.2127 52.622 37.6197 52.622C38.4919 52.622 39.1897 51.6917 39.1897 50.1799C39.1897 49.424 39.0152 48.7844 38.6664 48.3192C38.4338 47.9703 38.0268 47.7377 37.6197 47.7377ZM38.0849 50.1799V50.4706C38.0849 51.6917 38.0849 52.2731 37.6197 52.2731C37.1546 52.2731 37.1546 51.7498 37.1546 50.4706V50.1799V49.831C37.1546 48.6099 37.1546 48.0285 37.6197 48.0285C38.0849 48.0285 38.0849 48.5518 38.0849 49.831V50.1799Z" fill="white"/>
<path d="M41.1671 47.7377C40.7601 47.7377 40.353 47.9122 40.1205 48.3192C39.7716 48.7844 39.5972 49.424 39.5972 50.1799C39.5972 50.9358 39.7716 51.5754 40.1205 52.0405C40.4112 52.3894 40.7601 52.622 41.1671 52.622C42.0393 52.622 42.737 51.6917 42.737 50.1799C42.737 49.424 42.5626 48.7844 42.2137 48.3192C41.9811 47.9703 41.6322 47.7377 41.1671 47.7377ZM41.6904 50.1799V50.4706C41.6904 51.6917 41.6904 52.2731 41.2252 52.2731C40.7601 52.2731 40.7601 51.7498 40.7601 50.4706V50.1799V49.831C40.7601 48.6099 40.7601 48.0285 41.2252 48.0285C41.6904 48.0285 41.6904 48.5518 41.6904 49.831V50.1799Z" fill="white"/>
<path d="M45.7024 47.7377H45.0047L43.2021 50.7613V51.2265H44.714V51.5754C44.714 52.0405 44.6558 52.0987 44.0743 52.1568V52.4475H46.2839V52.1568C45.7606 52.1568 45.7024 52.0405 45.7024 51.5754V51.2846H46.2839V50.8776H45.7024V47.7377ZM44.714 50.8195H43.4929L44.8884 48.4936C44.7721 49.5984 44.714 50.3543 44.714 50.8195Z" fill="white"/>
<path d="M87.8582 25.5841C86.6953 25.4679 85.9393 25.2934 85.5905 24.9446C85.2416 24.5957 85.0671 23.8979 85.0671 22.7932V7.55894C85.0671 6.45417 85.2416 5.75643 85.5905 5.40756C85.9393 5.05868 86.6953 4.88424 87.8582 4.76795V3.08173H76.229V4.76795C77.4501 4.88424 78.206 5.11683 78.5548 5.40756C78.9037 5.75643 79.0782 6.45419 79.0782 7.50081V22.7932C79.0782 23.8979 78.9037 24.5957 78.5548 24.8864C78.206 25.2353 77.4501 25.4679 76.229 25.526V27.2122H87.8582V25.5841Z" fill="#273B91"/>
<path d="M110.361 18.4322H108.558C108.151 20.9325 107.337 22.6769 106.174 23.7235C105.011 24.7701 103.209 25.2934 100.825 25.2934H96.7547L110.361 4.8261V3.08173H91.4635L90.7076 11.8617H92.6264C93.0334 9.36148 93.8475 7.6171 95.0104 6.51233C96.1733 5.40755 97.9177 4.88425 100.185 4.88425H103.442L89.8354 25.3516V27.2704H109.779L110.361 18.4322Z" fill="#273B91"/>
<path d="M116.757 24.712C117.804 25.7586 119.025 26.5145 120.362 27.0378C121.7 27.5611 123.095 27.8519 124.665 27.8519C126.177 27.8519 127.631 27.6193 128.968 27.0378C130.305 26.5145 131.468 25.7586 132.573 24.712C133.794 23.4909 134.724 22.0954 135.364 20.4673C136.004 18.8392 136.294 17.0949 136.294 15.1179C136.294 13.1409 136.004 11.3966 135.364 9.7685C134.724 8.14042 133.794 6.74491 132.573 5.58199C131.526 4.53537 130.305 3.77947 129.026 3.25616C127.689 2.73285 126.293 2.44212 124.723 2.44212C123.212 2.44212 121.758 2.6747 120.421 3.25616C119.083 3.83762 117.92 4.53537 116.816 5.58199C115.594 6.80306 114.664 8.19856 114.025 9.7685C113.385 11.3966 113.094 13.1409 113.094 15.1179C113.094 17.0949 113.385 18.8392 114.025 20.4673C114.664 22.1536 115.594 23.549 116.757 24.712ZM120.886 6.62863C121.642 5.05869 122.863 4.3028 124.665 4.3028C126.468 4.3028 127.689 5.11684 128.445 6.62863C129.201 8.19857 129.549 11.0477 129.549 15.1761C129.549 19.3044 129.201 22.2117 128.445 23.7816C127.689 25.3516 126.468 26.1075 124.665 26.1075C122.863 26.1075 121.642 25.2934 120.886 23.7816C120.13 22.2117 119.781 19.3626 119.781 15.1761C119.781 11.0477 120.188 8.19857 120.886 6.62863Z" fill="#273B91"/>
<path d="M142.748 24.8283C143.794 25.8167 144.957 26.5726 146.236 27.0959C147.516 27.6193 148.969 27.8519 150.597 27.8519C151.586 27.8519 152.574 27.7356 153.505 27.503C154.435 27.2704 155.249 26.9215 156.005 26.3982C156.238 26.2238 156.528 26.0493 156.935 25.8167C157.575 25.4097 157.924 25.2353 158.098 25.2353C158.505 25.2353 158.854 25.7004 159.145 26.5726L159.494 27.8519H161.471V19.8859C161.471 18.7811 161.645 18.0833 161.936 17.7926C162.285 17.4437 163.041 17.2693 164.203 17.0949V15.4086H152.865V17.0949C154.144 17.2112 154.958 17.3856 155.307 17.7345C155.656 18.0833 155.831 18.7811 155.831 19.8859C155.831 22.0373 155.424 23.5491 154.668 24.5375C153.912 25.526 152.691 25.9912 151.063 25.9912C149.144 25.9912 147.748 25.1771 146.876 23.549C146.062 21.921 145.597 19.13 145.597 15.2342C145.597 11.6292 146.12 8.89631 147.109 7.15194C148.097 5.40756 149.667 4.53538 151.76 4.53538C153.388 4.53538 154.784 5.05868 155.947 6.16345C157.11 7.26822 158.04 8.83816 158.68 10.8733H160.424V2.50027H158.505C158.447 3.02359 158.273 3.37246 158.04 3.66319C157.807 3.95392 157.575 4.0702 157.284 4.0702C156.935 4.0702 156.296 3.89577 155.365 3.54689L155.191 3.48874C154.202 3.13987 153.33 2.84914 152.574 2.6747C151.818 2.50027 151.063 2.44212 150.307 2.44212C148.853 2.44212 147.457 2.73285 146.178 3.25616C144.899 3.77947 143.678 4.53537 142.69 5.58199C141.468 6.80306 140.538 8.19857 139.899 9.82665C139.259 11.4547 138.968 13.1991 138.968 15.1179C138.968 17.0949 139.259 18.8974 139.899 20.5255C140.596 22.1536 141.527 23.6072 142.748 24.8283Z" fill="#273B91"/>
<path d="M176.007 15.4086C176.937 15.4086 177.751 15.5249 178.333 15.6994C178.972 15.8738 179.496 16.1645 179.903 16.5134C180.775 17.2693 181.24 18.8974 181.415 21.2814C181.415 21.3977 181.415 21.514 181.473 21.7465C181.589 24.0142 181.996 25.526 182.636 26.2819C183.043 26.8052 183.624 27.2122 184.322 27.503C185.02 27.7937 185.834 27.91 186.764 27.91C188.334 27.91 189.555 27.4448 190.427 26.5726C191.299 25.7004 191.706 24.4212 191.706 22.735C191.706 22.5024 191.706 22.328 191.706 22.2698C191.706 22.1536 191.706 22.0954 191.706 21.9791H190.137C190.137 23.0257 190.02 23.7816 189.729 24.3049C189.439 24.8283 189.09 25.119 188.567 25.119C188.276 25.119 188.043 25.0027 187.869 24.8283C187.694 24.6538 187.578 24.2468 187.462 23.6072C187.404 23.3746 187.404 23.0257 187.345 22.4443C187.229 21.0488 187.055 19.944 186.822 19.0718C186.531 17.9671 185.892 17.0367 184.962 16.2808C184.031 15.5249 182.694 15.0016 181.008 14.5946C183.566 14.3039 185.543 13.7224 186.764 12.7921C188.043 11.8617 188.683 10.6407 188.683 9.07074C188.683 7.03564 187.811 5.52386 186.066 4.59352C184.322 3.60504 181.647 3.13988 177.984 3.13988H165.832V4.8261C167.053 4.94239 167.809 5.17498 168.157 5.46571C168.506 5.81458 168.681 6.51232 168.681 7.55894V22.7932C168.681 23.8979 168.506 24.5957 168.157 24.8864C167.809 25.2353 167.053 25.4679 165.832 25.526V27.2122H177.868V25.526C176.472 25.4097 175.6 25.1771 175.193 24.8283C174.786 24.4794 174.612 23.7816 174.612 22.735V15.3505C174.553 15.4086 176.007 15.4086 176.007 15.4086ZM174.553 7.50081C174.553 6.3379 174.728 5.58199 175.193 5.23311C175.6 4.88424 176.472 4.7098 177.81 4.7098C179.321 4.7098 180.426 5.11683 181.24 5.93087C182.054 6.74491 182.403 7.90783 182.403 9.41962C182.403 10.9896 181.938 12.0943 181.008 12.7921C180.077 13.4898 178.565 13.8387 176.414 13.8387H174.612L174.553 7.50081Z" fill="#273B91"/>
<path d="M196.941 25.4097C198.452 27.0378 200.895 27.8518 204.267 27.8518C207.581 27.8518 210.082 27.0378 211.593 25.4679C213.105 23.8398 213.919 21.2814 213.919 17.7926V7.61709C213.919 6.45418 214.094 5.75643 214.442 5.40756C214.791 5.11683 215.605 4.88425 216.768 4.8261V3.13988H209.268V4.8261C210.314 4.88425 211.012 5.05868 211.361 5.40756C211.71 5.75643 211.884 6.45418 211.884 7.61709V18.3159C211.884 20.8162 211.419 22.6187 210.489 23.7816C209.558 24.9446 208.163 25.526 206.186 25.526C204.267 25.526 202.813 24.9446 201.941 23.7816C201.069 22.6187 200.604 20.8162 200.604 18.2578V7.55894C200.604 6.39603 200.778 5.69828 201.127 5.34941C201.476 5.00053 202.174 4.8261 203.22 4.76795V3.08173H191.766V4.76795C192.987 4.88424 193.801 5.05868 194.15 5.34941C194.498 5.64014 194.673 6.39603 194.673 7.55894V17.7345C194.615 21.2232 195.429 23.7816 196.941 25.4097Z" fill="#273B91"/>
<path d="M218.57 3.08173V4.76795C219.791 4.88424 220.547 5.11683 220.896 5.40756C221.245 5.75643 221.419 6.45419 221.419 7.50081V22.7932C221.419 23.8979 221.245 24.5957 220.896 24.8864C220.547 25.2353 219.791 25.4679 218.57 25.526V27.2122H230.78V25.526C229.327 25.4097 228.397 25.1771 227.989 24.8864C227.582 24.5957 227.408 23.8398 227.408 22.7932V16.4553H230.955C234.793 16.4553 237.584 15.9319 239.328 14.8272C241.072 13.7224 241.944 11.978 241.944 9.59405C241.944 7.38451 241.072 5.81457 239.386 4.7098C237.7 3.66318 235.083 3.08173 231.594 3.08173H218.57ZM235.607 9.76849C235.607 11.5129 235.083 12.7339 234.095 13.548C233.106 14.362 231.536 14.769 229.327 14.769H227.408V7.84967C227.408 6.57046 227.641 5.69828 228.048 5.29126C228.455 4.88424 229.385 4.7098 230.722 4.7098C232.35 4.7098 233.571 5.11683 234.386 5.98902C235.2 6.74491 235.607 8.02412 235.607 9.76849Z" fill="#273B91"/>
<path d="M259.214 25.9912C258.749 26.34 258.167 26.5726 257.469 26.5726C256.539 26.5726 255.667 26.2238 254.853 25.4679C254.097 24.712 253.399 23.6072 252.876 22.1535H251.713L252.004 27.503H252.934C252.992 27.2122 253.05 26.9796 253.167 26.8052C253.283 26.6308 253.457 26.5726 253.632 26.5726C253.806 26.5726 254.097 26.6308 254.446 26.8052C254.795 26.9796 255.085 27.0959 255.26 27.0959C255.783 27.2704 256.19 27.3867 256.481 27.4448C256.83 27.503 257.12 27.5611 257.469 27.5611C258.749 27.5611 259.853 27.1541 260.667 26.3401C261.481 25.526 261.888 24.4794 261.888 23.2583C261.888 22.1535 261.598 21.2232 260.958 20.4673C260.377 19.7114 259.446 19.1881 258.167 18.7811L256.19 18.1415C255.551 17.9671 255.027 17.6763 254.678 17.3274C254.33 16.9786 254.155 16.6297 254.155 16.1645C254.155 15.6412 254.388 15.2923 254.795 14.9435C255.202 14.6527 255.725 14.4783 256.423 14.4783C257.179 14.4783 257.876 14.769 258.516 15.2923C259.156 15.8157 259.737 16.6878 260.26 17.7926H261.191L260.958 13.548H260.144C260.086 13.7806 260.028 13.955 259.912 14.0713C259.795 14.1876 259.679 14.2457 259.504 14.2457C259.446 14.2457 259.388 14.2457 259.33 14.2457C259.272 14.2457 259.214 14.2457 259.156 14.2457C259.156 14.2457 259.039 14.1876 258.865 14.1294C258.69 14.0713 258.516 13.955 258.342 13.8969C257.935 13.7806 257.586 13.6643 257.295 13.6061C257.004 13.548 256.713 13.4898 256.423 13.4898C255.144 13.4898 254.155 13.8387 253.341 14.5946C252.585 15.3505 252.178 16.2808 252.178 17.5019C252.178 18.4322 252.469 19.3044 253.05 20.0022C253.632 20.6999 254.446 21.2232 255.492 21.5721L257.469 22.2117C258.342 22.5024 258.981 22.7932 259.33 23.142C259.679 23.4909 259.853 23.8979 259.853 24.4212C259.853 25.119 259.621 25.6423 259.214 25.9912Z" fill="#273B91"/>
<path d="M269.797 26.3401C269.157 26.2819 268.692 26.1656 268.518 25.9912C268.343 25.8167 268.227 25.4097 268.227 24.8283V20.9906H272.821V24.8283C272.821 25.4097 272.704 25.8167 272.53 25.9912C272.355 26.1656 271.89 26.2819 271.251 26.3401V27.2704H277.705V26.3401C277.065 26.2819 276.6 26.1656 276.426 25.9912C276.251 25.8167 276.135 25.4097 276.135 24.8283V16.3971C276.135 15.8157 276.251 15.4086 276.426 15.2342C276.6 15.0598 277.065 14.9435 277.705 14.8853V13.955H271.251V14.8853C271.89 14.9435 272.355 15.0598 272.53 15.2342C272.704 15.4086 272.821 15.8157 272.821 16.3971V19.8859H268.227V16.3971C268.227 15.8157 268.343 15.4086 268.518 15.2342C268.692 15.0598 269.157 14.9435 269.797 14.8853V13.955H263.343V14.8853C263.982 14.9435 264.448 15.0598 264.622 15.2342C264.796 15.4086 264.913 15.8157 264.913 16.3971V24.8283C264.913 25.4097 264.796 25.8167 264.622 25.9912C264.448 26.1656 263.982 26.2819 263.343 26.3401V27.2704H269.797V26.3401Z" fill="#273B91"/>
<path d="M280.728 27.5611C281.193 27.5611 281.542 27.3867 281.891 27.096C282.182 26.8052 282.356 26.3982 282.356 25.9331C282.356 25.4679 282.182 25.119 281.891 24.7701C281.6 24.4794 281.193 24.305 280.728 24.305C280.263 24.305 279.914 24.4794 279.565 24.7701C279.274 25.0609 279.1 25.4679 279.1 25.9331C279.1 26.3982 279.274 26.7471 279.565 27.096C279.914 27.3867 280.321 27.5611 280.728 27.5611Z" fill="#273B91"/>
<path d="M290.554 26.3401C289.74 26.2819 289.217 26.1656 289.043 25.9912C288.81 25.8167 288.694 25.4097 288.694 24.8283V21.3395H290.671C292.822 21.3395 294.334 21.0488 295.322 20.4092C296.311 19.8277 296.776 18.8392 296.776 17.5019C296.776 16.2808 296.311 15.4086 295.381 14.8272C294.45 14.2457 292.997 13.955 291.078 13.955H283.868V14.8853C284.507 14.9435 284.972 15.0598 285.147 15.2342C285.321 15.4086 285.438 15.8157 285.438 16.3971V24.8283C285.438 25.4097 285.321 25.8167 285.147 25.9912C284.972 26.1656 284.507 26.2819 283.868 26.3401V27.2704H290.613V26.3401H290.554ZM288.636 16.5134C288.636 15.8157 288.752 15.3505 288.985 15.1179C289.217 14.8853 289.74 14.769 290.438 14.769C291.369 14.769 292.008 15.0016 292.473 15.4668C292.938 15.9319 293.113 16.6297 293.113 17.6182C293.113 18.5485 292.822 19.2463 292.299 19.7114C291.776 20.1766 290.845 20.351 289.682 20.351H288.636V16.5134Z" fill="#273B91"/>
<path d="M295.147 24.305C294.682 24.305 294.333 24.4794 293.984 24.7701C293.694 25.0609 293.519 25.4679 293.519 25.9331C293.519 26.3982 293.694 26.7471 293.984 27.096C294.275 27.3867 294.682 27.5611 295.147 27.5611C295.612 27.5611 295.961 27.3867 296.31 27.096C296.601 26.8052 296.775 26.3982 296.775 25.9331C296.775 25.4679 296.601 25.119 296.31 24.7701C296.019 24.4794 295.612 24.305 295.147 24.305Z" fill="#273B91"/>
<path d="M304.626 26.3401C303.986 26.2819 303.521 26.1656 303.347 25.9912C303.172 25.8167 303.056 25.4097 303.056 24.8283V21.6302L304.103 20.6999L307.475 25.2934C307.65 25.526 307.708 25.7004 307.708 25.8749C307.708 26.0493 307.65 26.1656 307.475 26.2238C307.301 26.2819 306.952 26.3401 306.37 26.3401V27.2704H312.999V26.3401C312.65 26.2238 312.359 26.0493 312.069 25.8167C311.778 25.5842 311.429 25.2353 311.138 24.8864L306.545 18.6648L309.394 16.0482C309.801 15.6994 310.266 15.4086 310.673 15.1761C311.138 15.0016 311.545 14.8853 312.011 14.8853H312.127V13.955H306.138V14.8853H306.254C306.719 14.8853 307.126 14.9435 307.359 15.0598C307.591 15.1761 307.708 15.3505 307.708 15.5831C307.708 15.7575 307.65 15.932 307.533 16.1645C307.417 16.3971 307.184 16.6297 306.952 16.8623L303.056 20.5255V16.4553C303.056 15.8738 303.172 15.4668 303.347 15.2924C303.521 15.1179 303.986 15.0016 304.626 14.9435V14.0131H298.23V14.9435C298.87 15.0016 299.335 15.1179 299.509 15.2924C299.684 15.4668 299.8 15.8738 299.8 16.4553V24.8864C299.8 25.4679 299.684 25.8749 299.509 26.0493C299.335 26.2238 298.87 26.3401 298.23 26.3982V27.3285H304.626V26.3401Z" fill="#273B91"/>
<path d="M314.743 27.5611C315.208 27.5611 315.557 27.3867 315.906 27.096C316.197 26.8052 316.371 26.3982 316.371 25.9331C316.371 25.4679 316.197 25.119 315.906 24.7701C315.615 24.4794 315.208 24.305 314.743 24.305C314.278 24.305 313.929 24.4794 313.58 24.7701C313.29 25.0609 313.115 25.4679 313.115 25.9331C313.115 26.3982 313.29 26.7471 313.58 27.096C313.929 27.3867 314.278 27.5611 314.743 27.5611Z" fill="#273B91"/>
</svg>
