<svg width="33" height="18" viewBox="0 0 33 18" fill="none" xmlns="http://www.w3.org/2000/svg">
<path d="M24.75 1.65C24.75 0.738762 24.0112 0 23.1 0H1.65C0.738762 0 0 0.738762 0 1.65C0 2.56124 0.738762 3.3 1.65 3.3H23.1C24.0112 3.3 24.75 2.56117 24.75 1.65ZM1.65 6.9H31.35C32.2612 6.9 33 7.63883 33 8.55C33 9.46124 32.2612 10.2 31.35 10.2H1.65C0.738762 10.2 0 9.46124 0 8.55C0 7.63883 0.738762 6.9 1.65 6.9ZM1.65 13.8H16.5C17.4112 13.8 18.15 14.5388 18.15 15.45C18.15 16.3612 17.4112 17.1 16.5 17.1H1.65C0.738762 17.1 0 16.3612 0 15.45C0 14.5388 0.738762 13.8 1.65 13.8Z" fill="#1B2556"/>
</svg>
