<svg width="25" height="21" viewBox="0 0 25 21" fill="none" xmlns="http://www.w3.org/2000/svg">
<path fill-rule="evenodd" clip-rule="evenodd" d="M0 1.52146C0 0.681188 0.681188 0 1.52146 0H12.1717C13.0119 0 13.6931 0.681188 13.6931 1.52146C13.6931 2.36173 13.0119 3.04292 12.1717 3.04292H1.52146C0.681188 3.04292 0 2.36173 0 1.52146Z" fill="white"/>
<path fill-rule="evenodd" clip-rule="evenodd" d="M0 10.1433C0 9.30303 0.681188 8.62183 1.52146 8.62183H12.1717C13.0119 8.62183 13.6931 9.30303 13.6931 10.1433C13.6931 10.9835 13.0119 11.6647 12.1717 11.6647H1.52146C0.681188 11.6647 0 10.9835 0 10.1433Z" fill="white"/>
<path fill-rule="evenodd" clip-rule="evenodd" d="M0 18.7646C0 17.9244 0.681188 17.2432 1.52146 17.2432H22.8219C23.6622 17.2432 24.3434 17.9244 24.3434 18.7646C24.3434 19.6049 23.6622 20.2861 22.8219 20.2861H1.52146C0.681188 20.2861 0 19.6049 0 18.7646Z" fill="white"/>
<path fill-rule="evenodd" clip-rule="evenodd" d="M17.6893 0.952945C18.2835 0.358784 19.2467 0.358784 19.8408 0.952945L23.8981 5.01017C24.4922 5.60433 24.4922 6.5676 23.8981 7.16178L19.8408 11.219C19.2467 11.8132 18.2835 11.8132 17.6893 11.219C17.0951 10.6248 17.0951 9.66164 17.6893 9.06746L20.6705 6.08601L17.6893 3.10461C17.0951 2.51045 17.0951 1.54711 17.6893 0.952945Z" fill="white"/>
</svg>
