<svg width="20" height="20" viewBox="0 0 20 20" fill="none" xmlns="http://www.w3.org/2000/svg">
<path d="M6.15039 9.3674H9.36773V5.84976H6.59766C6.33968 6.93257 6.18689 8.12464 6.15039 9.3674Z" fill="#1B2556"/>
<path d="M10.5337 9.3674H13.751C13.7145 8.12464 13.5617 6.93257 13.3038 5.84976H10.5337V9.3674Z" fill="#1B2556"/>
<path d="M14.9172 9.3674H19.8835C19.8128 8.13704 19.5191 6.94886 19.0216 5.84976H14.4985C14.7401 6.94765 14.8828 8.13681 14.9172 9.3674Z" fill="#1B2556"/>
<path d="M5.40255 5.84976H0.879457C0.382052 6.94886 0.0883195 8.13704 0.0175781 9.3674H4.98394C5.01833 8.13681 5.16102 6.94765 5.40255 5.84976Z" fill="#1B2556"/>
<path d="M9.36714 1.28165C8.6429 1.56597 7.93847 2.36671 7.37231 3.57421C7.20964 3.92116 7.06221 4.29243 6.93018 4.68372H9.36714V1.28165Z" fill="#1B2556"/>
<path d="M6.31679 3.07916C7.24782 1.09354 8.53823 0 9.95041 0C7.29256 0 4.79379 1.03504 2.91436 2.91439C2.37253 3.45626 1.90132 4.04987 1.50439 4.6837H5.70659C5.88099 4.11194 6.08478 3.574 6.31679 3.07916Z" fill="#1B2556"/>
<path d="M13.5838 3.07916C13.8158 3.57396 14.0196 4.11194 14.194 4.6837H18.3962C17.9992 4.04987 17.528 3.45626 16.9862 2.91439C15.1068 1.03504 12.6081 0 9.9502 0C11.3623 0 12.6528 1.09354 13.5838 3.07916Z" fill="#1B2556"/>
<path d="M10.5337 1.28165V4.68372H12.9707C12.8386 4.29243 12.6912 3.92116 12.5285 3.57421C11.9624 2.36675 11.258 1.56601 10.5337 1.28165Z" fill="#1B2556"/>
<path d="M0 10.5335V19.3179C0 19.6398 0.261044 19.9009 0.583034 19.9009H19.3178C19.6398 19.9009 19.9009 19.6398 19.9009 19.3179V10.5335H0ZM5.33954 17.3895C5.11558 17.4594 4.87991 17.3732 4.73905 17.1697L3.26367 15.0333V16.9663C3.26367 17.2346 3.04616 17.4522 2.77781 17.4522C2.50949 17.4522 2.29194 17.2346 2.29194 16.9663V13.4747C2.29194 13.262 2.4302 13.0741 2.63321 13.0108C2.83619 12.9475 3.05673 13.0236 3.17761 13.1986L4.72968 15.4461L4.7106 13.4728C4.708 13.2045 4.92345 12.9849 5.19176 12.9823H5.19654C5.46271 12.9823 5.67972 13.1967 5.68228 13.4635L5.71497 16.8438V16.8485C5.71501 17.1059 5.56762 17.3182 5.33954 17.3895ZM8.24662 14.7314C8.51493 14.7314 8.73248 14.9489 8.73248 15.2173C8.73248 15.4856 8.51493 15.7031 8.24662 15.7031H7.36717V16.4805H8.3553C8.62361 16.4805 8.84116 16.698 8.84116 16.9664C8.84116 17.2347 8.62361 17.4522 8.3553 17.4522H6.88131C6.61296 17.4522 6.39545 17.2347 6.39545 16.9664V13.4682C6.39545 13.1998 6.61296 12.9823 6.88131 12.9823H8.3553C8.62361 12.9823 8.84116 13.1998 8.84116 13.4682C8.84116 13.7365 8.62361 13.954 8.3553 13.954H7.36717V14.7314H8.24662ZM14.1487 13.5694L13.4645 17.0076C13.4603 17.0285 13.4548 17.0491 13.4479 17.0692C13.3706 17.2967 13.1572 17.4506 12.917 17.4522C12.9157 17.4522 12.9144 17.4522 12.9131 17.4522C12.6744 17.4522 12.4609 17.3016 12.381 17.0764C12.3786 17.0699 12.3765 17.0634 12.3745 17.0568L11.7772 15.1181L11.1772 17.0565C11.1759 17.0607 11.1745 17.065 11.1731 17.0692C11.0957 17.2966 10.8824 17.4505 10.6423 17.4522C10.6409 17.4522 10.6397 17.4522 10.6383 17.4522C10.3997 17.4522 10.1862 17.3017 10.1061 17.0766C10.0982 17.0542 10.0919 17.0313 10.0873 17.008L9.40577 13.5624C9.35369 13.2992 9.52486 13.0436 9.78812 12.9915C10.0513 12.9394 10.3069 13.1106 10.359 13.3738L10.7259 15.2284L11.3035 13.3623C11.3404 13.1977 11.4616 13.0569 11.6344 13.0038C11.8908 12.9247 12.1627 13.0686 12.2417 13.325L12.8279 15.228L13.1958 13.3797C13.2482 13.1165 13.504 12.9458 13.7672 12.998C14.0302 13.0504 14.2011 13.3063 14.1487 13.5694ZM17.6559 16.2936C17.536 16.965 16.8969 17.4522 16.136 17.4522C15.523 17.4522 14.9475 17.2051 14.5569 16.7741C14.3768 16.5752 14.3919 16.268 14.5907 16.0878C14.7896 15.9076 15.0968 15.9228 15.277 16.1216C15.4807 16.3463 15.8018 16.4805 16.136 16.4805C16.4486 16.4805 16.6679 16.2986 16.6993 16.1228C16.7404 15.8926 16.3823 15.7415 16.2716 15.7007C15.7276 15.5 15.2444 15.2849 15.2241 15.2759C15.2007 15.2654 15.1782 15.2532 15.1567 15.2392C14.7719 14.9882 14.5736 14.5483 14.6393 14.0909C14.709 13.6047 15.0638 13.2089 15.565 13.0579C16.49 12.7792 17.2599 13.3551 17.3723 13.445C17.4862 13.5339 17.5597 13.6721 17.5597 13.8278C17.5597 14.0961 17.3422 14.3137 17.0738 14.3137C16.9546 14.3137 16.8455 14.2705 16.7609 14.1992L16.7604 14.1997L16.7635 14.2023C16.7592 14.1987 16.3169 13.8462 15.8452 13.9884C15.6475 14.048 15.6086 14.1765 15.6011 14.229C15.596 14.264 15.5934 14.347 15.6645 14.408C15.7938 14.4646 16.1866 14.6336 16.6079 14.789C17.5187 15.1249 17.7465 15.7865 17.6559 16.2936Z" fill="#1B2556"/>
</svg>
