<svg width="27" height="22" viewBox="0 0 27 22" fill="none" xmlns="http://www.w3.org/2000/svg">
<path fill-rule="evenodd" clip-rule="evenodd" d="M26.3257 12.3843C26.698 12.3843 27 12.6758 27 13.0354C27 13.3949 26.698 13.6865 26.3257 13.6865H25.1333C24.761 13.6865 24.459 13.3949 24.459 13.0354C24.459 12.6758 24.761 12.3843 25.1333 12.3843H26.3257ZM14.0791 13.2543L21.7697 9.38938V18.1351L14.0791 22V13.2543ZM5.90472 8.46834L13.5 12.2853L21.0952 8.46834L13.5 4.65135L5.90472 8.46834ZM5.23033 9.38938L12.9209 13.2542V21.9999L5.23033 18.135V9.38938ZM3.95409 4.73869C3.69087 4.48453 3.69087 4.07215 3.95409 3.81799C4.21731 3.56383 4.64431 3.56383 4.90761 3.81799L5.75071 4.63207C6.01393 4.88623 6.01393 5.29861 5.75071 5.55277C5.48749 5.80693 5.06049 5.80693 4.79719 5.55277L3.95409 4.73869ZM0.674306 13.6864C0.301959 13.6864 0 13.3948 0 13.0353C0 12.6758 0.301959 12.3842 0.674306 12.3842H1.86666C2.23901 12.3842 2.54097 12.6758 2.54097 13.0353C2.54097 13.3948 2.23901 13.6864 1.86666 13.6864H0.674306ZM12.8257 0.651096C12.8257 0.291566 13.1277 0 13.5 0C13.8724 0 14.1743 0.291566 14.1743 0.651096V1.80241C14.1743 2.16194 13.8724 2.45351 13.5 2.45351C13.1277 2.45351 12.8257 2.16194 12.8257 1.80241V0.651096ZM22.0924 3.81799C22.3556 3.56383 22.7826 3.56383 23.0459 3.81799C23.3091 4.07215 23.3091 4.48453 23.0459 4.73869L22.2028 5.55277C21.9396 5.80693 21.5126 5.80693 21.2493 5.55277C20.986 5.29861 20.986 4.88623 21.2493 4.63207L22.0924 3.81799Z" fill="white"/>
</svg>
