<svg width="20" height="20" viewBox="0 0 20 20" fill="none" xmlns="http://www.w3.org/2000/svg">
<path fill-rule="evenodd" clip-rule="evenodd" d="M8.1011 4.6646L7.60858 4.17577L7.11606 4.6646H8.1011ZM11.5116 17.1762H10.3471V18.2236H11.5116V17.1762ZM13.3307 17.1762H12.1663V18.2236H13.3307V17.1762ZM11.5116 14.8291H10.3471V13.7817H11.5116V14.8291ZM13.3307 14.8291H12.1663V13.7817H13.3307V14.8291ZM12.1663 15.4789H13.3307V16.5264H12.1663V15.4789ZM10.3471 15.4789H11.5116V16.5264H10.3471V15.4789ZM10.3471 11.016H13.3307V11.4144H10.3471V11.016ZM17.1045 12.8263H15.94V13.8738H17.1045V12.8263ZM18.9236 12.8263H17.7592V13.8738H18.9236V12.8263ZM17.1045 10.4792H15.94V9.43176H17.1045V10.4792ZM18.9236 10.4792H17.7592V9.43176H18.9236V10.4792ZM17.7592 11.129H18.9236V12.1765H17.7592V11.129ZM15.94 11.129H17.1045V12.1765H15.94V11.129ZM14.9627 19.9009V7.84655H19.9009V19.9009H18.6996V16.5246C18.6996 16.2114 18.414 15.9558 18.0638 15.9558H16.7998C16.4496 15.9558 16.164 16.2113 16.164 16.5246V19.9009H14.9627ZM15.94 6.77824H18.9236V7.19677H15.94V6.77824ZM14.308 19.9009H9.36984V12.0642H14.308V19.9009ZM8.97324 4.61128L9.46576 4.12245H8.48072L8.97324 4.61128ZM10.8304 4.6646L10.3379 4.17577L9.84538 4.6646H10.8304ZM13.0292 4.21338L12.5746 4.6646H13.5728L13.0292 4.21338ZM11.7025 4.61128L12.195 4.12245H11.21L11.7025 4.61128ZM6.66794 3.31017H10.8825L6.66794 1.29754V3.31017ZM4.77423 3.31017H5.84954V0.812281H5.45457L4.77423 3.31017ZM5.79581 16.1559L4.43418 14.8045V17.5074L5.79581 16.1559ZM5.84954 12.5874V15.2903L4.48791 13.9389L5.84954 12.5874ZM5.79581 11.7218L4.43418 10.3704V13.0733L5.79581 11.7218ZM5.84954 8.15335V10.8563L4.48791 9.50482L5.84954 8.15335ZM5.79581 7.28778L4.43418 5.93635V8.63926L5.79581 7.28778ZM4.89711 5.47688H5.84954V6.42218L4.89711 5.47688ZM5.75141 4.12245L6.24393 4.61128L6.73645 4.12245H5.75141ZM5.37183 4.6646L4.87931 4.17577L4.38679 4.6646H5.37183ZM3.56172 4.56453L4.00713 4.12245H3.25727L3.56172 4.56453ZM2.84107 3.31017V3.22731C2.84107 3.15884 2.81222 3.0967 2.76598 3.05235L4.34096 1.7923L3.9275 3.31017H2.84107ZM4.48787 18.3729L5.84949 17.0215V18.3729H4.48787ZM2.75583 18.3729H3.61577V5.47688H2.84107V5.55974C2.84107 5.69376 2.73058 5.80342 2.59554 5.80342H0.245523C0.110485 5.80342 0 5.69376 0 5.55974V3.22727C0 3.09325 0.110485 2.98359 0.245523 2.98359H1.81126L4.63093 0.727763L4.74706 0.301397C4.79592 0.119974 4.96124 0.000324922 5.1419 0.00040615L6.25874 0C6.48474 0 6.66794 0.181829 6.66794 0.40614V0.579359L12.3865 3.31017H13.0672C13.1755 3.31017 13.274 3.352 13.3472 3.42019L14.961 4.75976C15.2552 5.00414 15.0756 5.47595 14.6988 5.47615L13.3318 5.47688V7.02651H13.8638C13.9538 7.02651 14.0275 7.09962 14.0275 7.18897V8.89476C14.0275 8.98411 13.9538 9.05721 13.8638 9.05721H12.1451C12.0551 9.05721 11.9815 8.98411 11.9815 8.89476V7.18897C11.9815 7.09962 12.0551 7.02651 12.1451 7.02651H12.6771V5.47688H6.66794V18.3729H7.52789C7.61791 18.3729 7.69157 18.446 7.69157 18.5354V19.7384C7.69157 19.8278 7.61791 19.9009 7.52789 19.9009H2.75583C2.6658 19.9009 2.59215 19.8278 2.59215 19.7384V18.5354C2.59215 18.446 2.66576 18.3729 2.75583 18.3729Z" fill="white"/>
</svg>
