<svg width="15" height="15" viewBox="0 0 15 15" fill="none" xmlns="http://www.w3.org/2000/svg">
<path fill-rule="evenodd" clip-rule="evenodd" d="M5.75418 0.25C2.71672 0.25 0.25 2.71672 0.25 5.75418C0.25 8.79165 2.71672 11.2584 5.75418 11.2584C8.79165 11.2584 11.2584 8.79165 11.2584 5.75418C11.2584 2.71672 8.79165 0.25 5.75418 0.25ZM5.75418 1.0968C8.32506 1.0968 10.4116 3.18331 10.4116 5.75418C10.4116 8.32506 8.32506 10.4116 5.75418 10.4116C3.18331 10.4116 1.0968 8.32506 1.0968 5.75418C1.0968 3.18331 3.18331 1.0968 5.75418 1.0968Z" fill="white" stroke="white" stroke-width="0.5"/>
<path fill-rule="evenodd" clip-rule="evenodd" d="M14.5231 13.9222L9.64636 9.04633C9.48123 8.8812 9.2128 8.8812 9.04767 9.04633C8.88255 9.21145 8.88255 9.47989 9.04767 9.64502L13.9235 14.5217C14.0895 14.6868 14.3571 14.6868 14.5231 14.5217C14.6882 14.3558 14.6882 14.0882 14.5231 13.9222Z" fill="white" stroke="white" stroke-width="0.5"/>
</svg>
