<svg width="20" height="20" viewBox="0 0 20 20" fill="none" xmlns="http://www.w3.org/2000/svg">
<path d="M12.7935 17.0473C12.4324 17.1923 12.0593 17.3138 11.6733 17.4027L11.517 19.4397C11.4971 19.6998 11.2796 19.901 11.0187 19.901H8.88151C8.62067 19.901 8.40389 19.6998 8.38399 19.4404L8.22763 17.4034C7.39036 17.2108 6.60783 16.8803 5.90063 16.4375L4.34765 17.7687C4.14935 17.9386 3.85439 17.9272 3.66959 17.7424L2.15854 16.2314C1.97375 16.0466 1.96309 15.7516 2.13225 15.5533L3.46348 14.0003C3.02139 13.2931 2.69089 12.5106 2.49757 11.6733L0.460565 11.517C0.201142 11.4971 0 11.2796 0 11.0187V8.88151C0 8.62067 0.201142 8.40389 0.460565 8.38399L2.49757 8.22763C2.69018 7.39036 3.02068 6.60783 3.46348 5.90063L2.13296 4.34765C1.96309 4.15006 1.97446 3.85439 2.15854 3.67031L3.66959 2.15925C3.85368 1.97517 4.14935 1.9638 4.34765 2.13296L5.90063 3.46419C6.60783 3.0221 7.39036 2.6916 8.22763 2.49828L8.38399 0.461276C8.40389 0.201142 8.62138 0 8.88222 0H11.0194C11.2803 0 11.4971 0.201142 11.517 0.460565L11.5262 0.57926C10.9747 1.42576 10.6612 2.42365 10.6612 3.47911C10.6612 4.33343 10.8631 5.15222 11.232 5.88287C10.8275 5.75493 10.3968 5.68599 9.95048 5.68599C7.59506 5.68599 5.68599 7.59506 5.68599 9.95048C5.68599 12.3059 7.59506 14.215 9.95048 14.215C11.0443 14.215 12.0387 13.7999 12.7935 13.1226V17.0473Z" fill="white"/>
<path d="M17.768 6.95757V18.1241C17.768 19.1057 16.9727 19.901 15.9911 19.901C15.0096 19.901 14.2143 19.1057 14.2143 18.1241V6.95757C12.9491 6.31008 12.082 4.99732 12.082 3.47845C12.082 2.01076 12.8923 0.734254 14.0892 0.0661503C14.1439 0.0362989 14.2143 0.0789438 14.2143 0.14149V4.26454L15.9911 4.97529L17.768 4.26454V0.14149C17.768 0.0789438 17.8384 0.036299 17.8931 0.0668612C19.09 0.734965 19.9003 2.01076 19.9003 3.47917C19.9003 4.99732 19.0332 6.31079 17.768 6.95757Z" fill="white"/>
</svg>
